<?xml version="1.0" encoding="utf-8"?>
<!-- Generator: Adobe Illustrator 19.2.0, SVG Export Plug-In . SVG Version: 6.00 Build 0)  -->
<svg version="1.1" id="Layer_1" xmlns="http://www.w3.org/2000/svg" xmlns:xlink="http://www.w3.org/1999/xlink" x="0px" y="0px"
	 viewBox="0 0 239.7 44" style="enable-background:new 0 0 239.7 44;" xml:space="preserve">
<style type="text/css">
	.st0{fill:#E2231A;}
	.st1{fill:#7F8083;}
	.st2{fill-rule:evenodd;clip-rule:evenodd;fill:#FFFFFF;}
</style>
<g>
	<rect x="4" y="33.4" class="st0" width="198.9" height="3.2"/>
	<g>
		<g>
			<g>
				<g>
					<path class="st1" d="M211,37c-0.4,0.5-1.1,0.8-1.7,0.8c-1.5,0-2.5-1.3-2.5-2.6c0-1.5,0.8-2.8,2.5-2.8c1.1,0,2,0.5,2.2,1.7h-0.7
						c-0.1-0.8-0.8-1.1-1.5-1.1c-1.3,0-1.8,1.1-1.8,2.2c0,1.1,0.6,2.1,1.8,2.1c1.1,0,1.7-0.7,1.7-1.7h-1.7v-0.6h2.3v2.7h-0.4L211,37
						z"/>
				</g>
			</g>
			<g>
				<g>
					<path class="st1" d="M213.5,32.5h2.4c1,0,1.6,0.5,1.6,1.4c0,0.6-0.3,1.1-0.9,1.3v0c0.6,0.1,0.7,0.6,0.8,1.1
						c0,0.5,0,1.1,0.3,1.4h-0.8c-0.2-0.2-0.1-0.8-0.2-1.3c-0.1-0.5-0.2-0.9-0.9-0.9h-1.7v2.2h-0.7V32.5z M215.6,34.8
						c0.6,0,1.2-0.2,1.2-0.9c0-0.5-0.3-0.9-0.9-0.9h-1.7v1.8H215.6z"/>
				</g>
			</g>
			<g>
				<g>
					<path class="st1" d="M221.5,32.3c1.6,0,2.5,1.3,2.5,2.7c0,1.4-0.8,2.7-2.5,2.7c-1.6,0-2.5-1.3-2.5-2.7
						C219,33.6,219.9,32.3,221.5,32.3z M221.5,37.2c1.3,0,1.8-1.1,1.8-2.1c0-1-0.5-2.1-1.8-2.1c-1.3,0-1.8,1.1-1.8,2.1
						C219.7,36.1,220.3,37.2,221.5,37.2z"/>
				</g>
			</g>
			<g>
				<g>
					<path class="st1" d="M229.8,35.8c0,1.3-0.7,2-2,2c-1.3,0-2.1-0.6-2.1-2v-3.3h0.7v3.3c0,0.9,0.5,1.4,1.4,1.4
						c0.9,0,1.3-0.5,1.3-1.4v-3.3h0.7V35.8z"/>
				</g>
			</g>
			<g>
				<g>
					<path class="st1" d="M231.8,32.5h2.3c1,0,1.6,0.6,1.6,1.5c0,1-0.6,1.5-1.6,1.5h-1.6v2.1h-0.7V32.5z M232.5,34.9h1.3
						c0.8,0,1.1-0.3,1.1-0.9c0-0.6-0.4-1-1.1-1h-1.3V34.9z"/>
				</g>
			</g>
		</g>
	</g>
	<g>
		<g>
			<path class="st0" d="M150.4,29.1c-6.5,0-11.7-5.3-11.7-11.7c0-6.5,5.3-11.7,11.7-11.7c6.5,0,11.7,5.3,11.7,11.7
				C162.1,23.9,156.8,29.1,150.4,29.1L150.4,29.1z"/>
			<g>
				<path class="st2" d="M152.2,5.8c2.4,0.2,4.2,1.3,5.5,2.6c1.3,1.3,2.3,3.1,2.5,5.5c0,0.3,0,0.8,0,1.3c-0.3,2.4-1.3,4.1-2.6,5.4
					c-1.3,1.3-3.2,2.2-5.5,2.4c-0.3,0-0.6,0-1,0c-1.2-0.2-2.2-0.6-2.9-1.3c-0.7-0.7-1.2-1.7-1.1-3c0-2.2,1.5-3.4,3.1-4
					c0.9-0.3,1.8-0.5,2.6-0.9c1.6-0.7,3.1-1.7,3-4c0-1-0.5-1.9-1-2.5C153.9,6.3,152,5.8,152.2,5.8z"/>
			</g>
		</g>
		<path d="M4,6.7h10.1c3.7-0.1,7.8,0.9,7.8,5.1c0,1.8-1.1,3.3-2.8,4.1c2.3,0.6,3.7,2.5,3.7,4.8c0,4.8-3.8,6.3-8.4,6.3H4V6.7z
			 M9.6,14.7H14c1,0,2.3-0.5,2.3-1.9c0-1.5-1.1-2-2.3-2H9.6V14.7z M9.6,22.7h4.5c1.8,0,3-0.6,3-2.3c0-1.8-1.3-2.4-3-2.4H9.6V22.7z"
			/>
		<path d="M25.4,6.7h17.2v4.2H31.1v3.5h10.6v4.1H31.1v3.9h11.9V27H25.4V6.7z"/>
		<path d="M55.4,6.7h10.2c4,0,7.8,1.7,7.8,6.5c0,5-3.1,7-7.8,7H61V27h-5.6V6.7z M61,16.1h3.8c1.8,0,3-0.7,3-2.5c0-1.9-1.3-2.7-3-2.7
			H61V16.1z"/>
		<path d="M76.1,6.7h17.2v4.2H81.7v3.5h10.6v4.1H81.7v3.9h11.9V27H76.1V6.7z"/>
		<path d="M114.8,11.2h-6.4V27h-5.6V11.2h-6.4V6.7h18.5V11.2z"/>
		<path d="M117.8,6.7h11c3.8,0,7.6,1.6,7.6,5.7c0,2.2-1.1,4.3-3.4,5.1v0.1c2.3,0.5,3,2.9,3.1,4.9c0.1,0.9,0.2,3.8,0.9,4.6h-5.6
			c-0.5-0.7-0.6-2.7-0.6-3.2c-0.2-2-0.5-4.1-3.1-4.1h-4.3V27h-5.6V6.7z M123.5,15.5h4.7c1.7,0,2.6-0.9,2.6-2.4
			c0-1.5-1.3-2.2-2.8-2.2h-4.5V15.5z"/>
		<path d="M181.2,11.2h-6.4V27h-5.6V11.2h-6.4V6.7h18.5V11.2z"/>
		<path d="M184.3,6.7h5.6v7.4h7.4V6.7h5.6V27h-5.6v-8.3H190V27h-5.6V6.7z"/>
		<path d="M213.6,6.7h5.7l8.1,20.3h-5.9l-1.3-3.6h-7.5l-1.4,3.6h-5.8L213.6,6.7z M214,19.4h4.9l-2.4-7.1h-0.1L214,19.4z"/>
		<path d="M230,6.7h5.6V27H230V6.7z"/>
	</g>
</g>
</svg>
