<svg xmlns="http://www.w3.org/2000/svg">
<defs>
<font id="DBHelvethaicaX-65Med" horiz-adv-x="0" >
  <font-face 
    font-family="DB Helvethaica X 65 Med"
    font-weight="500"
    font-stretch="normal"
    units-per-em="2048"
    panose-1="2 0 5 6 9 0 0 2 0 4"
    ascent="1638"
    descent="-410"
    x-height="1061"
    cap-height="1460"
    bbox="-1580 -978.003 2558 2391"
    underline-thickness="41"
    underline-position="-393"
    unicode-range="U+000D-U+F882"
  />
<missing-glyph horiz-adv-x="839" 
d="M63 3l0.000976562 280c0 31.333 6 59.166 18 83.499s28.333 44.833 49 61.5s43.667 29.334 69 38.001s51.5 13 78.5 13s53.167 -3.83301 78.5 -11.5s47.5 -19.334 66.5 -35.001s34.167 -35.167 45.5 -58.5s17 -51.666 17 -84.999v-235h222v413h55v-464h-388v51h60v242
c0 21.333 -4.16699 40.166 -12.5 56.499s-19.333 29.333 -33 39s-29.834 17.167 -48.501 22.5s-38.667 8 -60 8s-41.5 -3 -60.5 -9s-36 -14.5 -51 -25.5s-26.833 -24.833 -35.5 -41.5s-13 -35.667 -13 -57v-215l119 120c-2.66699 0 -6.66699 1.66699 -12 5
s-10.5 7.5 -15.5 12.5s-9.16699 11.333 -12.5 19s-5 16.5 -5 26.5c0 25.333 7.5 45.333 22.5 60s35.167 22 60.5 22c12 0 22.833 -2.16699 32.5 -6.5s18.167 -10.166 25.5 -17.499s13.166 -16 17.499 -26s6.5 -20.667 6.5 -32c0 -8.66699 -1.5 -16.667 -4.5 -24
s-6.16699 -14 -9.5 -20s-7.16602 -10.333 -11.499 -13s-7.83301 -4.66699 -10.5 -6c-1.33301 -2.66699 -4.83301 -7 -10.5 -13s-13.5 -13.333 -23.5 -22s-20.333 -19 -31 -31l-33 -35c-16 -13.333 -32 -27.5 -48 -42.5l-49 -47.5h-65zM82.001 578
c6 29.333 17.6641 57.6689 34.9971 85.002s39.833 51.666 67.5 72.999s59.834 38 96.501 50s76.334 18 119.001 18c42 0 79.833 -4.5 113.5 -13.5s63.334 -20.833 89.001 -35.5s47 -29.834 64 -45.501s30.5 -30.167 40.5 -43.5v138h55v-290
c-68 19.333 -143.667 36.333 -227 51c-84 14.667 -171.667 22 -263 22c-64.667 0 -128 -3 -190 -9zM165.998 637.003c24.667 1.33301 49.3311 2.49902 73.998 3.49902s49.334 1.5 74.001 1.5h92c13.333 -2 28.833 -3.83301 46.5 -5.5s36.167 -4 55.5 -7l60 -9.5

<glyph glyph-name="plusminus" unicode="&#x2b;&#x2d;" horiz-adv-x="1224" 
d="M76 188h1072v-188h-1071zM76 796h442v337h189v-337h439l2 -189h-440v-338h-188v338h-443z" />
    <glyph glyph-name="ellipsis" unicode="&#x2e;&#x2e;&#x2e;" horiz-adv-x="2026" 
d="M191 -3l2 286h287l-1 -286h-288zM864 -3l3 286h286l-3 -286h-286zM1539 -3l3 286h287l-1 -286h-289z" />
    <glyph glyph-name="lessequal" unicode="&#x3c;&#x3d;" horiz-adv-x="1303" 
d="M108 180h1082l3 -180h-1082zM108 745v163l1083 488v-193l-829 -378l829 -374v-191z" />
    <glyph glyph-name="greaterequal" unicode="&#x3e;&#x3d;" horiz-adv-x="1303" 
d="M108 180h1082l3 -180h-1082zM108 260l3 191l826 374l-829 378l2 193l1081 -488l-1 -163z" />
    <glyph glyph-name="fongmanfunnuthai" unicode="&#xe4f;&#x22;" horiz-adv-x="1515" 
d="M107 610c0 59.333 7.49902 116.5 22.499 171.5s36.667 106.167 65 153.5s62.333 90.666 102 129.999s83.334 72.666 131.001 99.999s99.334 48.833 155.001 64.5s113.5 23.5 173.5 23.5c58.667 0 115.167 -7.83301 169.5 -23.5s105.166 -37.167 152.499 -64.5
s90.5 -60.666 129.5 -99.999s72.333 -82.666 100 -129.999s49.167 -98.333 64.5 -153c16 -55.333 24 -112.666 24 -171.999s-7.83301 -116.5 -23.5 -171.5s-37.334 -106.333 -65.001 -154s-61.167 -91 -100.5 -130s-82.666 -72.333 -129.999 -100
s-98.333 -48.834 -153 -63.501c-55.333 -15.333 -112.333 -23 -171 -23c-60 0 -117.333 7.5 -172 22.5s-106 36.333 -154 64s-91.667 61 -131 100s-73 82.333 -101 130s-49.667 99 -65 154s-23 112.167 -23 171.5zM282.999 616c0 -64 12.502 -124.499 37.502 -181.499
s58.667 -106.667 101 -149s92.166 -76.166 149.499 -101.499s118.666 -38 183.999 -38c42.667 0 83.667 5.83301 123 17.5s76.166 27.667 110.499 48s65.5 44.666 93.5 72.999s52 60 72 95s35.667 72.5 47 112.5s17 81.333 17 124s-5.33301 84 -16 124
s-26.334 77 -47.001 111s-45 65.167 -73 93.5s-59.333 52.5 -94 72.5s-71.667 35.5 -111 46.5s-80.666 16.5 -123.999 16.5c-66 0 -127.167 -12.167 -183.5 -36.5s-105.666 -57.333 -147.999 -99s-76 -90.834 -101 -147.501s-37.5 -117 -37.5 -181zM409.001 616.001
c0 46 9.16895 89.333 27.502 130s43.166 76.334 74.499 107.001s67.833 55.334 109.5 74.001s85.834 28 132.501 28c46 0 89.167 -9.33301 129.5 -28s75.833 -43.334 106.5 -74.001s55 -66.334 73 -107.001s27 -84 27 -130c0 -46.667 -8.66699 -91 -26 -133
s-41.333 -78.333 -72 -109s-66.334 -55 -107.001 -73s-84.334 -27 -131.001 -27s-90.834 9 -132.501 27s-78.167 42.333 -109.5 73s-56.166 67 -74.499 109s-27.5 86.333 -27.5 133zM495.003 1764h197l-25 -335h-153zM568.003 616.001c0 -26 4.83203 -50.499 14.499 -73.499
s22.5 -42.833 38.5 -59.5s35.667 -29.334 59 -38.001c21.333 -9.33301 45.666 -14 72.999 -14c25.333 0 48.833 4.5 70.5 13.5s40.5 21.833 56.5 38.5s28.5 36.5 37.5 59.5s13.167 47.5 12.5 73.5c0 25.333 -4.66699 48.666 -14 69.999s-21.666 40.333 -36.999 57
s-33.833 29.667 -55.5 39s-44.5 14 -68.5 14c-27.333 0 -52.5 -4.66699 -75.5 -14s-42.667 -22.333 -59 -39s-29.166 -35.667 -38.499 -57s-14 -44.666 -14 -69.999zM821.002 1764h201l-23 -335h-155z" />
    <glyph glyph-name="dochadaphinthuthai" unicode="&#xe0e;&#xe3a;" horiz-adv-x="1341" 
d="M64 200l120 -0.00292969v463c0 16.667 -1.5 33.5 -4.5 50.5s-8.16699 33.667 -15.5 50s-17.5 31.833 -30.5 46.5s-30.167 28 -51.5 40c7.33301 32.667 18.333 65.167 33 97.5s33.167 63.5 55.5 93.5s49.166 58 80.499 84s67.166 48.5 107.499 67.5
s85.5 33.833 135.5 44.5s105.333 16 166 16c72 0 136.167 -6.66699 192.5 -20s105.5 -31.833 147.5 -55.5s77.5 -51.667 106.5 -84s52.333 -67.5 70 -105.5s30.334 -78.167 38.001 -120.5s11.5 -85.166 11.5 -128.499l3 -1161h-239c-12 17.333 -26.167 34.5 -42.5 51.5
s-36.166 31.833 -59.499 44.5s-51.166 23 -83.499 31s-70.166 12 -113.499 12c-35.333 0 -68.5 -4 -99.5 -12s-61 -19.167 -90 -33.5s-56.5 -32.5 -82.5 -54.5c-26 -23.333 -51.667 -48.333 -77 -75l1 236c17.333 19.333 38.5 37.333 63.5 54s52.5 31.334 82.5 44.001
s62.167 22.334 96.5 29.001s70.5 10 108.5 10c34.667 0 66.667 -2.33301 96 -7s55.833 -10.667 79.5 -18s44.5 -15.333 62.5 -24c18 -8 33.333 -16 46 -24v917c0 35.333 -5.33301 69.5 -16 102.5s-28.334 63.167 -53.001 90.5s-57.334 49.166 -98.001 65.499
s-91 25.166 -151 26.499c-50.667 0 -94.667 -5.66699 -132 -17s-69 -25.666 -95 -42.999s-46.5 -36 -61.5 -56s-24.5 -38.333 -28.5 -55c12 -11.333 23.333 -24.666 34 -39.999s19.667 -32 27 -50s13 -37.333 17 -58c3.33301 -22 5 -43.667 5 -65l5 -660h-365zM934 -670.003
c0 23.333 4.50293 45 13.5029 65s21 37.667 36 53s32.667 27.5 53 36.5s42.166 13.5 65.499 13.5c22.667 0 43.667 -4.5 63 -13.5s36.666 -21.167 51.999 -36.5s27.333 -33 36 -53c9.33301 -20 14 -41.667 14 -65c0 -22.667 -4.33301 -44 -13 -64
s-20.834 -37.5 -36.501 -52.5s-33.5 -26.833 -53.5 -35.5s-41 -13 -63 -13c-23.333 0 -45 4.33301 -65 13s-37.5 20.5 -52.5 35.5s-27 32.5 -36 52.5s-13.5 41.333 -13.5 64z" />
    <glyph glyph-name="topatakphintuthai" unicode="&#xe0f;&#xe3a;" horiz-adv-x="1341" 
d="M64 200l120 -0.000976562v463c0 16.667 -1.5 33.5 -4.5 50.5s-8.16699 33.667 -15.5 50s-17.5 31.833 -30.5 46.5s-30.167 28 -51.5 40c7.33301 32.667 18.333 65.167 33 97.5s33.167 63.5 55.5 93.5s49.166 58 80.499 84s67.166 48.5 107.499 67.5
s85.5 33.833 135.5 44.5s105.333 16 166 16c72 0 136.167 -6.66699 192.5 -20s105.5 -31.833 147.5 -55.5s77.5 -51.667 106.5 -84s52.333 -67.5 70 -105.5s30.334 -78.167 38.001 -120.5s11.5 -85.166 11.5 -128.499l3 -1161h-245
c-2.66699 13.333 -7.5 28.666 -14.5 45.999s-16 33.166 -27 47.499s-23.833 26.5 -38.5 36.5s-32.667 15 -54 15c-19.333 0 -36.333 -5 -51 -15s-27.167 -22 -37.5 -36s-17.666 -29.5 -21.999 -46.5s-6.5 -32.833 -6.5 -47.5h-207c0 10.667 -1.5 24.334 -4.5 41.001
s-8.83301 32.667 -17.5 48s-20.334 29 -35.001 41s-32.667 18 -54 18c-18 0 -33.333 -4.66699 -46 -14s-23 -21.166 -31 -35.499s-13.833 -30.166 -17.5 -47.499s-5.5 -34.333 -5.5 -51h-195c0 58.667 7.66699 109.167 23 151.5s36.5 77 63.5 104s56.833 46.833 89.5 59.5
s65.334 19 98.001 19c48.667 0 91.834 -9.66699 129.501 -29s68.5 -47 92.5 -83c14 17.333 29.5 32.666 46.5 45.999s34.5 24.333 52.5 33s36.167 15 54.5 19s35.5 6 51.5 6c36 0 66.833 -5.33301 92.5 -16s47.834 -24 66.501 -40l-2 911c0 35.333 -5.33301 69.5 -16 102.5
s-28.334 63.167 -53.001 90.5s-57.334 49.166 -98.001 65.499s-91 25.166 -151 26.499c-50.667 0 -94.667 -5.66699 -132 -17s-69 -25.666 -95 -42.999s-46.5 -36 -61.5 -56s-24.5 -38.333 -28.5 -55c12 -11.333 23.333 -24.666 34 -39.999s19.667 -32 27 -50
s13 -37.333 17 -58c3.33301 -22 5 -43.667 5 -65l5 -660h-365zM934 -670.001c0 23.333 4.50293 45 13.5029 65s21 37.667 36 53s32.667 27.5 53 36.5s42.166 13.5 65.499 13.5c22.667 0 43.667 -4.5 63 -13.5s36.666 -21.167 51.999 -36.5s27.333 -33 36 -53
c9.33301 -20 14 -41.667 14 -65c0 -22.667 -4.33301 -44 -13 -64s-20.834 -37.5 -36.501 -52.5s-33.5 -26.833 -53.5 -35.5s-41 -13 -63 -13c-23.333 0 -45 4.33301 -65 13s-37.5 20.5 -52.5 35.5s-27 32.5 -36 52.5s-13.5 41.333 -13.5 64z" />
    <glyph glyph-name="dochadasarauthai" unicode="&#xe0e;&#xe38;" horiz-adv-x="1341" 
d="M64 200l120 -0.00292969v463c0 16.667 -1.5 33.5 -4.5 50.5s-8.16699 33.667 -15.5 50s-17.5 31.833 -30.5 46.5s-30.167 28 -51.5 40c7.33301 32.667 18.333 65.167 33 97.5s33.167 63.5 55.5 93.5s49.166 58 80.499 84s67.166 48.5 107.499 67.5
s85.5 33.833 135.5 44.5s105.333 16 166 16c72 0 136.167 -6.66699 192.5 -20s105.5 -31.833 147.5 -55.5s77.5 -51.667 106.5 -84s52.333 -67.5 70 -105.5s30.334 -78.167 38.001 -120.5s11.5 -85.166 11.5 -128.499l3 -1161h-239c-12 17.333 -26.167 34.5 -42.5 51.5
s-36.166 31.833 -59.499 44.5s-51.166 23 -83.499 31s-70.166 12 -113.499 12c-35.333 0 -68.5 -4 -99.5 -12s-61 -19.167 -90 -33.5s-56.5 -32.5 -82.5 -54.5c-26 -23.333 -51.667 -48.333 -77 -75l1 236c17.333 19.333 38.5 37.333 63.5 54s52.5 31.334 82.5 44.001
s62.167 22.334 96.5 29.001s70.5 10 108.5 10c34.667 0 66.667 -2.33301 96 -7s55.833 -10.667 79.5 -18s44.5 -15.333 62.5 -24c18 -8 33.333 -16 46 -24v917c0 35.333 -5.33301 69.5 -16 102.5s-28.334 63.167 -53.001 90.5s-57.334 49.166 -98.001 65.499
s-91 25.166 -151 26.499c-50.667 0 -94.667 -5.66699 -132 -17s-69 -25.666 -95 -42.999s-46.5 -36 -61.5 -56s-24.5 -38.333 -28.5 -55c12 -11.333 23.333 -24.666 34 -39.999s19.667 -32 27 -50s13 -37.333 17 -58c3.33301 -22 5 -43.667 5 -65l5 -660h-365zM889 -499.003
h337v-459h-230l3 270h-108z" />
    <glyph glyph-name="topataksarauthai" unicode="&#xe0f;&#xe38;" horiz-adv-x="1341" 
d="M64 200l120 -0.000976562v463c0 16.667 -1.5 33.5 -4.5 50.5s-8.16699 33.667 -15.5 50s-17.5 31.833 -30.5 46.5s-30.167 28 -51.5 40c7.33301 32.667 18.333 65.167 33 97.5s33.167 63.5 55.5 93.5s49.166 58 80.499 84s67.166 48.5 107.499 67.5
s85.5 33.833 135.5 44.5s105.333 16 166 16c72 0 136.167 -6.66699 192.5 -20s105.5 -31.833 147.5 -55.5s77.5 -51.667 106.5 -84s52.333 -67.5 70 -105.5s30.334 -78.167 38.001 -120.5s11.5 -85.166 11.5 -128.499l3 -1161h-245
c-2.66699 13.333 -7.5 28.666 -14.5 45.999s-16 33.166 -27 47.499s-23.833 26.5 -38.5 36.5s-32.667 15 -54 15c-19.333 0 -36.333 -5 -51 -15s-27.167 -22 -37.5 -36s-17.666 -29.5 -21.999 -46.5s-6.5 -32.833 -6.5 -47.5h-207c0 10.667 -1.5 24.334 -4.5 41.001
s-8.83301 32.667 -17.5 48s-20.334 29 -35.001 41s-32.667 18 -54 18c-18 0 -33.333 -4.66699 -46 -14s-23 -21.166 -31 -35.499s-13.833 -30.166 -17.5 -47.499s-5.5 -34.333 -5.5 -51h-195c0 58.667 7.66699 109.167 23 151.5s36.5 77 63.5 104s56.833 46.833 89.5 59.5
s65.334 19 98.001 19c48.667 0 91.834 -9.66699 129.501 -29s68.5 -47 92.5 -83c14 17.333 29.5 32.666 46.5 45.999s34.5 24.333 52.5 33s36.167 15 54.5 19s35.5 6 51.5 6c36 0 66.833 -5.33301 92.5 -16s47.834 -24 66.501 -40l-2 911c0 35.333 -5.33301 69.5 -16 102.5
s-28.334 63.167 -53.001 90.5s-57.334 49.166 -98.001 65.499s-91 25.166 -151 26.499c-50.667 0 -94.667 -5.66699 -132 -17s-69 -25.666 -95 -42.999s-46.5 -36 -61.5 -56s-24.5 -38.333 -28.5 -55c12 -11.333 23.333 -24.666 34 -39.999s19.667 -32 27 -50
s13 -37.333 17 -58c3.33301 -22 5 -43.667 5 -65l5 -660h-365zM889 -499.001h337v-459h-230l3 270h-108z" />
    <glyph glyph-name="dochadasarauuthai" unicode="&#xe0e;&#xe39;" horiz-adv-x="1341" 
d="M64 200l120 -0.00292969v463c0 16.667 -1.5 33.5 -4.5 50.5s-8.16699 33.667 -15.5 50s-17.5 31.833 -30.5 46.5s-30.167 28 -51.5 40c7.33301 32.667 18.333 65.167 33 97.5s33.167 63.5 55.5 93.5s49.166 58 80.499 84s67.166 48.5 107.499 67.5
s85.5 33.833 135.5 44.5s105.333 16 166 16c72 0 136.167 -6.66699 192.5 -20s105.5 -31.833 147.5 -55.5s77.5 -51.667 106.5 -84s52.333 -67.5 70 -105.5s30.334 -78.167 38.001 -120.5s11.5 -85.166 11.5 -128.499l3 -1161h-239c-12 17.333 -26.167 34.5 -42.5 51.5
s-36.166 31.833 -59.499 44.5s-51.166 23 -83.499 31s-70.166 12 -113.499 12c-35.333 0 -68.5 -4 -99.5 -12s-61 -19.167 -90 -33.5s-56.5 -32.5 -82.5 -54.5c-26 -23.333 -51.667 -48.333 -77 -75l1 236c17.333 19.333 38.5 37.333 63.5 54s52.5 31.334 82.5 44.001
s62.167 22.334 96.5 29.001s70.5 10 108.5 10c34.667 0 66.667 -2.33301 96 -7s55.833 -10.667 79.5 -18s44.5 -15.333 62.5 -24c18 -8 33.333 -16 46 -24v917c0 35.333 -5.33301 69.5 -16 102.5s-28.334 63.167 -53.001 90.5s-57.334 49.166 -98.001 65.499
s-91 25.166 -151 26.499c-50.667 0 -94.667 -5.66699 -132 -17s-69 -25.666 -95 -42.999s-46.5 -36 -61.5 -56s-24.5 -38.333 -28.5 -55c12 -11.333 23.333 -24.666 34 -39.999s19.667 -32 27 -50s13 -37.333 17 -58c3.33301 -22 5 -43.667 5 -65l5 -660h-365zM453 -499.003
l340.999 -0.000976562v-167c0 -38.667 8.33301 -68.167 25 -88.5s42.334 -30.5 77.001 -30.5c33.333 0 58.666 9.66699 75.999 29c18 21.333 26 51.333 24 90l1 167h229v-167c0 -42.667 -5.83301 -83 -17.5 -121s-30.334 -71.167 -56.001 -99.5
s-59.667 -50.666 -102 -66.999s-94.166 -24.5 -155.499 -24.5c-57.333 0 -106.666 7 -147.999 21s-75.5 33.667 -102.5 59s-47.167 55.833 -60.5 91.5s-21 75.167 -23 118.5h-107z" />
    <glyph glyph-name="topataksarauuthai" unicode="&#xe0f;&#xe39;" horiz-adv-x="1341" 
d="M64 200l120 -0.000976562v463c0 16.667 -1.5 33.5 -4.5 50.5s-8.16699 33.667 -15.5 50s-17.5 31.833 -30.5 46.5s-30.167 28 -51.5 40c7.33301 32.667 18.333 65.167 33 97.5s33.167 63.5 55.5 93.5s49.166 58 80.499 84s67.166 48.5 107.499 67.5
s85.5 33.833 135.5 44.5s105.333 16 166 16c72 0 136.167 -6.66699 192.5 -20s105.5 -31.833 147.5 -55.5s77.5 -51.667 106.5 -84s52.333 -67.5 70 -105.5s30.334 -78.167 38.001 -120.5s11.5 -85.166 11.5 -128.499l3 -1161h-245
c-2.66699 13.333 -7.5 28.666 -14.5 45.999s-16 33.166 -27 47.499s-23.833 26.5 -38.5 36.5s-32.667 15 -54 15c-19.333 0 -36.333 -5 -51 -15s-27.167 -22 -37.5 -36s-17.666 -29.5 -21.999 -46.5s-6.5 -32.833 -6.5 -47.5h-207c0 10.667 -1.5 24.334 -4.5 41.001
s-8.83301 32.667 -17.5 48s-20.334 29 -35.001 41s-32.667 18 -54 18c-18 0 -33.333 -4.66699 -46 -14s-23 -21.166 -31 -35.499s-13.833 -30.166 -17.5 -47.499s-5.5 -34.333 -5.5 -51h-195c0 58.667 7.66699 109.167 23 151.5s36.5 77 63.5 104s56.833 46.833 89.5 59.5
s65.334 19 98.001 19c48.667 0 91.834 -9.66699 129.501 -29s68.5 -47 92.5 -83c14 17.333 29.5 32.666 46.5 45.999s34.5 24.333 52.5 33s36.167 15 54.5 19s35.5 6 51.5 6c36 0 66.833 -5.33301 92.5 -16s47.834 -24 66.501 -40l-2 911c0 35.333 -5.33301 69.5 -16 102.5
s-28.334 63.167 -53.001 90.5s-57.334 49.166 -98.001 65.499s-91 25.166 -151 26.499c-50.667 0 -94.667 -5.66699 -132 -17s-69 -25.666 -95 -42.999s-46.5 -36 -61.5 -56s-24.5 -38.333 -28.5 -55c12 -11.333 23.333 -24.666 34 -39.999s19.667 -32 27 -50
s13 -37.333 17 -58c3.33301 -22 5 -43.667 5 -65l5 -660h-365zM453 -499.001l340.999 -0.000976562v-167c0 -38.667 8.33301 -68.167 25 -88.5s42.334 -30.5 77.001 -30.5c33.333 0 58.666 9.66699 75.999 29c18 21.333 26 51.333 24 90l1 167h229v-167
c0 -42.667 -5.83301 -83 -17.5 -121s-30.334 -71.167 -56.001 -99.5s-59.667 -50.666 -102 -66.999s-94.166 -24.5 -155.499 -24.5c-57.333 0 -106.666 7 -147.999 21s-75.5 33.667 -102.5 59s-47.167 55.833 -60.5 91.5s-21 75.167 -23 118.5h-107z" />
    <glyph glyph-name=".notdef" horiz-adv-x="839" 
d="M63 3l0.000976562 280c0 31.333 6 59.166 18 83.499s28.333 44.833 49 61.5s43.667 29.334 69 38.001s51.5 13 78.5 13s53.167 -3.83301 78.5 -11.5s47.5 -19.334 66.5 -35.001s34.167 -35.167 45.5 -58.5s17 -51.666 17 -84.999v-235h222v413h55v-464h-388v51h60v242
c0 21.333 -4.16699 40.166 -12.5 56.499s-19.333 29.333 -33 39s-29.834 17.167 -48.501 22.5s-38.667 8 -60 8s-41.5 -3 -60.5 -9s-36 -14.5 -51 -25.5s-26.833 -24.833 -35.5 -41.5s-13 -35.667 -13 -57v-215l119 120c-2.66699 0 -6.66699 1.66699 -12 5
s-10.5 7.5 -15.5 12.5s-9.16699 11.333 -12.5 19s-5 16.5 -5 26.5c0 25.333 7.5 45.333 22.5 60s35.167 22 60.5 22c12 0 22.833 -2.16699 32.5 -6.5s18.167 -10.166 25.5 -17.499s13.166 -16 17.499 -26s6.5 -20.667 6.5 -32c0 -8.66699 -1.5 -16.667 -4.5 -24
s-6.16699 -14 -9.5 -20s-7.16602 -10.333 -11.499 -13s-7.83301 -4.66699 -10.5 -6c-1.33301 -2.66699 -4.83301 -7 -10.5 -13s-13.5 -13.333 -23.5 -22s-20.333 -19 -31 -31l-33 -35c-16 -13.333 -32 -27.5 -48 -42.5l-49 -47.5h-65zM82.001 578
c6 29.333 17.6641 57.6689 34.9971 85.002s39.833 51.666 67.5 72.999s59.834 38 96.501 50s76.334 18 119.001 18c42 0 79.833 -4.5 113.5 -13.5s63.334 -20.833 89.001 -35.5s47 -29.834 64 -45.501s30.5 -30.167 40.5 -43.5v138h55v-290
c-68 19.333 -143.667 36.333 -227 51c-84 14.667 -171.667 22 -263 22c-64.667 0 -128 -3 -190 -9zM165.998 637.003c24.667 1.33301 49.3311 2.49902 73.998 3.49902s49.334 1.5 74.001 1.5h92c13.333 -2 28.833 -3.83301 46.5 -5.5s36.167 -4 55.5 -7l60 -9.5
c20.667 -3.33301 40 -7.16602 58 -11.499s34 -9 48 -14s25 -10.5 33 -16.5c-14 26.667 -32.333 50.167 -55 70.5s-47.5 37.5 -74.5 51.5s-55.5 25 -85.5 33s-59.667 12 -89 12c-23.333 0 -46.166 -2.33301 -68.499 -7s-43.833 -11.5 -64.5 -20.5s-39.667 -20.333 -57 -34
s-33 -29.167 -47 -46.5zM238.995 257.002c0 -19.333 11.667 -29 35 -29c8 0 15.667 2.33301 23 7s11 12 11 22c0 11.333 -3.66699 19.5 -11 24.5s-15 7.5 -23 7.5c-11.333 0 -20 -2.5 -26 -7.5s-9 -13.167 -9 -24.5zM812.995 783.002c0 16 4.66699 29.167 14 39.5
s22.666 15.5 39.999 15.5c16.667 0 29.167 -4.83301 37.5 -14.5s12.5 -23.167 12.5 -40.5c0 -11.333 -4.16699 -21.5 -12.5 -30.5s-20.833 -13.5 -37.5 -13.5c-17.333 0 -30.666 4.83301 -39.999 14.5s-14 19.5 -14 29.5zM818.995 783.002c0 -11.333 3.66699 -20.5 11 -27.5
s19.666 -10.5 36.999 -10.5c8 0 14.833 1.33301 20.5 4s10.5 6 14.5 10s6.5 8 7.5 12s1.5 8 1.5 12c0 16 -3.83301 28.167 -11.5 36.5s-18.5 12.5 -32.5 12.5c-13.333 0 -24.666 -3.83301 -33.999 -11.5s-14 -20.167 -14 -37.5zM846.995 753.002v68.999h20
c8 0 14 -1.5 18 -4.5s6 -7.5 6 -13.5c0 -11.333 -2 -18.166 -6 -20.499s-9 -3.5 -15 -3.5l21 -27h-9l-21 27h-5v-27h-9zM855.995 783.001h11c10 0 15 7 15 21c0 2 -1 3.66699 -3 5c-2.66699 2.66699 -6.66699 4 -12 4h-11v-30z" />
    <glyph glyph-name="uni000D" unicode="&#xd;" horiz-adv-x="576" 
 />
    <glyph glyph-name="space" unicode=" " horiz-adv-x="508" 
 />
    <glyph glyph-name="exclam" unicode="!" horiz-adv-x="756" 
d="M231 277h290l2 -277h-289zM245 1460h263l3 -458l-55 -602h-155l-53 602z" />
    <glyph glyph-name="quotedbl" unicode="&#x22;" horiz-adv-x="893" 
d="M207 927v533h173v-533h-173zM511 927v533h175l-1 -533h-174z" />
    <glyph glyph-name="numbersign" unicode="#" horiz-adv-x="1198" 
d="M73 409l1 198h221l32 246h-201l1 194h228l58 413h197l-58 -413h194l57 413h199l-56 -413h177l-2 -194h-200l-33 -246h175v-198h-206l-55 -409h-203l58 409h-188l-60 -409h-199l56 409h-193zM496 607h190l32 246h-188z" />
    <glyph glyph-name="dollar" unicode="$" horiz-adv-x="1181" 
d="M48 491l242.999 0.000976562c1.33301 -83.333 21.833 -150.166 61.5 -200.499s92.5 -82.5 158.5 -96.5v451c-66 18.667 -125.333 39 -178 61s-97 48.5 -133 79.5s-63.167 68 -81.5 111s-27.5 94.167 -27.5 153.5c0 61.333 11.167 117.5 33.5 168.5s52.5 95.667 90.5 134
s82.333 69.166 133 92.499c50 23.333 104.333 38 163 44v140h177v-140c110.667 -17.333 198.834 -64 264.501 -140s112.167 -179 139.5 -309h-239c-12.667 58 -32.5 105.5 -59.5 142.5s-61.833 62.5 -104.5 76.5l-1 -415c32.667 -6 66.834 -15 102.501 -27
s69.5 -26.5 101.5 -43.5s62.667 -37.333 92 -61s54.666 -50 75.999 -79s38 -61.5 50 -97.5c11.333 -36 17 -75.333 17 -118c0 -62.667 -10.667 -120.334 -32 -173.001s-51.5 -98.334 -90.5 -137.001s-85.167 -70 -138.5 -94c-54 -22.667 -113.333 -37 -178 -43l1 -171h-178
l3 174c-68 8.66699 -129.333 26.334 -184 53.001s-101.667 61.667 -141 105s-71 95 -95 155s-39.333 128 -46 204zM342.999 1070c0 -28 3.66602 -51.501 10.999 -70.501s18 -35.167 32 -48.5s31.5 -24.333 52.5 -33s45.5 -16.667 73.5 -24l2 373
c-25.333 -5.33301 -48.666 -13.5 -69.999 -24.5s-39.333 -24.5 -54 -40.5s-26.167 -35.167 -34.5 -57.5s-12.5 -47.166 -12.5 -74.499zM688.998 185c27.333 4 52.667 11.835 76 23.502s43.5 26.5 60.5 44.5s30.167 39.667 39.5 65s14 53.666 14 84.999
c0 27.333 -4.83301 51.666 -14.5 72.999s-22.834 39.5 -39.501 54.5s-36.667 27.833 -60 38.5c-23.333 12 -48.666 22 -75.999 30v-414z" />
    <glyph glyph-name="percent" unicode="%" horiz-adv-x="2057" 
d="M196 1040c0 36.667 2.33105 72.999 6.99805 108.999s12.834 70 24.501 102s26.334 61.167 44.001 87.5s39.167 49.333 64.5 69s55 34.834 89 45.501s72.333 16 115 16c67.333 0 123.666 -11.5 168.999 -34.5s81.333 -53.667 108 -92s45.667 -83.333 57 -135
s17 -106.167 17 -163.5c0 -37.333 -3 -73.5 -9 -108.5s-14.833 -68.333 -26.5 -100s-26.667 -60.5 -45 -86.5s-40.666 -48.833 -66.999 -68.5s-56.333 -34.834 -90 -45.501s-71.5 -16 -113.5 -16c-62 0 -115 10.667 -159 32s-79.5 51 -106.5 89s-46.833 82.833 -59.5 134.5
s-19 106.834 -19 165.501zM399.998 1044c0 -27.333 1.5 -56.335 4.5 -87.002s9.33301 -58.667 19 -84s23.5 -46.666 41.5 -63.999s42 -26 72 -26c21.333 0 39.666 3.83301 54.999 11.5s28.5 18.334 39.5 32.001s20 29 27 46s12.333 35.167 16 54.5s6 39 7 59
s1.5 39.333 1.5 58c0 26 -1.16699 54.167 -3.5 84.5s-8.33301 58.666 -18 84.999s-24 48 -43 65s-45.167 25.5 -78.5 25.5c-29.333 0 -53.166 -8.5 -71.499 -25.5s-32.333 -38.667 -42 -65s-16.5 -54.666 -20.5 -84.999s-6 -58.5 -6 -84.5zM455.998 -29.0029l902 1518h236
l-896 -1518h-242zM1165 405.997c0 56.667 5.83301 111.168 17.5 163.501s31.334 98.166 59.001 137.499s64.167 71 109.5 95s101.166 36 167.499 36s121.666 -11.5 165.999 -34.5s79.5 -53.667 105.5 -92s44.667 -83.333 56 -135s17 -106.5 17 -164.5
c0 -56 -6.5 -109.5 -19.5 -160.5s-33.5 -96 -61.5 -135s-63.667 -70.167 -107 -93.5s-95.666 -35 -156.999 -35c-64 0 -118.333 11 -163 33s-81.167 52 -109.5 90s-48.833 82.333 -61.5 133s-19 104.667 -19 162zM1372 408.998c0 -25.333 1.49902 -52.8311 4.49902 -82.498
s9.33301 -57.5 19 -83.5s23.834 -47.667 42.501 -65s43.667 -26 75 -26c30.667 0 55.334 8.16699 74.001 24.5s33 37.166 43 62.499s16.833 53.666 20.5 84.999s5.5 60.666 5.5 87.999c0 26 -1.5 54.333 -4.5 85s-9.33301 59.167 -19 85.5s-23.834 48 -42.501 65
s-42.667 25.5 -72 25.5c-21.333 0 -39.5 -4.16699 -54.5 -12.5s-28.167 -19 -39.5 -32s-20.333 -28.5 -27 -46.5s-12 -36.833 -16 -56.5s-6.5 -39.667 -7.5 -60s-1.5 -39.166 -1.5 -56.499z" />
    <glyph glyph-name="ampersand" unicode="&#x26;" horiz-adv-x="1335" 
d="M70 383c0 56 8.33008 105.497 24.9971 148.497s39.334 81 68.001 114s62.667 62.833 102 89.5s81.333 52.667 126 78l-53 71c-17.333 24 -32.666 49.167 -45.999 75.5s-24.166 53.833 -32.499 82.5s-12.5 59 -12.5 91c0 42 7.5 82 22.5 120s37.667 71.333 68 100
s66.833 51.334 109.5 68.001c44.667 17.333 95.334 26 152.001 26c48.667 0 95.834 -6.66699 141.501 -20s86 -33 121 -59s63.167 -58.5 84.5 -97.5s32 -83.833 32 -134.5c0 -42 -7 -81.167 -21 -117.5s-32.667 -70.166 -56 -101.499s-50.333 -59.666 -81 -84.999
s-63.667 -47.666 -99 -66.999l208 -245c9.33301 30 16.666 60.333 21.999 91c4.66699 30.667 9 63.667 13 99h219c-5.33301 -31.333 -9.83301 -59.5 -13.5 -84.5s-7.5 -47.333 -11.5 -67s-8.16699 -38.334 -12.5 -56.001s-9.16602 -34.5 -14.499 -50.5
s-11.666 -32.5 -18.999 -49.5s-16 -35.5 -26 -55.5l313 -347h-298l-139 155c-24 -30 -51.667 -56 -83 -78s-65 -40.5 -101 -55.5s-73.5 -26.167 -112.5 -33.5s-77.833 -11 -116.5 -11c-70 0 -130.333 7.16699 -181 21.5s-93.834 33.333 -129.501 57
s-64.334 50.5 -86.001 80.5s-38.834 60.167 -51.501 90.5s-21 59 -25 86s-6 50.5 -6 70.5zM306.997 384.997c0 -32 6.99805 -60.835 20.998 -86.502s32.5 -47.5 55.5 -65.5s49.167 -32 78.5 -42c30.667 -9.33301 61.667 -14 93 -14c57.333 0 108.833 11.667 154.5 35
s85.167 56.333 118.5 99l-155 178l-150 174c-29.333 -17.333 -57.166 -34.833 -83.499 -52.5s-49.166 -37.667 -68.499 -60s-34.833 -46.666 -46.5 -72.999s-17.5 -57.166 -17.5 -92.499zM473.995 1127c0 -16.667 3.16699 -33.501 9.5 -50.501s15 -34.167 26 -51.5
s23.5 -35 37.5 -53c12.667 -19.333 27 -37.666 43 -54.999l55.5 40c19.667 14 37.167 29.333 52.5 46s28.333 35 39 55c10.667 20.667 16 43.667 16 69c0 16.667 -3.66699 32.5 -11 47.5s-17 27.833 -29 38.5s-26.833 19.5 -44.5 26.5s-37.167 10.5 -58.5 10.5
c-17.333 0 -34 -2.5 -50 -7.5s-30.333 -12.667 -43 -23s-23 -23 -31 -38s-12 -33.167 -12 -54.5z" />
    <glyph glyph-name="quotesingle" unicode="'" horiz-adv-x="591" 
d="M207 927v533h173v-533h-173z" />
    <glyph glyph-name="parenleft" unicode="(" horiz-adv-x="585" 
d="M89 550c0 82 6.49902 164.168 19.499 246.501s33.167 163.333 60.5 243s61 158 101 235s87.333 150.5 142 220.5h200c-50 -80 -92.5 -158.333 -127.5 -235s-63.5 -154 -85.5 -232s-38 -156.333 -48 -235s-14.667 -159.667 -14 -243c0 -83.333 4.83301 -164.5 14.5 -243.5
s25.5 -157.167 47.5 -234.5s50.5 -154.833 85.5 -232.5s76.833 -156.5 125.5 -236.5h-201c-48 74 -91.667 148.5 -131 223.5s-73.166 151.333 -101.499 229s-50 157.667 -65 240s-22.5 167.166 -22.5 254.499z" />
    <glyph glyph-name="parenright" unicode=")" horiz-adv-x="585" 
d="M-28 1495l200.001 0.000976562c54.667 -70 102 -143.5 142 -220.5s73.667 -155.333 101 -235s47.666 -160.834 60.999 -243.501s20 -164.667 20 -246c0 -87.333 -8.16699 -172.166 -24.5 -254.499s-38.666 -162.333 -66.999 -240s-62.5 -154 -102.5 -229
s-83.667 -149.5 -131 -223.5h-197c48.667 80 90.167 158.833 124.5 236.5s62.5 155.167 84.5 232.5s38 155.666 48 234.999c11.333 79.333 17 160.5 17 243.5s-5.33301 163.833 -16 242.5s-27.167 157 -49.5 235s-50.833 155.333 -85.5 232s-76.334 155 -125.001 235z" />
    <glyph glyph-name="asterisk" unicode="*" horiz-adv-x="770" 
d="M41 1184l52 150l211 -75l-2 216h162v-216l203 75l62 -150l-215 -74l131 -180l-134 -89l-126 181l-125 -181l-137 89l125 180z" />
    <glyph glyph-name="plus" unicode="+" horiz-adv-x="1255" 
d="M89 645h440l2 444h195l-2 -444h435l3 -194h-436l-2 -439h-195l2 439h-439z" />
    <glyph glyph-name="comma" unicode="," horiz-adv-x="591" 
d="M149 -3l2.99902 285.999h286v-235c0 -42 -5.33301 -81.833 -16 -119.5s-27.667 -72.667 -51 -105s-52.833 -60.833 -88.5 -85.5s-78.167 -45 -127.5 -61l-3 168c19.333 6.66699 36.333 15.667 51 27s26.834 23.833 36.501 37.5s17 28.334 22 44.001s7.5 30.167 7.5 43.5
h-120z" />
    <glyph glyph-name="hyphen" unicode="-" horiz-adv-x="967" 
d="M89 645h784l3 -194h-784z" />
    <glyph glyph-name="period" unicode="." horiz-adv-x="591" 
d="M149 -3l3 286h286l-1 -286h-288z" />
    <glyph glyph-name="slash" unicode="/" horiz-adv-x="770" 
d="M-26 -29l595 1524h228l-606 -1524h-217z" />
    <glyph glyph-name="zero" unicode="0" horiz-adv-x="1156" 
d="M63 715c0 39.333 0.670898 79.666 2.00391 120.999s5 82.833 11 124.5s14 82.834 24 123.501s23.5 79 40.5 115s38.167 69.5 63.5 100.5s55.5 57.667 90.5 80s76 39.833 123 52.5s99.5 19 157.5 19c80 0 148.167 -11.167 204.5 -33.5s103.5 -52 141.5 -89
s68.167 -80 90.5 -129s39.166 -100.833 50.499 -155.5s18.666 -110.5 21.999 -167.5s5 -110.833 5 -161.5c0 -40.667 -1 -82.334 -3 -125.001s-5.33301 -85.5 -10 -128.5s-12.334 -84.5 -23.001 -124.5s-24.334 -78 -41.001 -114s-37.667 -69 -63 -99
s-55.5 -56.167 -90.5 -78.5s-75.833 -39.333 -122.5 -51s-100.334 -17.5 -161.001 -17.5c-59.333 0 -112.166 5.83301 -158.499 17.5s-87 28.667 -122 51s-65.167 48.5 -90.5 78.5s-46.5 63 -63.5 99s-30.5 74 -40.5 114s-18 81.5 -24 124.5s-9.66699 85.833 -11 128.5
s-2 84.334 -2 125.001zM311.004 715c0 -32.667 0.665039 -68.5 1.99805 -107.5s4.5 -78 9.5 -117s12.833 -76.5 23.5 -112.5s25.667 -68.167 45 -96.5s44.166 -51 74.499 -68s66.833 -25.5 109.5 -25.5c44 0 81.333 8.5 112 25.5s55.667 39.667 75 68s34.333 60.5 45 96.5
s18.5 73.5 23.5 112.5s8 78 9 117s1.5 74.833 1.5 107.5s-0.666992 68.167 -2 106.5s-5 77 -11 116s-14.667 76.667 -26 113s-26.666 68.666 -45.999 96.999s-43.666 51 -72.999 68s-65.333 25.5 -108 25.5c-40.667 0 -75.667 -8.5 -105 -25.5s-53.666 -39.667 -72.999 -68
s-34.833 -60.666 -46.5 -96.999s-20.5 -74 -26.5 -113s-9.66699 -77.667 -11 -116s-2 -73.833 -2 -106.5z" />
    <glyph glyph-name="one" unicode="1" horiz-adv-x="1156" 
d="M149 942l3.00098 211.002c51.333 3.33301 99.166 8.66602 143.499 15.999s84 20.166 119 38.499s64.667 44.833 89 79.5s42.5 81 54.5 139h208l2 -1426h-237v1004c-47.333 -22 -102.333 -37.667 -165 -47s-135 -14.333 -217 -15z" />
    <glyph glyph-name="two" unicode="2" horiz-adv-x="1156" 
d="M48 0c6 59.333 15.8359 113.162 29.5029 161.495s30.5 92.166 50.5 131.499s43.167 74.833 69.5 106.5s54 60.834 83 87.501s59.5 51.167 91.5 73.5l95 64.5c60.667 38.667 112.334 73.167 155.001 103.5s78.167 59.5 106.5 87.5s49.333 57.667 63 89
s20.5 67.333 20.5 108c0 33.333 -6.33301 63.666 -19 90.999s-29.667 50.5 -51 69.5s-46.166 33.5 -74.499 43.5s-59.166 15 -92.499 15c-44.667 0 -83 -9.66699 -115 -29s-58.333 -45.166 -79 -77.499s-35.334 -69.166 -44.001 -110.499
c-8.66699 -42 -11.667 -84.333 -9 -127h-239c-4.66699 52.667 -3.16699 103.334 4.5 152.001s21 93.334 40 134.001s43.167 77.5 72.5 110.5s63.166 61.5 101.499 85.5s80.666 42.333 126.999 55s96.166 19 149.499 19c66 0 128.167 -9.5 186.5 -28.5s109.5 -47 153.5 -84
s78.333 -82.333 103 -136s37 -115.5 37 -185.5c0 -44.667 -5 -85.667 -15 -123s-23.5 -71.833 -40.5 -103.5s-37.333 -60.667 -61 -87s-48.834 -50.166 -75.501 -71.499s-54.334 -41.666 -83.001 -60.999l-85 -53l-116 -71.5c-38 -24.333 -73.5 -49 -106.5 -74
s-61.667 -50.333 -86 -76s-41.833 -51.167 -52.5 -76.5h711l2 -213h-1008z" />
    <glyph glyph-name="three" unicode="3" horiz-adv-x="1156" 
d="M55 470l246.003 -0.000976562c0 -44.667 5.33301 -85 16 -121s26.167 -66.5 46.5 -91.5s46.666 -44.167 78.999 -57.5s69.166 -20 110.499 -20s79 5.5 113 16.5s63.167 26.5 87.5 46.5s43.166 44.667 56.499 74c12.667 28 19 60.667 19 98
c0 38 -6.83301 71.5 -20.5 100.5s-32.667 53 -57 72s-53 33.333 -86 43s-68.833 14.5 -107.5 14.5h-23h-23.5h-25.5c-8.66699 -2 -18.667 -3 -30 -3v199h80c31.333 0 61.333 4.16699 90 12.5s53.667 20.5 75 36.5s38.5 36.167 51.5 60.5s19.5 52.166 19.5 83.499
c0 32 -5.5 60.333 -16.5 85s-26.333 45.334 -46 62.001s-43 29.334 -70 38.001s-56.167 13 -87.5 13c-40.667 0 -75.167 -7.66699 -103.5 -23s-51.333 -36.166 -69 -62.499s-30.334 -57.5 -38.001 -93.5s-11.5 -74 -11.5 -114h-245c2 74.667 13.167 143 33.5 205
s50 115 89 159s87.167 78.5 144.5 103.5s124 37.5 200 37.5c67.333 0 129.333 -8.5 186 -25.5s106.167 -42.5 148.5 -76.5s75.5 -76.833 99.5 -128.5s36 -112.5 36 -182.5c0 -58.667 -13.167 -109.834 -39.5 -153.501s-62.833 -82.167 -109.5 -115.5
c35.333 -13.333 66 -31 92 -53s47.667 -47.667 65 -77s30 -62 38 -98c8 -36.667 12 -75.334 12 -116.001c0 -47.333 -6.33301 -90.833 -19 -130.5s-29.667 -76.167 -51 -109.5s-47 -62.666 -77 -87.999c-30 -26.667 -62.667 -49 -98 -67
c-19.333 -10.667 -40.5 -19.167 -63.5 -25.5s-46.333 -11.333 -70 -15s-47.667 -6 -72 -7s-49.166 -1.5 -74.499 -1.5c-77.333 0 -146.833 10.167 -208.5 30.5s-114.167 51.5 -157.5 93.5s-76.333 93.667 -99 155c-23.333 62.667 -35 135 -35 217z" />
    <glyph glyph-name="four" unicode="4" horiz-adv-x="1156" 
d="M50 299v209l654 918h213l-3 -906h196l1 -221h-194v-299h-235l-2 299h-630zM311 520h366l3 502l-91.5 -124l-90.5 -123.5l-91 -125z" />
    <glyph glyph-name="five" unicode="5" horiz-adv-x="1156" 
d="M64 439l240.004 -0.00195312c4 -36 12.667 -69 26 -99s31.333 -56.5 54 -79.5s49.5 -40.833 80.5 -53.5s65.833 -19 104.5 -19c37.333 0 72.5 6.16699 105.5 18.5s61.667 31.166 86 56.499s43.333 56.5 57 93.5s20.5 80.833 20.5 131.5
c0 40.667 -6.83301 78.334 -20.5 113.001s-32.834 64.334 -57.501 89.001s-54.834 43.834 -90.501 57.501s-74.834 20.5 -117.501 20.5c-27.333 0 -52.5 -3.16699 -75.5 -9.5s-44.333 -15.333 -64 -27s-38.834 -25.167 -57.501 -40.5c-18.667 -16.667 -36.667 -34 -54 -52
l-209 6l145 781h775v-208h-583l-58 -294c32.667 21.333 68 35.666 106 42.999s76.667 11 116 11c70 0 135.167 -10.667 195.5 -32s112.833 -53 157.5 -95s79.667 -94.5 105 -157.5s38 -136.5 38 -220.5c0 -64 -11.167 -125.5 -33.5 -184.5s-55.666 -111.167 -99.999 -156.5
s-99.833 -81.666 -166.5 -108.999s-144.667 -41 -234 -41c-66 0 -128.333 9.83301 -187 29.5s-110.334 48.667 -155.001 87s-80.167 86 -106.5 143s-40.5 122.833 -42.5 197.5z" />
    <glyph glyph-name="six" unicode="6" horiz-adv-x="1156" 
d="M57 673c0 66 3.6709 131.498 11.0039 196.498s19.666 126.167 36.999 183.5s40.166 110.333 68.499 159s63 90.5 104 125.5s89.167 62.667 144.5 83s120 30.5 194 30.5c63.333 0 120.5 -8.5 171.5 -25.5s95.5 -42.5 133.5 -76.5s68.667 -76.667 92 -128
c21.333 -50.667 36 -109.667 44 -177h-239c-8 67.333 -30.5 116 -67.5 146s-86.5 45 -148.5 45c-37.333 0 -70.166 -5.5 -98.499 -16.5s-53.166 -26 -74.499 -45s-39.333 -41.667 -54 -68s-26.834 -54.166 -36.501 -83.499s-17.167 -60 -22.5 -92s-9.33301 -63.667 -12 -95
c19.333 18.667 41.666 35.5 66.999 50.5s51.666 27.833 78.999 38.5s55.833 19 85.5 25s59.5 9 89.5 9c76 0 143.167 -12.667 201.5 -38s107.166 -59.666 146.499 -102.999s69.5 -94.5 90.5 -153.5s31.5 -121.5 31.5 -187.5c0 -37.333 -3.33301 -75.333 -10 -114
s-18.167 -76.5 -34.5 -113.5s-37.333 -72.167 -63 -105.5s-57.5 -62.333 -95.5 -87s-82.333 -44 -133 -58s-108.667 -21 -174 -21c-75.333 0 -141 10.167 -197 30.5s-103.5 47.833 -142.5 82.5s-70.667 75 -95 121s-43.333 94.833 -57 146.5s-23.167 104.5 -28.5 158.5
s-8 106.333 -8 157zM327.004 464.498c0 -39 5.83203 -75.501 17.499 -109.501s29.167 -63.167 52.5 -87.5s51.5 -43.666 84.5 -57.999s70 -21.5 111 -21.5s77.5 7.16699 109.5 21.5s59.333 33.833 82 58.5s39.334 53.667 50.001 87c10.667 34 16 69.333 16 106
c0 39.333 -5.33301 76 -16 110s-26.834 63.833 -48.501 89.5s-48.5 46.167 -80.5 61.5s-69.333 23 -112 23s-80.667 -7.33301 -114 -22s-61.166 -34.667 -83.499 -60s-39.333 -55 -51 -89s-17.5 -70.5 -17.5 -109.5z" />
    <glyph glyph-name="seven" unicode="7" horiz-adv-x="1156" 
d="M82 1206l0.00292969 219.998h995v-182c-48.667 -46.667 -95.334 -99.5 -140.001 -158.5s-86.667 -122.333 -126 -190s-75.333 -138.5 -108 -212.5s-60.834 -149.333 -84.501 -226s-43.167 -153.5 -58.5 -230.5s-25 -152.5 -29 -226.5h-265
c7.33301 116.667 25.166 230.834 53.499 342.501s65.333 218.334 111 320.001s98.5 198.167 158.5 289.5s125 176 195 254h-702z" />
    <glyph glyph-name="eight" unicode="8" horiz-adv-x="1156" 
d="M61 431c0 76 16.999 144.004 50.999 204.004c34.667 59.333 87 106.666 157 141.999c-24.667 15.333 -46.667 33.666 -66 54.999s-35.833 44.666 -49.5 69.999s-24.167 51.666 -31.5 78.999s-11 55 -11 83c0 62.667 12.667 118 38 166s58.833 88.333 100.5 121
s90.167 57.667 145.5 75c54 16.667 111 25 171 25c84 0 155.667 -11.167 215 -33.5s107.833 -51.5 145.5 -87.5s65.5 -77.167 83.5 -123.5s27 -93.833 27 -142.5c-1.33301 -127.333 -53.666 -222 -156.999 -284c69.333 -35.333 122.5 -82.666 159.5 -141.999
s55.5 -128.333 55.5 -207c0 -74 -13.667 -139 -41 -195s-63.833 -103.5 -109.5 -142.5s-99.667 -68.167 -162 -87.5s-128.166 -29 -197.499 -29c-74 0 -142.833 9.16699 -206.5 27.5s-118.834 46.5 -165.501 84.5s-83.667 85.667 -111 143s-41 123.666 -41 198.999z
M309.999 425.004c0 -38 6.66699 -71.665 20 -100.998s32.166 -54.166 56.499 -74.499s53.5 -35.5 87.5 -45.5c32.667 -10.667 69.334 -16 110.001 -16c38.667 0 74.167 5.66699 106.5 17s59.833 27.666 82.5 48.999s40.167 46.666 52.5 75.999s18.5 62 18.5 98
c0 32 -6.83301 62.167 -20.5 90.5s-32.667 52.666 -57 72.999s-52.5 36.333 -84.5 48s-65.667 17.5 -101 17.5c-36.667 0 -71.667 -5.33301 -105 -16s-62.333 -26 -87 -46s-44 -44.667 -58 -74s-21 -61.333 -21 -96zM358.999 1056.01
c0 -31.333 6.16797 -58.999 18.501 -82.999s28.833 -44.167 49.5 -60.5s44.667 -28.5 72 -36.5s55.666 -12 84.999 -12s56.333 4.5 81 13.5s46 21.667 64 38s32.333 36.166 43 59.499s16 50.333 16 81c0 28.667 -5.33301 54.5 -16 77.5s-25.167 41.833 -43.5 56.5
s-40.5 25.667 -66.5 33c-24.667 8 -52.667 12 -84 12c-27.333 0 -54.5 -3.66699 -81.5 -11s-50.833 -18.333 -71.5 -33s-37 -33.167 -49 -55.5s-17.667 -48.833 -17 -79.5z" />
    <glyph glyph-name="nine" unicode="9" horiz-adv-x="1156" 
d="M58 952c0 36.667 3.50488 74.498 10.5049 113.498s18.667 77 35 114s37.666 71.833 63.999 104.5s58.5 61.334 96.5 86.001s82.333 44.334 133 59.001s108 22 172 22c58 0 109.5 -5.83301 154.5 -17.5s85.5 -28.167 121.5 -49.5s67 -46.166 93 -74.499
s48.167 -59.5 66.5 -93.5s33.666 -70.167 45.999 -108.5s21.666 -77.5 27.999 -117.5s10.666 -80 12.999 -120s3.5 -79 3.5 -117c0 -66 -3.33301 -131.333 -10 -196s-18.334 -125.667 -35.001 -183s-39.167 -110.333 -67.5 -159s-62.833 -90.834 -103.5 -126.501
s-89.334 -63.167 -146.001 -82.5s-121 -29 -193 -29c-64 0 -121.833 8.16699 -173.5 24.5s-96.5 41.5 -134.5 75.5s-68.167 76.333 -90.5 127s-36.833 110.334 -43.5 179.001h238c6.66699 -67.333 28.667 -116 66 -146c37.333 -30.667 87.333 -46 150 -46
c36.667 0 69.167 5.66699 97.5 17s53 26.5 74 45.5s38.833 41.333 53.5 67s27 53.667 37 84s18 61.166 24 92.499c6 32.667 10.333 64.667 13 96c-20 -18.667 -42.5 -35.5 -67.5 -50.5s-51.333 -27.833 -79 -38.5s-56.167 -19 -85.5 -25s-58.666 -9 -87.999 -9
c-75.333 0 -142.333 12.167 -201 36.5s-108.167 58.5 -148.5 102.5s-71 95.167 -92 153.5s-31.5 121.5 -31.5 189.5zM302.005 966.998c0 -39.333 5.33105 -76.333 15.998 -111s26.834 -64.834 48.501 -90.501s48.667 -46 81 -61s70 -22.5 113 -22.5s81 7.33301 114 22
s60.667 34.834 83 60.501s39.333 55.5 51 89.5s17.5 70.5 17.5 109.5s-6 75.5 -18 109.5s-29.5 63.167 -52.5 87.5s-51 43.333 -84 57s-70.833 20.5 -113.5 20.5c-41.333 0 -77.666 -7.33301 -108.999 -22s-58 -34.167 -80 -58.5s-38.333 -53 -49 -86
s-16.667 -67.833 -18 -104.5z" />
    <glyph glyph-name="colon" unicode=":" horiz-adv-x="591" 
d="M149 -3l3 286h286l-1 -286h-288zM150 1061h288v-287h-286z" />
    <glyph glyph-name="semicolon" unicode=";" horiz-adv-x="591" 
d="M149 -3l2.99902 285.999h286v-235c0 -42 -5.33301 -81.833 -16 -119.5s-27.667 -72.667 -51 -105s-52.833 -60.833 -88.5 -85.5s-78.167 -45 -127.5 -61l-3 168c19.333 6.66699 36.333 15.667 51 27s26.834 23.833 36.501 37.5s17 28.334 22 44.001s7.5 30.167 7.5 43.5
h-120zM149.999 1061h288v-287h-286z" />
    <glyph glyph-name="less" unicode="&#x3c;" horiz-adv-x="1332" 
d="M120 639l1090 488l-1 -200l-822 -374l820 -371l2 -197l-1088 485z" />
    <glyph glyph-name="equal" unicode="=" horiz-adv-x="1246" 
d="M91 251l1 188h1061l-3 -188h-1059zM91 657l1 190h1061l-3 -190h-1059z" />
    <glyph glyph-name="greater" unicode="&#x3e;" horiz-adv-x="1332" 
d="M120 -15v197l823 371l-823 374l3 200l1086 -488v-169z" />
    <glyph glyph-name="question" unicode="?" horiz-adv-x="1201" 
d="M149 961c-2 77.333 8.00098 149.001 30.001 215.001s54.333 122.5 97 169.5s94.5 83.667 155.5 110s129.5 39.5 205.5 39.5c68 0 130 -9.5 186 -28.5s104.167 -46.667 144.5 -83s71.833 -80.833 94.5 -133.5c24 -52.667 36 -112.667 36 -180
c-1.33301 -42.667 -8 -80.834 -20 -114.501s-27.667 -63.834 -47 -90.501s-40.333 -51 -63 -73l-66 -62l-56.5 -53c-18.333 -18 -34.666 -37 -48.999 -57s-25.833 -42.167 -34.5 -66.5s-13 -52.166 -13 -83.499l-1 -108h-240l2 126
c1.33301 40.667 8.16602 77.334 20.499 110.001s27.666 62.334 45.999 89.001s38.5 51.334 60.5 74.001c23.333 22 44.666 43.333 63.999 64c15.333 16.667 32.333 34.167 51 52.5s35.5 38.166 50.5 59.499s27.167 44.666 36.5 69.999s13.333 52.666 12 81.999
c-4 29.333 -11.333 56.166 -22 80.499s-25 45.333 -43 63s-39.667 30.834 -65 39.501s-54 13 -86 13c-44 0 -81.5 -8.83301 -112.5 -26.5s-56.667 -41 -77 -70s-35.166 -63.5 -44.499 -103.5c-8.66699 -40 -13 -81.333 -13 -124h-239zM479.001 277.001h290l2 -277h-289z" />
    <glyph glyph-name="at" unicode="@" horiz-adv-x="1697" 
d="M-68 942.5c5.33301 63.667 18.9951 123.172 40.9951 178.505s52 105.666 90 150.999s82 84.166 132 116.499s106 57.166 168 74.499s128.333 26 199 26c64 0 127.5 -7 190.5 -21s123.5 -34.167 181.5 -60.5s112.667 -58.166 164 -95.499s97.5 -79 138.5 -125
s75.833 -96.167 104.5 -150.5s50 -111.833 64 -172.5c11.333 -56 13.666 -107.5 6.99902 -154.5s-19.5 -88.833 -38.5 -125.5s-43.333 -69.167 -73 -97.5s-61.667 -51.833 -96 -70.5s-70 -31.834 -107 -39.501s-72.5 -10.5 -106.5 -8.5c-25.333 2 -50.833 9.33301 -76.5 22
s-50.167 32 -73.5 58c-26 -23.333 -55.333 -43.5 -88 -60.5s-67.667 -25.5 -105 -25.5c-38.667 0 -76 7.5 -112 22.5s-68.667 35.667 -98 62s-54.5 57.333 -75.5 93s-35.833 73.834 -44.5 114.501s-12.667 81.5 -12 122.5s5.83398 80 15.501 117s24 71.5 43 103.5
s42.333 59.667 70 83s59.334 41.333 95.001 54s75.167 19 118.5 19c16 0 33.167 -1.83301 51.5 -5.5s37.166 -10 56.499 -19s38.333 -21.5 57 -37.5c18.667 -16.667 35.334 -36.667 50.001 -60c0.666992 6 1.5 12.833 2.5 20.5s2 16.167 3 25.5l3 27
c1 8.66699 2.5 16.334 4.5 23.001h152l-45 -517c-1.33301 -13.333 -1.5 -27 -0.5 -41s3.66699 -27 8 -39s10.666 -21.5 18.999 -28.5s19.833 -10.5 34.5 -10.5c18.667 0 37 4.33301 55 13s35 20.834 51 36.501s30.333 34.167 43 55.5s22.834 45.666 30.501 72.999
s12 56.5 13 87.5s-2.5 64.167 -10.5 99.5c-17.333 78.667 -46.5 147.667 -87.5 207s-90.167 109.166 -147.5 149.499s-119.666 70.833 -186.999 91.5c-66.667 20 -135 30 -205 30c-56.667 0 -109.167 -7.16699 -157.5 -21.5s-91.666 -34.666 -129.999 -60.999
s-71.166 -58 -98.499 -95s-48.666 -77.833 -63.999 -122.5s-24.5 -92.834 -27.5 -144.501s1.16699 -105.834 12.5 -162.501c12 -55.333 30.667 -108.5 56 -159.5s55.666 -98.5 90.999 -142.5s75.166 -83.667 119.499 -119s91.333 -66 141 -92s101.834 -45.833 156.501 -59.5
s109 -20.5 163 -20.5c45.333 0 89.833 3.5 133.5 10.5s85.167 18.167 124.5 33.5s75.333 35.166 108 59.499s60.667 55.166 84 92.499h191c-28.667 -61.333 -64.667 -113.833 -108 -157.5s-91.666 -79.5 -144.999 -107.5s-110.333 -48.333 -171 -61s-123 -19 -187 -19
c-74 0 -146.167 8.83301 -216.5 26.5s-138 42.5 -203 74.5s-126 70.667 -183 116s-108.167 96 -153.5 152s-84 116.667 -116 182s-56 134 -72 206c-15.333 70 -20.333 136.833 -15 200.5zM478.995 737.505c0 -26.333 2.33301 -51.1699 7 -74.5029
c4 -21.333 11.667 -41 23 -59s24.166 -33.667 38.499 -47s30.833 -23.833 49.5 -31.5s38.667 -11.5 60 -11.5c23.333 0 44.5 5.66699 63.5 17s35.833 26 50.5 44s27 39.167 37 63.5s17.833 49 23.5 74s8.66699 50.667 9 77s-2.5 51.166 -8.5 74.499
c-4 18 -10.333 35.167 -19 51.5s-19.5 31.333 -32.5 45s-27.833 24.834 -44.5 33.501s-34.334 13 -53.001 13c-27.333 0 -52.166 -5.33301 -74.499 -16s-41.166 -24.667 -56.499 -42s-28.5 -37.666 -39.5 -60.999s-19.333 -47.666 -25 -72.999s-8.5 -51.166 -8.5 -77.499z
" />
    <glyph glyph-name="A" unicode="A" horiz-adv-x="1407" 
d="M0 0l558 1460h280l569 -1460h-289l-147 409h-556c-14 -35.333 -27 -69.666 -39 -102.999l-35.5 -100.5l-35.5 -101.5c-12.667 -34 -24.667 -68.667 -36 -104h-269zM505 633.999h380l-193 535z" />
    <glyph glyph-name="B" unicode="B" horiz-adv-x="1407" 
d="M137 1460h589.996c44 0 88.167 -2 132.5 -6s86.333 -10.5 126 -19.5s76.834 -22.167 111.501 -39.5s64.834 -39.5 90.501 -66.5s45.834 -60.5 60.501 -100.5s22 -86.333 22 -139c0 -70.667 -12.667 -131.667 -38 -183s-64.666 -94.333 -117.999 -129
c35.333 -16 66.5 -35.167 93.5 -57.5s49.5 -48.333 67.5 -78s32 -62 42 -97s15 -71.833 15 -110.5c0 -36 -4.66699 -71.667 -14 -107s-23 -69 -41 -101s-40.167 -61.833 -66.5 -89.5s-57 -51.5 -92 -71.5s-74 -35.833 -117 -47.5s-89.833 -17.5 -140.5 -17.5h-721z
M393.996 1238l3.00098 -380h342c48.667 0 90.5 4 125.5 12s63.667 20 86 36s38.666 36 48.999 60s15.5 52 15.5 84c0 30.667 -3 57 -9 79s-14.5 40 -25.5 54s-24.833 24.667 -41.5 32s-35.5 12.833 -56.5 16.5s-43.833 5.66699 -68.5 6s-50.667 0.5 -78 0.5h-342z
M395.997 219l436 -0.00390625c39.333 0 74 4.83301 104 14.5s55.167 24.334 75.5 44.001s36 43.334 47 71.001s16.5 58.834 16.5 93.501c0 39.333 -8.33301 71.333 -25 96s-38.167 44.334 -64.5 59.001s-56.333 25 -90 31s-67.5 9 -101.5 9h-397z" />
    <glyph glyph-name="C" unicode="C" horiz-adv-x="1483" 
d="M67 724c0 72 6.83301 140.667 20.5 206s34.167 126.666 61.5 183.999s61 109.166 101 155.499s86.167 86 138.5 119s111.166 58.5 176.499 76.5s137 27 215 27c80.667 0 155.834 -10.5 225.501 -31.5s131.5 -52.333 185.5 -94s99 -93.834 135 -156.501
c36.667 -63.333 62 -136.666 76 -219.999h-265c-9.33301 50.667 -24.5 93.667 -45.5 129s-47 64.5 -78 87.5s-66.5 39.833 -106.5 50.5s-83.333 16 -130 16c-52.667 0 -100.5 -6.83301 -143.5 -20.5s-81 -32.667 -114 -57s-61.833 -53 -86.5 -86s-45.167 -69.5 -61.5 -109.5
s-28.333 -82.167 -36 -126.5s-11.5 -89.166 -11.5 -134.499c0 -75.333 8.83301 -146.333 26.5 -213s45 -125 82 -175s84.167 -89.667 141.5 -119s126 -44 206 -44c58 0 109.5 9.5 154.5 28.5s83 45.833 114 80.5s55.167 75.667 72.5 123
c18 48.667 28.667 101.334 32 158.001h257c-9.33301 -97.333 -30.166 -183.666 -62.499 -258.999s-75.5 -138.5 -129.5 -189.5s-118.667 -89.667 -194 -116s-161.666 -39.5 -258.999 -39.5c-78 0 -149.333 8.66699 -214 26s-123 41.833 -175 73.5s-97.333 70.167 -136 115.5
s-70.834 95.666 -96.501 150.999s-44.834 115.333 -57.501 180c-12.667 66 -19 134 -19 204z" />
    <glyph glyph-name="D" unicode="D" horiz-adv-x="1446" 
d="M137 1460l518.999 0.000976562c116.667 0 220 -14.333 310 -43s166.167 -72 228.5 -130s109.5 -130.333 141.5 -217s48 -188.334 48 -305.001c0 -122.667 -14.167 -231.5 -42.5 -326.5s-72.166 -174.833 -131.499 -239.5s-134.333 -114 -225 -148
c-92 -34 -201.333 -51 -328 -51h-517zM393.999 1238l2 -1019h276c15.333 0 33.5 0.666992 54.5 2s43.667 4.66602 68 9.99902s49.333 13.166 75 23.499s51.167 24.333 76.5 42s49 39.167 71 64.5s41.5 55.666 58.5 90.999s30.167 76.333 39.5 123s14 100.334 14 161.001
c0 80 -8.16699 151 -24.5 213s-42.5 114.5 -78.5 157.5s-83 75.5 -141 97.5c-58.667 22.667 -128.667 34 -210 34h-281z" />
    <glyph glyph-name="E" unicode="E" horiz-adv-x="1255" 
d="M137 1460h1057l-1 -222h-799l3 -380h742v-221h-742l-1 -418h801l2 -219h-1059z" />
    <glyph glyph-name="F" unicode="F" horiz-adv-x="1181" 
d="M137 1460h1006l-1 -222h-748l3 -380h653l-2 -221h-651v-637h-257z" />
    <glyph glyph-name="G" unicode="G" horiz-adv-x="1557" 
d="M66 704c0 70 6.50391 137.996 19.5039 203.996s33.167 128.333 60.5 187s61 112.334 101 161.001s86.667 90.5 140 125.5s113.166 62.167 179.499 81.5s139.333 29 219 29s156 -9.16699 229 -27.5s138.167 -48 195.5 -89s105 -94.167 143 -159.5s62 -144.666 72 -237.999
h-254c-10 54.667 -26.833 100.5 -50.5 137.5s-52.334 67.167 -86.001 90.5s-71.834 40.333 -114.501 51s-87.667 16 -135 16c-54 0 -103 -7.33301 -147 -22s-83.167 -34.667 -117.5 -60s-64 -55.666 -89 -90.999s-45.5 -73.666 -61.5 -114.999s-27.833 -85 -35.5 -131
s-11.5 -92.333 -11.5 -139c0 -45.333 4.5 -90.166 13.5 -134.499s22.333 -86 40 -125s39.667 -74.833 66 -107.5s56.5 -60.834 90.5 -84.501s72 -42.167 114 -55.5s88 -20 138 -20c64.667 0 122.334 10.333 173.001 31s94.5 48.5 131.5 83.5s65.667 76 86 123
s31.833 97.833 34.5 152.5h-457l-3 221h698l3 -799h-184l-44 134c-30 -27.333 -62.5 -51.166 -97.5 -71.499s-71.167 -37 -108.5 -50s-75.833 -22.667 -115.5 -29s-78.5 -9.5 -116.5 -9.5c-74.667 0 -144.334 8.66699 -209.001 26s-123.834 42.666 -177.501 75.999
s-100.834 72.333 -141.501 117s-75.167 94 -103.5 148s-50.166 111.667 -65.499 173c-14.667 62 -22 125.333 -22 190z" />
    <glyph glyph-name="H" unicode="H" horiz-adv-x="1483" 
d="M137 1460h259l1 -602h689l-3 602h257l3 -1460h-257l-3 637h-686v-637h-257z" />
    <glyph glyph-name="I" unicode="I" horiz-adv-x="579" 
d="M159 1460h257l2 -1460h-257z" />
    <glyph glyph-name="J" unicode="J" horiz-adv-x="1070" 
d="M23 412v111.005h263l-3 -89c0 -37.333 3 -70.833 9 -100.5s16.333 -55.5 31 -77.5s34.5 -38.833 59.5 -50.5s57.5 -17.5 97.5 -17.5c37.333 0 67.833 5.16699 91.5 15.5s42.834 25.166 57.501 44.499s25 42.166 31 68.499s9 56.166 9 89.499l1 1054h259l-2 -1072
c0 -34.667 -3.16699 -69.334 -9.5 -104.001s-16.333 -67.334 -30 -98.001s-32.167 -59.167 -55.5 -85.5s-51.833 -49.166 -85.5 -68.499s-73 -34.333 -118 -45s-96.833 -16 -155.5 -16c-72.667 0 -137.334 9.5 -194.001 28.5s-104 47.167 -142 84.5
s-66.667 83.666 -86 138.999c-18.667 54 -28 117 -28 189z" />
    <glyph glyph-name="K" unicode="K" horiz-adv-x="1410" 
d="M137 1460h259v-653l655 653h337l-620 -596l634 -864h-310l-502 688l-96.5 -94.5c-31 -31.667 -63.5 -63.167 -97.5 -94.5l1 -499h-257z" />
    <glyph glyph-name="L" unicode="L" horiz-adv-x="1132" 
d="M137 1460h259v-1241h727l1 -219h-984z" />
    <glyph glyph-name="M" unicode="M" horiz-adv-x="1775" 
d="M137 1460h345l401 -1143l403 1143h346l3 -1460h-257l-3 1053l-93 -267.5l-93.5 -261.5l-94 -260l-95.5 -264h-222l-380 1056v-1056h-257z" />
    <glyph glyph-name="N" unicode="N" horiz-adv-x="1489" 
d="M137 1460h295l659 -1089l-2 1089h257l3 -1460h-296l-659 1080l3 -1080h-257z" />
    <glyph glyph-name="O" unicode="O" horiz-adv-x="1560" 
d="M57 730c0 66 6.50195 131 19.502 195s33.167 124.167 60.5 180.5s61 108.166 101 155.499s86.333 88 139 122s112.5 60.667 179.5 80s140.5 29 220.5 29c80.667 0 154.5 -9.66699 221.5 -29s127.333 -46 181 -80s100.5 -74.667 140.5 -122s73.333 -99.166 100 -155.499
s46.334 -116.5 59.001 -180.5s19 -129 19 -195s-6.33301 -131 -19 -195s-32.334 -123.833 -59.001 -179.5s-60.167 -107 -100.5 -154s-87.333 -87.5 -141 -121.5s-113.834 -60.167 -180.501 -78.5s-140.334 -27.5 -221.001 -27.5c-80 0 -153.5 9.16699 -220.5 27.5
s-127.167 44.5 -180.5 78.5s-99.833 74.5 -139.5 121.5s-73 98.333 -100 154s-47 115.5 -60 179.5s-19.5 129 -19.5 195zM314.002 730c0 -44.667 3.66699 -89.166 11 -133.499s19.166 -86.666 35.499 -126.999s36.666 -77.5 60.999 -111.5s53.666 -63.667 87.999 -89
s73.5 -45 117.5 -59c45.333 -14.667 95.333 -22 150 -22c56 0 106 7.16699 150 21.5s83.5 34.166 118.5 59.499s64.667 55 89 89s44.333 71.167 60 111.5s27.334 82.666 35.001 126.999s11.5 88.833 11.5 133.5s-3.83301 89.167 -11.5 133.5s-19.334 86.666 -35.001 126.999
s-36 77.5 -61 111.5s-54.667 64 -89 90s-74 46 -119 60s-94.667 21 -149 21s-103.833 -7 -148.5 -21s-84.167 -34 -118.5 -60s-63.666 -56 -87.999 -90s-44.666 -71.167 -60.999 -111.5s-28.166 -82.666 -35.499 -126.999s-11 -88.833 -11 -133.5z" />
    <glyph glyph-name="P" unicode="P" horiz-adv-x="1332" 
d="M137 1460h655.998c79.333 0 148.833 -10 208.5 -30s109.334 -49 149.001 -87s69.5 -84.5 89.5 -139.5s30 -118.5 30 -190.5c0 -70 -10.167 -132.167 -30.5 -186.5s-50.166 -100.5 -89.499 -138.5c-39.333 -37.333 -89 -66 -149 -86c-56 -18.667 -121 -28 -195 -28h-15
h-397l3 -574h-257zM393.998 1238l3.00098 -446.999h332h9c45.333 0.666992 85 5.66699 119 15c36 10.667 65.667 25 89 43s40.666 41.167 51.999 69.5s17.333 59.833 18 94.5c0 73.333 -23.833 129.166 -71.5 167.499s-120.167 57.5 -217.5 57.5h-333z" />
    <glyph glyph-name="Q" unicode="Q" horiz-adv-x="1560" 
d="M57 730c0 66 6.49902 130.998 19.499 194.998s33.167 124.167 60.5 180.5s61 108.166 101 155.499s86.333 88 139 122s112.5 60.667 179.5 80s140.5 29 220.5 29c80.667 0 154.5 -9.66699 221.5 -29s127.333 -46 181 -80s100.5 -74.667 140.5 -122
s73.333 -99.166 100 -155.499s46.334 -116.5 59.001 -180.5s19 -129 19 -195c0 -52.667 -3.83301 -104 -11.5 -154s-19.667 -98.167 -36 -144.5s-36.333 -90.166 -60 -131.499s-52.167 -79.666 -85.5 -114.999l199 -159l-137 -169l-243 194
c-48.667 -25.333 -101.667 -44.5 -159 -57.5s-120 -19.5 -188 -19.5c-80 0 -153.5 9.16699 -220.5 27.5s-127.167 44.5 -180.5 78.5s-99.833 74.5 -139.5 121.5s-73 98.333 -100 154s-47 115.5 -60 179.5s-19.5 129 -19.5 195zM313.999 729.998
c0 -44.667 3.66895 -89.168 11.002 -133.501s19.166 -86.666 35.499 -126.999s36.666 -77.5 60.999 -111.5s53.666 -63.667 87.999 -89s73.5 -45 117.5 -59c45.333 -14.667 95.333 -22 150 -22c29.333 0 56.166 1.83301 80.499 5.5s47.166 9.16699 68.499 16.5l-133 110
l141 168l187 -149c21.333 25.333 39.333 53 54 83s26.834 62 36.501 96s17 68.667 22 104s7.5 71.333 7.5 108c0 44.667 -3.83301 89.167 -11.5 133.5s-19.334 86.666 -35.001 126.999s-36 77.5 -61 111.5s-54.667 64 -89 90s-74 46 -119 60s-94.667 21 -149 21
s-103.833 -7 -148.5 -21s-84.167 -34 -118.5 -60s-63.666 -56 -87.999 -90s-44.666 -71.167 -60.999 -111.5s-28.166 -82.666 -35.499 -126.999s-11 -88.833 -11 -133.5z" />
    <glyph glyph-name="R" unicode="R" horiz-adv-x="1407" 
d="M137 1460l704.001 0.00292969c74.667 0 141.5 -9.16699 200.5 -27.5s108.5 -44.333 148.5 -78s70.667 -75.167 92 -124.5s32 -105.666 32 -168.999c0 -38 -3.33301 -74.667 -10 -110s-17.334 -68.333 -32.001 -99s-33.667 -58.334 -57 -83.001
c-23.333 -24 -50.666 -44.667 -81.999 -62c33.333 -21.333 59.166 -47.166 77.499 -77.499s32.833 -62.833 43.5 -97.5s18.5 -70.167 23.5 -106.5s8.83301 -71.5 11.5 -105.5c4 -26.667 6.66699 -53.334 8 -80.001s5.5 -53.334 12.5 -80.001s17.333 -53.5 31 -80.5
s34.167 -53.5 61.5 -79.5h-292c-12.667 13.333 -23.167 28.166 -31.5 44.499s-14.666 34 -18.999 53s-7.5 39.167 -9.5 60.5s-3.66699 44.666 -5 69.999c-2 25.333 -3.83301 51.5 -5.5 78.5s-5 53.667 -10 80s-12.167 52 -21.5 77s-22 47 -38 66s-35.833 34.833 -59.5 47.5
s-52.834 20 -87.501 22h-427l1 -599h-257zM394.001 813.003l359 -0.000976562c39.333 0 77.5 3.16699 114.5 9.5s69.5 17.833 97.5 34.5s50.333 39.5 67 68.5s25 65.167 25 108.5c0 30.667 -4.33301 58.667 -13 84s-22.5 46.833 -41.5 64.5s-42.833 31.334 -71.5 41.001
s-63 14.5 -103 14.5h-434v-425z" />
    <glyph glyph-name="S" unicode="S" horiz-adv-x="1332" 
d="M64 514l245.997 -0.00195312c0 -60.667 9.66699 -111.334 29 -152.001s46.333 -74.167 81 -100.5s74.834 -45.166 120.501 -56.499s94.167 -17 145.5 -17c41.333 0 81.666 3.16699 120.999 9.5s74.833 17.833 106.5 34.5s57.167 39.167 76.5 67.5s29 64.833 29 109.5
c0 25.333 -5.16699 47.666 -15.5 66.999s-24 36.5 -41 51.5s-37.667 28.167 -62 39.5s-50.5 21.333 -78.5 30s-57.833 16.5 -89.5 23.5s-64.167 13.167 -97.5 18.5l-129 29c-43.333 10 -85 21.833 -125 35.5s-77 30.334 -111 50.001s-63.667 43.334 -89 71.001
s-45.333 60.167 -60 97.5s-22 81 -22 131c0 50.667 7.33301 96.667 22 138s34.667 78 60 110s55.333 60.167 90 84.5s72.667 44.333 114 60s84.833 27.334 130.5 35.001s91.834 11.5 138.501 11.5c78 0 149.833 -9.16699 215.5 -27.5s122.667 -47 171 -86
s86.5 -89.667 114.5 -152s44.333 -137.166 49 -224.499h-245c-6 51.333 -17.167 94.333 -33.5 129s-37.833 62.667 -64.5 84s-58.167 36.333 -94.5 45s-77.166 13 -122.499 13c-36 0 -71 -3.33301 -105 -10s-64.667 -18.167 -92 -34.5s-49.333 -37.5 -66 -63.5
s-25 -58.667 -25 -98c0 -32 9.5 -58.667 28.5 -80s44.667 -39.5 77 -54.5s69.666 -27.667 111.999 -38s86.833 -20.5 133.5 -30.5l134 -28.5c44.667 -9.66699 88 -21.834 130 -36.501s81.5 -32.5 118.5 -53.5s69 -46.667 96 -77s48.333 -66.166 64 -107.499
s23.5 -90 23.5 -146c0 -54.667 -8.33301 -103.5 -25 -146.5s-39 -80.667 -67 -113s-61 -60 -99 -83s-78.833 -41.833 -122.5 -56.5s-89.5 -25.334 -137.5 -32.001s-95.333 -10 -142 -10c-57.333 0 -112.166 4.16699 -164.499 12.5s-101.166 21.5 -146.499 39.5
s-87 41.333 -125 70s-70.167 63.167 -96.5 103.5s-46.833 86.5 -61.5 138.5c-14.667 51.333 -22 110 -22 176z" />
    <glyph glyph-name="T" unicode="T" horiz-adv-x="1186" 
d="M15 1238v222h1152l-2 -222h-451l4 -1238h-257l-4 1238h-442z" />
    <glyph glyph-name="U" unicode="U" horiz-adv-x="1500" 
d="M137 1460l258.998 0.000976562l1 -926c0 -116.667 30.333 -203.334 91 -260.001c62 -57.333 153.333 -86 274 -86c112.667 0 197.334 28.667 254.001 86c56.667 56.667 86 143.334 88 260.001l-3 926h257l3 -926c0 -94 -13.667 -176.333 -41 -247
s-66.333 -129.334 -117 -176.001s-113.5 -81.667 -188.5 -105s-160.167 -35 -255.5 -35c-99.333 0 -187.166 10.833 -263.499 32.5s-141 55.667 -194 102s-93.167 105 -120.5 176s-41 155.167 -41 252.5z" />
    <glyph glyph-name="V" unicode="V" horiz-adv-x="1303" 
d="M-1 1460h280l374 -1143l376 1143h273l-514 -1460h-283z" />
    <glyph glyph-name="W" unicode="W" horiz-adv-x="1889" 
d="M-1 1460h264l260 -1066l139 533l141 533h277l284 -1072l262 1072h262l-390 -1460h-269l-296 1095l-294 -1095h-262z" />
    <glyph glyph-name="X" unicode="X" horiz-adv-x="1315" 
d="M0 0l496 753l-471 707h311l321 -512l333 512h293l-477 -710l509 -750h-313l-348 534l-358 -534h-296z" />
    <glyph glyph-name="Y" unicode="Y" horiz-adv-x="1384" 
d="M-1 1460h311l388 -628l382 628h301l-562 -870l3 -590h-260l-1 587z" />
    <glyph glyph-name="Z" unicode="Z" horiz-adv-x="1353" 
d="M70 200l853 1038h-783v222h1113l3 -204l-847 -1037h873v-219h-1210z" />
    <glyph glyph-name="bracketleft" unicode="[" horiz-adv-x="562" 
d="M126 -397l1 1892h419v-194h-187v-1505h187l-1 -193h-419z" />
    <glyph glyph-name="backslash" unicode="\" horiz-adv-x="770" 
d="M-28 1495h227l595 -1524h-220z" />
    <glyph glyph-name="bracketright" unicode="]" horiz-adv-x="562" 
d="M13 1301l2 194h417l-1 -1892h-416l1 193h183v1505h-186z" />
    <glyph glyph-name="asciicircum" unicode="^" horiz-adv-x="1246" 
d="M76 550l450 891h195l447 -891h-188l-358 711l-345 -711h-201z" />
    <glyph glyph-name="underscore" unicode="_" horiz-adv-x="1055" 
d="M18 -137h1022v-171h-1022v171z" />
    <glyph glyph-name="grave" unicode="`" horiz-adv-x="579" 
d="M58 1495h278l181 -302h-187z" />
    <glyph glyph-name="a" unicode="a" horiz-adv-x="1118" 
d="M55 286c0 46 5.99707 85.335 17.9971 118.002s28.167 60.334 48.5 83.001s44.833 41.5 73.5 56.5s59.834 28 93.501 39s69.5 20.333 107.5 28s76.333 16.5 115 26.5l83.5 20c28.333 6.66699 54.166 14.5 77.499 23.5s42.166 19.333 56.499 31s21.5 25.5 21.5 41.5
c0 28.667 -5.5 51 -16.5 67s-25.5 27.833 -43.5 35.5s-38.667 12.5 -62 14.5s-46.666 3 -69.999 3c-31.333 0 -59.333 -2.16699 -84 -6.5s-46.5 -13 -65.5 -26s-34 -31.333 -45 -55s-16.833 -54.167 -17.5 -91.5h-245c2 74.667 16 137 42 187s60.333 90.167 103 120.5
s92.167 52 148.5 65s115.5 19.5 177.5 19.5c33.333 0 67.333 -1.66699 102 -5s67.834 -9.16602 99.501 -17.499s61 -19.833 88 -34.5s50.5 -33.334 70.5 -56.001s35.667 -50 47 -82c11.333 -33.333 17.333 -71.333 18 -114v-517c0 -22.667 0.666992 -39.334 2 -50.001
c0 -10.667 4.66699 -16 14 -16c2 0 5 0.333008 9 1l14.5 2.5c5.66699 1 13.5 3.33301 23.5 7s21.667 8.5 35 14.5v-196c-23.333 -16 -46.333 -27.667 -69 -35c-24 -7.33301 -50.667 -11 -80 -11c-21.333 0 -41.333 1.83301 -60 5.5s-35.5 10.5 -50.5 20.5
s-28 22.167 -39 36.5s-19.167 32.166 -24.5 53.499c-21.333 -18 -45.166 -34.667 -71.499 -50s-53.833 -27.833 -82.5 -37.5s-58.5 -16.834 -89.5 -21.501s-62.167 -7 -93.5 -7c-51.333 0 -100.166 5.5 -146.499 16.5s-86.5 29 -120.5 54s-61.333 57.167 -82 96.5
c-20.667 38 -31 85.333 -31 142zM306.997 299.002c0 -20 4.32812 -37.165 12.9951 -51.498s20.834 -25.833 36.501 -34.5s33.667 -15 54 -19s41.5 -6 63.5 -6c50.667 0 93.334 6.16699 128.001 18.5s63.167 28.166 85.5 47.499s38.333 40.166 48 62.499s14.5 43.5 14.5 63.5
l2 134c-29.333 -12 -61 -22.333 -95 -31l-93 -25c-31.333 -7.33301 -62.666 -15.5 -93.999 -24.5s-59.166 -19 -83.499 -30s-43.666 -24.833 -57.999 -41.5s-21.5 -37.667 -21.5 -63z" />
    <glyph glyph-name="b" unicode="b" horiz-adv-x="1232" 
d="M111 1460l244.999 0.000976562v-491c19.333 22.667 41.166 42 65.499 58s49.666 29.333 75.999 40s53.666 19 81.999 25s56.166 9 83.499 9c57.333 0 109.666 -7.33301 156.999 -22s89.666 -34.667 126.999 -60s69.833 -55.5 97.5 -90.5s50.834 -73.5 69.501 -115.5
s32.834 -86.333 42.501 -133s14.5 -94.334 14.5 -143.001c0 -78 -10.167 -151 -30.5 -219s-51.166 -127.333 -92.499 -178s-93.5 -90.5 -156.5 -119.5s-137.167 -43.5 -222.5 -43.5c-27.333 0 -54.666 1.83301 -81.999 5.5s-54.166 10.667 -80.499 21s-52.166 24 -77.499 41
s-49.666 38.167 -72.999 63.5l3 -108h-245zM348.999 537.001c0 -44.667 5.16602 -87.668 15.499 -129.001s26.833 -78 49.5 -110s52.834 -57.833 90.501 -77.5s83.167 -29.5 136.5 -29.5c51.333 0 94.5 10 129.5 30s63 46.833 84 80.5s35.667 71.834 44 114.501
s12.5 86.667 12.5 132c0 41.333 -5.16699 82.166 -15.5 122.499s-26.833 76.333 -49.5 108s-52 57.334 -88 77.001s-79.333 29.5 -130 29.5c-52 0 -95.667 -10.333 -131 -31s-64 -47.5 -86 -80.5s-37.833 -69.833 -47.5 -110.5s-14.5 -82.667 -14.5 -126z" />
    <glyph glyph-name="c" unicode="c" horiz-adv-x="1118" 
d="M54 517c0 80 11 154.5 33 223.5s54.333 129 97 180s97.167 91.333 163.5 121s144.166 44.5 233.499 44.5c63.333 0 123 -7.66699 179 -23s105.167 -39.166 147.5 -71.499s77.333 -73.833 105 -124.5s45.5 -111.334 53.5 -182.001h-245c-7.33301 36 -18 66.167 -32 90.5
s-30.667 43.833 -50 58.5s-41.5 24.834 -66.5 30.501s-52.167 8.5 -81.5 8.5c-55.333 0 -101.5 -9.66699 -138.5 -29s-67.167 -45.666 -90.5 -78.999s-39.666 -71.333 -48.999 -114s-14 -87.334 -14 -134.001c0 -42 5.33301 -82.667 16 -122s27.334 -74.333 50.001 -105
s51.167 -55.334 85.5 -74.001s75.833 -28 124.5 -28c75.333 0 132.333 19 171 57c40 37.333 65.667 95 77 173h252c-14 -72 -34.167 -135.333 -60.5 -190s-59.666 -100.667 -99.999 -138s-88.5 -65.5 -144.5 -84.5s-121 -28.5 -195 -28.5
c-86.667 0 -162.334 13.333 -227.001 40s-118.834 64 -162.501 112s-76.5 105.167 -98.5 171.5s-33 138.5 -33 216.5z" />
    <glyph glyph-name="d" unicode="d" horiz-adv-x="1232" 
d="M58 537c0 48.667 4.50586 96.332 13.5059 142.999s22.667 91 41 133s41.666 80.5 69.999 115.5s61.5 65.167 99.5 90.5s80.833 45.333 128.5 60s99.5 22 155.5 22c27.333 0 55.166 -2.66699 83.499 -8s55.666 -13.166 81.999 -23.499s51.166 -23.833 74.499 -40.5
s44.666 -36.667 63.999 -60v491h245l3 -1460h-245l-3 108c-23.333 -25.333 -46.833 -46.5 -70.5 -63.5s-48.5 -30.667 -74.5 -41s-52.667 -17.333 -80 -21s-55.333 -5.5 -84 -5.5c-86 0 -160.167 14.5 -222.5 43.5s-114.333 68.833 -156 119.5s-72.834 110 -93.501 178
s-31 141 -31 219zM314.006 547.998c0 -45.333 4.66699 -89.332 14 -131.999s24.666 -80.834 45.999 -114.501s49.333 -60.5 84 -80.5s77.667 -30 129 -30c54.667 0 100.5 9.83301 137.5 29.5s67.167 45.5 90.5 77.5s40.333 68.667 51 110s16 84.333 16 129
c0 42 -5.33301 83.667 -16 125s-27.167 78.5 -49.5 111.5s-51.5 59.833 -87.5 80.5s-79.333 31 -130 31s-94 -9.83301 -130 -29.5s-65.667 -45.334 -89 -77.001s-40.166 -67.667 -50.499 -108s-15.5 -81.166 -15.5 -122.499z" />
    <glyph glyph-name="e" unicode="e" horiz-adv-x="1118" 
d="M55 534c0 84 12.665 159.831 37.998 227.498s61 125.5 107 173.5s101 85.167 165 111.5s135 39.5 213 39.5c60.667 0 115.834 -8.5 165.501 -25.5s93.834 -40.333 132.501 -70s71.667 -64.5 99 -104.5s49.833 -83.833 67.5 -131.5s29.834 -97.167 36.501 -148.5
c5.33301 -39.333 8 -79.666 8 -120.999c0 -12 -0.333008 -24.333 -1 -37h-781c2 -36 9.33301 -69.5 22 -100.5s30.5 -58.5 53.5 -82.5s51.5 -42.667 85.5 -56c34 -14 74.333 -21 121 -21c29.333 0 56.833 3.16699 82.5 9.5s49 16.333 70 30s39.167 32.167 54.5 55.5
c14 23.333 25.667 51.666 35 84.999h240c-14 -66 -35 -123.833 -63 -173.5s-63 -90.667 -105 -123s-89.833 -56.166 -143.5 -71.499s-111.834 -23 -174.501 -23c-90 0 -168.333 13.5 -235 40.5s-121.667 65.333 -165 115s-75.333 108.834 -96 177.501
c-21.333 68 -32 142.667 -32 224zM306.998 659.998h520.996c-6 28 -16.5 55 -31.5 81s-33.667 48.667 -56 68s-48.166 34.833 -77.499 46.5s-60.666 17.5 -93.999 17.5c-34.667 0 -66.667 -5.5 -96 -16.5s-55.166 -26 -77.499 -45s-41.166 -41.833 -56.499 -68.5
c-16 -26 -26.667 -53.667 -32 -83z" />
    <glyph glyph-name="f" unicode="f" horiz-adv-x="684" 
d="M34 1061l162.004 -0.000976562l1 151v6c0 46 7 86.667 21 122c14 36 34.667 66.5 62 91.5s61.5 43.833 102.5 56.5s87.833 19 140.5 19c19.333 0 40.666 -2.16699 63.999 -6.5s45.666 -11.166 66.999 -20.499v-221c-22.667 11.333 -44.334 19 -65.001 23
s-38.334 6 -53.001 6c-31.333 0 -55.333 -6.33301 -72 -19c-15.333 -12.667 -23 -34.667 -23 -66v-142h191l2 -226h-193l1 -835h-245l-1 835h-161z" />
    <glyph glyph-name="g" unicode="g" horiz-adv-x="1195" 
d="M55 526c0 40.667 3.5 82.8301 10.5 126.497s18.833 86.167 35.5 127.5s38 80.5 64 117.5s58 69.5 96 97.5s82.667 50 134 66c50 16.667 108 25 174 25c56 0 107.333 -8.66699 154 -26c45.333 -17.333 86.666 -44.666 123.999 -81.999v83h233v-992
c0 -88 -10.167 -164.333 -30.5 -229s-51.833 -118.667 -94.5 -162s-97.167 -75.666 -163.5 -96.999s-144.833 -32 -235.5 -32c-34 0 -68.667 2.83301 -104 8.5s-69.833 14.834 -103.5 27.501s-65.667 28.834 -96 48.501s-56.833 42.834 -79.5 69.501
s-41.167 57.5 -55.5 92.5s-22.5 73.833 -24.5 116.5h243c2 -28 10.667 -52 26 -72s34.833 -36.833 58.5 -50.5s48.834 -23.167 75.501 -28.5c25.333 -6 50.666 -9 75.999 -9c50.667 0 93.5 7.5 128.5 22.5s63.333 36.667 85 65s37.334 62.666 47.001 102.999
s14.5 85.166 14.5 134.499l3 22c-41.333 -36 -87.666 -63.5 -138.999 -82.5s-103.333 -28.5 -156 -28.5c-84 0 -157.167 14.667 -219.5 44s-114.333 68.333 -156 117s-72.834 105.667 -93.501 171s-31 134 -31 206zM307 539.996c0 -40.667 4.00098 -81.167 12.001 -121.5
s22 -76.833 42 -109.5s46.667 -59.5 80 -80.5s74.333 -31.5 123 -31.5c51.333 0 94.5 10.5 129.5 31.5s63 48 84 81s36.333 70.5 46 112.5s14.5 84 14.5 126c0 38.667 -4.33301 77.667 -13 117s-23.334 74.333 -44.001 105s-47.5 55.5 -80.5 74.5s-73.167 28.5 -120.5 28.5
c-50 0 -92 -9 -126 -27s-62 -42.333 -84 -73s-38 -66 -48 -106s-15 -82.333 -15 -127z" />
    <glyph glyph-name="h" unicode="h" horiz-adv-x="1159" 
d="M111 1460h244.999l2 -485c20 18 42.167 33.667 66.5 47s49.5 25 75.5 35s52 17.667 78 23c27.333 6 52.666 9 75.999 9c76.667 0 140.167 -10.167 190.5 -30.5s90.5 -48.333 120.5 -84s50.833 -77.5 62.5 -125.5s17.5 -100.667 17.5 -158l2 -691h-245l-2 707
c-0.666992 52 -15.5 92.667 -44.5 122s-71.5 44 -127.5 44c-44.667 0 -84.167 -7.33301 -118.5 -22s-62.666 -34.667 -84.999 -60s-39.166 -54.333 -50.499 -87c-12 -33.333 -18 -68.333 -18 -105l3 -599h-245z" />
    <glyph glyph-name="i" unicode="i" horiz-adv-x="513" 
d="M131 1190v270h246v-270h-246zM133 1061h244l3 -1061h-246z" />
    <glyph glyph-name="j" unicode="j" horiz-adv-x="513" 
d="M-32 -200c13.333 -2 25 -3.16699 35 -3.5s18.833 -1 26.5 -2s14.5 -1.5 20.5 -1.5h20c12 0 22 1.83301 30 5.5s14.5 10 19.5 19s8.16699 20.333 9.5 34s2 30.167 2 49.5l2 1160h244l3 -1187c0 -52 -7.33301 -97.333 -22 -136s-34.5 -70.167 -59.5 -94.5
s-55.167 -42.333 -90.5 -54s-74.333 -17.5 -117 -17.5c-20 0 -40.667 0.833008 -62 2.5s-41.333 4.16699 -60 7.5zM131 1190v270h246v-270h-246z" />
    <glyph glyph-name="k" unicode="k" horiz-adv-x="1118" 
d="M111 1460h242l2 -781l403 382h325l-429 -395l447 -666h-297l-332 496l-119 -105l3 -391h-242z" />
    <glyph glyph-name="l" unicode="l" horiz-adv-x="513" 
d="M131 1460h246l3 -1460h-246z" />
    <glyph glyph-name="m" unicode="m" horiz-adv-x="1757" 
d="M111 1061l236.005 -0.00195312l3 -103c39.333 42 83.333 73.333 132 94s104 31 166 31c29.333 0 58.666 -2.83301 87.999 -8.5s57 -14.334 83 -26.001s50.333 -26 73 -43s41.667 -37.167 57 -60.5c38.667 46.667 84.167 81.334 136.5 104.001s110.166 34 173.499 34
c58 0 110.667 -6.33301 158 -19s87.666 -32 120.999 -58s59 -60 77 -102c17.333 -41.333 26 -90.666 26 -147.999l3 -756h-245l-2 699c0 26.667 -2.66699 50.667 -8 72s-14.333 39.333 -27 54s-29.5 25.834 -50.5 33.501s-47.5 11.5 -79.5 11.5
c-36.667 0 -69.334 -5 -98.001 -15s-53 -24.333 -73 -43c-19.333 -19.333 -34.333 -42.666 -45 -69.999c-9.33301 -24 -14 -51.333 -14 -82v-12v-648h-246l-1 682c0 27.333 -2.16699 52.333 -6.5 75s-12.333 42.334 -24 59.001s-27.834 29.834 -48.501 39.501
s-46.5 14.5 -77.5 14.5s-58.167 -3.83301 -81.5 -11.5s-44 -17.834 -62 -30.501s-33.167 -26.834 -45.5 -42.501s-22.333 -31.834 -30 -48.501s-13 -32.667 -16 -48s-4.5 -29 -4.5 -41v-648h-245z" />
    <glyph glyph-name="n" unicode="n" horiz-adv-x="1159" 
d="M111 1061l235.999 -0.000976562v-109c35.333 40.667 77.833 72.667 127.5 96s108.5 35 176.5 35c76.667 0 140.667 -10.167 192 -30.5s91.833 -48 121.5 -83s50.5 -76.833 62.5 -125.5c11.333 -46 17 -96 17 -150v-9l3 -685h-243l-2 704
c0 52.667 -15.167 93.5 -45.5 122.5s-74.166 43.5 -131.499 43.5c-44.667 0 -83.834 -7.33301 -117.501 -22s-61.667 -34.667 -84 -60s-39.166 -54.666 -50.499 -87.999c-10 -29.333 -15 -60 -15 -92v-12l1 -596h-245z" />
    <glyph glyph-name="o" unicode="o" horiz-adv-x="1192" 
d="M54 528.5c0 77.667 11.502 150.67 34.502 219.003s57.333 127.5 103 177.5s102 89.333 169 118s145.833 43 236.5 43c89.333 0 167.333 -14.333 234 -43s123 -68 169 -118s80 -109 102 -177c22.667 -68.667 34 -141.667 34 -219
c0 -52.667 -4.83301 -102.334 -14.5 -149.001s-24.834 -90.5 -45.501 -131.5s-46 -78.333 -76 -112s-65 -62.334 -105 -86.001s-84.833 -41.834 -134.5 -54.501s-104.167 -19 -163.5 -19c-89.333 0 -167.833 14 -235.5 42s-124.334 66.833 -170.001 116.5
s-80 108.167 -103 175.5s-34.5 139.833 -34.5 217.5zM305.002 529.003c0 -56.667 7.49805 -106.001 22.498 -148.001s35.667 -77.333 62 -106s57.5 -50.334 93.5 -65.001c34 -14.667 71.667 -22 113 -22c38.667 0 75.5 7.33301 110.5 22s65.5 36.334 91.5 65.001
s46.333 64.334 61 107.001c15.333 41.333 23 90.333 23 147c0 54 -7.33301 102.5 -22 145.5s-35.167 79 -61.5 108s-56.666 51.333 -90.999 67s-71.166 23.5 -110.499 23.5c-40.667 0 -78.5 -7.83301 -113.5 -23.5s-65.667 -38 -92 -67s-47.333 -65 -63 -108
s-23.5 -91.5 -23.5 -145.5z" />
    <glyph glyph-name="p" unicode="p" horiz-adv-x="1232" 
d="M111 -397l-0.00195312 1458h245v-106c23.333 25.333 47.666 46.166 72.999 62.499s51.5 29.666 78.5 39.999s54.333 17.666 82 21.999s55.167 6.5 82.5 6.5c85.333 0 159.166 -14.833 221.499 -44.5s114.166 -70 155.499 -121s72 -110.667 92 -179
s30 -141.166 30 -218.499c0 -48.667 -4.66699 -96.167 -14 -142.5s-23 -90.166 -41 -131.499s-41.167 -79.5 -69.5 -114.5s-60.833 -65.5 -97.5 -91.5s-78.667 -46 -126 -60s-99.666 -21 -156.999 -21c-27.333 0 -55.166 2.5 -83.499 7.5s-56.166 12.833 -83.499 23.5
s-53.166 24.167 -77.499 40.5s-46.166 36.166 -65.499 59.499v-490h-245zM348.998 523.002c0 -42 4.83105 -83.668 14.498 -125.001s25.5 -78.333 47.5 -111s51 -59.167 87 -79.5s79.333 -30.5 130 -30.5s94.167 9.66699 130.5 29s66 44.833 89 76.5s39.833 67.667 50.5 108
s16 81.5 16 123.5c0 44.667 -4.66699 88.5 -14 131.5s-24.666 81 -45.999 114s-49.5 59.667 -84.5 80s-78.5 30.5 -130.5 30.5c-53.333 0 -98.666 -9.66699 -135.999 -29s-67.5 -45.166 -90.5 -77.499s-39.833 -69.5 -50.5 -111.5c-8.66699 -36.667 -13 -74.667 -13 -114
v-15z" />
    <glyph glyph-name="q" unicode="q" horiz-adv-x="1232" 
d="M58 523c0 77.333 10.333 150.165 31 218.498s51.334 128 92.001 179s92.167 91.333 154.5 121s136.5 44.5 222.5 44.5c27.333 0 54.833 -2.16699 82.5 -6.5s54.834 -11.666 81.501 -21.999s52.167 -23.666 76.5 -39.999s48.166 -37.166 71.499 -62.499v106h245v-1458
h-245l2 490c-20 -22 -41.833 -41.5 -65.5 -58.5s-48.834 -30.833 -75.501 -41.5s-54.334 -18.667 -83.001 -24c-29.333 -4.66699 -57.333 -7 -84 -7c-58 0 -110.5 7 -157.5 21s-89 34 -126 60s-69.667 56.5 -98 91.5s-51.666 73.167 -69.999 114.5s-32 85.166 -41 131.499
s-13.5 93.833 -13.5 142.5zM315 513.999c0 -42 5.33301 -83.168 16 -123.501s27.334 -76.333 50.001 -108s52 -57.167 88 -76.5s79.333 -29 130 -29c51.333 0 95 10.167 131 30.5s65.167 46.833 87.5 79.5s38.666 69.834 48.999 111.501s15.5 83.167 15.5 124.5
c0 44.667 -5.66699 87.834 -17 129.501s-28.333 78.667 -51 111s-53 58.166 -91 77.499c-36 19.333 -81.333 29 -136 29c-51.333 0 -94.333 -10.167 -129 -30.5s-62.667 -47 -84 -80s-36.5 -71 -45.5 -114s-13.5 -86.833 -13.5 -131.5z" />
    <glyph glyph-name="r" unicode="r" horiz-adv-x="719" 
d="M111 1061h236.001l3 -131c20.667 26 42 48.833 64 68.5s47 35.834 75 48.501s59.167 21.834 93.5 27.501s74.166 8.5 119.499 8.5v-239c-70 0 -127.333 -8.5 -172 -25.5s-80 -41.333 -106 -73s-43.833 -70.334 -53.5 -116.001s-14.5 -97.834 -14.5 -156.501l3 -473h-245z
" />
    <glyph glyph-name="s" unicode="s" horiz-adv-x="1043" 
d="M38 380l244.998 -0.00390625c3.33301 -38 12.166 -69.5 26.499 -94.5s32.833 -45 55.5 -60s48.334 -25.5 77.001 -31.5s58.334 -9 89.001 -9c23.333 0 47.5 1.83301 72.5 5.5s47.667 9.83398 68 18.501s37.166 20.334 50.499 35.001s20.333 34 21 58
c0 21.333 -7.33301 39.333 -22 54s-33.834 27.167 -57.501 37.5s-51.167 19.333 -82.5 27s-63 14.834 -95 21.501c-31.333 6 -63.666 13.333 -96.999 22s-65.666 19.167 -96.999 31.5s-60.833 26.333 -88.5 42s-52 34.667 -73 57s-37.333 47.5 -49 75.5
s-17.5 60.5 -17.5 97.5s5.83301 70.833 17.5 101.5s27.5 57.834 47.5 81.501s43.833 44 71.5 61s57.334 30.833 89.001 41.5s64.834 18.834 99.501 24.501s69 8.5 103 8.5c61.333 0 119 -6.33301 173 -19s101.667 -33.5 143 -62.5s75.166 -67.833 101.499 -116.5
s41.833 -109 46.5 -181h-245c-2 32 -9.5 58.667 -22.5 80s-29.5 38.5 -49.5 51.5s-42 22.5 -66 28.5s-48 9 -72 9c-21.333 0 -42.833 -1.5 -64.5 -4.5s-41.5 -8.33301 -59.5 -16s-32.333 -17.5 -43 -29.5c-10.667 -13.333 -16 -28.833 -16 -46.5s6.33301 -32.334 19 -44.001
s29.667 -22 51 -31s46.166 -17.167 74.499 -24.5l90.5 -23l76 -18c50.667 -11.333 98.167 -24.833 142.5 -40.5s83.333 -35.167 117 -58.5s60.5 -52.5 80.5 -87.5s30 -77.167 30 -126.5c0 -46 -6.83301 -86.5 -20.5 -121.5s-31.667 -65.667 -54 -92s-48.666 -48 -78.999 -65
s-63 -30.833 -98 -41.5s-71.5 -18.167 -109.5 -22.5s-76.333 -6.5 -115 -6.5c-65.333 0 -126.5 6.83301 -183.5 20.5s-106.833 36.5 -149.5 68.5s-77.667 73.667 -105 125c-27.333 52 -43 115 -47 189z" />
    <glyph glyph-name="t" unicode="t" horiz-adv-x="670" 
d="M13 1061l161.999 0.000976562l-1 314h242l2 -314h192l2 -226h-194l-2 -561c0 -12 1.5 -21.667 4.5 -29s8.16699 -13 15.5 -17s16.833 -6.5 28.5 -7.5s26.834 -1.5 45.501 -1.5h113l2 -219h-164c-50.667 0 -94.167 3.66699 -130.5 11s-66 20.666 -89 39.999s-40 46 -51 80
s-16.5 78 -16.5 132l1 572h-160z" />
    <glyph glyph-name="u" unicode="u" horiz-adv-x="1165" 
d="M111 377l0.00292969 683.999h251l2 -705c0 -50.667 14.333 -90.334 43 -119.001s70 -43 124 -43c47.333 0 88 6.83301 122 20.5s62.167 32.667 84.5 57s38.833 53.333 49.5 87s16 70.834 16 111.501v591h248l-1 -1064h-240l-1 105
c-39.333 -38.667 -83.333 -69.167 -132 -91.5s-104 -33.5 -166 -33.5c-76.667 0 -140.834 9.66699 -192.501 29s-92.834 46.5 -123.501 81.5s-52.334 77.333 -65.001 127s-19 103.834 -19 162.501z" />
    <glyph glyph-name="v" unicode="v" horiz-adv-x="1087" 
d="M25 1061h273l254 -756l245 756h263l-387 -1061h-255z" />
    <glyph glyph-name="w" unicode="w" horiz-adv-x="1601" 
d="M25 1061h276l195 -714l179 714h259l184 -714l196 714h260l-336 -1061h-254l-187 688l-169 -688h-263z" />
    <glyph glyph-name="x" unicode="x" horiz-adv-x="1124" 
d="M15 0l391 556l-362 505h301l213 -311l214 311h303l-365 -490l400 -571h-303l-249 374l-250 -374h-293z" />
    <glyph glyph-name="y" unicode="y" horiz-adv-x="1096" 
d="M19 1061h269.998l272 -756l129 379l128 377h257l-460 -1210c-21.333 -52.667 -43 -98 -65 -136s-46.167 -69.167 -72.5 -93.5s-55.5 -42 -87.5 -53s-68.667 -16.5 -110 -16.5c-21.333 0 -44.666 0.666992 -69.999 2s-51.666 7.33301 -78.999 18l3 234
c27.333 -10.667 51.333 -18 72 -22s38.667 -6 54 -6c50.667 0 87.667 23.333 111 70l63 164z" />
    <glyph glyph-name="z" unicode="z" horiz-adv-x="1102" 
d="M88 174l587 670h-547v217h884l-2 -165l-592 -680h586v-216h-913z" />
    <glyph glyph-name="braceleft" unicode="{" horiz-adv-x="705" 
d="M74 619c24 0 46.166 6.16992 66.499 18.5029s38 28.833 53 49.5s26.833 45.167 35.5 73.5s13 59.166 13 92.499v370c0 43.333 6.83301 82 20.5 116s32.5 62.5 56.5 85.5s51.5 40.5 82.5 52.5s64.167 18 99.5 18h150l-1 -180h-84c-17.333 0 -32.333 -2.16699 -45 -6.5
s-22.834 -11.833 -30.501 -22.5s-13 -23.834 -16 -39.501s-4.5 -34.5 -4.5 -56.5v-368c0 -38.667 -5.33301 -73.334 -16 -104.001s-24.334 -57.667 -41.001 -81s-34 -43 -52 -59c-16.667 -15.333 -32 -27 -46 -35c14 -6 29.667 -14.333 47 -25s34.333 -26.667 51 -48
s30.334 -48.333 41.001 -81c10.667 -33.333 16.667 -73.333 18 -120l-3 -368c2 -41.333 9.66699 -71.666 23 -90.999s38 -29 74 -29h84l-2 -178h-149c-36 0 -69.333 5.33301 -100 16s-57.667 27.167 -81 49.5s-41.833 50.5 -55.5 84.5s-20.5 73.667 -20.5 119l3 367
c0 35.333 -4.5 67.666 -13.5 96.999s-21.167 53.833 -36.5 73.5s-33.166 35.167 -53.499 46.5s-42.166 17 -65.499 17z" />
    <glyph glyph-name="bar" unicode="|" horiz-adv-x="477" 
d="M136 -431l1 2037h203l-1 -2037h-203z" />
    <glyph glyph-name="braceright" unicode="}" horiz-adv-x="705" 
d="M53 -219h83.0049c36 0 60.833 9.66699 74.5 29s20.5 49.666 20.5 90.999l1 368c0 46.667 5.66699 86.5 17 119.5s24.666 60.167 39.999 81.5s32 37.666 50 48.999c17.333 10 32.666 18 45.999 24c-13.333 8 -28.833 19.833 -46.5 35.5s-34.5 35.167 -50.5 58.5
s-29.5 50.333 -40.5 81s-16.5 65.334 -16.5 104.001v368c0 22 -1.5 40.833 -4.5 56.5s-8.33301 28.834 -16 39.501s-17.834 18.334 -30.501 23.001c-12.667 4 -28 6 -46 6h-81v180h148c35.333 0 68.5 -6 99.5 -18s58.333 -29.5 82 -52.5s42.167 -51.5 55.5 -85.5
s19.666 -72.667 18.999 -116l1 -370c0 -32.667 4.5 -63.334 13.5 -92.001s20.833 -53.334 35.5 -74.001s32.167 -37.167 52.5 -49.5s42.166 -18.5 65.499 -18.5v-146c-23.333 0 -45 -5.66699 -65 -17s-37.5 -26.833 -52.5 -46.5s-26.667 -44.167 -35 -73.5
s-12.5 -61.666 -12.5 -96.999l-2 -367c0 -45.333 -6.5 -85 -19.5 -119s-31.167 -62.167 -54.5 -84.5s-50.833 -38.833 -82.5 -49.5s-65.167 -16 -100.5 -16h-147z" />
    <glyph glyph-name="asciitilde" unicode="~" horiz-adv-x="1246" 
d="M115 470c12 26.667 27.002 52.1699 45.002 76.5029s38.833 46.166 62.5 65.499s50.834 34.833 81.501 46.5s65.667 17.5 105 17.5c26 0 52.5 -3.66699 79.5 -11s53.333 -16.333 79 -27s50.834 -22.334 75.501 -35.001l71 -35c22.667 -10.667 44.667 -19.834 66 -27.501
s40.666 -11.5 57.999 -11.5c15.333 0 31.5 5.33301 48.5 16s33.667 24.167 50 40.5s31.666 34.333 45.999 54l39.5 56.5l108 -148c-15.333 -25.333 -32.333 -50 -51 -74s-39.667 -45.167 -63 -63.5s-49.833 -33.5 -79.5 -45.5s-63.5 -18 -101.5 -18c-26 0 -52 3.5 -78 10.5
s-51.833 15.833 -77.5 26.5s-51 22.5 -76 35.5s-49.333 25 -73 36s-47 20 -70 27s-45.167 10.5 -66.5 10.5c-15.333 0 -30.333 -5 -45 -15s-29.334 -23.333 -44.001 -40s-29.334 -35.5 -44.001 -56.5l-42 -61.5z" />
    <glyph glyph-name="uni00A0" unicode="&#xa0;" horiz-adv-x="362" 
 />
    <glyph glyph-name="cent" unicode="&#xa2;" horiz-adv-x="1127" 
d="M63 534c0 72 8.49902 140.499 25.499 205.499s44 122.5 81 172.5s83.167 91 138.5 123s121 53 197 63l-3 193h161l3 -190c53.333 -6 103.333 -18.167 150 -36.5s87.834 -43.666 123.501 -75.999s64.834 -72.333 87.501 -120s37 -102.5 43 -164.5h-245
c-4 28 -11.167 52.5 -21.5 73.5s-22.166 38.833 -35.499 53.5s-28.833 26.334 -46.5 35.001s-37.167 15 -58.5 19l3 -669c46.667 12 83.167 36.5 109.5 73.5s44.833 86.167 55.5 147.5h251c-25.333 -130.667 -71.333 -232.834 -138 -306.501
s-159.334 -117.167 -278.001 -130.5v-219h-162l1 219c-74 8 -138.667 26.5 -194 55.5s-101.5 66.833 -138.5 113.5s-64.833 101.167 -83.5 163.5s-27.334 129.5 -26.001 201.5zM307.999 533.999c-0.666992 -36 2.83203 -70.666 10.499 -103.999s19.5 -64.5 35.5 -93.5
s36.5 -53.833 61.5 -74.5s54.833 -36 89.5 -46l-1 663c-37.333 -10 -68.666 -26.333 -93.999 -49s-45.5 -49.334 -60.5 -80.001s-25.667 -64.5 -32 -101.5s-9.5 -75.167 -9.5 -114.5z" />
    <glyph glyph-name="sterling" unicode="&#xa3;" horiz-adv-x="1127" 
d="M42 149c32.667 18.667 63.5078 40.8311 92.5078 66.498s54.167 53.167 75.5 82.5s38.666 60.333 51.999 93c12 33.333 18 66.666 18 99.999c0 11.333 -0.5 23.333 -1.5 36s-3.33301 25.334 -7 38.001s-8.16699 25.334 -13.5 38.001s-11 24 -17 34h-183v154h94
c-19.333 37.333 -35.833 78.333 -49.5 123s-20.5 94.667 -20.5 150c0 45.333 6.33301 87.166 19 125.499s29.834 73 51.501 104s47.834 59 78.501 84s64.5 46 101.5 63s76.5 29.833 118.5 38.5s85 13 129 13c79.333 0 151 -11.667 215 -35s117.833 -58.666 161.5 -105.999
s76.667 -106.166 99 -176.499s33.5 -152.833 33.5 -247.5h-239c-2 56.667 -8.66699 107.167 -20 151.5s-27.666 82 -48.999 113s-47.833 54.333 -79.5 70s-68.834 23.5 -111.501 23.5c-37.333 0 -71.5 -5.83301 -102.5 -17.5s-58 -27.834 -81 -48.501s-40.833 -45 -53.5 -73
s-19 -58 -19 -90c0 -25.333 2.16699 -49.5 6.5 -72.5s10.666 -45.667 18.999 -68s17.666 -43.666 27.999 -63.999s21.166 -40.5 32.499 -60.5h339v-154h-258c6 -16.667 10.667 -34.667 14 -54c3.33301 -20.667 5.33301 -39.667 6 -57
c0 -29.333 -3.16699 -57.666 -9.5 -84.999s-14.833 -53.166 -25.5 -77.499s-23.334 -47.5 -38.001 -69.5c-14.667 -20.667 -30 -40.667 -46 -60c12 3.33301 23.667 5.5 35 6.5s23.666 1.5 36.999 1.5c43.333 0 80.666 -3.66699 111.999 -11c32 -6 60.667 -13 86 -21l57 -16
c16 -4.66699 29.833 -8 41.5 -10s22.5 -3.66699 32.5 -5s19.667 -2 29 -2c14 0 28.667 2.33301 44 7s31.166 11.167 47.499 19.5s32 17.833 47 28.5s29.167 22 42.5 34l132 -181c-25.333 -22.667 -52.333 -41.5 -81 -56.5s-57.667 -26.833 -87 -35.5
s-58.333 -14.5 -87 -17.5s-57.334 -4.5 -86.001 -4.5c-20 0 -39 1 -57 3s-35.5 4.66699 -52.5 8s-33.833 7.16602 -50.5 11.499s-33.667 9.5 -51 15.5c-37.333 11.333 -71.833 20.666 -103.5 27.999s-63.834 11 -96.501 11c-35.333 0 -70 -7.5 -104 -22.5
s-69.667 -33.167 -107 -54.5z" />
    <glyph glyph-name="yen" unicode="&#xa5;" horiz-adv-x="1204" 
d="M-4 1460h300l317 -644l299 644h294l-353 -675h169l1 -183h-270l-23 -46v-71h293l2 -189h-292v-296h-254l-2 296h-287v189h286v71l-23 46h-263l-2 183h162z" />
    <glyph glyph-name="copyright" unicode="&#xa9;" horiz-adv-x="1626" 
d="M47 721c0 70 9.16602 137.666 27.499 202.999s44 125.666 77 180.999s73 106 120 152s98.667 85.333 155 118s117.166 58 182.499 76s132 27 200 27c68.667 0 135.5 -9 200.5 -27s125.667 -43.333 182 -76s107.333 -72 153 -118s85.334 -96.667 119.001 -152
s59.5 -115.666 77.5 -180.999s27 -133 27 -203c0 -72 -9 -141 -27 -207s-43.833 -127 -77.5 -183s-73.5 -106.667 -119.5 -152s-97 -84 -153 -116s-116.5 -56.333 -181.5 -73s-131.833 -25 -200.5 -25c-70 0 -137.167 8.33301 -201.5 25s-124.666 41 -180.999 73
s-108 70.667 -155 116s-87 96 -120 152s-58.667 116.833 -77 182.5s-27.5 134.834 -27.5 207.501zM222.999 720.999c0 -87.333 14.501 -168.334 43.501 -243.001s69.167 -139.167 120.5 -193.5s113 -96.833 185 -127.5s150.333 -46 235 -46
c54.667 0 107.167 6.83301 157.5 20.5s97.333 33.667 141 60s83.5 57.5 119.5 93.5s66.667 76.5 92 121.5s44.833 94.167 58.5 147.5s20.5 109 20.5 167c0 58.667 -6.83301 114.334 -20.5 167.001s-33.167 101.334 -58.5 146.001s-55.5 85 -90.5 121s-74.5 66.667 -118.5 92
s-91 44.666 -141 57.999c-50.667 14 -103.334 21 -158.001 21c-86 0 -164.5 -15.167 -235.5 -45.5s-132.5 -72.5 -184.5 -126.5s-92.667 -117.667 -122 -191s-44 -154 -44 -242zM383 717.998c0 67.333 10.1621 129 30.4951 185s49.5 104.5 87.5 145.5s84 72.833 138 95.5
s115 34 183 34c50.667 0 97.667 -6.5 141 -19.5s82 -33.167 116 -60.5s62.667 -62 86 -104s40.333 -91 51 -147h-162c-6 26 -15.833 50.5 -29.5 73.5s-30.167 42.667 -49.5 59s-41.666 29.5 -66.999 39.5s-52.666 15 -81.999 15c-42.667 0 -81 -7.83301 -115 -23.5
s-62.667 -37.667 -86 -66s-40.833 -61.5 -52.5 -99.5s-17.5 -79.333 -17.5 -124c0 -40.667 6.33301 -80.5 19 -119.5s30.834 -73 54.501 -102s52.834 -52.833 87.501 -71.5s73.334 -28 116.001 -28c27.333 0 53.5 4.83301 78.5 14.5s47.167 23 66.5 40s35.5 37.5 48.5 61.5
s22.5 51.667 28.5 83h164c-12.667 -56 -31.167 -105.667 -55.5 -149s-53.333 -79.5 -87 -108.5s-71 -51.333 -112 -67s-85.167 -23.5 -132.5 -23.5c-68 0 -129.833 11.667 -185.5 35s-103 56 -142 98s-68.833 91.333 -89.5 148c-20.667 58 -31 120 -31 186z" />
    <glyph glyph-name="guillemotleft" unicode="&#xab;" horiz-adv-x="938" 
d="M93 456v217l320 251l2 -206l-196 -156l196 -153v-209zM491 673l319 251l3 -206l-200 -156l199 -153v-209l-320 256z" />
    <glyph glyph-name="uni00AD" unicode="&#xad;" horiz-adv-x="967" 
d="M89 645h784l3 -194h-784z" />
    <glyph glyph-name="registered" unicode="&#xae;" horiz-adv-x="1617" 
d="M47 721c0 70 9.16602 137.666 27.499 202.999s44 125.666 77 180.999s73 106 120 152s98.667 85.333 155 118s117.166 58 182.499 76s132 27 200 27c68.667 0 135.5 -9 200.5 -27s125.667 -43.333 182 -76s107.333 -72 153 -118s85.334 -96.667 119.001 -152
s59.5 -115.666 77.5 -180.999s27 -133 27 -203c0 -72 -9 -141 -27 -207s-43.833 -127 -77.5 -183s-73.5 -106.667 -119.5 -152s-97 -84 -153 -116s-116.5 -56.333 -181.5 -73s-131.833 -25 -200.5 -25c-70 0 -137.167 8.33301 -201.5 25s-124.666 41 -180.999 73
s-108 70.667 -155 116s-87 96 -120 152s-58.667 116.833 -77 182.5s-27.5 134.834 -27.5 207.501zM222.999 720.999c0 -87.333 14.501 -168.334 43.501 -243.001s69.167 -139.167 120.5 -193.5s113 -96.833 185 -127.5s150.333 -46 235 -46
c54.667 0 107.167 6.83301 157.5 20.5s97.333 33.667 141 60s83.5 57.5 119.5 93.5s66.667 76.5 92 121.5s44.833 94.167 58.5 147.5s20.5 109 20.5 167c0 58.667 -6.83301 114.334 -20.5 167.001s-33.167 101.334 -58.5 146.001s-55.5 85 -90.5 121s-74.5 66.667 -118.5 92
s-91 44.666 -141 57.999c-50.667 14 -103.334 21 -158.001 21c-86 0 -164.5 -15.167 -235.5 -45.5s-132.5 -72.5 -184.5 -126.5s-92.667 -117.667 -122 -191s-44 -154 -44 -242zM502 316.998v803.998h330c101.333 0 176.666 -19.667 225.999 -59
c50 -39.333 75 -102.333 75 -189c0 -29.333 -4.66699 -56.666 -14 -81.999s-22 -47.666 -38 -66.999s-34.667 -36.333 -56 -51s-45.666 -26 -72.999 -34l203 -322h-194l-193 305h-88v-305h-178zM680 767.996l98 -0.000976562c22.667 0 44.667 1 66 3s40.5 6.83301 57.5 14.5
s30.667 18.334 41 32.001s15.5 33.167 15.5 58.5c0 19.333 -4.5 35.333 -13.5 48s-20.5 22.5 -34.5 29.5s-29.5 11.833 -46.5 14.5s-33.833 4 -50.5 4h-131z" />
    <glyph glyph-name="guillemotright" unicode="&#xbb;" horiz-adv-x="938" 
d="M123 924l321 -251v-217l-320 -256l2 209l194 153l-194 156zM520 924l321 -251v-217l-318 -256v209l192 153l-192 156z" />
    <glyph glyph-name="onequarter" unicode="&#xbc;" horiz-adv-x="1703" 
d="M96 1261c30.667 2 59.334 5.99902 86.001 11.999s50.667 14.833 72 26.5s39.666 27.834 54.999 48.501c14 20 25 46 33 78h153v-886h-174v596c-29.333 -14 -61.333 -23.667 -96 -29c-35.333 -4 -77.333 -7 -126 -9zM365 -0.000976562l832 1460h187l-831 -1460h-188z
M952 335.999l420 552h138l-2 -541h120l1 -162h-119v-185h-173l-1 185h-383zM1146 346.999h188l2 246z" />
    <glyph glyph-name="onehalf" unicode="&#xbd;" horiz-adv-x="1703" 
d="M96 1261c30.667 2 59.334 5.99902 86.001 11.999s50.667 14.833 72 26.5s39.666 27.834 54.999 48.501c14 20 25 46 33 78h153v-886h-174v596c-29.333 -14 -61.333 -23.667 -96 -29c-35.333 -4 -77.333 -7 -126 -9zM302 -0.000976562l831 1460h190l-832 -1460h-189z
M978 -0.000976562c4 58.667 13.334 108.333 28.001 149s33.834 76.167 57.501 106.5s50.834 55.833 81.501 76.5c30.667 20 62.667 39.667 96 59s63 37.333 89 54s47.833 33.334 65.5 50.001s31.334 34.167 41.001 52.5s14.5 40.166 14.5 65.499c0 36 -11.667 64 -35 84
s-54.333 30 -93 30c-25.333 0 -46.833 -5.33301 -64.5 -16s-32 -25.334 -43 -44.001s-19.167 -39.667 -24.5 -63s-8 -47.666 -8 -72.999h-187c0 50.667 7.66699 97.5 23 140.5s37.166 80.333 65.499 112s62.5 56.5 102.5 74.5s84.667 27 134 27
c43.333 0 84.166 -6.33301 122.499 -19s71.666 -30.667 99.999 -54s51 -51.833 68 -85.5s25.5 -71.5 25.5 -113.5c0 -44.667 -9 -84.334 -27 -119.001s-41.167 -65.834 -69.5 -93.501s-59 -52.167 -92 -73.5s-64.833 -40.666 -95.5 -57.999l-36.5 -20
c-13.667 -7.33301 -27.167 -15.666 -40.5 -24.999s-26.833 -19.833 -40.5 -31.5s-25.834 -24.167 -36.501 -37.5h427v-155h-648z" />
    <glyph glyph-name="threequarters" unicode="&#xbe;" horiz-adv-x="1703" 
d="M105 850l189.998 0.00488281c0.666992 -28.667 3.66699 -53.334 9 -74.001s13.833 -37.334 25.5 -50.001s26.667 -22.167 45 -28.5s39.833 -9.5 64.5 -9.5c20 0 39.167 2.66699 57.5 8s35 12.833 50 22.5s27 21.834 36 36.501s13.833 31 14.5 49
c0 24 -4.66699 43.667 -14 59s-21.166 27.666 -35.499 36.999s-31 16.166 -50 20.499s-38.5 6.5 -58.5 6.5h-56l1 150h42c16.667 0 33 2 49 6s30.333 10 43 18s23 17.833 31 29.5s12 25.667 12 42s-3.66699 30.666 -11 42.999s-16.666 22.666 -27.999 30.999
s-24.333 14.333 -39 18s-29.667 5.5 -45 5.5c-23.333 0 -43.333 -3.66699 -60 -11s-29.834 -17.833 -39.501 -31.5s-16.5 -30 -20.5 -49s-6 -40.167 -6 -63.5h-184c4 48.667 13.333 92.5 28 131.5s34.667 72.167 60 99.5s56.5 48 93.5 62s79.833 21 128.5 21
c44 0 84.667 -5 122 -15s69.333 -25.833 96 -47.5s47.834 -48.5 63.501 -80.5s23.5 -70 23.5 -114c0 -28.667 -8 -57 -24 -85s-37.667 -51.667 -65 -71c42.667 -21.333 74.334 -49.5 95.001 -84.5s32 -75.5 34 -121.5c0 -46.667 -9.83301 -87.667 -29.5 -123
s-45.334 -64.666 -77.001 -87.999s-68.167 -40.833 -109.5 -52.5s-83.333 -17.5 -126 -17.5c-46.667 0 -90.5 6.5 -131.5 19.5s-76.5 32.667 -106.5 59s-53.833 59.666 -71.5 99.999s-26.5 87.833 -26.5 142.5zM481.998 0.00488281l832 1460h187l-835 -1460h-184z
M980.998 336.005l421 552h137v-541h120v-162h-120v-185h-172v185h-383zM1177 347.005h187l3 246z" />
    <glyph glyph-name="multiply" unicode="&#xd7;" horiz-adv-x="1046" 
d="M31 936l137 131l355 -379l359 379l139 -131l-367 -388l368 -387l-137 -132l-359 380l-357 -380l-137 132l362 387z" />
    <glyph glyph-name="divide" unicode="&#xf7;" horiz-adv-x="1216" 
d="M69 645h1070l3 -194h-1072zM453 146c0 21.333 4.33496 41.501 13.002 60.501s19.834 35.833 33.501 50.5s29.667 26.334 48 35.001s37.166 13 56.499 13c22 0 42.167 -4.33301 60.5 -13s34.833 -20.334 49.5 -35.001s26.167 -31.5 34.5 -50.5s12.5 -39.167 12.5 -60.5
c0 -19.333 -4.16699 -37.5 -12.5 -54.5s-19.333 -32.333 -33 -46s-29.834 -24.667 -48.501 -33s-37.667 -12.5 -57 -12.5c-20 0 -39.5 3.83301 -58.5 11.5s-35.833 18.167 -50.5 31.5s-26.334 28.666 -35.001 45.999s-13 36.333 -13 57zM453.002 948.001
c0 21.333 4.33105 41.167 12.998 59.5s19.834 34.5 33.501 48.5s29.667 25.5 48 34.5s37.166 13.5 56.499 13.5c22 0 42.167 -4.5 60.5 -13.5s34.833 -20.5 49.5 -34.5s26.334 -30.5 35.001 -49.5s13 -38.5 13 -58.5s-4.33301 -39.5 -13 -58.5s-20 -35.167 -34 -48.5
s-30.167 -24.166 -48.5 -32.499s-38.166 -12.5 -59.499 -12.5c-20 0 -39.333 4.16699 -58 12.5s-35 19.166 -49 32.499s-25.333 29.5 -34 48.5s-13 38.5 -13 58.5z" />
    <glyph glyph-name="kokaithai" unicode="&#xe01;" horiz-adv-x="1290" 
d="M32 850c8 32.667 18.9971 65.166 32.9971 97.499s32.5 63.5 55.5 93.5s49.833 58 80.5 84s66.167 48.5 106.5 67.5s85.5 33.833 135.5 44.5c51.333 10.667 107 16 167 16c72 0 136 -6.66699 192 -20s105.167 -31.833 147.5 -55.5s77.833 -51.667 106.5 -84
s52 -67.5 70 -105.5s31 -78.167 39 -120.5s12 -85.166 12 -128.499l1 -739h-248l-4 759c0 35.333 -5.16699 69.5 -15.5 102.5s-27.833 63.167 -52.5 90.5s-57 49.166 -97 65.499s-90.333 25.166 -151 26.499c-50.667 0 -95 -5.66699 -133 -17s-70 -25.666 -96 -42.999
s-46.333 -36 -61 -56s-24 -38.333 -28 -55c12 -11.333 23.333 -24.666 34 -39.999s19.834 -32 27.501 -50s13.5 -37.333 17.5 -58c4 -22 6 -43.667 6 -65l3 -660h-246v663c0 16.667 -1.66699 33.5 -5 50.5s-8.66602 33.667 -15.999 50s-17.666 31.833 -30.999 46.5
c-12 14.667 -28.667 28 -50 40z" />
    <glyph glyph-name="khokhaithai" unicode="&#xe02;" horiz-adv-x="1135" 
d="M26 1028v198h374l197 -957l197 957h254l-271 -1226h-362l-231 1028h-158z" />
    <glyph glyph-name="khokhuatthai" unicode="&#xe03;" horiz-adv-x="1165" 
d="M44 1226l233.002 -0.00878906c0 -15.333 1.5 -30.333 4.5 -45s8 -27.334 15 -38.001s15.833 -19.334 26.5 -26.001s22.834 -10 36.501 -10s25.834 2.83301 36.501 8.5s19.834 13.834 27.501 24.501s13.667 23.334 18 38.001s6.5 30.667 6.5 48h238l2 -254
c0 -23.333 -4 -45.166 -12 -65.499s-19.333 -40.166 -34 -59.499s-32.667 -39.666 -54 -60.999l-74 -71c-19.333 -19.333 -35.833 -37.166 -49.5 -53.499s-24.834 -32.833 -33.501 -49.5s-15.334 -33.667 -20.001 -51c-5.33301 -18 -8 -37.667 -8 -59l3 -77
c0 -38 4.83301 -71.667 14.5 -101s23.5 -54.166 41.5 -74.499s39.5 -35.666 64.5 -45.999s52.5 -15.5 82.5 -15.5c27.333 0 52.833 3.66699 76.5 11s44.5 19.833 62.5 37.5s32.333 40.167 43 67.5c10 27.333 14.333 61.333 13 102l2 820h245l-1 -838
c0 -72 -12 -134.167 -36 -186.5s-56.333 -95.666 -97 -129.999s-87.834 -59.666 -141.501 -75.999s-109.834 -24.5 -168.501 -24.5c-60 0 -117.333 8.66699 -172 26s-102.834 43.5 -144.501 78.5s-74.667 78.833 -99 131.5s-37.166 113 -38.499 181v57
c0 33.333 0.833008 62.833 2.5 88.5s4.66699 48.834 9 69.501s10.166 39.167 17.499 55.5s17 32.333 29 48s26.333 31 43 46s36.667 31.5 60 49.5c11.333 7.33301 23.333 16.166 36 26.499s24.667 21 36 32s21.333 23.333 30 37s15 28.5 19 44.5
c-13.333 -10 -30.333 -18.167 -51 -24.5s-41.667 -9.5 -63 -9.5c-13.333 0 -29.833 1.5 -49.5 4.5s-39.667 8.83301 -60 17.5s-40.666 20.334 -60.999 35.001s-38.333 33.667 -54 57s-28.334 51.5 -38.001 84.5s-14.5 72.833 -14.5 119.5z" />
    <glyph glyph-name="khokhwaithai" unicode="&#xe04;" horiz-adv-x="1303" 
d="M111 710c0 45.333 3.3291 90.168 9.99609 134.501s18.334 86.666 35.001 126.999s38.334 77.833 65.001 112.5s60 64.334 100 89.001s87.333 44.167 142 58.5s117.334 21.5 188.001 21.5c70 0 132.333 -7.16699 187 -21.5s102 -33.833 142 -58.5s73 -54.334 99 -89.001
s47.333 -72.167 64 -112.5s28.334 -82.833 35.001 -127.5s10 -89.334 10 -134.001l2 -710h-248l-2 736c0 23.333 -1.83301 46.666 -5.5 69.999s-10.167 46.166 -19.5 68.499s-21.5 43.333 -36.5 63s-33.333 36.667 -55 51s-46.834 25.5 -75.501 33.5s-61.334 12 -98.001 12
c-37.333 0 -70.333 -4 -99 -12s-53.667 -19.167 -75 -33.5s-39.5 -31.333 -54.5 -51s-27.167 -40.667 -36.5 -63s-16.166 -45.166 -20.499 -68.499s-6.5 -46.666 -6.5 -69.999l-2 -165c22.667 32 46.334 59.167 71.001 81.5s52.167 40.833 82.5 55.5s64 25 101 31
s78.833 9 125.5 9l-3 -217c-72 0 -131.833 -9.16699 -179.5 -27.5s-86.167 -45.333 -115.5 -81s-50.333 -78.667 -63 -129s-19 -107.166 -19 -170.499l3 -123h-245z" />
    <glyph glyph-name="khokhonthai" unicode="&#xe05;" horiz-adv-x="1315" 
d="M114 0l0.000976562 720.994c0 40 2.16699 79.5 6.5 118.5s12.333 76.5 24 112.5s27.167 69.833 46.5 101.5s43.666 60.334 72.999 86.001s64 47.5 104 65.5s86.333 31 139 39l147 -161l143 161c54.667 -8 102.5 -20.667 143.5 -38s76.5 -38.666 106.5 -63.999
s54.667 -54.166 74 -86.499s35 -66.5 47 -102.5s20.333 -73.667 25 -113c4.66699 -38 7 -77.667 7 -119l3 -721h-248l-3 745c0 21.333 -1.5 44.666 -4.5 69.999s-8.33301 49.833 -16 73.5s-18.334 45.5 -32.001 65.5s-30.167 35 -49.5 45l-152 -158
c-4 -4 -8.83301 -8.16699 -14.5 -12.5s-14.5 -6.5 -26.5 -6.5c-10.667 0 -19.667 2 -27 6l-20 13l-159 158c-18.667 -10 -34 -24.667 -46 -44s-21.667 -40.666 -29 -63.999s-12.5 -47.666 -15.5 -72.999s-4.5 -49.666 -4.5 -72.999v-174
c22.667 32 46.334 59.167 71.001 81.5s52.167 40.833 82.5 55.5s64 25 101 31s78.833 9 125.5 9l-3 -217c-72 0 -131.833 -9.16699 -179.5 -27.5s-86.167 -45.333 -115.5 -81s-50.333 -78.667 -63 -129s-19 -107.166 -19 -170.499l3 -123h-245z" />
    <glyph glyph-name="khorakhangthai" unicode="&#xe06;" horiz-adv-x="1300" 
d="M44 1226l233 0.000976562c0 -15.333 1.5 -30.333 4.5 -45s8 -27.334 15 -38.001s15.833 -19.334 26.5 -26.001s22.834 -10 36.501 -10s25.834 2.83301 36.501 8.5s19.834 13.834 27.501 24.501s13.667 23.334 18 38.001s6.5 30.667 6.5 48h238v-251
c0 -30.667 -4.83301 -58.667 -14.5 -84s-22.834 -49 -39.501 -71s-35.667 -42.667 -57 -62l-67 -59c-20.667 -17.333 -37.5 -32.833 -50.5 -46.5s-23.333 -28.334 -31 -44.001s-13.167 -33.5 -16.5 -53.5c-2.66699 -19.333 -4 -44.666 -4 -75.999
c0 -37.333 7.33301 -73.166 22 -107.499s35.5 -65 62.5 -92s60 -48.5 99 -64.5s82.833 -24 131.5 -24c32 0 61.5 5.16699 88.5 15.5s49.667 24.666 68 42.999s32.666 40.666 42.999 66.999s15.5 56.166 15.5 89.499l1 820h249v-798c0 -67.333 -6.83301 -129 -20.5 -185
s-37.667 -104 -72 -144s-79.166 -70.833 -134.499 -92.5s-125 -32.5 -209 -32.5c-76.667 0 -144.834 12.667 -204.501 38s-110.167 65 -151.5 119l-3 -131h-236v437c0 34.667 0.5 64.834 1.5 90.501s3.33301 48.5 7 68.5s9 38.167 16 54.5s16.333 31.5 28 45.5
s25.334 28.333 41.001 43s34.167 31 55.5 49l34.5 31.5c11.667 10.333 22.667 21.166 33 32.499s19.666 23.5 27.999 36.5s15.166 28.833 20.499 47.5c-15.333 -8 -31.333 -14.167 -48 -18.5s-33.667 -6.5 -51 -6.5c-13.333 0 -29.833 1.5 -49.5 4.5s-39.667 8.33301 -60 16
s-40.666 18.834 -60.999 33.501s-38.333 33.667 -54 57s-28.334 51.5 -38.001 84.5s-14.5 72.833 -14.5 119.5z" />
    <glyph glyph-name="ngonguthai" unicode="&#xe07;" horiz-adv-x="965" 
d="M29 736l257.001 0.000976562l188 -508c6 -16.667 14.333 -29 25 -37c10 -7.33301 21.667 -11 35 -11c21.333 0 38.333 5.83301 51 17.5s20 25.5 22 41.5l-3 795h-169v192h418l-3 -949c0 -54 -8.33301 -100.5 -25 -139.5s-39.167 -70.667 -67.5 -95
s-61.833 -42.333 -100.5 -54s-80.667 -17.5 -126 -17.5c-44.667 0 -83.334 5.33301 -116.001 16s-61.167 26.167 -85.5 46.5s-45 45.166 -62 74.499s-32.167 61.333 -45.5 96z" />
    <glyph glyph-name="chochanthai" unicode="&#xe08;" horiz-adv-x="1184" 
d="M70 853c10 60 29.002 114.333 57.002 163s64.167 90.5 108.5 125.5s97 61.833 158 80.5s129.5 28 205.5 28c38 0 76.333 -3 115 -9s76.334 -15.333 113.001 -28s70.5 -29.667 101.5 -51s58.167 -47.5 81.5 -78.5s41.666 -68.167 54.999 -111.5s19.333 -93.333 18 -150
c0 -31.333 -4.83301 -68.166 -14.5 -110.499s-21.834 -87 -36.501 -134s-31.667 -96.167 -51 -147.5l-59.5 -152c-20.333 -50 -41.333 -98.667 -63 -146l-59.5 -132h-308l-198 543h-165v196h357l166 -482l57 138.5c20.667 49.667 39.167 98.667 55.5 147
s30.166 95.166 41.499 140.499c10.667 44.667 16.667 85 18 121c1.33301 80 -18.667 140 -60 180s-103.333 60 -186 60c-66.667 0 -119 -15 -157 -45c-38.667 -29.333 -65.667 -78 -81 -146h-269z" />
    <glyph glyph-name="chochingthai" unicode="&#xe09;" horiz-adv-x="1290" 
d="M82 832c6 55.333 20.665 108.167 43.998 158.5s57 95 101 134s99.333 70.167 166 93.5s146 35 238 35c72 0 135.667 -6.83301 191 -20.5s103.5 -32.667 144.5 -57s74.833 -53.333 101.5 -87s48 -70.167 64 -109.5s27.5 -81.5 34.5 -126.5s10.833 -89.833 11.5 -134.5
v-718h-236l-8 137c-43.333 -58 -96 -100.167 -158 -126.5s-135.333 -39.5 -220 -39.5c-85.333 0 -156.5 11.333 -213.5 34s-102.5 55 -136.5 97s-58.333 92.167 -73 150.5s-22 122.5 -22 192.5v240h245v-263c0 -33.333 5.66699 -63.833 17 -91.5s27 -51.5 47 -71.5
s44.333 -35.333 73 -46s60.334 -16 95.001 -16c58 0 108.333 9 151 27s78.167 43.333 106.5 76s49.333 71.167 63 115.5s20.5 92.166 20.5 143.499v183c0 34.667 -5 69.5 -15 104.5s-26.167 66.5 -48.5 94.5s-53 50.5 -92 67.5s-87.5 25.5 -145.5 25.5
c-52.667 0 -96.5 -6.16699 -131.5 -18.5s-63.667 -28.5 -86 -48.5s-39.166 -41.667 -50.499 -65s-19 -46.666 -23 -69.999h-255z" />
    <glyph glyph-name="chochangthai" unicode="&#xe0a;" horiz-adv-x="1153" 
d="M47 999l2.99316 190.995c25.333 8.66699 49.666 16.334 72.999 23.001s45.166 12.5 65.499 17.5s38.833 8.5 55.5 10.5s29.667 3 39 3c46.667 0 88.5 -5.33301 125.5 -16s68.667 -27.167 95 -49.5s45.333 -50.666 57 -84.999s14.5 -73.833 8.5 -118.5
c-3.33301 -22 -9 -43 -17 -63s-18.5 -41 -31.5 -63s-28.833 -46 -47.5 -72c-19.333 -25.333 -40.666 -55 -63.999 -89c-12.667 -18 -22.167 -34.167 -28.5 -48.5s-11 -28.666 -14 -42.999s-4.83301 -28.833 -5.5 -43.5c0.666992 -14.667 0 -30.667 -2 -48l2 -80
c0 -38 5.5 -71.667 16.5 -101s26.833 -54.166 47.5 -74.499s44.334 -35.5 71.001 -45.5c25.333 -10.667 53.666 -16 84.999 -16c29.333 0 56.666 3.66699 81.999 11s47.5 19.833 66.5 37.5s33.833 40.167 44.5 67.5c9.33301 27.333 14 61.333 14 102l3 82
c0 45.333 -5.33301 81.5 -16 108.5s-25.667 47.167 -45 60.5s-43.166 22 -71.499 26s-59.833 6.66699 -94.5 8l-2 179c48 0 88 7.33301 120 22s58 37 78 67s34 67.333 42 112c8.66699 45.333 13.334 97 14.001 155h248c0 -44.667 -3.16699 -89.334 -9.5 -134.001
s-17.666 -86.5 -33.999 -125.5s-38.166 -74 -65.499 -105s-61.333 -56.5 -102 -76.5c28.667 -8.66699 53.334 -19.834 74.001 -33.501s37.834 -29 51.501 -46s24.334 -35 32.001 -54s13.5 -38 17.5 -57s6.5 -37.667 7.5 -56s1.5 -35.166 1.5 -50.499l-2 -100
c0 -47.333 -5.5 -90.666 -16.5 -129.999s-27 -74.666 -48 -105.999s-45.833 -58.166 -74.5 -80.499s-60.167 -41.333 -94.5 -57s-70.166 -26.834 -107.499 -33.501s-75.333 -10 -114 -10c-60.667 0 -118.667 8.66699 -174 26s-104.666 43.5 -147.999 78.5
s-78.166 78.833 -104.499 131.5s-39.5 113 -39.5 181v100c0 30.667 1 57.667 3 81s4.83301 44.333 8.5 63s8.66699 35.334 15 50.001s14.166 29 23.499 43s19.833 28.5 31.5 43.5s25.834 31.833 42.501 50.5l31.5 41.5c9 12.333 17 24 24 35s12.833 22.167 17.5 33.5
s8 24 10 38c2 11.333 1.5 22.166 -1.5 32.499s-7.83301 19.166 -14.5 26.499s-14.667 13 -24 17c-10 4.66699 -21 7 -33 7c-13.333 0 -26.333 -1 -39 -3s-26.834 -5.16699 -42.501 -9.5s-33.167 -9.66602 -52.5 -15.999z" />
    <glyph glyph-name="sosothai" unicode="&#xe0b;" horiz-adv-x="1227" 
d="M20 1226l233.997 -0.0136719c0 -15.333 1.5 -30.333 4.5 -45s7.83301 -27.334 14.5 -38.001s15.334 -19.334 26.001 -26.001s22.834 -10 36.501 -10s25.834 2.83301 36.501 8.5s20 13.834 28 24.501s13.833 23.334 17.5 38.001s5.5 30.667 5.5 48h240v-254
c0 -23.333 -3 -45.166 -9 -65.499s-14.833 -40 -26.5 -59s-26.667 -39 -45 -60s-40.166 -44.167 -65.499 -69.5c-19.333 -19.333 -34.333 -41.166 -45 -65.499s-18.5 -49.166 -23.5 -74.499s-8 -51.333 -9 -78s-1.5 -51.667 -1.5 -75c0 -38 5.83301 -71.667 17.5 -101
s27.167 -54.166 46.5 -74.499s42.666 -35.5 69.999 -45.5c27.333 -10.667 55.666 -16 84.999 -16s56.666 3.66699 81.999 11s47.166 19.833 65.499 37.5s32.833 40.167 43.5 67.5s16 61.333 16 102v79c0 42.667 -5 77.334 -15 104.001s-24.5 47.667 -43.5 63
s-41.667 25.333 -68 30s-55.166 7.66699 -86.499 9l-3 179c44.667 3.33301 82.667 13 114 29s56.666 39 75.999 69s33.5 66.5 42.5 109.5s13.5 92.5 13.5 148.5h245c0 -44.667 -3.5 -89.334 -10.5 -134.001s-18.167 -86.5 -33.5 -125.5s-36.666 -74 -63.999 -105
s-62 -56.5 -104 -76.5c44 -13.333 78.667 -32.166 104 -56.499s44 -50.666 56 -78.999s19.667 -56.833 23 -85.5c2 -29.333 3 -55.666 3 -78.999v-97c0 -47.333 -6 -90.666 -18 -129.999s-28.333 -74.666 -49 -105.999s-45.334 -58.166 -74.001 -80.499
s-60.167 -41.333 -94.5 -57s-70.5 -26.834 -108.5 -33.501s-76.333 -10 -115 -10c-40 0 -79.167 3.83301 -117.5 11.5s-74.5 19.334 -108.5 35.001s-65.667 35.167 -95 58.5s-54.666 50.5 -75.999 81.5s-37.833 65.833 -49.5 104.5s-17.5 80.667 -17.5 126
c0 48.667 0.5 92.5 1.5 131.5s5.83301 74.833 14.5 107.5s22 63.834 40 93.501s44 59.5 78 89.5l24 25.5c9.33301 9.66699 18.333 20.834 27 33.501l25 38c8 12.667 14 25.334 18 38.001c-18 -12 -37.167 -21.167 -57.5 -27.5s-41.166 -9.5 -62.499 -9.5
c-14 0 -30.667 1.5 -50 4.5s-39.166 8.83301 -59.499 17.5s-40.833 20.334 -61.5 35.001s-38.667 33.667 -54 57s-28 51.5 -38 84.5s-15 72.833 -15 119.5z" />
    <glyph glyph-name="chochoethai" unicode="&#xe0c;" horiz-adv-x="1934" 
d="M32 850c8 32.667 19.3311 65.1699 33.998 97.5029s32.834 63.5 54.501 93.5s47.834 58 78.501 84s65 48.5 103 67.5s80.667 33.833 128 44.5s99 16 155 16c68.667 0 130 -6.66699 184 -20s100.833 -31.833 140.5 -55.5s73.167 -51.667 100.5 -84
s49.833 -67.5 67.5 -105.5s30.167 -78.333 37.5 -121s11 -86.334 11 -131.001l1 -199c0 -50.667 5.83301 -96.834 17.5 -138.501s29.167 -78.167 52.5 -109.5s52 -56 86 -74s73.667 -27 119 -27c26 0 49.5 3.66699 70.5 11s38.833 19.833 53.5 37.5s25.667 40.167 33 67.5
c8 27.333 11.667 61.333 11 102l2 820h249l-2 -798c0 -72 -6.5 -136.5 -19.5 -193.5s-34.667 -105 -65 -144s-70.5 -68.667 -120.5 -89s-112.667 -30.5 -188 -30.5c-34.667 0 -66.834 3.83301 -96.501 11.5s-57.667 18.834 -84 33.501s-50.166 31.667 -71.499 51
s-40.333 40.666 -57 63.999l-2 -131h-236l-3 759c0 33.333 -4.83301 67 -14.5 101s-25.667 64.333 -48 91s-52.333 48.5 -90 65.5s-83.834 26.167 -138.501 27.5c-44.667 0 -84 -4.83301 -118 -14.5s-63.167 -22.834 -87.5 -39.501s-43.833 -35.167 -58.5 -55.5
s-24.334 -40.833 -29.001 -61.5c30 -21.333 52 -51 66 -89c12.667 -38 19 -80.333 19 -127l3 -457h131v-200h-377l-3 660c0 17.333 -1.16699 34.833 -3.5 52.5s-7.16602 34.667 -14.499 51s-17.666 31.833 -30.999 46.5c-12 14.667 -28.667 28 -50 40z" />
    <glyph glyph-name="yoyingthai" unicode="&#xe0d;" horiz-adv-x="1934" 
d="M32 835c8 33.333 19.002 66.999 33.002 100.999s32.167 66.5 54.5 97.5s48.666 59.667 78.999 86s64.666 49.5 102.999 69.5s81.166 35.667 128.499 47s99 17 155 17c68.667 0 130 -6.83301 184 -20.5s100.833 -32.667 140.5 -57s73.167 -53.333 100.5 -87
s49.833 -70.167 67.5 -109.5s30.334 -81.5 38.001 -126.5s11.5 -89.833 11.5 -134.5l-3 -216c0 -42 4 -77.333 12 -106s19.5 -51.667 34.5 -69s33 -30 54 -38s44.5 -12 70.5 -12c44.667 0 84 9.5 118 28.5s62.667 44.833 86 77.5s41.166 71 53.499 115s18.5 91 18.5 141
l1 587h249v-972c0 -58.667 -3.16699 -110.334 -9.5 -155.001s-14.5 -83.834 -24.5 -117.501s-21.333 -62.334 -34 -86.001s-25 -44.167 -37 -61.5l1 2c-25.333 -36.667 -53.333 -67.667 -84 -93s-63.834 -46.333 -99.501 -63s-73.167 -28.334 -112.5 -35.001
c-40 -6.66699 -80.667 -10 -122 -10c-56 0 -109.833 7.33301 -161.5 22s-98 37 -139 67s-75.5 68 -103.5 114s-46 100 -54 162h232c8 -27.333 19.833 -51.166 35.5 -71.499s33.667 -37.333 54 -51s42.166 -24 65.499 -31s46 -10.5 68 -10.5c54 0 99.167 9.33301 135.5 28
s65.333 42.667 87 72s36.834 62 45.501 98s12.334 71.333 11.001 106l2 79c-17.333 -21.333 -37.333 -42.166 -60 -62.499s-47 -37.833 -73 -52.5s-53.667 -26.667 -83 -36s-60.666 -14 -93.999 -14c-74.667 0 -137.167 10.5 -187.5 31.5s-90.5 51.5 -120.5 91.5
s-51.333 89.333 -64 148c-12.667 58 -18.667 125 -18 201l-1 216c0 34.667 -4.83301 69.334 -14.5 104.001s-25.667 65.834 -48 93.501s-52.333 50.334 -90 68.001s-84.167 26.5 -139.5 26.5c-44.667 0 -84 -5 -118 -15s-63 -23.167 -87 -39.5s-43 -35.166 -57 -56.499
s-24 -43 -30 -65c30 -21.333 52.167 -51.333 66.5 -90s21.5 -82.334 21.5 -131.001v-437h131v-200h-377l-1 639c0 18 -1.5 36 -4.5 54s-8.16699 35.5 -15.5 52.5s-17.666 33.167 -30.999 48.5c-12.667 16 -29.334 29.667 -50.001 41z" />
    <glyph glyph-name="dochadathai" unicode="&#xe0e;" horiz-adv-x="1341" 
d="M64 200l120 -0.00292969v463c0 16.667 -1.5 33.5 -4.5 50.5s-8.16699 33.667 -15.5 50s-17.5 31.833 -30.5 46.5s-30.167 28 -51.5 40c7.33301 32.667 18.333 65.167 33 97.5s33.167 63.5 55.5 93.5s49.166 58 80.499 84s67.166 48.5 107.499 67.5
s85.5 33.833 135.5 44.5s105.333 16 166 16c72 0 136.167 -6.66699 192.5 -20s105.5 -31.833 147.5 -55.5s77.5 -51.667 106.5 -84s52.333 -67.5 70 -105.5s30.334 -78.167 38.001 -120.5s11.5 -85.166 11.5 -128.499l3 -1161h-239c-12 17.333 -26.167 34.5 -42.5 51.5
s-36.166 31.833 -59.499 44.5s-51.166 23 -83.499 31s-70.166 12 -113.499 12c-35.333 0 -68.5 -4 -99.5 -12s-61 -19.167 -90 -33.5s-56.5 -32.5 -82.5 -54.5c-26 -23.333 -51.667 -48.333 -77 -75l1 236c17.333 19.333 38.5 37.333 63.5 54s52.5 31.334 82.5 44.001
s62.167 22.334 96.5 29.001s70.5 10 108.5 10c34.667 0 66.667 -2.33301 96 -7s55.833 -10.667 79.5 -18s44.5 -15.333 62.5 -24c18 -8 33.333 -16 46 -24v917c0 35.333 -5.33301 69.5 -16 102.5s-28.334 63.167 -53.001 90.5s-57.334 49.166 -98.001 65.499
s-91 25.166 -151 26.499c-50.667 0 -94.667 -5.66699 -132 -17s-69 -25.666 -95 -42.999s-46.5 -36 -61.5 -56s-24.5 -38.333 -28.5 -55c12 -11.333 23.333 -24.666 34 -39.999s19.667 -32 27 -50s13 -37.333 17 -58c3.33301 -22 5 -43.667 5 -65l5 -660h-365z" />
    <glyph glyph-name="topatakthai" unicode="&#xe0f;" horiz-adv-x="1341" 
d="M64 200l120 -0.000976562v463c0 16.667 -1.5 33.5 -4.5 50.5s-8.16699 33.667 -15.5 50s-17.5 31.833 -30.5 46.5s-30.167 28 -51.5 40c7.33301 32.667 18.333 65.167 33 97.5s33.167 63.5 55.5 93.5s49.166 58 80.499 84s67.166 48.5 107.499 67.5
s85.5 33.833 135.5 44.5s105.333 16 166 16c72 0 136.167 -6.66699 192.5 -20s105.5 -31.833 147.5 -55.5s77.5 -51.667 106.5 -84s52.333 -67.5 70 -105.5s30.334 -78.167 38.001 -120.5s11.5 -85.166 11.5 -128.499l3 -1161h-245
c-2.66699 13.333 -7.5 28.666 -14.5 45.999s-16 33.166 -27 47.499s-23.833 26.5 -38.5 36.5s-32.667 15 -54 15c-19.333 0 -36.333 -5 -51 -15s-27.167 -22 -37.5 -36s-17.666 -29.5 -21.999 -46.5s-6.5 -32.833 -6.5 -47.5h-207c0 10.667 -1.5 24.334 -4.5 41.001
s-8.83301 32.667 -17.5 48s-20.334 29 -35.001 41s-32.667 18 -54 18c-18 0 -33.333 -4.66699 -46 -14s-23 -21.166 -31 -35.499s-13.833 -30.166 -17.5 -47.499s-5.5 -34.333 -5.5 -51h-195c0 58.667 7.66699 109.167 23 151.5s36.5 77 63.5 104s56.833 46.833 89.5 59.5
s65.334 19 98.001 19c48.667 0 91.834 -9.66699 129.501 -29s68.5 -47 92.5 -83c14 17.333 29.5 32.666 46.5 45.999s34.5 24.333 52.5 33s36.167 15 54.5 19s35.5 6 51.5 6c36 0 66.833 -5.33301 92.5 -16s47.834 -24 66.501 -40l-2 911c0 35.333 -5.33301 69.5 -16 102.5
s-28.334 63.167 -53.001 90.5s-57.334 49.166 -98.001 65.499s-91 25.166 -151 26.499c-50.667 0 -94.667 -5.66699 -132 -17s-69 -25.666 -95 -42.999s-46.5 -36 -61.5 -56s-24.5 -38.333 -28.5 -55c12 -11.333 23.333 -24.666 34 -39.999s19.667 -32 27 -50
s13 -37.333 17 -58c3.33301 -22 5 -43.667 5 -65l5 -660h-365z" />
    <glyph glyph-name="thothanthai" unicode="&#xe10;" horiz-adv-x="1178" 
d="M61 841c10 60 29.666 115.33 58.999 165.997s66.833 94 112.5 130s99.167 64.333 160.5 85c63.333 20.667 133 31 209 31c34.667 0 69 -2.5 103 -7.5s66.667 -12.5 98 -22.5c16.667 3.33301 31.334 9.16602 44.001 17.499s23.167 18.333 31.5 30s14.333 24.334 18 38.001
s5.5 27.167 5.5 40.5h265c0 -23.333 -3.16699 -47.666 -9.5 -72.999s-15.833 -49.666 -28.5 -72.999s-29.334 -44.333 -50.001 -63c-20.667 -18 -45.667 -33 -75 -45c26.667 -31.333 46.834 -69.666 60.501 -114.999s19.834 -98 18.501 -158
c0 -31.333 -4.33301 -67.666 -13 -108.999s-20.5 -85.833 -35.5 -133.5s-32.333 -97 -52 -148l-60.5 -152c-20.667 -50.333 -41.834 -99.333 -63.501 -147l-59.5 -132.5h-308l-199 548h-164v191h357l166 -479l58 137c20 48.667 38.167 97.167 54.5 145.5
s30.166 95.166 41.499 140.499c10.667 44.667 16.667 85 18 121c1.33301 80 -18.667 140 -60 180s-103.333 60 -186 60c-66.667 0 -120.667 -17.333 -162 -52s-69.666 -85 -84.999 -151h-269zM132.999 -431.003c-2 40 0.167969 75.1748 6.50098 105.508
s15.833 56.166 28.5 77.499s27.667 39.333 45 54s35 26.167 53 34.5s35.833 14.166 53.5 17.499s33.167 5 46.5 5c31.333 0 59.5 -5.33301 84.5 -16s45.167 -25.334 60.5 -44.001c23.333 22 46.666 37.5 69.999 46.5s43.666 13.5 60.999 13.5
c23.333 0 43.833 -3.16699 61.5 -9.5s34.834 -16.5 51.501 -30.5v84h248v-338h-241c-4 35.333 -13 61.666 -27 78.999c-15.333 17.333 -35.333 26 -60 26c-12 0 -22.333 -2.66699 -31 -8s-16 -12.833 -22 -22.5s-10.5 -20.834 -13.5 -33.501s-3.83301 -26.334 -2.5 -41.001
h-142c0 14 -1.66699 27.5 -5 40.5s-8.16602 24.333 -14.499 34s-14.333 17.167 -24 22.5s-20.5 8 -32.5 8c-12.667 0 -23.334 -2.83301 -32.001 -8.5s-15.667 -13.334 -21 -23.001s-9.5 -20.834 -12.5 -33.501s-4.5 -26 -4.5 -40h-185z" />
    <glyph glyph-name="thonangmonthothai" unicode="&#xe11;" horiz-adv-x="1300" 
d="M44 1226l232.996 0.00195312c0 -16 1.5 -31.333 4.5 -46s8 -27.334 15 -38.001s15.833 -19.167 26.5 -25.5s22.667 -9.5 36 -9.5c27.333 0 48.833 10.667 64.5 32s23.834 50.333 24.501 87h238l-1 -87c30.667 22 61 40.667 91 56s58 27.333 84 36s50.667 15 74 19
s44 6 62 6c40.667 0 73.167 -6.33301 97.5 -19s43.333 -30.667 57 -54s23 -51.666 28 -84.999s7.5 -70.333 7.5 -111l1 -987h-248l-2 908c0 15.333 -0.166992 30.166 -0.5 44.499s-1.66602 26.5 -3.99902 36.5s-5.5 18 -9.5 24s-9.33301 9 -16 9
c-30.667 0 -77.5 -26.5 -140.5 -79.5s-141.833 -134.167 -236.5 -243.5l-44 -51.5c-12.667 -15 -23.834 -28.833 -33.501 -41.5s-17.667 -25.334 -24 -38.001s-11.5 -26 -15.5 -40s-7.16699 -29.5 -9.5 -46.5s-3.5 -36.833 -3.5 -59.5l3 -422h-248v397
c0 31.333 0.166992 58.666 0.5 81.999s1.83301 44.5 4.5 63.5s6.83398 36.5 12.501 52.5s13.334 32.333 23.001 49s21.834 33.667 36.501 51l54 61l66 69l47 48.5c12.667 13.667 22.334 26 29.001 37s11 22.5 13 34.5c-8 -4 -16.833 -8.16699 -26.5 -12.5
s-19.834 -8 -30.501 -11l-33 -9c-11.333 -3 -21.333 -4.5 -30 -4.5c-13.333 0 -29.833 1.5 -49.5 4.5s-39.667 8.33301 -60 16s-40.5 18.834 -60.5 33.501s-38 33.667 -54 57s-28.833 52 -38.5 86s-14.5 74.333 -14.5 121z" />
    <glyph glyph-name="thophuthaothai" unicode="&#xe12;" horiz-adv-x="1985" 
d="M111 756c0 39.333 2.1709 77.1699 6.50391 113.503s11.833 71 22.5 104s25.334 64 44.001 93s42.334 55.167 71.001 78.5s62.5 43.166 101.5 59.499s85.167 28.5 138.5 36.5l150 -155l140 155c54.667 -8 102.167 -19.667 142.5 -35s75 -34.5 104 -57.5
s52.667 -49.167 71 -78.5s33.166 -60.666 44.499 -93.999s18.833 -68.5 22.5 -105.5s5.5 -75.167 5.5 -114.5l2 -219c0 -50.667 6 -96.834 18 -138.501s29.667 -78.167 53 -109.5s52 -56 86 -74c33.333 -18 72.333 -27 117 -27c27.333 0 51.666 3.66699 72.999 11
s39.166 19.833 53.499 37.5s25.166 40.167 32.499 67.5s11 61.333 11 102l3 820h248l-2 -798c0 -72 -6.5 -136.5 -19.5 -193.5s-34.667 -105 -65 -144s-70.833 -68.667 -121.5 -89s-112.667 -30.5 -186 -30.5c-35.333 0 -68.166 3.83301 -98.499 11.5
s-58.333 18.834 -84 33.501s-49.167 31.667 -70.5 51c-20.667 19.333 -39.667 40.666 -57 63.999l1 -131h-239l-1 780c0 21.333 -1 43.166 -3 65.499s-6 43.666 -12 63.999s-14.5 38.5 -25.5 54.5s-26.5 28.667 -46.5 38l-156 -149
c-2 -3.33301 -6.83301 -7.16602 -14.5 -11.499s-16.334 -6.5 -26.001 -6.5s-18.834 1.66699 -27.501 5c-9.33301 4.66699 -15.666 9 -18.999 13l-158 151c-16.667 -9.33301 -30.334 -22.5 -41.001 -39.5s-19.167 -35.833 -25.5 -56.5s-11 -41.834 -14 -63.501
s-4.5 -43.167 -4.5 -64.5l2 -450c27.333 35.333 57.666 71.833 90.999 109.5l97 113.5h-88v186h357v-171l-468 -568h-233z" />
    <glyph glyph-name="nonenthai" unicode="&#xe13;" horiz-adv-x="1934" 
d="M32 850c8 32.667 19.3291 65.167 33.9961 97.5s32.834 63.5 54.501 93.5s47.834 58 78.501 84s65 48.5 103 67.5s80.667 33.833 128 44.5s99 16 155 16c68.667 0 130 -6.66699 184 -20s100.833 -31.833 140.5 -55.5s73.167 -51.667 100.5 -84s49.833 -67.5 67.5 -105.5
s30.167 -78.333 37.5 -121s11 -86.334 11 -131.001l-2 -330c0 -40.667 4.16699 -74.667 12.5 -102s20 -49.833 35 -67.5s33 -30.167 54 -37.5s44.5 -11 70.5 -11c45.333 0 85 9 119 27s62.667 42.667 86 74s40.666 68 51.999 110c12 41.333 18 87.333 18 138l1 689h249
v-1226h-238l-6 131c-17.333 -23.333 -36.833 -44.666 -58.5 -63.999s-45.667 -36.333 -72 -51s-54.166 -26 -83.499 -34c-30.667 -7.33301 -62.667 -11 -96 -11c-74.667 0 -137.167 10.167 -187.5 30.5s-90.5 50 -120.5 89s-51.167 86.667 -63.5 143
s-18.5 121.166 -18.5 194.499l-1 331c0 33.333 -4.83301 67 -14.5 101s-25.667 64.333 -48 91s-52.333 48.5 -90 65.5s-83.834 26.167 -138.501 27.5c-44.667 0 -83.667 -4.66699 -117 -14s-62.166 -22.166 -86.499 -38.499s-43.833 -34.833 -58.5 -55.5
s-25 -41.667 -31 -63c30 -21.333 52 -51 66 -89c12.667 -38 19 -80.333 19 -127l3 -457h131v-200h-377l-3 660c0 17.333 -1.16699 34.833 -3.5 52.5s-7.16602 34.667 -14.499 51s-17.666 31.833 -30.999 46.5c-12 14.667 -28.667 28 -50 40z" />
    <glyph glyph-name="dodekthai" unicode="&#xe14;" horiz-adv-x="1315" 
d="M114 0l0.000976562 733.001c0 44 3.16699 87.167 9.5 129.5s17.5 82.833 33.5 121.5s37.667 74.334 65 107.001s61.166 61 101.499 85s88 42.833 143 56.5s118.5 20.5 190.5 20.5c71.333 0 134.5 -6.83301 189.5 -20.5s102.333 -32.5 142 -56.5s73.167 -52.333 100.5 -85
s49.333 -68.334 66 -107.001s28.334 -79.167 35.001 -121.5s10.667 -85.5 12 -129.5l1 -733h-248l-3 756c0 33.333 -4.16699 67.333 -12.5 102s-23.5 65.834 -45.5 93.501s-51.833 50 -89.5 67s-86.834 25.5 -147.501 25.5c-40.667 0 -76.167 -4.16699 -106.5 -12.5
s-56.666 -19.333 -78.999 -33s-40.833 -29.667 -55.5 -48s-26.334 -38.333 -35.001 -60s-15 -43.834 -19 -66.501s-6 -45.334 -6 -68.001v-436l208 233h-97v189h371v-174l-491 -568h-233z" />
    <glyph glyph-name="totaothai" unicode="&#xe15;" horiz-adv-x="1324" 
d="M111 739c0 57.333 5.83594 113.502 17.5029 168.502s32.667 105.333 63 151s71.166 84.5 122.499 116.5s117 54 197 66l152 -152l140 152c82 -10.667 149.167 -31.834 201.5 -63.501s93.666 -70.334 123.999 -116.001s51.333 -96.334 63 -152.001
s17.5 -112.5 17.5 -170.5l3 -739h-245l-5 759c0 20.667 -2.16699 42.834 -6.5 66.501s-10.833 46.834 -19.5 69.501s-19.334 43.667 -32.001 63s-28.334 34 -47.001 44l-153 -149c-5.33301 -4 -11.166 -8 -17.499 -12s-14.166 -6 -23.499 -6
c-10.667 0 -20.334 1.66699 -29.001 5c-8 4.66699 -14 9 -18 13l-158 151c-20 -9.33301 -36.667 -23.333 -50 -42s-23.833 -39.167 -31.5 -61.5s-13 -45.833 -16 -70.5s-4.5 -48.334 -4.5 -71.001v-436l208 230h-97v186h374v-171l-494 -568h-233z" />
    <glyph glyph-name="thothungthai" unicode="&#xe16;" horiz-adv-x="1267" 
d="M32 850c8 32.667 18.8291 65.167 32.4961 97.5s31.167 63.5 52.5 93.5s47 58 77 84s64.833 48.5 104.5 67.5s84.167 33.833 133.5 44.5c50.667 10.667 106.334 16 167.001 16c72 0 135.667 -6.66699 191 -20s103.5 -31.833 144.5 -55.5s75.5 -51.667 103.5 -84
s50.333 -67.5 67 -105.5s28.667 -78.167 36 -120.5s11 -85.166 11 -128.499l1 -739h-245l-3 759c0 35.333 -4.83301 69.5 -14.5 102.5s-26.167 63.167 -49.5 90.5s-55 49.166 -95 65.499s-89.667 25.166 -149 26.499c-50.667 0 -94.167 -5.66699 -130.5 -17
s-66.666 -25.666 -90.999 -42.999s-43.333 -36.333 -57 -57s-22.5 -38.667 -26.5 -54c15.333 -10 28.333 -22.667 39 -38s19.5 -32 26.5 -50s12 -37.5 15 -58.5s4.5 -43.167 4.5 -66.5l3 -460h131v-200h-377v663c0 16.667 -1.66699 33.5 -5 50.5s-8.66602 33.667 -15.999 50
s-17.666 31.833 -30.999 46.5c-12 14.667 -28.667 28 -50 40z" />
    <glyph glyph-name="thothahanthai" unicode="&#xe17;" horiz-adv-x="1290" 
d="M114 0l-0.000976562 1226h239v-149c43.333 58.667 96 103.167 158 133.5s135.333 45.5 220 45.5c86 0 157.5 -11.667 214.5 -35s102.5 -56 136.5 -98s58.333 -92.167 73 -150.5s22 -122.5 22 -192.5l1 -780h-245l-2 804c0 33.333 -5.33301 63.833 -16 91.5
s-25.834 51.334 -45.501 71.001s-43.667 34.834 -72 45.501s-60.166 16 -95.499 16c-58 0 -108.167 -9 -150.5 -27s-77.666 -43.333 -105.999 -76s-49.5 -71 -63.5 -115c-15.333 -43.333 -23 -91.333 -23 -144l3 -666h-248z" />
    <glyph glyph-name="thothongthai" unicode="&#xe18;" horiz-adv-x="1224" 
d="M111 359l0.00488281 256.995h245v-257c0 -32.667 7.83301 -60.334 23.5 -83.001s35.667 -40.834 60 -54.501s51.5 -23.667 81.5 -30s59.667 -9.5 89 -9.5c27.333 0 56.166 2.5 86.499 7.5s58.166 14.167 83.499 27.5s46.166 31.333 62.499 54s24.5 52 24.5 88
c0 19.333 -1.5 36.833 -4.5 52.5s-8.33301 30.334 -16 44.001s-19.334 26.834 -35.001 39.501s-35.667 24.834 -60 36.501s-53.666 23.834 -87.999 36.501s-75.5 26.667 -123.5 42l-113.5 35.5c-37 11.667 -71.333 24 -103 37s-60.834 27.5 -87.501 43.5
s-49.334 34.333 -68.001 55s-32.834 44.334 -42.501 71.001s-14.167 57.667 -13.5 93c1.33301 36.667 8.83301 69.834 22.5 99.501s31.334 56 53.001 79s47.5 42.5 77.5 58.5s62 28.833 96 38.5s69 17 105 22s72.333 7.5 109 7.5c73.333 0 141.166 -7.33301 203.499 -22
s116 -38.5 161 -71.5s80.667 -75.333 107 -127s39.5 -113.5 39.5 -185.5h-248c0 36.667 -6 67.667 -18 93s-29 46.333 -51 63s-48.167 28.667 -78.5 36s-64.833 11 -103.5 11c-31.333 0 -60.666 -1.16699 -87.999 -3.5s-51.333 -7 -72 -14s-37.167 -16.333 -49.5 -28
s-18.5 -26.167 -18.5 -43.5c0 -12.667 5.83301 -25.167 17.5 -37.5s27.334 -24 47.001 -35s41.667 -21.333 66 -31s48.166 -18.667 71.499 -27s45.333 -15.5 66 -21.5s37.334 -11 50.001 -15c48 -14.667 92.167 -29 132.5 -43s77 -29.333 110 -46s62 -35.167 87 -55.5
s46 -44.166 63 -71.499s29.333 -58.5 37 -93.5s11.5 -75.833 11.5 -122.5c0 -45.333 -6.33301 -86.333 -19 -123s-30.667 -69.334 -54 -98.001s-50.5 -53.167 -81.5 -73.5s-65.5 -37.166 -103.5 -50.499s-78 -22.833 -120 -28.5s-84.667 -8.5 -128 -8.5
c-44.667 0 -87.834 2.83301 -129.501 8.5s-80.834 15.334 -117.501 29.001s-70.667 30.667 -102 51s-58.166 44.666 -80.499 72.999s-39.833 61 -52.5 98s-19 77.833 -19 122.5z" />
    <glyph glyph-name="nonuthai" unicode="&#xe19;" horiz-adv-x="1290" 
d="M111 445l2.99902 781.001h245l-3 -804c0 -33.333 5.66699 -63.833 17 -91.5s27 -51.5 47 -71.5s44.333 -35.333 73 -46s60.334 -16 95.001 -16c58 0 108.333 9 151 27s78.167 43.333 106.5 76s49.333 71.167 63 115.5s20.5 92.166 20.5 143.499v667h248l1 -1226h-239
l-5 149c-42.667 -58.667 -95.167 -103 -157.5 -133s-135.833 -45 -220.5 -45c-85.333 0 -156.5 11.333 -213.5 34s-102.5 55 -136.5 97s-58.333 92.167 -73 150.5s-22 122.5 -22 192.5z" />
    <glyph glyph-name="bobaimaithai" unicode="&#xe1a;" horiz-adv-x="1290" 
d="M111 517l2.99902 709h245v-733c0 -34.667 4.33301 -70 13 -106s24 -68.667 46 -98s51.333 -53 88 -71s82.667 -27 138 -27s101.333 9 138 27s65.834 41.667 87.501 71s37 62 46 98s13.5 71.333 13.5 106v733h248v-715c0 -46 -3.5 -91 -10.5 -135s-18.167 -86 -33.5 -126
s-36.166 -77 -62.499 -111s-59.333 -63.167 -99 -87.5s-86.5 -43.333 -140.5 -57s-116 -20.5 -186 -20.5c-70.667 0 -133 6.83301 -187 20.5s-101 33.167 -141 58.5s-73.167 55 -99.5 89s-47.333 71.333 -63 112s-26.834 83.5 -33.501 128.5s-10 89.833 -10 134.5z" />
    <glyph glyph-name="poplathai" unicode="&#xe1b;" horiz-adv-x="1290" 
d="M111 517l2.99902 709h245v-733c0 -34.667 4.33301 -70 13 -106s24 -68.667 46 -98s51.333 -53 88 -71s82.667 -27 138 -27s101.333 9 138 27s65.834 41.667 87.501 71s37 62 46 98s13.5 71.333 13.5 106v1268h248v-1250c0 -46 -3.5 -91 -10.5 -135
s-18.167 -86 -33.5 -126s-36.166 -77 -62.499 -111s-59.333 -63.167 -99 -87.5s-86.5 -43.333 -140.5 -57s-116 -20.5 -186 -20.5c-70.667 0 -133 6.83301 -187 20.5s-101 33.167 -141 58.5s-73.167 55 -99.5 89s-47.333 71.333 -63 112s-26.834 83.5 -33.501 128.5
s-10 89.833 -10 134.5z" />
    <glyph glyph-name="phophungthai" unicode="&#xe1c;" horiz-adv-x="1384" 
d="M111 347l3.00293 879.001h406l-3 -201h-161v-640c0 -36.667 2.5 -67.667 7.5 -93s11.667 -46.333 20 -63s19 -28.667 32 -36s27.833 -11 44.5 -11c26 0 46.333 6.83301 61 20.5s25.167 32.5 31.5 56.5s10.166 52 11.499 84s2 66 2 102v194h246v-194
c0 -36.667 1 -70.834 3 -102.501s6.83301 -59.5 14.5 -83.5s19.167 -42.667 34.5 -56c14 -14 34.667 -21 62 -21c16 0 30.333 3.66699 43 11s23.167 19.333 31.5 36s14.5 37.667 18.5 63s6 56.333 6 93v841h245l-1 -879c0 -64 -7.33301 -119.333 -22 -166
s-35.334 -85.167 -62.001 -115.5s-59 -52.666 -97 -66.999s-81 -21.5 -129 -21.5c-58 0 -110.667 12.167 -158 36.5s-84.666 58.833 -111.999 103.5c-23.333 -48.667 -55.833 -84.167 -97.5 -106.5s-94.834 -33.5 -159.501 -33.5c-48.667 0 -92.667 7.16699 -132 21.5
s-72.833 36.666 -100.5 66.999s-49.334 68.833 -65.001 115.5s-23.5 102 -23.5 166z" />
    <glyph glyph-name="fofathai" unicode="&#xe1d;" horiz-adv-x="1384" 
d="M111 347l3.00293 879.001h406l-3 -201h-161v-640c0 -36.667 2.5 -67.667 7.5 -93s11.667 -46.333 20 -63s19 -28.667 32 -36s27.833 -11 44.5 -11c26 0 46.333 6.83301 61 20.5s25.167 32.5 31.5 56.5s10.166 52 11.499 84s2 66 2 102v194h246v-194
c0 -36.667 1 -70.834 3 -102.501s6.83301 -59.5 14.5 -83.5s19.167 -42.667 34.5 -56c14 -14 34.667 -21 62 -21c16 0 30.333 3.66699 43 11s23.167 19.333 31.5 36s14.5 37.667 18.5 63s6 56.333 6 93v1376h245l-1 -1414c0 -64 -7.33301 -119.333 -22 -166
s-35.334 -85.167 -62.001 -115.5s-59 -52.666 -97 -66.999s-81 -21.5 -129 -21.5c-58 0 -110.667 12.167 -158 36.5s-84.666 58.833 -111.999 103.5c-23.333 -48.667 -55.833 -84.167 -97.5 -106.5s-94.834 -33.5 -159.501 -33.5c-48.667 0 -92.667 7.16699 -132 21.5
s-72.833 36.666 -100.5 66.999s-49.334 68.833 -65.001 115.5s-23.5 102 -23.5 166z" />
    <glyph glyph-name="phophanthai" unicode="&#xe1e;" horiz-adv-x="1623" 
d="M35 1226h272l178 -879l190 879h273l191 -870l176 870h269l-311 -1226h-269l-200 870l-185 -870h-272z" />
    <glyph glyph-name="fofanthai" unicode="&#xe1f;" horiz-adv-x="1623" 
d="M35 1226h272l178 -879l190 879h273l191 -870l266 1405h268l-400 -1761h-269l-200 870l-185 -870h-272z" />
    <glyph glyph-name="phosamphaothai" unicode="&#xe20;" horiz-adv-x="1341" 
d="M64 200l120.003 -0.000976562v463c0 16.667 -1.5 33.5 -4.5 50.5s-8.16699 33.667 -15.5 50s-17.5 31.833 -30.5 46.5s-30.167 28 -51.5 40c7.33301 32.667 18.333 65.167 33 97.5s33.167 63.5 55.5 93.5s49.166 58 80.499 84s67.166 48.5 107.499 67.5
s85.5 33.833 135.5 44.5s105.333 16 166 16c72 0 136.167 -6.66699 192.5 -20s105.5 -31.833 147.5 -55.5s77.5 -51.667 106.5 -84s52.333 -67.5 70 -105.5s30.334 -78.167 38.001 -120.5s11.5 -85.166 11.5 -128.499l3 -739h-248l-3 759c0 35.333 -5.33301 69.5 -16 102.5
s-28.334 63.167 -53.001 90.5s-57.334 49.166 -98.001 65.499s-91 25.166 -151 26.499c-50.667 0 -94.667 -5.66699 -132 -17s-69 -25.666 -95 -42.999s-46.5 -36 -61.5 -56s-24.5 -38.333 -28.5 -55c12 -11.333 23.333 -24.666 34 -39.999s19.667 -32 27 -50
s13 -37.333 17 -58c3.33301 -22 5 -43.667 5 -65l5 -660h-365z" />
    <glyph glyph-name="momathai" unicode="&#xe21;" horiz-adv-x="1290" 
d="M114 0v1226h248l-3 -667c0 -51.333 7.33301 -99.166 22 -143.499s36.167 -82.833 64.5 -115.5s63.833 -58 106.5 -76s92.667 -27 150 -27c35.333 0 67.166 5.33301 95.499 16s52.333 26 72 46s34.834 43.667 45.501 71s15.667 58 15 92l1 804h246v-781
c0 -70 -7.33301 -134.167 -22 -192.5s-39 -108.5 -73 -150.5s-79.833 -74.333 -137.5 -97s-129.167 -34 -214.5 -34c-84 0 -156.667 15 -218 45s-114.333 74.333 -159 133v-149h-239z" />
    <glyph glyph-name="yoyakthai" unicode="&#xe22;" horiz-adv-x="1258" 
d="M91 385c0 31.333 2.16602 61.1592 6.49902 89.4922s11.833 54.166 22.5 77.499s24.667 44.333 42 63c17.333 18 39.666 34 66.999 48c-29.333 16.667 -52.666 35.334 -69.999 56.001s-30.833 42.834 -40.5 66.501s-16.334 47.334 -20.001 71.001s-5.5 46.167 -5.5 67.5
c0 40 5.5 75.167 16.5 105.5s25.167 56.666 42.5 78.999s38 41 62 56s48.833 27.167 74.5 36.5s52.167 15.833 79.5 19.5s53 5.5 77 5.5h186l-2 -210h-134c-12 0 -26.167 -0.666992 -42.5 -2s-32.5 -5.66602 -48.5 -12.999s-29.5 -18.333 -40.5 -33s-16.5 -34.667 -16.5 -60
c0 -27.333 4.5 -49.666 13.5 -66.999s20.833 -31.166 35.5 -41.499s31.667 -17.666 51 -21.999s40.333 -7.5 63 -9.5h118v-206h-120c-23.333 -0.666992 -45 -3.5 -65 -8.5s-37 -13.333 -51 -25s-24.667 -28.167 -32 -49.5c-6.66699 -21.333 -10 -49.666 -10 -84.999
c0 -36.667 7.33301 -68.167 22 -94.5s34.667 -48.5 60 -66.5s54.333 -31.333 87 -40s67 -13 103 -13c38.667 0 75.167 5 109.5 15s63.833 26.667 88.5 50s44 53.5 58 90.5s20.667 82.833 20 137.5l1 753h246l-2 -795c0 -75.333 -13.833 -141.666 -41.5 -198.999
s-65.167 -105.5 -112.5 -144.5s-102.5 -68.167 -165.5 -87.5s-130.167 -29 -201.5 -29c-44.667 0 -88.667 3.33301 -132 10s-84.666 17.834 -123.999 33.501s-75.666 34.667 -108.999 57s-62.333 49.166 -87 80.499s-44 66.333 -58 105s-21 81.334 -21 128.001z" />
    <glyph glyph-name="roruathai" unicode="&#xe23;" horiz-adv-x="1087" 
d="M60 406l248.003 -0.000976562c4 -40.667 11.5 -75.167 22.5 -103.5s26.5 -51.333 46.5 -69s44.333 -30.667 73 -39s62.667 -12.5 102 -12.5c22 0 46 2.33301 72 7s49.667 12.834 71 24.501s39.333 27.667 54 48s22 47.166 22 80.499c0 25.333 -5.33301 46.166 -16 62.499
s-26.5 31.833 -47.5 46.5s-47.833 29 -80.5 43l-115 46l-111.5 45.5c-35.667 14.333 -69 29.333 -100 45s-59.167 32.334 -84.5 50.001s-47 37.667 -65 60s-32.167 47.5 -42.5 75.5s-15.5 59.667 -15.5 95c0 38.667 5.5 74.334 16.5 107.001s26.667 61.5 47 86.5
s44.166 46.667 71.499 65s57 33.333 89 45s65 20.5 99 26.5s67.667 9 101 9c66 0 126.833 -6.33301 182.5 -19s103.834 -34.334 144.501 -65.001s72.667 -71.5 96 -122.5s37 -115.5 41 -193.5h-245c-4 36.667 -11.333 67.667 -22 93s-24.334 46 -41.001 62
s-36.667 27.5 -60 34.5s-49 10.5 -77 10.5c-21.333 0 -43 -2.5 -65 -7.5s-42 -12.667 -60 -23s-32.833 -24.166 -44.5 -41.499s-17.5 -38.666 -17.5 -63.999c0 -19.333 5.16699 -36.333 15.5 -51s26.166 -28.334 47.499 -41.001s48 -25.5 80 -38.5l115 -44.5
c81.333 -29.333 148.5 -57.333 201.5 -84s95 -55.167 126 -85.5s52.833 -63.666 65.5 -99.999s18.667 -77.833 18 -124.5c0 -68.667 -12 -126.334 -36 -173.001s-57.333 -84.5 -100 -113.5s-93 -49.833 -151 -62.5s-120.667 -19 -188 -19c-66 0 -127.333 7.5 -184 22.5
s-106.334 39.833 -149.001 74.5s-77.167 79.167 -103.5 133.5s-41.833 120.5 -46.5 198.5z" />
    <glyph glyph-name="ruthai" unicode="&#xe24;" horiz-adv-x="1267" 
d="M32 850c8 32.667 18.8291 65.167 32.4961 97.5s31.167 63.5 52.5 93.5s47 58 77 84s64.833 48.5 104.5 67.5s84.167 33.833 133.5 44.5c50.667 10.667 106.334 16 167.001 16c72 0 135.667 -6.66699 191 -20s103.5 -31.833 144.5 -55.5s75.5 -51.667 103.5 -84
s50.333 -67.5 67 -105.5s28.667 -78.167 36 -120.5s11 -85.166 11 -128.499l-2 -1136h-245v1156c0 35.333 -4.83301 69.5 -14.5 102.5s-26.167 63.167 -49.5 90.5s-55 49.166 -95 65.499s-89.667 25.166 -149 26.499c-50.667 0 -94.167 -5.66699 -130.5 -17
s-66.666 -25.666 -90.999 -42.999s-43.333 -36.333 -57 -57s-22.5 -38.667 -26.5 -54c15.333 -10 28.333 -22.667 39 -38s19.5 -32 26.5 -50s12 -37.5 15 -58.5s4.5 -43.167 4.5 -66.5l3 -460h131v-200h-377v663c0 16.667 -1.66699 33.5 -5 50.5s-8.66602 33.667 -15.999 50
s-17.666 31.833 -30.999 46.5c-12 14.667 -28.667 28 -50 40z" />
    <glyph glyph-name="lolingthai" unicode="&#xe25;" horiz-adv-x="1261" 
d="M77 326c0 48.667 5.66211 91.166 16.9951 127.499s28 68.166 50 95.499s48.833 50.166 80.5 68.499s67.667 34.666 108 48.999s84.833 26.166 133.5 35.499c48.667 10.667 100.667 20 156 28c35.333 6 70 11.333 104 16s64.167 11.5 90.5 20.5s47.166 21.167 62.499 36.5
s23 35.666 23 60.999c0 39.333 -7.5 71.166 -22.5 95.499s-34.5 42.5 -58.5 54.5s-50.5 20 -79.5 24s-58.167 6 -87.5 6c-38.667 0 -74.667 -3.83301 -108 -11.5s-62.166 -20.5 -86.499 -38.5s-43.666 -42.167 -57.999 -72.5s-23.166 -67.5 -26.499 -111.5h-251
c2 54.667 9.83301 103.667 23.5 147s32.667 81 57 113s53.333 59.667 87 83s70.334 41.833 110.001 55.5s82 24 127 31s91.167 10.5 138.5 10.5c38 0 76 -2.5 114 -7.5s75 -12.833 111 -23.5s69.333 -25 100 -43s57.5 -40.333 80.5 -67s40.833 -58.5 53.5 -95.5
s19 -79.833 19 -128.5l3 -885h-246v596c-15.333 -7.33301 -32 -13.666 -50 -18.999s-36.833 -9.66602 -56.5 -12.999s-39.5 -6.33301 -59.5 -9c-21.333 -3.33301 -41.666 -5.66602 -60.999 -6.99902l-84.5 -12c-27.667 -4 -54.667 -9.16699 -81 -15.5
s-50.5 -14.333 -72.5 -24s-41 -21.834 -57 -36.501s-28.833 -31.667 -38.5 -51s-14.167 -42.666 -13.5 -69.999c0 -31.333 6.66699 -57.166 20 -77.499s30.5 -36.833 51.5 -49.5s44.833 -21.667 71.5 -27s53.667 -8 81 -8c22 0 45 1.83301 69 5.5s49 8.5 75 14.5l-1 -194
c-34 -8.66699 -65.833 -15.667 -95.5 -21s-61.167 -8 -94.5 -8c-57.333 0 -112 6.33301 -164 19s-97.5 32.834 -136.5 60.501s-70.167 63.834 -93.5 108.501s-34.666 99.334 -33.999 164.001z" />
    <glyph glyph-name="luthai" unicode="&#xe26;" horiz-adv-x="1341" 
d="M64 200l120.003 -0.000976562v463c0 16.667 -1.5 33.5 -4.5 50.5s-8.16699 33.667 -15.5 50s-17.5 31.833 -30.5 46.5s-30.167 28 -51.5 40c7.33301 32.667 18.333 65.167 33 97.5s33.167 63.5 55.5 93.5s49.166 58 80.499 84s67.166 48.5 107.499 67.5
s85.5 33.833 135.5 44.5s105.333 16 166 16c72 0 136.167 -6.66699 192.5 -20s105.5 -31.833 147.5 -55.5s77.5 -51.667 106.5 -84s52.333 -67.5 70 -105.5s30.334 -78.167 38.001 -120.5s11.5 -85.166 11.5 -128.499v-1136h-248v1156c0 35.333 -5.33301 69.5 -16 102.5
s-28.334 63.167 -53.001 90.5s-57.334 49.166 -98.001 65.499s-91 25.166 -151 26.499c-50.667 0 -94.667 -5.66699 -132 -17s-69 -25.666 -95 -42.999s-46.5 -36 -61.5 -56s-24.5 -38.333 -28.5 -55c12 -11.333 23.333 -24.666 34 -39.999s19.667 -32 27 -50
s13 -37.333 17 -58c3.33301 -22 5 -43.667 5 -65l5 -660h-365z" />
    <glyph glyph-name="wowaenthai" unicode="&#xe27;" horiz-adv-x="1147" 
d="M79 791c2 68.667 15.1689 131.665 39.502 188.998s56.833 106.333 97.5 147s89.834 72.334 147.501 95.001s121.5 34 191.5 34c87.333 0 163.666 -15.667 228.999 -47s119.166 -75 161.499 -131s74 -123.333 95 -202s31.5 -166.167 31.5 -262.5s-10.333 -184 -31 -263
s-52.334 -146.5 -95.001 -202.5s-96.334 -99 -161.001 -129c-66 -30 -142.667 -45 -230 -45c-70 0 -133.833 11.167 -191.5 33.5s-106.834 54 -147.501 95s-72.667 89.667 -96 146s-36.666 119.166 -39.999 188.499h248c3.33301 -45.333 11 -84.166 23 -116.499
s28 -58.833 48 -79.5s43.167 -36 69.5 -46s54.5 -15 84.5 -15c41.333 0 78 8.5 110 25.5s59.5 43.5 82.5 79.5s40.833 81.167 53.5 135.5s19 118.5 19 192.5s-6.33301 138.833 -19 194.5s-30.334 101.167 -53.001 136.5s-50 61.666 -82 78.999c-32 18 -68.333 27 -109 27
c-31.333 0 -60.166 -5.16699 -86.499 -15.5s-49.166 -25.666 -68.499 -45.999s-35.333 -47.166 -48 -80.499s-21 -72.333 -25 -117h-248z" />
    <glyph glyph-name="sosalathai" unicode="&#xe28;" horiz-adv-x="1303" 
d="M111 710c0 45.333 3.32715 90.167 9.99414 134.5s18.334 86.666 35.001 126.999s38.334 77.833 65.001 112.5s60 64.334 100 89.001s87.333 44.167 142 58.5s117.334 21.5 188.001 21.5c46.667 0 89.667 -3.33301 129 -10c38.667 -5.33301 73.667 -13.666 105 -24.999
c16.667 0.666992 31.334 5.16699 44.001 13.5s23 18.5 31 30.5s14.333 25.667 19 41s7.33398 30.666 8.00098 45.999h263c0 -23.333 -3.5 -48.666 -10.5 -75.999s-17.333 -53.333 -31 -78s-31.167 -47 -52.5 -67s-46.666 -36 -75.999 -48c20 -25.333 36.667 -52.5 50 -81.5
s24.5 -59.333 33.5 -91s15.333 -64.334 19 -98.001s5.5 -66.834 5.5 -99.501l2 -710h-248l-2 736c0 23.333 -1.83301 46.666 -5.5 69.999s-10.167 46.166 -19.5 68.499s-21.5 43.333 -36.5 63s-33.333 36.667 -55 51s-46.834 25.5 -75.501 33.5s-61.334 12 -98.001 12
c-37.333 0 -70.333 -4 -99 -12s-53.667 -19.167 -75 -33.5s-39.5 -31.333 -54.5 -51s-27.167 -40.667 -36.5 -63s-16.166 -45.166 -20.499 -68.499s-6.5 -46.666 -6.5 -69.999l-2 -165c22.667 32 46.334 59.167 71.001 81.5s52.167 40.833 82.5 55.5s64 25 101 31
s78.833 9 125.5 9l-3 -217c-72 0 -131.833 -9.16699 -179.5 -27.5s-86.167 -45.333 -115.5 -81s-50.333 -78.667 -63 -129s-19 -107.166 -19 -170.499l3 -123h-245z" />
    <glyph glyph-name="sorusithai" unicode="&#xe29;" horiz-adv-x="1290" 
d="M112 496l1.99902 730h245l-3 -750c0 -35.333 4 -70.166 12 -104.499s22.167 -65.666 42.5 -93.999s49 -51.333 86 -69s85.5 -26.5 145.5 -26.5c60.667 0 109.5 8.83301 146.5 26.5s66 40.667 87 69s35.167 59.666 42.5 93.999s10.333 69.166 9 104.499l2 95h-357v285h234
v-88h123v458h248v-458h111l-2 -197h-109v-75c0 -43.333 -3 -86.666 -9 -129.999s-16.5 -84.333 -31.5 -123s-35.333 -74.5 -61 -107.5s-58 -61.333 -97 -85s-86 -42.334 -141 -56.001s-119.167 -20.5 -192.5 -20.5c-74 0 -138.5 6.83301 -193.5 20.5
s-102.167 32.334 -141.5 56.001s-71.833 52 -97.5 85s-46.167 68.833 -61.5 107.5s-25.666 79.667 -30.999 123s-8 86.666 -8 129.999z" />
    <glyph glyph-name="sosuathai" unicode="&#xe2a;" horiz-adv-x="1261" 
d="M77 326c0 54 7.83008 100.833 23.4971 140.5s36.834 73.834 63.501 102.501s58.5 52.167 95.5 70.5s76.5 33.666 118.5 45.999s85.333 22.333 130 30s89.334 14.5 134.001 20.5c33.333 4 65.333 8.83301 96 14.5s58 12.834 82 21.501s43.333 20.334 58 35.001
c16 14.667 24 33.667 24 57c0 39.333 -7.5 71.166 -22.5 95.499s-34.5 42.5 -58.5 54.5s-50.5 20 -79.5 24s-58.167 6 -87.5 6c-38.667 0 -74.667 -3.66699 -108 -11s-62.166 -20 -86.499 -38s-43.833 -42 -58.5 -72c-16 -29.333 -25 -66 -27 -110h-251
c2 54.667 10.167 103.667 24.5 147s33.666 81 57.999 113s53.333 59.667 87 83s70.167 41.833 109.5 55.5s82 24 128 31s92.333 10.5 139 10.5c36 0 72.667 -2.5 110 -7.5s72.666 -12.5 105.999 -22.5c17.333 2 32.833 7 46.5 15s25.167 17.833 34.5 29.5
s16.333 24.5 21 38.5c4.66699 15.333 7.66699 29.666 9 42.999h263c0 -22.667 -3 -47 -9 -73s-15.833 -51.167 -29.5 -75.5s-31.5 -46.5 -53.5 -66.5c-22.667 -20 -48.667 -35 -78 -45c16 -27.333 29.333 -58 40 -92s16 -71.333 16 -112l3 -885h-246l-1 602
c-31.333 -14 -66.666 -25.333 -105.999 -34s-79.333 -15.334 -120 -20.001c-43.333 -4 -85.333 -9.66699 -126 -17s-77.667 -18.166 -111 -32.499s-60.166 -33.833 -80.499 -58.5s-30.5 -57.334 -30.5 -98.001c0 -31.333 6.5 -57.166 19.5 -77.499s30 -36.833 51 -49.5
s45 -21.667 72 -27s53.833 -8 80.5 -8c22.667 0 46.167 1.83301 70.5 5.5s49.166 8.5 74.499 14.5v-197c-34 -8.66699 -65.833 -15.167 -95.5 -19.5s-61.167 -6.5 -94.5 -6.5c-57.333 0 -112 6 -164 18s-97.5 31.833 -136.5 59.5s-70.167 63.667 -93.5 108
s-34.666 98.833 -33.999 163.5z" />
    <glyph glyph-name="hohipthai" unicode="&#xe2b;" horiz-adv-x="1264" 
d="M114 0v1226h245l-3 -430l502 430h358l-273 -230c42.667 -18 77.167 -41 103.5 -69s47.333 -60.5 63 -97.5s26.167 -78.333 31.5 -124s8 -94.5 8 -146.5l1 -559h-245v584c0 29.333 -2.83301 57.666 -8.5 84.999s-14.167 52.666 -25.5 75.999s-26 43.166 -44 59.499
s-40 27.5 -66 33.5l-402 -345v-493h-245z" />
    <glyph glyph-name="lochulathai" unicode="&#xe2c;" horiz-adv-x="1623" 
d="M29 1226l274.999 -0.000976562l150 -900l207 708h254l218 -711l23.5 118.5l22.5 114.5l22 114l22 115c7.33301 30.667 11.666 56.5 12.999 77.5s2 40.5 2 58.5c0 21.333 -2.5 40.166 -7.5 56.499s-13.333 30 -25 41s-27.167 19.5 -46.5 25.5s-42.666 9 -69.999 9l2 173
c38.667 2 73.5 7 104.5 15s58 19.5 81 34.5s41.333 34.333 55 58s22.5 52.834 26.5 87.501h280c-6 -43.333 -15.833 -81.666 -29.5 -114.999s-30.334 -62.166 -50.001 -86.499s-42.5 -44.333 -68.5 -60s-53.667 -27.5 -83 -35.5c22 -18.667 39.333 -39.834 52 -63.501
s21.334 -48.667 26.001 -75s6.33398 -53.833 5.00098 -82.5c-0.666992 -28.667 -4.66699 -57.667 -12 -87l-202 -816h-272l-221 704l-209 -704h-272z" />
    <glyph glyph-name="oangthai" unicode="&#xe2d;" horiz-adv-x="1243" 
d="M70 610l-0.00195312 20.499v30.5v38h552v-194h-299c2 -48.667 10.667 -93 26 -133s36.166 -74 62.499 -102s57.333 -50 93 -66s74.834 -24 117.501 -24c46.667 0 89 9.5 127 28.5s70.167 46.833 96.5 83.5s46.833 81.834 61.5 135.501s22 114.5 22 182.5
c0 140.667 -25.333 248.167 -76 322.5s-127.667 111.5 -231 111.5c-38.667 0 -74.667 -4.66699 -108 -14s-62.666 -23.5 -87.999 -42.5s-46 -42.167 -62 -69.5c-14.667 -27.333 -25 -58.333 -31 -93h-260c13.333 65.333 34.166 124.5 62.499 177.5
s65.166 98.167 110.499 135.5s98.833 66.333 160.5 87s133.5 31 215.5 31c68 0 129 -7.66699 183 -23s101.667 -36.833 143 -64.5s76.666 -61 105.999 -100s53.166 -82.333 71.499 -130s32 -99.167 41 -154.5s13.5 -113.333 13.5 -174c0 -56 -4.5 -110.833 -13.5 -164.5
s-22.667 -104.334 -41 -152.001s-42.166 -91 -71.499 -130s-64.666 -72.667 -105.999 -101s-89 -50.166 -143 -65.499s-114 -23 -180 -23c-68 0 -128.833 7.66699 -182.5 23s-101.167 37 -142.5 65s-76.666 61.667 -105.999 101s-53.166 82.333 -71.499 129
s-31.666 97 -39.999 151s-12.5 109.667 -12.5 167z" />
    <glyph glyph-name="honokhukthai" unicode="&#xe2e;" horiz-adv-x="1238" 
d="M70 613l0.00488281 86h552l3 -191h-299c1.33301 -48.667 9.66602 -93.167 24.999 -133.5s35.666 -74.833 60.999 -103.5s56 -50.667 92 -66s75.333 -23 118 -23c46.667 0 89 9.5 127 28.5s70.167 47 96.5 84s46.833 82.333 61.5 136s22 114.5 22 182.5
c0 139.333 -25.333 246 -76 320s-127.667 111 -231 111c-76.667 0 -139.667 -18.833 -189 -56.5s-82.666 -91.834 -99.999 -162.501h-260c13.333 65.333 34.166 124.666 62.499 177.999s64.833 99 109.5 137s98.167 67.333 160.5 88s133.833 31 214.5 31
c39.333 0 77 -3 113 -9s69.667 -15 101 -27c15.333 2 29.166 6.5 41.499 13.5s22.333 16.333 30 28s13.5 24.834 17.5 39.501s6.33301 29.667 7 45h267c0 -23.333 -3.33301 -47.166 -10 -71.499s-16.834 -48 -30.501 -71s-30.334 -44 -50.001 -63
s-42.834 -34.167 -69.501 -45.5c23.333 -29.333 43.666 -62.5 60.999 -99.5s31.833 -75.833 43.5 -116.5s20.834 -84 27.501 -130c7.33301 -46 11 -92.333 11 -139c0 -56 -4.5 -110.833 -13.5 -164.5s-22.667 -104.334 -41 -152.001s-42.166 -91 -71.499 -130
s-64.666 -72.667 -105.999 -101s-89 -50.166 -143 -65.499s-114 -23 -180 -23c-68 0 -128.833 7.66699 -182.5 23s-101 37 -142 65s-76 61.667 -105 101s-52.833 82.333 -71.5 129s-32.334 97 -41.001 151s-13 109.667 -13 167z" />
    <glyph glyph-name="paiyannoithai" unicode="&#xe2f;" horiz-adv-x="1267" 
d="M85 876c0 44 5.83105 83.167 17.498 117.5s27.5 64.5 47.5 90.5s43.5 48 70.5 66s55.833 32.5 86.5 43.5s62.334 19.167 95.001 24.5c34 5.33301 66.333 8 97 8h197l-1 -207h-197c-54.667 0 -94.334 -11.833 -119.001 -35.5s-37.667 -60.5 -39 -110.5
c0 -23.333 3.66699 -47 11 -71s20.333 -45.167 39 -63.5s43.667 -33.333 75 -45s71.333 -17.5 120 -17.5c105.333 0 185.5 19.167 240.5 57.5s82.5 98.5 82.5 180.5v312h245v-1226h-245l-1 571c-39.333 -33.333 -85.666 -58 -138.999 -74s-111.666 -24 -174.999 -24
c-84 0 -157.667 9.33301 -221 28s-116.333 45.667 -159 81s-74.667 77.833 -96 127.5s-32 105.167 -32 166.5z" />
    <glyph glyph-name="saraathai" unicode="&#xe30;" horiz-adv-x="738" 
d="M111 191l1 279h227l-2 -90h294l1 -189h-521zM111 799v281h228v-90h293l-1 -191h-520z" />
    <glyph glyph-name="maihanakatthai" unicode="&#xe31;" 
d="M-769 1413v295h226v-105h584l3 -190h-813z" />
    <glyph glyph-name="saraaathai" unicode="&#xe32;" horiz-adv-x="1043" 
d="M32 822c0 46.667 5.83301 89.501 17.5 128.501s27.667 74.333 48 106s45 59.667 74 84s60.167 44.5 93.5 60.5s68.5 28.167 105.5 36.5s75.167 12.5 114.5 12.5c63.333 0 122 -8.83301 176 -26.5s100.833 -44 140.5 -79s70.834 -79.333 93.501 -133
s34 -116.834 34 -189.501l1 -822h-245l-2 780c1.33301 87.333 -15.334 151.5 -50.001 192.5s-84 61.5 -148 61.5c-56.667 0 -102.5 -17.5 -137.5 -52.5s-54.5 -88.167 -58.5 -159.5h-257z" />
    <glyph glyph-name="saraamthai" unicode="&#xe33;" horiz-adv-x="1043" 
d="M-493 1624c0 32 5.83594 62 17.5029 90s27.667 52.5 48 73.5s44.333 37.833 72 50.5s57.5 19 89.5 19c31.333 0 61.166 -6.33301 89.499 -19s53.166 -29.5 74.499 -50.5s38.5 -45.5 51.5 -73.5s19.5 -58 19.5 -90c0 -32.667 -6.33301 -63 -19 -91
s-29.667 -52.5 -51 -73.5s-46.333 -37.833 -75 -50.5s-58.5 -19 -89.5 -19s-60.5 6.33301 -88.5 19s-52.333 29.5 -73 50.5s-36.834 45.5 -48.501 73.5s-17.5 58.333 -17.5 91zM-344.997 1624c0 -12 2.33203 -22.833 6.99902 -32.5s10.5 -18.5 17.5 -26.5
s15.5 -14.333 25.5 -19s20.333 -7 31 -7c11.333 0 22.166 2.33301 32.499 7s19.333 11 27 19s13.5 16.833 17.5 26.5s6 20.5 6 32.5c0 11.333 -2.16699 21.833 -6.5 31.5s-10.166 18.5 -17.499 26.5s-16.333 14.333 -27 19s-21.334 7 -32.001 7
c-12 0 -22.833 -2.33301 -32.5 -7s-18.167 -11 -25.5 -19s-13.166 -16.833 -17.499 -26.5s-6.16602 -20.167 -5.49902 -31.5zM32.002 822c0 46.667 5.83301 89.501 17.5 128.501s27.667 74.333 48 106s45 59.667 74 84s60.167 44.5 93.5 60.5s68.5 28.167 105.5 36.5
s75.167 12.5 114.5 12.5c63.333 0 122 -8.83301 176 -26.5s100.833 -44 140.5 -79s70.834 -79.333 93.501 -133s34 -116.834 34 -189.501l1 -822h-245l-2 780c1.33301 87.333 -15.334 151.5 -50.001 192.5s-84 61.5 -148 61.5c-56.667 0 -102.5 -17.5 -137.5 -52.5
s-54.5 -88.167 -58.5 -159.5h-257z" />
    <glyph glyph-name="saraithai" unicode="&#xe34;" 
d="M-1184 1410l98 196h972v-196h-1070z" />
    <glyph glyph-name="saraiithai" unicode="&#xe35;" 
d="M-1184 1410l98 196h741l-2 172h232l1 -368h-1070z" />
    <glyph glyph-name="sarauethai" unicode="&#xe36;" 
d="M-1184 1410l98 196.002h572l-1 20c0 29.333 5.5 57.166 16.5 83.499s26 49.166 45 68.499s41.5 35 67.5 47s53.5 18 82.5 18s56.667 -6 83 -18s49.5 -27.667 69.5 -47s35.5 -42.166 46.5 -68.499s16.5 -54.166 16.5 -83.499c0 -30 -5.33301 -57.833 -16 -83.5
s-25.667 -48.334 -45 -68.001s-42 -35.334 -68 -47.001s-53.333 -17.5 -82 -17.5h-885zM-378 1626c0 -9.33301 2.16797 -18.834 6.50098 -28.501s9.83301 -17.667 16.5 -24s14.667 -11.5 24 -15.5s18.833 -6 28.5 -6s19.5 2 29.5 6s18.333 9.16699 25 15.5
s12.167 14.333 16.5 24s6.5 19.167 6.5 28.5c0 23.333 -7.83301 42.333 -23.5 57s-33.5 22 -53.5 22c-10 0 -19.833 -1.83301 -29.5 -5.5s-17.834 -9.16699 -24.501 -16.5s-12 -15.666 -16 -24.999s-6 -20 -6 -32z" />
    <glyph glyph-name="saraueethai" unicode="&#xe37;" 
d="M-1184 1410l98 196h423l-3 172h222l2 -172h106v172h221l1 -368h-1070z" />
    <glyph glyph-name="sarauthai" unicode="&#xe38;" 
d="M-450 -330l3 190h336v-459h-231v269h-108z" />
    <glyph glyph-name="sarauuthai" unicode="&#xe39;" 
d="M-888 -330l3.00195 190h342l-2 -168c0 -38.667 8.16699 -68.334 24.5 -89.001s41.833 -31 76.5 -31c33.333 0 58.666 10.333 75.999 31s26 50.334 26 89.001l2 168h229v-168c0 -42.667 -5.83301 -82.834 -17.5 -120.501s-30.667 -70.5 -57 -98.5
s-60.333 -50.333 -102 -67s-92.834 -25 -153.501 -25c-58.667 0 -108.667 6.83301 -150 20.5s-75.333 33.334 -102 59.001s-47 56.5 -61 92.5c-15.333 35.333 -24 74.333 -26 117h-108z" />
    <glyph glyph-name="phinthuthai" unicode="&#xe3a;" 
d="M-418 -269c0 23.333 4.5 45 13.5 65s21 37.667 36 53s32.5 27.333 52.5 36s41.667 13 65 13c22 0 43.333 -4.33301 64 -13s38.5 -20.667 53.5 -36s26.833 -33 35.5 -53s12.667 -41.667 12 -65c0 -22 -4.16699 -43 -12.5 -63s-19.833 -37.5 -34.5 -52.5s-32 -27 -52 -36
s-41 -13.5 -63 -13.5c-23.333 0 -45.333 4.5 -66 13.5s-38.667 21 -54 36s-27.5 32.5 -36.5 52.5s-13.5 41 -13.5 63z" />
    <glyph glyph-name="PUCR2005" unicode="&#xe3e;" 
 />
    <glyph glyph-name="bahtthai" unicode="&#xe3f;" horiz-adv-x="1389" 
d="M128 1460l447 -0.000976562l-1 128h228l1 -131c58.667 -2.66699 115.167 -10.167 169.5 -22.5s103 -32.166 146 -59.499s77.167 -64 102.5 -110c26.667 -45.333 40 -104 40 -176c0 -70.667 -12.5 -131.667 -37.5 -183s-64.5 -94.333 -118.5 -129
c35.333 -16 66.333 -35.167 93 -57.5s49.334 -48.333 68.001 -78s32.5 -62 41.5 -97s13.5 -71.833 13.5 -110.5c0 -36 -4.33301 -71.667 -13 -107s-22 -69 -40 -101s-40.167 -61.833 -66.5 -89.5s-57 -51.5 -92 -71.5s-73.833 -35.833 -116.5 -47.5
s-89.334 -17.5 -140.001 -17.5h-49l-1 -137h-228l3 137h-447zM385 1238l3 -380h189l-3 380h-189zM387 218.999h188v418h-187zM800 1238l3.00098 -377c71.333 8 122.666 27.667 153.999 59s47 74.666 47 129.999c0 40.667 -4.33301 73 -13 97s-22 42.667 -40 56
s-39.667 22.333 -65 27c-26 4.66699 -54.667 7.33398 -86 8.00098zM803.001 218.999l20.001 -0.00292969c39.333 0 74 4.83301 104 14.5s55.333 24.334 76 44.001s36.334 43.334 47.001 71.001s16 58.834 16 93.501c0 37.333 -7.33301 68.333 -22 93
s-34.334 44.334 -59.001 59.001s-52.834 25.167 -84.501 31.5s-64.167 10.166 -97.5 11.499v-418z" />
    <glyph glyph-name="saraethai" unicode="&#xe40;" horiz-adv-x="522" 
d="M137 0v1226h248v-1226h-248z" />
    <glyph glyph-name="saraaethai" unicode="&#xe41;" horiz-adv-x="935" 
d="M137 0v1226h248v-1226h-248zM549 1226h248l2 -1226h-249z" />
    <glyph glyph-name="saraothai" unicode="&#xe42;" horiz-adv-x="621" 
d="M-9 1591l45 186.998h599l111 -195h-384c19.333 -23.333 33.833 -49.166 43.5 -77.499s14.167 -57.5 13.5 -87.5l1 -1218h129l1 -200h-373l-2 1410c0 28.667 -4.83301 54.334 -14.5 77.001s-22.834 41.667 -39.501 57s-36.167 27 -58.5 35s-46.166 12 -71.499 12z" />
    <glyph glyph-name="saraaimaimuanthai" unicode="&#xe43;" horiz-adv-x="621" 
d="M-70 1454c0 64.667 9.66992 120.834 29.0029 168.501s45.166 87 77.499 118s69.666 54.333 111.999 70s86.166 23.5 131.499 23.5c41.333 0 81 -4.83301 119 -14.5s71.833 -24.834 101.5 -45.501s53.5 -47.334 71.5 -80.001c18 -31.333 27 -70.333 27 -117
c-1.33301 -25.333 -6.16602 -47.833 -14.499 -67.5s-19 -38 -32 -55s-27.5 -33.5 -43.5 -49.5s-31.333 -33.667 -46 -53c-10.667 -12.667 -19 -27 -25 -43s-10.5 -32.833 -13.5 -50.5s-4.5 -35.167 -4.5 -52.5v-50v-956h129l1 -200h-373l-2 1156
c-0.666992 33.333 0.333008 63.166 3 89.499s8 50.833 16 73.5s19 44.5 33 65.5s32.667 43.167 56 66.5c6 6 13.833 13.333 23.5 22s19.334 18.167 29.001 28.5s18.167 20.833 25.5 31.5c8.66699 10.667 13 21 13 31c0 8.66699 -2 17.334 -6 26.001
s-9.33301 16.834 -16 24.501s-15.834 13.5 -27.501 17.5s-26.834 6 -45.501 6c-19.333 0 -36.666 -4.33301 -51.999 -13s-27.833 -20.834 -37.5 -36.501s-16.834 -35.167 -21.501 -58.5s-7 -48.666 -7 -75.999h-231z" />
    <glyph glyph-name="saraaimaimalaithai" unicode="&#xe44;" horiz-adv-x="621" 
d="M-150 1583l109 194.998h599l48 -187c-25.333 0 -49.5 -4 -72.5 -12s-42.667 -19.667 -59 -35s-29.5 -34.166 -39.5 -56.499s-15 -48.166 -15 -77.499v-1210h129l1 -200h-373l-3 1418c0.666992 28.667 5.66699 57.667 15 87c8 28.667 22 54.667 42 78h-381z" />
    <glyph glyph-name="lakkhangyaothai" unicode="&#xe45;" horiz-adv-x="1043" 
d="M32 822c0 46.667 5.83301 89.501 17.5 128.501s27.667 74.333 48 106s45 59.667 74 84s60.167 44.5 93.5 60.5s68.5 28.167 105.5 36.5s75.167 12.5 114.5 12.5c63.333 0 122 -8.83301 176 -26.5s100.833 -44 140.5 -79s70.834 -79.333 93.501 -133
s34 -116.834 34 -189.501l-2 -1219h-245l1 1177c1.33301 87.333 -15.334 151.5 -50.001 192.5s-84 61.5 -148 61.5c-56.667 0 -102.5 -17.5 -137.5 -52.5s-54.5 -88.167 -58.5 -159.5h-257z" />
    <glyph glyph-name="maiyamokthai" unicode="&#xe46;" horiz-adv-x="1195" 
d="M79 771c0 60 5.33105 115.836 15.998 167.503s30.167 97.667 58.5 138s66.833 74.833 115.5 103.5c48.667 28 111.667 48.333 189 61l129 -134l115 131c56.667 -4.66699 105.667 -14.834 147 -30.501s75.833 -35.334 103.5 -59.001s50 -51.167 67 -82.5
s30 -64.5 39 -99.5s14.833 -72 17.5 -111s4 -78.833 4 -119.5l-1 -1130h-248v1153c0 22.667 -0.333008 46.834 -1 72.501s-3.16699 50 -7.5 73s-11.666 43 -21.999 60s-24.166 28.5 -41.499 34.5l-128 -138c-6 -4.66699 -12.833 -8.66699 -20.5 -12s-15.5 -5 -23.5 -5
c-10.667 0 -19.667 1.66699 -27 5s-13 7.33301 -17 12l-133 135c-32.667 -21.333 -55.834 -51.5 -69.501 -90.5s-18.5 -82.833 -14.5 -131.5c0 -17.333 1.66699 -34.833 5 -52.5s9.83301 -33.334 19.5 -47.001s22.334 -24.834 38.001 -33.501s35.167 -13 58.5 -13h49l2 -216
h-51c-48.667 0 -95.5 6.83301 -140.5 20.5s-84.5 35 -118.5 64s-60.667 66.167 -80 111.5c-19.333 44.667 -29 99 -29 163z" />
    <glyph glyph-name="maitaikhuthai" unicode="&#xe47;" 
d="M-1080 1695c0 50 8.66602 92.501 25.999 127.501s41.166 64.167 71.499 87.5s64.833 40.333 103.5 51s80 16 124 16h594v-177h-575c-29.333 0 -52.166 -3.66699 -68.499 -11s-29 -16.333 -38 -27s-14.333 -22 -16 -34s-2.5 -23 -2.5 -33c0 -6 0.5 -13.5 1.5 -22.5
s3.83301 -18 8.5 -27s11.834 -16.333 21.501 -22s22.5 -8.5 38.5 -8.5c25.333 0 44.5 9.66699 57.5 29s19.167 45.666 18.5 78.999h166c-2 -33.333 2.83301 -59.666 14.5 -78.999s30.834 -29 57.501 -29c13.333 0 24.166 2.66699 32.499 8s14.666 12.666 18.999 21.999
s6.66602 20.666 6.99902 33.999s-0.166992 28 -1.5 44h183c7.33301 -52.667 6.33301 -97.5 -3 -134.5s-24.166 -67.167 -44.499 -90.5s-44.666 -40.666 -72.999 -51.999s-59.166 -17 -92.499 -17c-21.333 0 -41.166 2.66699 -59.499 8s-35.333 13 -51 23
s-29.334 20.833 -41.001 32.5s-21.5 24.167 -29.5 37.5c-7.33301 -13.333 -17.333 -25.833 -30 -37.5s-27.834 -22.5 -45.501 -32.5s-36.167 -17.667 -55.5 -23s-39 -8 -59 -8c-50 0 -91.667 8.5 -125 25.5s-60 38.5 -80 64.5s-34 54.5 -42 85.5s-12 61.167 -12 90.5z" />
    <glyph glyph-name="maiekthai" unicode="&#xe48;" 
d="M-346 2275h228l1 -358h-228z" />
    <glyph glyph-name="maithothai" unicode="&#xe49;" 
d="M-680 2278h303l3 -181c39.333 0 74.5 4.83301 105.5 14.5s57.167 22.667 78.5 39s37.333 35.5 48 57.5c10.667 21.333 16 44.666 16 70h212c0 -46.667 -9.5 -92 -28.5 -136s-48.667 -83 -89 -117s-90.833 -61.167 -151.5 -81.5s-132 -30.5 -214 -30.5h-168v184h-112z" />
    <glyph glyph-name="maitrithai" unicode="&#xe4a;" 
d="M-721 1913c-4 54 -1.16602 101.002 8.50098 141.002s23.834 73.167 42.501 99.5s40.667 45.833 66 58.5s51.5 19 78.5 19s52.167 -6.83301 75.5 -20.5s44 -32.167 62 -55.5c14.667 23.333 34.834 41.833 60.501 55.5s52.5 20.5 80.5 20.5c38 0 72.167 -10.667 102.5 -32
s51.166 -54.666 62.499 -100c8 10 15.333 21.333 22 34s12.5 26.5 17.5 41.5s9 31 12 48s4.83301 33.5 5.5 49.5h194c0 -24.667 -2.83301 -49.834 -8.5 -75.501s-14.167 -51.167 -25.5 -76.5s-24.5 -49.5 -39.5 -72.5s-31.5 -43.667 -49.5 -62s-37.333 -33.833 -58 -46.5
c-20 -14 -40.667 -22.667 -62 -26h-157c0 9.33301 -0.5 21.5 -1.5 36.5s-2.83301 29.833 -5.5 44.5s-6.66699 27.334 -12 38.001c-6.66699 10.667 -14 16 -22 16c-7.33301 0 -13.5 -4.5 -18.5 -13.5s-9 -20.333 -12 -34s-5 -28.334 -6 -44.001s-0.833008 -30.167 0.5 -43.5
h-156c0 12.667 -0.5 27 -1.5 43s-3 30.833 -6 44.5s-7 25 -12 34s-10.833 13.5 -17.5 13.5c-7.33301 0 -13.833 -5.33301 -19.5 -16s-9.83398 -23.334 -12.501 -38.001s-4.33398 -29.334 -5.00098 -44.001c0.666992 -15.333 1 -27.666 1 -36.999h-184z" />
    <glyph glyph-name="maichattawathai" unicode="&#xe4b;" 
d="M-514 2066l3 177h169v148h222v-148h173l-2 -177h-174l3 -153h-222l-1 153h-171z" />
    <glyph glyph-name="thanthakhatthai" unicode="&#xe4c;" 
d="M-505 1772c-1.33301 56.667 7.99902 107.167 27.999 151.5s49.5 82 88.5 113s85.833 55.167 140.5 72.5s117 26 187 26v-184c-73.333 0 -129.666 -14.167 -168.999 -42.5s-58 -73.833 -56 -136.5h-219z" />
    <glyph glyph-name="nikhahitthai" unicode="&#xe4d;" 
d="M-493 1624c0 32 5.83594 62 17.5029 90s27.667 52.5 48 73.5s44.333 37.833 72 50.5s57.5 19 89.5 19c31.333 0 61.166 -6.33301 89.499 -19s53.166 -29.5 74.499 -50.5s38.5 -45.5 51.5 -73.5s19.5 -58 19.5 -90c0 -32.667 -6.33301 -63 -19 -91
s-29.667 -52.5 -51 -73.5s-46.333 -37.833 -75 -50.5s-58.5 -19 -89.5 -19s-60.5 6.33301 -88.5 19s-52.333 29.5 -73 50.5s-36.834 45.5 -48.501 73.5s-17.5 58.333 -17.5 91zM-344.997 1624c0 -12 2.33203 -22.833 6.99902 -32.5s10.5 -18.5 17.5 -26.5
s15.5 -14.333 25.5 -19s20.333 -7 31 -7c11.333 0 22.166 2.33301 32.499 7s19.333 11 27 19s13.5 16.833 17.5 26.5s6 20.5 6 32.5c0 11.333 -2.16699 21.833 -6.5 31.5s-10.166 18.5 -17.499 26.5s-16.333 14.333 -27 19s-21.334 7 -32.001 7
c-12 0 -22.833 -2.33301 -32.5 -7s-18.167 -11 -25.5 -19s-13.166 -16.833 -17.499 -26.5s-6.16602 -20.167 -5.49902 -31.5z" />
    <glyph glyph-name="yamakkanthai" unicode="&#xe4e;" 
d="M-564 1413c0 39.333 4.50195 76.6641 13.502 111.997s22.167 67.333 39.5 96s39.666 53.834 66.999 75.501s60 37.167 98 46.5c6 28.667 17.5 54.834 34.5 78.501s39.667 44.334 68 62.001s62.666 31 102.999 40s87.166 13.5 140.499 13.5l1 -188
c-32.667 0 -59.5 -2.5 -80.5 -7.5s-37.167 -12.833 -48.5 -23.5s-19.166 -23.167 -23.499 -37.5s-6.5 -31.5 -6.5 -51.5l3 -49h-61c-26.667 0 -48 -4 -64 -12s-28.833 -19.167 -38.5 -33.5s-16 -31.833 -19 -52.5s-4.5 -43.667 -4.5 -69h-222z" />
    <glyph glyph-name="fongmanthai" unicode="&#xe4f;" horiz-adv-x="1515" 
d="M107 610c0 59.333 7.49902 116.5 22.499 171.5s36.667 106.167 65 153.5s62.333 90.666 102 129.999s83.334 72.666 131.001 99.999s99.334 48.833 155.001 64.5s113.5 23.5 173.5 23.5c58.667 0 115.167 -7.83301 169.5 -23.5s105.166 -37.167 152.499 -64.5
s90.5 -60.666 129.5 -99.999s72.333 -82.666 100 -129.999s49.167 -98.333 64.5 -153c16 -55.333 24 -112.666 24 -171.999s-7.83301 -116.5 -23.5 -171.5s-37.334 -106.333 -65.001 -154s-61.167 -91 -100.5 -130s-82.666 -72.333 -129.999 -100
s-98.333 -48.834 -153 -63.501c-55.333 -15.333 -112.333 -23 -171 -23c-60 0 -117.333 7.5 -172 22.5s-106 36.333 -154 64s-91.667 61 -131 100s-73 82.333 -101 130s-49.667 99 -65 154s-23 112.167 -23 171.5zM282.999 616c0 -64 12.502 -124.499 37.502 -181.499
s58.667 -106.667 101 -149s92.166 -76.166 149.499 -101.499s118.666 -38 183.999 -38c42.667 0 83.667 5.83301 123 17.5s76.166 27.667 110.499 48s65.5 44.666 93.5 72.999s52 60 72 95s35.667 72.5 47 112.5s17 81.333 17 124s-5.33301 84 -16 124
s-26.334 77 -47.001 111s-45 65.167 -73 93.5s-59.333 52.5 -94 72.5s-71.667 35.5 -111 46.5s-80.666 16.5 -123.999 16.5c-66 0 -127.167 -12.167 -183.5 -36.5s-105.666 -57.333 -147.999 -99s-76 -90.834 -101 -147.501s-37.5 -117 -37.5 -181zM409.001 616.001
c0 46 9.16895 89.333 27.502 130s43.166 76.334 74.499 107.001s67.833 55.334 109.5 74.001s85.834 28 132.501 28c46 0 89.167 -9.33301 129.5 -28s75.833 -43.334 106.5 -74.001s55 -66.334 73 -107.001s27 -84 27 -130c0 -46.667 -8.66699 -91 -26 -133
s-41.333 -78.333 -72 -109s-66.334 -55 -107.001 -73s-84.334 -27 -131.001 -27s-90.834 9 -132.501 27s-78.167 42.333 -109.5 73s-56.166 67 -74.499 109s-27.5 86.333 -27.5 133zM568.003 616.001c0 -26 4.83203 -50.499 14.499 -73.499s22.5 -42.833 38.5 -59.5
s35.667 -29.334 59 -38.001c21.333 -9.33301 45.666 -14 72.999 -14c25.333 0 48.833 4.5 70.5 13.5s40.5 21.833 56.5 38.5s28.5 36.5 37.5 59.5s13.167 47.5 12.5 73.5c0 25.333 -4.66699 48.666 -14 69.999s-21.666 40.333 -36.999 57s-33.833 29.667 -55.5 39
s-44.5 14 -68.5 14c-27.333 0 -52.5 -4.66699 -75.5 -14s-42.667 -22.333 -59 -39s-29.166 -35.667 -38.499 -57s-14 -44.666 -14 -69.999z" />
    <glyph glyph-name="zerothai" unicode="&#xe50;" horiz-adv-x="1330" 
d="M86 534c0 88 13.1699 166.334 39.5029 235.001s64 126 113 172s109.667 81.167 182 105.5s153.166 36.5 242.499 36.5s170 -12.167 242 -36.5s132.833 -59.5 182.5 -105.5s88.167 -103.333 115.5 -172s41 -147 41 -235c0 -100 -15.667 -185.333 -47 -256
s-73 -128.334 -125 -173.001s-112.833 -77.167 -182.5 -97.5s-144.167 -30.5 -223.5 -30.5c-52.667 0 -103.834 4.33301 -153.501 13s-95.834 22.667 -138.501 42s-81.667 43.666 -117 72.999s-65.833 64.833 -91.5 106.5s-45.5 89.334 -59.5 143.001
s-20.667 113.5 -20 179.5zM330.003 523.001c0 -50 7.99902 -95.667 23.999 -137s38.333 -77.5 67 -108.5s63.5 -55 104.5 -72s87.167 -25.5 138.5 -25.5c50.667 0 96.667 8.5 138 25.5s76.333 41 105 72s51.167 67.167 67.5 108.5s24.5 87 24.5 137c0 64 -9 118.667 -27 164
s-42.167 82.333 -72.5 111s-65.666 49.334 -105.999 62.001s-82.833 19 -127.5 19s-87.5 -6.33301 -128.5 -19s-76.833 -33.334 -107.5 -62.001s-55 -65.667 -73 -111s-27 -100 -27 -164z" />
    <glyph glyph-name="onethai" unicode="&#xe51;" horiz-adv-x="1321" 
d="M7 161l194.002 159.004c25.333 -28.667 52.666 -52.167 81.999 -70.5s60.333 -33.333 93 -45s66.667 -19.667 102 -24s71.666 -6.5 108.999 -6.5c57.333 0 110.666 8.5 159.999 25.5s91.5 42 126.5 75s62.667 73.833 83 122.5s30.5 104.667 30.5 168
c0 48 -7.33301 91.833 -22 131.5s-35.667 74.167 -63 103.5s-61.666 51.666 -102.999 66.999c-40 16 -88.333 24 -145 24c-46 0 -87.833 -5.5 -125.5 -16.5s-70 -25.667 -97 -44s-48 -39.5 -63 -63.5s-22.5 -48.333 -22.5 -73c0 -24 5.16699 -46.833 15.5 -68.5
s28.166 -40.334 53.499 -56.001s57.833 -26.834 97.5 -33.501s89.834 -6.33398 150.501 0.999023v-178c-31.333 -8 -59.333 -12.667 -84 -14c-24 -2 -46.667 -3 -68 -3c-56.667 0 -110.5 7.66699 -161.5 23s-95.167 37.833 -132.5 67.5s-67.333 65.334 -90 107.001
s-33 87.167 -31 136.5c0 48.667 7.33301 92.667 22 132s34.667 74.333 60 105s55.5 57 90.5 79s73 39.833 114 53.5s84.167 23.834 129.5 30.501c46 6.66699 91.333 10 136 10c82 0 158.5 -9.66699 229.5 -29s133 -49.5 186 -90.5s94.833 -94.333 125.5 -160
s46.667 -145.167 48 -238.5c0 -87.333 -14.833 -167.333 -44.5 -240s-72 -134.834 -127 -186.501s-122.5 -91.5 -202.5 -119.5s-170 -42 -270 -42c-46 0 -93 1.33301 -141 4s-97.333 10.167 -148 22.5s-101 30.5 -151 54.5c-49.333 23.333 -98 56.666 -146 99.999z" />
    <glyph glyph-name="twothai" unicode="&#xe52;" horiz-adv-x="1509" 
d="M-9 1025l39.9971 206.999c46.667 0 89 -6.33301 127 -19s70.833 -32.5 98.5 -59.5s48.834 -60.5 63.501 -100.5s22 -88.333 22 -145l1 -441c0 -38 9 -73.667 27 -107s45 -62.166 81 -86.499s81.333 -43.666 136 -57.999s118 -21.5 190 -21.5c68 0 126.5 6.66699 175.5 20
s89.333 30.666 121 51.999s55.334 46.166 71.001 74.499s23.5 57.5 23.5 87.5v296c0 21.333 -2.66699 39.833 -8 55.5s-12.666 29.334 -21.999 41.001s-20.333 21.334 -33 29.001s-26.667 13.5 -42 17.5l-161 -143l-160 134c-12 -0.666992 -23.333 -3.66699 -34 -9
s-20.167 -13.333 -28.5 -24s-15.166 -24 -20.499 -40c-5.33301 -15.333 -8 -33.666 -8 -54.999l3 -67c0 -19.333 0.5 -39.333 1.5 -60s4 -39 9 -55s12.833 -29.167 23.5 -39.5s25.667 -15.5 45 -15.5h92l-2 -191h-113c-47.333 0 -87.5 6.16699 -120.5 18.5
s-60.167 28.166 -81.5 47.499s-38.333 41.5 -51 66.5s-22 50.5 -28 76.5s-9.83301 52 -11.5 78l-4.5 68l-1 58c0 46 8.66699 89.167 26 129.5s42.166 76.833 74.499 109.5s71.166 60 116.499 82c44 22 94.333 36.667 151 44l122 -102l105 102
c56.667 -2.66699 109.334 -13 158.001 -31s91.334 -41.833 128.001 -71.5s65 -64.167 85 -103.5c19.333 -39.333 29 -82.333 29 -129v-281c0 -56 -6.66699 -106.667 -20 -152s-32.5 -85.833 -57.5 -121.5s-54.833 -66.334 -89.5 -92.001s-72.834 -47 -114.501 -64
s-86.334 -29.5 -134.001 -37.5s-95.834 -12 -144.501 -12h-120c-100 0 -189.167 11.667 -267.5 35s-144.333 57 -198 101s-94.167 97.167 -121.5 159.5s-41 131.5 -41 207.5l2 385c-1.33301 53.333 -10.666 92 -27.999 116s-44.666 36 -81.999 36z" />
    <glyph glyph-name="threethai" unicode="&#xe53;" horiz-adv-x="1353" 
d="M93 485l2.00098 80c-1.33301 84 7.83398 156.667 27.501 218s48.167 112.666 85.5 153.999s83 73.666 137 96.999s115.333 38.666 184 45.999l147 -125l156 125c74 -3.33301 137.5 -17.166 190.5 -41.499s96.833 -55 131.5 -92s60.667 -79.833 78 -128.5
c16.667 -48.667 25 -99.334 25 -152.001l2 -666h-246l-1 666c0 23.333 -4.33301 46.166 -13 68.499s-19.834 41.833 -33.501 58.5s-29.5 30.334 -47.5 41.001s-36 17 -54 19l-189 -157l-184 157c-16.667 -4 -34 -11.333 -52 -22s-34.333 -27.167 -49 -49.5
s-26.834 -50.666 -36.501 -84.999s-14.5 -77.166 -14.5 -128.499v-80c0 -22.667 0.166992 -45.5 0.5 -68.5s1.66602 -45.333 3.99902 -67s6 -42 11 -61s12.167 -35.333 21.5 -49s21.333 -24.667 36 -33s32.667 -12.5 54 -12.5c6.66699 0 15.667 0.333008 27 1
s24 1.33398 38 2.00098s29.5 2 46.5 4s34.833 5 53.5 9l-3 -204c-12 -4 -27.667 -7.5 -47 -10.5s-40.166 -5.5 -62.499 -7.5s-44.333 -3.5 -66 -4.5s-40.167 -0.5 -55.5 1.5c-50.667 6 -93.5 18.5 -128.5 37.5s-63.667 41.833 -86 68.5s-39.333 56.667 -51 90
s-20.5 67 -26.5 101s-9.5 68.167 -10.5 102.5s-1.5 66.833 -1.5 97.5z" />
    <glyph glyph-name="fourthai" unicode="&#xe54;" horiz-adv-x="1353" 
d="M93 584c0 82 13.667 152.67 41 212.003s66.333 108.833 117 148.5s112 69 184 88s152.667 28.5 242 28.5h206c27.333 0 49.833 4.16699 67.5 12.5s31.5 19.833 41.5 34.5s17 32 21 52c4 20.667 6 42.667 6 66h251c0 -28.667 -2.16699 -57.834 -6.5 -87.501
s-11.833 -58.5 -22.5 -86.5s-25 -54.167 -43 -78.5s-41.167 -45.5 -69.5 -63.5s-62 -32 -101 -42s-84.5 -15 -136.5 -15h-235c-48.667 0 -92.5 -5.33301 -131.5 -16s-72.333 -25.834 -100 -45.501s-48.834 -44.334 -63.501 -74.001s-22 -63.5 -22 -101.5v-140
c0 -38 5.33301 -73.5 16 -106.5s27.667 -61.5 51 -85.5s53 -42.833 89 -56.5s78.333 -20.5 127 -20.5h15c-22 21.333 -40.167 46.666 -54.5 75.999s-22.166 61.666 -23.499 96.999c0 11.333 1 25.5 3 42.5s6.83301 35 14.5 54s19.167 38 34.5 57s36.5 36 63.5 51
s61 27.5 102 37.5s90.833 15 149.5 15v-206c-31.333 0 -55.833 -2.66699 -73.5 -8s-30.5 -11.666 -38.5 -18.999s-12.833 -15.166 -14.5 -23.499s-2.5 -15.5 -2.5 -21.5c0 -20.667 4.16699 -40 12.5 -58s19.333 -34.167 33 -48.5s28.667 -25.5 45 -33.5s32.5 -12 48.5 -12
h331l3 -207h-671c-66.667 -0 -125.5 6.83301 -176.5 20.5s-95.167 32.167 -132.5 55.5s-68.666 50.5 -93.999 81.5s-45.333 64.167 -60 99.5s-25.334 70.666 -32.001 105.999c-7.33301 36.667 -10.333 71.334 -9 104.001z" />
    <glyph glyph-name="fivethai" unicode="&#xe55;" horiz-adv-x="1353" 
d="M93 473l-0.000976562 117c0 68 9.33301 127.5 28 178.5s44.834 94.833 78.501 131.5s73.5 66.667 119.5 90s96.333 42.333 151 57c-0.666992 4 -1.33398 9.33301 -2.00098 16c-0.666992 8 -1.33398 14.667 -2.00098 20c0 29.333 6 57.666 18 84.999
s28.333 50.666 49 69.999s44.5 35.166 71.5 47.499s56.167 18.5 87.5 18.5c33.333 0 64 -6.16699 92 -18.5s52.333 -28.166 73 -47.499s36.334 -42.666 47.001 -69.999s16 -55.666 16 -84.999c0 -4.66699 0.333008 -8.33398 1 -11.001v-3v-2
c19.333 4 35.166 11.167 47.499 21.5s22.333 22.333 30 36s13.167 28.834 16.5 45.501c2.66699 18 4 36.667 4 56h251c0 -28.667 -2.16699 -58.167 -6.5 -88.5s-11.666 -59.166 -21.999 -86.499s-24.666 -52.833 -42.999 -76.5s-41.666 -44.5 -69.999 -62.5
s-62 -31.833 -101 -41.5s-84.5 -14.5 -136.5 -14.5h-224c-48.667 0 -93.167 -4.5 -133.5 -13.5s-74.833 -23 -103.5 -42s-51 -43.333 -67 -73s-24.667 -65.834 -26 -108.501l3 -140c0 -37.333 5.33301 -72.5 16 -105.5s27.5 -61.833 50.5 -86.5s52.5 -44.167 88.5 -58.5
s78.333 -21.5 127 -21.5h15c-22 21.333 -40.167 46.666 -54.5 75.999s-22.166 61.666 -23.499 96.999c0 11.333 1 25.5 3 42.5s6.83301 35 14.5 54s19.167 38 34.5 57s36.5 36 63.5 51s61 27.5 102 37.5s90.833 15 149.5 15v-206c-31.333 0 -55.833 -2.66699 -73.5 -8
s-30.5 -11.666 -38.5 -18.999s-12.833 -15.166 -14.5 -23.499s-2.5 -15.5 -2.5 -21.5c0 -20.667 4.16699 -40 12.5 -58s19.333 -34.167 33 -48.5s28.667 -25.5 45 -33.5s32.5 -12 48.5 -12h331l3 -207h-671c-66.667 -0 -125.334 6.83301 -176.001 20.5
s-94.834 32.667 -132.501 57s-69 52 -94 83s-45 64 -60 99s-26 70.5 -33 106.5s-10.5 71.667 -10.5 107zM618.999 1083c0 -23.333 6.83105 -42.333 20.498 -57s31.167 -22 52.5 -22c24.667 0 43.5 7.33301 56.5 22s19.5 33.667 19.5 57
c0.666992 23.333 -5.66602 41.833 -18.999 55.5s-32.333 20.5 -57 20.5c-21.333 0 -38.666 -6.83301 -51.999 -20.5s-20.333 -32.167 -21 -55.5z" />
    <glyph glyph-name="sixthai" unicode="&#xe56;" horiz-adv-x="1372" 
d="M26 1067l195.994 114.001l120 -191l73 30.5c27.333 11 56.666 20.333 87.999 28s65.833 14.334 103.5 20.001s77.834 9.5 120.501 11.5c72 2 135.833 -3.33301 191.5 -16s104.334 -30.334 146.001 -53.001s76.667 -50.334 105 -83.001s51.166 -68.167 68.499 -106.5
s30 -79.166 38 -122.499s12 -87 12 -131v-75c0 -45.333 -5.66699 -89.666 -17 -132.999s-28 -84.5 -50 -123.5s-49.667 -74 -83 -105s-72.166 -57.667 -116.499 -80s-94 -39.5 -149 -51.5s-115.5 -17 -181.5 -15c-73.333 2 -140.166 11.833 -200.499 29.5
s-112.166 42.334 -155.499 74.001s-76.833 69.667 -100.5 114s-35.5 93.5 -35.5 147.5c0 52 8.66699 96.667 26 134s42 68 74 92s70.667 41.5 116 52.5s96.333 16.5 153 16.5h101l3 -187h-94c-27.333 0 -49.666 -3.16699 -66.999 -9.5s-31.166 -14.5 -41.499 -24.5
s-17.166 -22.333 -20.499 -37s-5 -29.667 -5 -45c0 -20.667 6.33301 -40 19 -58s30.167 -33.833 52.5 -47.5s49.5 -24.334 81.5 -32.001s67.667 -12.167 107 -13.5c42.667 -0.666992 84.167 5.33301 124.5 18s75.833 31.667 106.5 57s55.5 56.666 74.5 93.999
s28.5 81 28.5 131l-1 71c0 52.667 -6.33301 98.667 -19 138s-32.167 71.666 -58.5 96.999s-58.333 43.833 -96 55.5s-80.167 17.5 -127.5 17.5c-38 -0.666992 -76.167 -4.16699 -114.5 -10.5s-77 -16.333 -116 -30s-79 -31.167 -120 -52.5s-83.833 -47.333 -128.5 -78z" />
    <glyph glyph-name="seventhai" unicode="&#xe57;" horiz-adv-x="1606" 
d="M96 482l-0.00195312 79.9941c0 80 9.83301 150.167 29.5 210.5s48 111.833 85 154.5s82.667 76.5 137 101.5s116.166 41.167 185.499 48.5l115 -116l113 116c79.333 -9.33301 145.666 -28.666 198.999 -57.999s95.5 -66.166 126.5 -110.499s52.833 -95.333 65.5 -153
s18.334 -119.167 17.001 -184.5l2 -83c-1.33301 -16.667 -2.66602 -35.5 -3.99902 -56.5s-3.5 -42.167 -6.5 -63.5s-6.33301 -43 -10 -65s-8.5 -42.333 -14.5 -61c17.333 14 32.833 31.5 46.5 52.5s24.834 44.167 33.501 69.5s15.167 51.833 19.5 79.5s6.5 54.167 6.5 79.5
l-1 385c0 54.667 7.83301 102.167 23.5 142.5s37 73.666 64 99.999s59.5 46 97.5 59s80.333 19.5 127 19.5l35 -207c-18 0 -33.667 -2.66699 -47 -8s-23.833 -14.166 -31.5 -26.499s-13.5 -28.166 -17.5 -47.499s-6 -42.666 -6 -69.999v-327
c0 -74 -9.66699 -142.667 -29 -206s-49.666 -119 -90.999 -167s-93.5 -87.333 -156.5 -118s-137.5 -51 -223.5 -61l-186 129c33.333 32 58.666 62.833 75.999 92.5s30.5 58.667 39.5 87s14.333 57.5 16 87.5s2.5 61.667 2.5 95v89c0 42.667 -3.66699 79.834 -11 111.501
s-16.833 58.667 -28.5 81s-25 40.333 -40 54s-31.167 23.5 -48.5 29.5l-158 -159l-160 165c-16 -4 -32.5 -12.333 -49.5 -25s-32.5 -30.667 -46.5 -54s-25.833 -52 -35.5 -86s-14.167 -75 -13.5 -123l-1 -77v-54.5c0 -20.333 1.33301 -40.666 4 -60.999
s6.66699 -40.333 12 -60s13 -37.167 23 -52.5s22.5 -27.5 37.5 -36.5s33.167 -13.5 54.5 -13.5c4 0 10.333 0.333008 19 1l31.5 2.5c12.333 1 25 2.16699 38 3.5s26.5 3 40.5 5l5 -207c-10.667 -3.33301 -24 -6.66602 -40 -9.99902s-33.167 -6 -51.5 -8s-37.5 -3 -57.5 -3
c-21.333 0 -40.666 2 -57.999 6c-48.667 10 -89.5 24.667 -122.5 44s-60.667 42.166 -83 68.499s-40.333 55 -54 86s-23.5 62.667 -29.5 95s-10 64.5 -12 96.5s-3 62.667 -3 92z" />
    <glyph glyph-name="eightthai" unicode="&#xe58;" horiz-adv-x="1350" 
d="M99 584c0 74 11.499 140.499 34.499 199.499s56.833 109.167 101.5 150.5s100.334 72.833 167.001 94.5s144.334 32.5 233.001 32.5h279c27.333 0 49.166 4.16699 65.499 12.5s30 19.833 41 34.5s18.167 32 21.5 52c4 20.667 6 42.667 6 66h248
c0 -28 -1.83301 -57 -5.5 -87s-10.834 -59 -21.501 -87s-24.834 -54.667 -42.501 -80s-40.667 -47.166 -69 -65.499s-61.666 -32.833 -99.999 -43.5s-83.166 -16 -134.499 -16h-307c-46.667 0 -87.334 -6.66699 -122.001 -20s-62.834 -30.833 -84.501 -52.5
s-37.834 -46.167 -48.501 -73.5s-16 -55.666 -16 -84.999l2 -222c0 -22 3.66699 -43.5 11 -64.5s17.666 -40 30.999 -57s28 -31.5 44 -43.5c16 -10.667 32.333 -18 49 -22l198 158l196 -158c17.333 0 33.833 3.16699 49.5 9.5s29.334 16.166 41.001 29.499
s21.167 31 28.5 53c8 22.667 12 50.667 12 84c0 13.333 -1.16699 27.333 -3.5 42s-7.16602 28 -14.499 40s-17.333 22.667 -30 32s-28.667 15 -48 17c-6.66699 2 -17 3 -31 3h-42l2 190h89c46.667 -2 87.167 -8.33301 121.5 -19s63.5 -23.834 87.5 -39.501
s43.333 -33.667 58 -54s25.834 -42.333 33.501 -66s12.834 -47.834 15.501 -72.501c3.33301 -24.667 5 -49 5 -73c0 -65.333 -8.33301 -122.666 -25 -171.999s-42 -90.833 -76 -124.5s-77.333 -59 -130 -76s-115 -25.5 -187 -25.5l-149 120l-152 -120
c-70 4 -132 17.667 -186 41s-99.167 53.5 -135.5 90.5s-63.833 79.333 -82.5 127s-27 97.834 -25 150.501z" />
    <glyph glyph-name="ninethai" unicode="&#xe59;" horiz-adv-x="1375" 
d="M95 479l0.00390625 86c0 84.667 6.83301 159.167 20.5 223.5s36.334 117.833 68.001 160.5s73.167 75.167 124.5 97.5s115 33.5 191 33.5c14 0 29.5 -0.166992 46.5 -0.5s34.5 -1.16602 52.5 -2.49902s35.667 -4 53 -8s34 -9.33301 50 -16l41 -31
c13.333 -10 26.333 -23.667 39 -41l82 77c6 6 13.333 11.167 22 15.5s19.667 6.5 33 6.5h72c26 0 46.833 3 62.5 9s27.667 15.333 36 28s13.5 28 15.5 46c4 18.667 6 39.667 6 63h245c0 -28.667 -2 -57.5 -6 -86.5s-10.333 -56.833 -19 -83.5s-20.834 -51.167 -36.501 -73.5
s-36.334 -41.833 -62.001 -58.5s-57.334 -29.834 -95.001 -39.501s-81.834 -14.5 -132.501 -14.5h-17c-6 0 -12.833 -2.16699 -20.5 -6.5s-15.5 -9.66602 -23.5 -15.999s-15.833 -13.833 -23.5 -22.5s-15.5 -16.334 -23.5 -23.001l395 -802h-257l-351 721
c-23.333 48.667 -50 85.667 -80 111s-65.667 38 -107 38c-22 0 -42.5 -4.66699 -61.5 -14s-35.833 -25.333 -50.5 -48s-25.834 -53.334 -33.501 -92.001s-11.5 -87 -11.5 -145v-110c0 -17.333 1 -36 3 -56s5.16699 -39.5 9.5 -58.5s10.166 -37.5 17.499 -55.5
s16.333 -33.5 27 -46.5s23.667 -23.667 39 -32s33.333 -12.5 54 -12.5c10.667 0 25.334 0.666992 44.001 2s38 4 58 8l34 -201c-12 -3.33301 -26.167 -6.16602 -42.5 -8.49902s-34 -4.5 -53 -6.5s-38.5 -3.5 -58.5 -4.5s-37.667 -0.5 -53 1.5c-50 6 -92.667 17.5 -128 34.5
s-64.833 38.167 -88.5 63.5s-42.667 53.833 -57 85.5s-25 64.5 -32 98.5s-11.667 68.5 -14 103.5s-3.5 69.167 -3.5 102.5z" />
    <glyph glyph-name="angkhankhuthai" unicode="&#xe5a;" horiz-adv-x="1683" 
d="M85 876c0 44 5.83105 83.167 17.498 117.5s27.5 64.5 47.5 90.5s43.5 48 70.5 66s55.833 32.5 86.5 43.5s62.334 19.167 95.001 24.5c34 5.33301 66.333 8 97 8h197l-1 -207h-197c-54.667 0 -94.334 -11.833 -119.001 -35.5s-37.667 -60.5 -39 -110.5
c0 -23.333 3.66699 -47 11 -71s20.333 -45.167 39 -63.5s43.667 -33.333 75 -45s71.333 -17.5 120 -17.5c105.333 0 185.5 19.167 240.5 57.5s82.5 98.5 82.5 180.5v312h245v-1226h-245l-1 571c-39.333 -33.333 -85.666 -58 -138.999 -74s-111.666 -24 -174.999 -24
c-84 0 -157.667 9.33301 -221 28s-116.333 45.667 -159 81s-74.667 77.833 -96 127.5s-32 105.167 -32 166.5zM1324 1226h246v-1226h-244z" />
    <glyph glyph-name="khomutthai" unicode="&#xe5b;" horiz-adv-x="2628" 
d="M118 637c0 45.333 5.16602 91.668 15.499 139.001s25.666 93.166 45.999 137.499s45.666 85.666 75.999 123.999s65.333 72.166 105 101.499s83.834 52.166 132.501 68.499s102 24.5 160 24.5c54 0 103.167 -6.5 147.5 -19.5s83.5 -31 117.5 -54s63.667 -50 89 -81
s46.166 -65 62.499 -102s28 -76 35 -117s11.167 -81.833 12.5 -122.5l-229 -3c0 85.333 -18.333 150 -55 194s-89 68 -157 72c-49.333 0 -93.5 -9.83301 -132.5 -29.5s-71.667 -46.5 -98 -80.5s-46.5 -73.833 -60.5 -119.5s-21 -94.834 -21 -147.501
c0 -48.667 9.33301 -96.167 28 -142.5s44.667 -87.166 78 -122.499s73.333 -63.833 120 -85.5s98.334 -32.5 155.001 -32.5c54 0 103 8.83301 147 26.5s82.333 42 115 73s60.334 68.5 83.001 112.5s41.334 91.333 56.001 142s25.334 104.667 32.001 162
s10.667 115.666 12 174.999l159 89c22.667 -23.333 44.167 -47.666 64.5 -72.999l57.5 -74.5l50 -70.5c16 -23.333 29.667 -44 41 -62l42.5 61l48.5 71l49 71c16 23.333 31.333 44 46 62l44 -67.5l47 -71.5l43 -68.5l36 -60.5l92 128h393l155 -239h-470
c-14 -17.333 -28.167 -37.333 -42.5 -60l-45 -73c-15.667 -26 -31.334 -53.5 -47.001 -82.5l-46.5 -86.5c-30 63.333 -59 119.666 -87 168.999l-80 136c-26 -39.333 -54.833 -92 -86.5 -158s-63.167 -144.667 -94.5 -236c-29.333 84.667 -58.5 159.334 -87.5 224.001
s-58.167 118.334 -87.5 161.001c-8 -59.333 -21.833 -116 -41.5 -170s-44.5 -103.833 -74.5 -149.5s-63.833 -87 -101.5 -124s-79.167 -68.5 -124.5 -94.5s-93.833 -46 -145.5 -60s-105.167 -21 -160.5 -21c-66 0 -127.333 8.5 -184 25.5s-107.834 40.333 -153.501 70
s-86 65 -121 106s-64.167 84.833 -87.5 131.5s-41.166 95.834 -53.499 147.501s-18.5 103.834 -18.5 156.501z" />
    <glyph glyph-name="uni2000" unicode="&#x2000;" horiz-adv-x="1195" 
 />
    <glyph glyph-name="uni2001" unicode="&#x2001;" horiz-adv-x="2391" 
 />
    <glyph glyph-name="uni2002" unicode="&#x2002;" horiz-adv-x="1195" 
 />
    <glyph glyph-name="uni2003" unicode="&#x2003;" horiz-adv-x="2391" 
 />
    <glyph glyph-name="uni2004" unicode="&#x2004;" horiz-adv-x="797" 
 />
    <glyph glyph-name="uni2005" unicode="&#x2005;" horiz-adv-x="597" 
 />
    <glyph glyph-name="uni2006" unicode="&#x2006;" horiz-adv-x="398" 
 />
    <glyph glyph-name="uni2007" unicode="&#x2007;" horiz-adv-x="398" 
 />
    <glyph glyph-name="uni2008" unicode="&#x2008;" horiz-adv-x="298" 
 />
    <glyph glyph-name="uni2009" unicode="&#x2009;" horiz-adv-x="478" 
 />
    <glyph glyph-name="uni200A" unicode="&#x200a;" horiz-adv-x="132" 
 />
    <glyph glyph-name="ZWSP" unicode="&#x200b;" 
 />
    <glyph glyph-name="uni2010" unicode="&#x2010;" horiz-adv-x="967" 
d="M89 645h784l3 -194h-784z" />
    <glyph glyph-name="uni2011" unicode="&#x2011;" horiz-adv-x="967" 
d="M89 645h784l3 -194h-784z" />
    <glyph glyph-name="figuredash" unicode="&#x2012;" horiz-adv-x="967" 
d="M89 645h784l3 -194h-784z" />
    <glyph glyph-name="endash" unicode="&#x2013;" horiz-adv-x="1024" 
d="M-1 685h1024l2 -229h-1025z" />
    <glyph glyph-name="emdash" unicode="&#x2014;" horiz-adv-x="2026" 
d="M-1 685h2026l1 -229h-2026z" />
    <glyph glyph-name="quoteleft" unicode="&#x2018;" horiz-adv-x="597" 
d="M158 905v248.001c0 45.333 5.33301 87.666 16 126.999s27.334 73.833 50.001 103.5s51.667 53.167 87 70.5s76.666 26 123.999 26v-140c-21.333 0 -39.5 -4.5 -54.5 -13.5s-27.5 -20.833 -37.5 -35.5s-17.333 -31.5 -22 -50.5s-7 -38.833 -7 -59.5h120l1 -276h-277z" />
    <glyph glyph-name="quoteright" unicode="&#x2019;" horiz-adv-x="597" 
d="M159 1206l1.99902 274.001h277v-248c0 -44.667 -5.33301 -86.5 -16 -125.5s-27.667 -73.5 -51 -103.5s-52.5 -53.833 -87.5 -71.5s-75.833 -26.5 -122.5 -26.5v142c21.333 0 39.333 4.66699 54 14s26.834 21.166 36.501 35.499s16.667 30.833 21 49.5s6.5 38.667 6.5 60
h-120z" />
    <glyph glyph-name="quotedblleft" unicode="&#x201c;" horiz-adv-x="932" 
d="M137 905l-0.00195312 248.001c0 45.333 5.33301 87.666 16 126.999s27.334 73.833 50.001 103.5s51.5 53.167 86.5 70.5s76.833 26 125.5 26v-140c-21.333 0 -39.666 -4.5 -54.999 -13.5s-28 -20.833 -38 -35.5s-17.5 -31.5 -22.5 -50.5s-7.5 -38.833 -7.5 -59.5h120
l3 -276h-278zM516.998 905.001v248.001c0 45.333 5.33301 87.666 16 126.999s27.167 73.833 49.5 103.5s51 53.167 86 70.5s76.833 26 125.5 26v-140c-21.333 0 -39.5 -4.5 -54.5 -13.5s-27.333 -20.833 -37 -35.5s-17 -31.5 -22 -50.5s-7.5 -38.833 -7.5 -59.5h120l1 -276
h-277z" />
    <glyph glyph-name="quotedblright" unicode="&#x201d;" horiz-adv-x="932" 
d="M136 1206l0.00195312 274.001h279v-248c0 -44.667 -5.33301 -86.5 -16 -125.5s-27.834 -73.5 -51.501 -103.5s-53 -53.833 -88 -71.5s-75.833 -26.5 -122.5 -26.5v142c21.333 0 39.333 4.66699 54 14s26.667 21.166 36 35.499s16.166 30.833 20.499 49.5
s6.5 38.667 6.5 60h-118zM515.002 1206l1.99902 274.001h277v-248c0 -44.667 -5.33301 -86.5 -16 -125.5s-27.667 -73.5 -51 -103.5s-52.5 -53.833 -87.5 -71.5s-75.833 -26.5 -122.5 -26.5v142c21.333 0 39.333 4.66699 54 14s26.5 21.166 35.5 35.499
s15.833 30.833 20.5 49.5s7.33398 38.667 8.00098 60h-120z" />
    <glyph glyph-name="bullet" unicode="&#x2022;" horiz-adv-x="795" 
d="M55 628c0 42.667 8.83105 83.5 26.498 122.5s41.834 73.333 72.501 103s66.667 53.5 108 71.5s85 27 131 27c46.667 0 90.834 -9 132.501 -27s78.167 -41.833 109.5 -71.5s56 -64 74 -103s27 -79.833 27 -122.5c0 -46 -8.83301 -89 -26.5 -129s-42 -74.833 -73 -104.5
s-67.5 -53 -109.5 -70s-86.333 -25.5 -133 -25.5s-90.5 8.5 -131.5 25.5s-77 40.333 -108 70s-55.333 64.5 -73 104.5s-26.5 83 -26.5 129z" />
    <glyph glyph-name="uni202F" unicode="&#x202f;" horiz-adv-x="478" 
 />
    <glyph glyph-name="uni205F" unicode="&#x205f;" horiz-adv-x="597" 
 />
    <glyph glyph-name="Euro" unicode="&#x20ac;" horiz-adv-x="1623" 
d="M44 791l-0.00292969 180.997h195c20 76 49.333 146 88 210s86.334 119 143.001 165s122.667 81.667 198 107c74.667 25.333 158.667 38 252 38c80.667 0 155.834 -10.5 225.501 -31.5s131.5 -52.333 185.5 -94s99 -93.834 135 -156.501
c36.667 -63.333 62 -136.666 76 -219.999h-263c-10 50.667 -25.667 93.667 -47 129s-47.333 64.5 -78 87.5s-66.167 39.833 -106.5 50.5s-83.833 16 -130.5 16c-55.333 0 -105.166 -7.83301 -149.499 -23.5s-83.833 -36.834 -118.5 -63.501s-64.167 -58.167 -88.5 -94.5
s-43.833 -76.166 -58.5 -119.499h427v-181h-462l-2 -26c-0.666992 -8.66699 -1 -17.334 -1 -26.001c0 -12 0.666992 -24 2 -36c0.666992 -13.333 1 -25.666 1 -36.999h462v-178h-427c16 -45.333 36.333 -86.166 61 -122.499s54.334 -67.666 89.001 -93.999
s74.167 -46.833 118.5 -61.5s94.166 -22 149.499 -22c58 0 109.5 9.5 154.5 28.5s83 45.833 114 80.5s55.167 75.667 72.5 123c18 48.667 29 101.334 33 158.001h257c-10 -97.333 -31 -183.666 -63 -258.999s-74.833 -138.5 -128.5 -189.5s-118.5 -89.667 -194.5 -116
s-162.667 -39.5 -260 -39.5c-94 0 -178.5 12.333 -253.5 37s-140.5 59.667 -196.5 105s-102.5 99.666 -139.5 162.999s-64.167 133 -81.5 209h-187v178h160v58v67h-163z" />
    <glyph glyph-name="trademark" unicode="&#x2122;" horiz-adv-x="2008" 
d="M102 1460h713v-162h-263l-2 -724h-185l3 724h-264zM936 574l1 886h251l234 -587l226 587h254l-1 -886h-190v591l-231 -591h-122l-237 591v-591h-185z" />
    <glyph glyph-name="uni25CC" unicode="&#x25cc;" horiz-adv-x="1363" 
d="M314 590l115 54.999c-2 -17.333 -3.5 -35.666 -4.5 -54.999s1.16699 -39 6.5 -59zM415 332.999l46 115c12 -16.667 23.833 -31.667 35.5 -45s26.167 -25 43.5 -35zM435 846.999l120 -43.001c-21.333 -10.667 -40 -22 -56 -34c-15.333 -11.333 -27 -24.666 -35 -39.999z
M622 834.998l58 117l53 -114c-19.333 4 -39.333 5.5 -60 4.5s-37.667 -3.5 -51 -7.5zM625 332.998l25.5 -6c8.33301 -2 16.666 -2.66699 24.999 -2s16.833 1.66699 25.5 3s18.334 4 29.001 8l-51 -114zM815 806.998l131 40l-51 -120c-12 16.667 -25 31.5 -39 44.5
s-27.667 24.833 -41 35.5zM816 364.998c17.333 10 32.332 21.333 44.999 34s24.334 26 35.001 40l33 -109zM932.999 533.998c6 16.667 8.66797 34 8.00098 52s-3.33398 36.667 -8.00098 56l112 -55z" />
    <glyph glyph-name="uni25FC" unicode="&#x25fc;" horiz-adv-x="1061" 
d="M0 0v1063h1063v-1063h-1063z" />
    <glyph glyph-name="thothannobasethai" unicode="&#xf700;" horiz-adv-x="1178" 
d="M61 841c10 60 29.666 115.33 58.999 165.997s66.833 94 112.5 130s99.167 64.333 160.5 85c63.333 20.667 133 31 209 31c34.667 0 69 -2.5 103 -7.5s66.667 -12.5 98 -22.5c16.667 3.33301 31.334 9.16602 44.001 17.499s23.167 18.333 31.5 30s14.333 24.334 18 38.001
s5.5 27.167 5.5 40.5h265c0 -23.333 -3.16699 -47.666 -9.5 -72.999s-15.833 -49.666 -28.5 -72.999s-29.334 -44.333 -50.001 -63c-20.667 -18 -45.667 -33 -75 -45c26.667 -31.333 46.834 -69.666 60.501 -114.999s19.834 -98 18.501 -158
c0 -31.333 -4.33301 -67.666 -13 -108.999s-20.5 -85.833 -35.5 -133.5s-32.333 -97 -52 -148l-60.5 -152c-20.667 -50.333 -41.834 -99.333 -63.501 -147l-59.5 -132.5h-308l-199 548h-164v191h357l166 -479l58 137c20 48.667 38.167 97.167 54.5 145.5
s30.166 95.166 41.499 140.499c10.667 44.667 16.667 85 18 121c1.33301 80 -18.667 140 -60 180s-103.333 60 -186 60c-66.667 0 -120.667 -17.333 -162 -52s-69.666 -85 -84.999 -151h-269z" />
    <glyph glyph-name="saraileftthai" unicode="&#xf701;" 
d="M-1329 1410l97 196h756v-196h-853z" />
    <glyph glyph-name="saraiileftthai" unicode="&#xf702;" 
d="M-1329 1410l97 196h522v172h234v-368h-853z" />
    <glyph glyph-name="saraueleftthai" unicode="&#xf703;" 
d="M-1329 1410l100 196.002h344l-1 20c0 29.333 5.5 57.166 16.5 83.499s26.333 49.166 46 68.499s42.167 35 67.5 47s53.333 18 84 18c29.333 0 57.166 -6 83.499 -18s49.5 -27.667 69.5 -47s35.5 -42.166 46.5 -68.499s16.5 -54.166 16.5 -83.499
c0 -30 -5.33301 -57.833 -16 -83.5s-25.667 -48.334 -45 -68.001s-42.166 -35.334 -68.499 -47.001s-54.5 -17.5 -84.5 -17.5h-659zM-749 1626c0 -9.33301 2.16895 -18.834 6.50195 -28.501s10.166 -17.667 17.499 -24s15.666 -11.5 24.999 -15.5s19.333 -6 30 -6
c9.33301 0 19 2 29 6s18.333 9.16699 25 15.5s12.167 14.333 16.5 24s6.5 19.167 6.5 28.5c0 23.333 -7.66699 42.333 -23 57s-33.333 22 -54 22c-10 0 -20 -1.83301 -30 -5.5s-18.5 -9.16699 -25.5 -16.5s-12.667 -15.666 -17 -24.999s-6.5 -20 -6.5 -32z" />
    <glyph glyph-name="saraueeleftthai" unicode="&#xf704;" 
d="M-1329 1410l100 196h201l-3 172h222l2 -172h111l-2 172h222v-368h-853z" />
    <glyph glyph-name="maieklowleftthai" unicode="&#xf705;" 
d="M-777 1784h240l1 -377h-238z" />
    <glyph glyph-name="maitholowleftthai" unicode="&#xf706;" 
d="M-1121 1597l0.000976562 178.001h295v-178c38.667 0 72.167 4.83301 100.5 14.5s51.166 22.834 68.499 39.501s30.5 35.667 39.5 57s13.5 43.666 13.5 66.999h216c0 -46.667 -8.83301 -91.334 -26.5 -134.001s-45.167 -80.5 -82.5 -113.5s-85 -59.5 -143 -79.5
s-127.333 -30 -208 -30h-174l1 179h-100z" />
    <glyph glyph-name="maitrilowleftthai" unicode="&#xf707;" 
d="M-1238 1421c-2.66699 55.333 1 103.336 11 144.003s23.833 74.667 41.5 102s38.667 47.833 63 61.5s49.166 20.5 74.499 20.5c30.667 0 57.834 -6.83301 81.501 -20.5s41.167 -32.5 52.5 -56.5c6.66699 9.33301 15.167 18.666 25.5 27.999s21.833 17.666 34.5 24.999
s26 13.166 40 17.499s28 6.5 42 6.5c17.333 0 34 -3.16699 50 -9.5s31 -15.5 45 -27.5s26.667 -26.833 38 -44.5s20 -38.167 26 -61.5c7.33301 8.66699 13.5 19.167 18.5 31.5s9 25.666 12 39.999s4.83301 29.166 5.5 44.499c1.33301 14 2 29 2 45h185
c0 -42 -5.5 -82.333 -16.5 -121s-26.333 -73.5 -46 -104.5s-42.667 -57.167 -69 -78.5s-55.833 -35.333 -88.5 -42h-143c0 16 -0.5 32.833 -1.5 50.5s-3.5 33.834 -7.5 48.501s-8.66699 26.667 -14 36c-6 9.33301 -13 14 -21 14s-14.667 -4.66699 -20 -14
s-10 -21.166 -14 -35.499s-6.83301 -30.5 -8.5 -48.5s-2.5 -35 -2.5 -51h-139c0 16 -0.5 32.833 -1.5 50.5s-3 33.834 -6 48.501s-6.83301 26.667 -11.5 36s-11.667 14 -21 14s-17 -4.66699 -23 -14s-10.667 -21.333 -14 -36s-5.5 -30.834 -6.5 -48.501
s-1.83301 -34.5 -2.5 -50.5h-171z" />
    <glyph glyph-name="maichattawalowleftthai" unicode="&#xf708;" 
d="M-1025 1740h171l1 149h225l-1 -149h171v-176h-170v-154h-225v154h-169z" />
    <glyph glyph-name="thanthakhatlowleftthai" unicode="&#xf709;" 
d="M-955 1413c0 56.667 10.167 107.334 30.5 152.001s50 82.667 89 114s86.333 55.166 142 71.499s118.5 24.5 188.5 24.5v-184c-74 0 -130.5 -14 -169.5 -42s-58.5 -73.333 -58.5 -136h-222z" />
    <glyph glyph-name="maieklowrightthai" unicode="&#xf70a;" 
d="M-358 1784h238l3 -377h-236z" />
    <glyph glyph-name="maitholowrightthai" unicode="&#xf70b;" 
d="M-812 1600l-0.000976562 181h308v-181c39.333 0 74.333 4.83301 105 14.5s56.167 22.834 76.5 39.501s35.5 36 45.5 58c10.667 20.667 16 43.667 16 69h217c0 -46.667 -9.66699 -91.834 -29 -135.501s-49.166 -82.5 -89.499 -116.5s-91 -61 -152 -81
s-132.5 -30 -214.5 -30h-178v182h-105z" />
    <glyph glyph-name="maitrilowrightthai" unicode="&#xf70c;" 
d="M-1025 1418c-4 58 -0.332031 108.166 11.001 150.499s27 77.666 47 105.999s43.5 49.333 70.5 63s56.167 20.5 87.5 20.5c33.333 0 62.666 -7 87.999 -21c25.333 -13.333 46.666 -32.333 63.999 -57c8.66699 10 18.834 19.667 30.501 29s24.334 17.666 38.001 24.999
s28 13.166 43 17.499s30.5 6.5 46.5 6.5c19.333 0 38.166 -3.16699 56.499 -9.5s35.333 -15.666 51 -27.999s29.667 -27.666 42 -45.999s21.833 -39.166 28.5 -62.499c7.33301 8.66699 15 19.334 23 32.001s14.833 26.5 20.5 41.5s10.5 30.333 14.5 46
s5.66699 31.167 5 46.5h211c0 -40.667 -7.33301 -81 -22 -121s-34.167 -76.5 -58.5 -109.5s-52.5 -61.167 -84.5 -84.5s-65.333 -38.333 -100 -45h-162c0 14.667 -0.833008 30.667 -2.5 48s-4.5 33.833 -8.5 49.5s-9.33301 28.667 -16 39s-14.334 15.5 -23.001 15.5
c-10 0 -18.167 -5.16699 -24.5 -15.5s-11.333 -22.833 -15 -37.5s-6.5 -31 -8.5 -49s-3 -34.667 -3 -50h-159c0 15.333 -0.833008 32 -2.5 50s-4.16699 34.333 -7.5 49s-8.16602 27.167 -14.499 37.5s-13.833 15.5 -22.5 15.5c-10 0 -18.333 -5.16699 -25 -15.5
s-12 -23.333 -16 -39s-6.66699 -32.167 -8 -49.5s-2 -33.333 -2 -48h-193z" />
    <glyph glyph-name="maichattawalowrightthai" unicode="&#xf70d;" 
d="M-521 1567v182h174v152h227v-152h175v-182h-175v-157h-225v157h-176z" />
    <glyph glyph-name="thanthakhatlowrightthai" unicode="&#xf70e;" 
d="M-507 1413c0 56.667 10.334 107.333 31.001 152s50.167 82.667 88.5 114s85.166 55.333 140.499 72c54 16 116 24 186 24l1 -184c-74 0 -130.333 -14 -169 -42c-40 -28 -60 -73.333 -60 -136h-218z" />
    <glyph glyph-name="yoyingnobasethai" unicode="&#xf70f;" horiz-adv-x="1934" 
d="M32 835c8 33.333 19.0068 66.9971 33.0068 100.997s32.167 66.5 54.5 97.5s48.666 59.667 78.999 86s64.666 49.5 102.999 69.5s81.166 35.667 128.499 47s99 17 155 17c68.667 0 130 -6.83301 184 -20.5s100.833 -32.667 140.5 -57s73.167 -53.333 100.5 -87
s49.833 -70.167 67.5 -109.5s30.334 -81.5 38.001 -126.5s11.5 -89.833 11.5 -134.5v-293c0 -39.333 5.83301 -74.333 17.5 -105s27.667 -56.167 48 -76.5s44.166 -35.666 71.499 -45.999s56.666 -15.5 87.999 -15.5c29.333 0 57.166 4.66699 83.499 14s49.666 24 69.999 44
s36.333 45.333 48 76s17.5 67 17.5 109l1 801h249l-2 -823c0 -48.667 -6 -93.5 -18 -134.5s-28.833 -77.5 -50.5 -109.5s-47 -59.667 -76 -83s-60.833 -42.833 -95.5 -58.5s-71.5 -27.334 -110.5 -35.001s-77.833 -11.5 -116.5 -11.5c-62 0 -121.833 9.16699 -179.5 27.5
s-108.334 45.5 -152.001 81.5s-78.667 81.333 -105 136s-39.5 117 -39.5 187v339c0 34.667 -4.83301 69.334 -14.5 104.001s-25.667 65.834 -48 93.501s-52.333 50.334 -90 68.001s-84.167 26.5 -139.5 26.5c-44.667 0 -84 -5 -118 -15s-63 -23.167 -87 -39.5
s-43 -35.166 -57 -56.499s-24 -43 -30 -65c30 -21.333 52.167 -51.333 66.5 -90s21.5 -82.334 21.5 -131.001v-437h131v-200h-377l-1 639c0 18 -1.5 36 -4.5 54s-8.16699 35.5 -15.5 52.5s-17.666 33.167 -30.999 48.5c-12.667 16 -29.334 29.667 -50.001 41z" />
    <glyph glyph-name="maihanakatleftthai" unicode="&#xf710;" 
d="M-896 1413v295h226l-2 -105h789v-190h-1013z" />
    <glyph glyph-name="nikhahitleftthai" unicode="&#xf711;" 
d="M-939 1624c0 32 6.16895 62 18.502 90s28.666 52.5 48.999 73.5s44.666 37.833 72.999 50.5s58.833 19 91.5 19c31.333 0 61.166 -6.33301 89.499 -19s53.166 -29.5 74.499 -50.5s38.333 -45.5 51 -73.5s19 -58 19 -90c0 -32.667 -6.33301 -63 -19 -91
s-29.667 -52.5 -51 -73.5s-46.166 -37.833 -74.499 -50.5s-58.166 -19 -89.499 -19c-32 0 -62.167 6.33301 -90.5 19s-52.833 29.5 -73.5 50.5s-37.167 45.5 -49.5 73.5s-18.5 58.333 -18.5 91zM-787.998 1624c0 -12 1.83496 -22.833 5.50195 -32.5s9.5 -18.5 17.5 -26.5
s17 -14.333 27 -19c9.33301 -4.66699 19.666 -7 30.999 -7c12 0 23.167 2.33301 33.5 7s19.333 11 27 19s13.667 16.833 18 26.5s6.5 20.5 6.5 32.5c0 11.333 -2.5 21.833 -7.5 31.5s-11.333 18.5 -19 26.5s-16.334 14.333 -26.001 19s-20.5 7 -32.5 7
c-11.333 0 -21.833 -2.33301 -31.5 -7s-18.5 -11 -26.5 -19s-13.833 -16.833 -17.5 -26.5s-5.5 -20.167 -5.5 -31.5z" />
    <glyph glyph-name="maitaikhuleftthai" unicode="&#xf712;" 
d="M-1250 1692c0 50 8.33496 92.5 25.002 127.5s39.167 64.167 67.5 87.5s61.166 40.333 98.499 51s76.333 16 117 16h557v-174h-541c-27.333 0 -49.166 -3.66699 -65.499 -11s-28.5 -16.333 -36.5 -27s-12.833 -22.334 -14.5 -35.001s-2.5 -24.334 -2.5 -35.001
c0 -6 0.5 -13.5 1.5 -22.5s3.83301 -18 8.5 -27s11.334 -16.333 20.001 -22s21 -8.5 37 -8.5c23.333 0 40.833 9.66699 52.5 29s17.5 46.666 17.5 81.999h158c-2 -35.333 2.83301 -62.666 14.5 -81.999s28.167 -29 49.5 -29c13.333 0 24.166 2.66699 32.499 8
s14.666 12.833 18.999 22.5s6.83301 21.167 7.5 34.5s0.333984 28.666 -0.999023 45.999h172c5.33301 -52.667 3.83301 -97.5 -4.5 -134.5s-22 -67.167 -41 -90.5s-42.167 -40.666 -69.5 -51.999s-56.333 -17 -87 -17c-20.667 0 -39.834 2.66699 -57.501 8
s-33.5 13 -47.5 23s-26.167 20.833 -36.5 32.5s-18.166 24.167 -23.499 37.5c-8 -13.333 -18.333 -25.833 -31 -37.5s-27.334 -22.5 -44.001 -32.5s-34.5 -17.667 -53.5 -23s-38.167 -8 -57.5 -8c-46.667 0 -85.334 8.33301 -116.001 25s-55.167 37.834 -73.5 63.501
s-31.5 53.834 -39.5 84.501s-12 60.667 -12 90z" />
    <glyph glyph-name="maiekupperleftthai" unicode="&#xf713;" 
d="M-704 1917v358h225l3 -358h-228z" />
    <glyph glyph-name="maithoupperleftthai" unicode="&#xf714;" 
d="M-1037 2278h308l3 -181c39.333 0 74.5 4.83301 105.5 14.5s57 22.667 78 39s36.833 35.5 47.5 57.5c10.667 21.333 15.667 44.666 15 70h211c0 -46.667 -9.16699 -92 -27.5 -136s-47.5 -83 -87.5 -117s-90.333 -61.333 -151 -82c-62 -20 -133.667 -30 -215 -30h-170v184
h-114z" />
    <glyph glyph-name="maitriupperleftthai" unicode="&#xf715;" 
d="M-1063 1913c-4 54 -1.33301 101.002 8 141.002s23.5 73.167 42.5 99.5s40.833 45.833 65.5 58.5c26 12.667 52.667 19 80 19c29.333 0 55.333 -7 78 -21c22 -13.333 41.667 -31.666 59 -55c15.333 23.333 36 41.833 62 55.5s53 20.5 81 20.5
c37.333 0 70.5 -10.667 99.5 -32s50.5 -54.666 64.5 -100c7.33301 10 14.5 21.333 21.5 34s12.833 26.5 17.5 41.5s8.5 31 11.5 48s4.5 33.5 4.5 49.5h194c0 -24.667 -2.83301 -49.834 -8.5 -75.501s-13.834 -51.167 -24.501 -76.5s-23.667 -49.5 -39 -72.5
s-32 -43.667 -50 -62s-37 -33.833 -57 -46.5c-20 -14 -40.667 -22.667 -62 -26h-154c0 9.33301 -1 21.5 -3 36.5s-4.5 29.833 -7.5 44.5s-7 27.334 -12 38.001s-11.167 16 -18.5 16c-8 0 -14.667 -4.5 -20 -13.5s-9.16602 -20.333 -11.499 -34s-4 -28.334 -5 -44.001
s-1.5 -30.167 -1.5 -43.5h-158c0 12.667 -0.666992 27 -2 43s-3.33301 30.833 -6 44.5s-6.33398 25 -11.001 34s-11 13.5 -19 13.5s-14.667 -5.33301 -20 -16s-9.16602 -23.334 -11.499 -38.001s-4 -29.5 -5 -44.5s-1.5 -27.167 -1.5 -36.5h-181z" />
    <glyph glyph-name="maichattawaupperleftthai" unicode="&#xf716;" 
d="M-877 2066l1 177h174l1 148h218l1 -148h171l-1 -177h-170l2 -153h-222l-2 153h-173z" />
    <glyph glyph-name="thanthakhatupperleftthai" unicode="&#xf717;" 
d="M-701 1772c-0.666992 56.667 8.99902 107.167 28.999 151.5s49.333 82 88 113s85.334 55.167 140.001 72.5s116.667 26 186 26l1 -184c-74 0 -130 -14.167 -168 -42.5s-56.333 -73.833 -55 -136.5h-221z" />
    <glyph glyph-name="saraulowthai" unicode="&#xf718;" 
d="M-450 -499h339l-3 -459h-231l3 270h-106z" />
    <glyph glyph-name="sarauulowthai" unicode="&#xf719;" 
d="M-889 -499l339.997 0.000976562v-167c0 -38.667 8.66699 -68.334 26 -89.001c16 -20 41.333 -30 76 -30c33.333 0 58.666 9.66699 75.999 29c17.333 21.333 26 51.333 26 90v167h231v-167c0 -42.667 -5.83301 -83 -17.5 -121s-30.667 -71.167 -57 -99.5
s-60.666 -50.666 -102.999 -66.999s-94.166 -24.5 -155.499 -24.5c-57.333 0 -106.666 7 -147.999 21s-75.666 33.667 -102.999 59s-47.333 55.666 -60 90.999c-12.667 36 -20 75.667 -22 119h-108z" />
    <glyph glyph-name="phinthulowthai" unicode="&#xf71a;" 
d="M-418 -639c0 23.333 4.66602 44.833 13.999 64.5s21.5 37.167 36.5 52.5s32.833 27.333 53.5 36s42.667 13 66 13c22 0 43 -4.33301 63 -13s37.333 -20.667 52 -36s26.334 -32.833 35.001 -52.5s13 -41.167 13 -64.5c0 -22.667 -4.33301 -44 -13 -64
s-20.5 -37.5 -35.5 -52.5s-32.5 -26.833 -52.5 -35.5s-41.667 -13 -65 -13s-44.833 4.33301 -64.5 13s-37.167 20.5 -52.5 35.5s-27.5 32.5 -36.5 52.5s-13.5 41.333 -13.5 64z" />
    <glyph glyph-name="lochula.short" unicode="&#xf71d;" horiz-adv-x="1623" 
d="M29 1226l274.999 -0.000976562l150 -900l207 708h254l218 -711l23.5 118.5l22.5 114.5l22 114l22 115c7.33301 30.667 11.666 56.5 12.999 77.5s2 40.5 2 58.5c0 21.333 -2.5 40.166 -7.5 56.499s-13.333 30 -25 41s-27.167 19.5 -46.5 25.5s-42.666 9 -69.999 9l2 173
c38.667 2 73.5 7 104.5 15s58 19.5 81 34.5s41.333 34.333 55 58s22.5 52.834 26.5 87.501h280c-6 -43.333 -15.833 -81.666 -29.5 -114.999s-30.334 -62.166 -50.001 -86.499s-42.5 -44.333 -68.5 -60s-53.667 -27.5 -83 -35.5c22 -18.667 39.333 -39.834 52 -63.501
s21.334 -48.667 26.001 -75s6.33398 -53.833 5.00098 -82.5c-0.666992 -28.667 -4.66699 -57.667 -12 -87l-202 -816h-272l-221 704l-209 -704h-272z" />
    <glyph glyph-name="rulakkhangyao" unicode="&#xf881;" horiz-adv-x="1898" 
d="M32 850c8 32.667 18.8291 65.1689 32.4961 97.502s31.167 63.5 52.5 93.5s47 58 77 84s64.833 48.5 104.5 67.5s84.167 33.833 133.5 44.5c50.667 10.667 106.334 16 167.001 16c98 0 180.333 -12 247 -36s122 -57 166 -99c42 44 91.333 77 148 99s116.667 33 180 33
s122 -8.83301 176 -26.5s101 -44 141 -79s71.167 -79.333 93.5 -133s33.5 -116.834 33.5 -189.501l-1 -1219h-246l2 1177c0 87.333 -17 151.5 -51 192.5s-83.333 61.5 -148 61.5c-54 0 -98.667 -16.167 -134 -48.5s-56.666 -79.5 -63.999 -141.5
c4 -16.667 6.83301 -34 8.5 -52s2.16699 -35.667 1.5 -53l-2 -1136h-245v1156c1.33301 10.667 1.66602 21.667 0.999023 33s-3 23.666 -7 36.999c-5.33301 27.333 -14.833 53.666 -28.5 78.999s-32.5 48 -56.5 68s-53.667 36 -89 48s-78 18.667 -128 20
c-50.667 0 -94.167 -5.66699 -130.5 -17s-66.666 -25.666 -90.999 -42.999s-43.333 -36.333 -57 -57s-22.5 -38.667 -26.5 -54c15.333 -10 28.333 -22.667 39 -38s19.5 -32 26.5 -50s12 -37.5 15 -58.5s4.5 -43.167 4.5 -66.5l3 -460h131v-200h-377v663
c0 16.667 -1.66699 33.5 -5 50.5s-8.66602 33.667 -15.999 50s-17.666 31.833 -30.999 46.5c-12 14.667 -28.667 28 -50 40z" />
    <glyph glyph-name="lulakkhangyao" unicode="&#xf882;" horiz-adv-x="1975" 
d="M64 200l120.005 0.000976562v463c0 16.667 -1.5 33.5 -4.5 50.5s-8.16699 33.667 -15.5 50s-17.5 31.833 -30.5 46.5s-30.167 28 -51.5 40c7.33301 32.667 18.333 65.167 33 97.5s33.167 63.5 55.5 93.5s49.166 58 80.499 84s67.166 48.5 107.499 67.5
s85.5 33.833 135.5 44.5s105.333 16 166 16c50.667 0 96.834 -3.5 138.501 -10.5s80.167 -16.333 115.5 -28s67 -25.667 95 -42s52.667 -35.5 74 -57.5c42 45.333 92 79.166 150 101.499s119.667 33.5 185 33.5c63.333 0 122.166 -8.83301 176.499 -26.5
s101.166 -44 140.499 -79s70.333 -79.167 93 -132.5c21.333 -54 32 -117.333 32 -190v-1219h-245v1177c0 87.333 -16.667 151.5 -50 192.5s-82 61.5 -146 61.5c-56.667 0 -103 -17.167 -139 -51.5s-55.667 -85.5 -59 -153.5c1.33301 -15.333 2.5 -30.333 3.5 -45
s1.5 -29.667 1.5 -45v-1136h-248v1156c0 35.333 -5.33301 69.5 -16 102.5s-28.334 63.167 -53.001 90.5s-57.334 49.166 -98.001 65.499s-91 25.166 -151 26.499c-50.667 0 -94.667 -5.66699 -132 -17s-69 -25.666 -95 -42.999s-46.5 -36 -61.5 -56s-24.5 -38.333 -28.5 -55
c12 -11.333 23.333 -24.666 34 -39.999s19.667 -32 27 -50s13 -37.333 17 -58c3.33301 -22 5 -43.667 5 -65l5 -660h-365z" />
    <glyph glyph-name=".null" 
 />
    <glyph glyph-name="nonmarkingreturn" horiz-adv-x="4096" 
 />
    <glyph glyph-name="yamakkanleftthai" 
d="M-981 1413c0 39.333 3.83496 76.6641 11.502 111.997s20.5 67.333 38.5 96s40.833 53.834 68.5 75.501s61.167 37.167 100.5 46.5c6.66699 28.667 18.5 54.834 35.5 78.501s39.667 44.334 68 62.001s62.5 31 102.5 40s87 13.5 141 13.5l2 -188
c-33.333 0 -60.5 -2.5 -81.5 -7.5s-37.333 -12.833 -49 -23.5s-19.334 -23.167 -23.001 -37.5s-5.5 -31.5 -5.5 -51.5v-49h-59c-26 0 -47.5 -4 -64.5 -12s-30.333 -19.167 -40 -33.5s-16.334 -31.833 -20.001 -52.5s-5.5 -43.667 -5.5 -69h-220z" />
    <glyph glyph-name="saraamleft" horiz-adv-x="1043" 
d="M-940 1624c0 32 5.99805 62 17.998 90s28.5 52.5 49.5 73.5s45.667 37.833 74 50.5s58.5 19 90.5 19c31.333 0 61.333 -6.33301 90 -19s53.667 -29.5 75 -50.5s38.333 -45.5 51 -73.5s19 -58 19 -90c0 -32.667 -6.33301 -63 -19 -91s-29.667 -52.5 -51 -73.5
s-46.166 -37.833 -74.499 -50.5s-58.166 -19 -89.499 -19c-32 0 -62.333 6.33301 -91 19s-53.167 29.5 -73.5 50.5s-36.833 45.5 -49.5 73.5s-19 58.333 -19 91zM-790.002 1624c0 -12 2.16699 -22.833 6.5 -32.5s10.5 -18.5 18.5 -26.5s16.833 -14.333 26.5 -19
s20.167 -7 31.5 -7c12 0 22.833 2.33301 32.5 7s18.334 11 26.001 19s14 16.833 19 26.5s7.5 20.5 7.5 32.5c0 11.333 -2.5 21.833 -7.5 31.5s-11.333 18.5 -19 26.5s-16.334 14.333 -26.001 19s-20.5 7 -32.5 7c-11.333 0 -21.833 -2.33301 -31.5 -7s-18.5 -11 -26.5 -19
s-14.167 -16.833 -18.5 -26.5s-6.5 -20.167 -6.5 -31.5zM31.998 822c0 46.667 5.83301 89.501 17.5 128.501s27.667 74.333 48 106s45 59.667 74 84s60.167 44.5 93.5 60.5s68.5 28.167 105.5 36.5s75.167 12.5 114.5 12.5c63.333 0 122 -8.83301 176 -26.5
s100.833 -44 140.5 -79s70.834 -79.333 93.501 -133s34 -116.834 34 -189.501l1 -822h-245l-2 780c1.33301 87.333 -15.334 151.5 -50.001 192.5s-84 61.5 -148 61.5c-56.667 0 -102.5 -17.5 -137.5 -52.5s-54.5 -88.167 -58.5 -159.5h-257z" />
    <glyph glyph-name="uni0E33.alt1" horiz-adv-x="1043" 
d="M-940 1624c0 32 5.99805 62 17.998 90s28.5 52.5 49.5 73.5s45.667 37.833 74 50.5s58.5 19 90.5 19c31.333 0 61.333 -6.33301 90 -19s53.667 -29.5 75 -50.5s38.333 -45.5 51 -73.5s19 -58 19 -90c0 -32.667 -6.33301 -63 -19 -91s-29.667 -52.5 -51 -73.5
s-46.166 -37.833 -74.499 -50.5s-58.166 -19 -89.499 -19c-32 0 -62.333 6.33301 -91 19s-53.167 29.5 -73.5 50.5s-36.833 45.5 -49.5 73.5s-19 58.333 -19 91zM-790.002 1624c0 -12 2.16699 -22.833 6.5 -32.5s10.5 -18.5 18.5 -26.5s16.833 -14.333 26.5 -19
s20.167 -7 31.5 -7c12 0 22.833 2.33301 32.5 7s18.334 11 26.001 19s14 16.833 19 26.5s7.5 20.5 7.5 32.5c0 11.333 -2.5 21.833 -7.5 31.5s-11.333 18.5 -19 26.5s-16.334 14.333 -26.001 19s-20.5 7 -32.5 7c-11.333 0 -21.833 -2.33301 -31.5 -7s-18.5 -11 -26.5 -19
s-14.167 -16.833 -18.5 -26.5s-6.5 -20.167 -6.5 -31.5zM31.998 822c0 46.667 5.83301 89.501 17.5 128.501s27.667 74.333 48 106s45 59.667 74 84s60.167 44.5 93.5 60.5s68.5 28.167 105.5 36.5s75.167 12.5 114.5 12.5c63.333 0 122 -8.83301 176 -26.5
s100.833 -44 140.5 -79s70.834 -79.333 93.501 -133s34 -116.834 34 -189.501l1 -822h-245l-2 780c1.33301 87.333 -15.334 151.5 -50.001 192.5s-84 61.5 -148 61.5c-56.667 0 -102.5 -17.5 -137.5 -52.5s-54.5 -88.167 -58.5 -159.5h-257z" />
    <glyph glyph-name="saraithai.alt1" 
d="M-1004 1410l99 196h791v-196h-890z" />
    <glyph glyph-name="saraiithai.alt1" 
d="M-1004 1410l99 196h560l-2 172h232l1 -368h-890z" />
    <glyph glyph-name="sarauethai.alt1" 
d="M-1004 1410l99 196.002h391l-1 20c0 29.333 5.5 57.166 16.5 83.499s26 49.166 45 68.499s41.5 35 67.5 47s53.5 18 82.5 18s56.667 -6 83 -18s49.5 -27.667 69.5 -47s35.5 -42.166 46.5 -68.499s16.5 -54.166 16.5 -83.499c0 -30 -5.33301 -57.833 -16 -83.5
s-25.667 -48.334 -45 -68.001s-42 -35.334 -68 -47.001s-53.333 -17.5 -82 -17.5h-705zM-378 1626c0 -9.33301 2.16797 -18.834 6.50098 -28.501s9.83301 -17.667 16.5 -24s14.667 -11.5 24 -15.5s18.833 -6 28.5 -6s19.5 2 29.5 6s18.333 9.16699 25 15.5
s12.167 14.333 16.5 24s6.5 19.167 6.5 28.5c0 23.333 -7.83301 42.333 -23.5 57s-33.5 22 -53.5 22c-10 0 -19.833 -1.83301 -29.5 -5.5s-17.834 -9.16699 -24.501 -16.5s-12 -15.666 -16 -24.999s-6 -20 -6 -32z" />
    <glyph glyph-name="saraueethai.alt1" 
d="M-1004 1410l99 196h242l-3 172h222l2 -172h106v172h221l1 -368h-890z" />
    <glyph glyph-name="saraithai.alt2" 
d="M-1580 1410l97 196h1058v-196h-1155z" />
    <glyph glyph-name="saraiithai.alt2" 
d="M-1580 1410l97 196h826l-3 172h234l1 -368h-1155z" />
    <glyph glyph-name="sarauethai.alt2" 
d="M-1580 1410l100.001 196.004h654v20c0 29.333 5.5 57.166 16.5 83.499s26 49.166 45 68.499s41.667 35 68 47s54.166 18 83.499 18s57.333 -6 84 -18s49.5 -27.667 68.5 -47s34.167 -42 45.5 -68c10 -26.667 15 -54.667 15 -84c0 -30 -5.16699 -57.833 -15.5 -83.5
s-25 -48.334 -44 -68.001s-41.5 -35.334 -67.5 -47.001s-53.667 -17.5 -83 -17.5h-970zM-688.999 1626c0 -21.333 7.50098 -39.001 22.501 -53.001s33.833 -21 56.5 -21c21.333 0 38.833 7 52.5 21s20.5 31.667 20.5 53c0 23.333 -6.83301 42.333 -20.5 57
s-31.167 22 -52.5 22c-12 0 -22.833 -1.83301 -32.5 -5.5s-17.834 -9.16699 -24.501 -16.5s-12 -15.666 -16 -24.999s-6 -20 -6 -32z" />
    <glyph glyph-name="saraueethai.alt2" 
d="M-1580 1410l100 196h502v172h220l2 -172h111l-3 172h222l1 -368h-1155z" />
    <glyph glyph-name="maiekthai.alt2" 
d="M-654 2275h225l3 -358h-227z" />
    <glyph glyph-name="maithothai.alt2" 
d="M-1007 2278h307.998l3 -181c38.667 0 73.334 4.83301 104.001 14.5s56.5 22.667 77.5 39s36.833 35.5 47.5 57.5c10.667 21.333 16 44.666 16 70h212c0 -46.667 -9.83301 -92 -29.5 -136s-49.5 -83 -89.5 -117s-90.167 -61.167 -150.5 -81.5
s-131.166 -30.5 -212.499 -30.5h-170v184h-113z" />
    <glyph glyph-name="maitrithai.alt2" 
d="M-1004 1913c-4 54 -1.16406 101.002 8.50293 141.002s23.667 73.167 42 99.5s40.166 45.833 65.499 58.5s51.666 19 78.999 19c29.333 0 55.666 -6.83301 78.999 -20.5s43.333 -32.167 60 -55.5c14.667 23.333 34.667 41.666 60 55c25.333 14 52.333 21 81 21
c18 0 35.667 -2.66699 53 -8s33.166 -13.666 47.499 -25c14.333 -11.333 27 -25.166 38 -41.5c11 -16.333 19.5 -35.5 25.5 -57.5c8 10 15.333 21.333 22 34s12.5 26.5 17.5 41.5s8.83301 31 11.5 48s4 33.5 4 49.5h196c0 -24.667 -2.83301 -49.834 -8.5 -75.501
s-14.167 -51.167 -25.5 -76.5s-24.5 -49.5 -39.5 -72.5s-31.833 -43.667 -50.5 -62s-38 -33.833 -58 -46.5c-20.667 -14 -41.667 -22.667 -63 -26h-152c0 9.33301 -0.666992 21.5 -2 36.5s-3.5 29.833 -6.5 44.5s-7.16699 27.334 -12.5 38.001s-12 16 -20 16
s-14.667 -4.5 -20 -13.5s-9.16602 -20.333 -11.499 -34s-4 -28.334 -5 -44.001s-1.5 -30.167 -1.5 -43.5h-158c0 12.667 -0.333008 27 -1 43s-2.5 30.833 -5.5 44.5s-7 25 -12 34s-11.333 13.5 -19 13.5s-14 -5.33301 -19 -16s-9 -23.334 -12 -38.001
s-4.83301 -29.5 -5.5 -44.5s-0.666992 -27.167 0 -36.5h-182z" />
    <glyph glyph-name="maichattawathai.alt2" 
d="M-823 2066v177h173l2 148h217l-1 -148h175l-3 -177h-172l4 -153h-220l-3 153h-172z" />
    <glyph glyph-name="saraithai.alt3" 
d="M-1507 1410l100 196h1293v-196h-1393z" />
    <glyph glyph-name="saraiithai.alt3" 
d="M-1507 1410l100 196h1062l-2 172h232l1 -368h-1393z" />
    <glyph glyph-name="sarauethai.alt3" 
d="M-1507 1410l100 196.002h893l-1 20c0 29.333 5.5 57.166 16.5 83.499s26 49.166 45 68.499s41.5 35 67.5 47s53.5 18 82.5 18s56.667 -6 83 -18s49.5 -27.667 69.5 -47s35.5 -42.166 46.5 -68.499s16.5 -54.166 16.5 -83.499c0 -30 -5.33301 -57.833 -16 -83.5
s-25.667 -48.334 -45 -68.001s-42 -35.334 -68 -47.001s-53.333 -17.5 -82 -17.5h-1208zM-378 1626c0 -9.33301 2.16797 -18.834 6.50098 -28.501s9.83301 -17.667 16.5 -24s14.667 -11.5 24 -15.5s18.833 -6 28.5 -6s19.5 2 29.5 6s18.333 9.16699 25 15.5
s12.167 14.333 16.5 24s6.5 19.167 6.5 28.5c0 23.333 -7.83301 42.333 -23.5 57s-33.5 22 -53.5 22c-10 0 -19.833 -1.83301 -29.5 -5.5s-17.834 -9.16699 -24.501 -16.5s-12 -15.666 -16 -24.999s-6 -20 -6 -32z" />
    <glyph glyph-name="saraueethai.alt3" 
d="M-1507 1410l100 196h744l-3 172h222l2 -172h106v172h221l1 -368h-1393z" />
    <glyph glyph-name="maiekthai.alt4" 
d="M-345 1767v359h228l-1 -359h-227z" />
    <glyph glyph-name="maithothai.alt4" 
d="M-680 1946l0.999023 183h305v-183c39.333 1.33301 74.5 6.83301 105.5 16.5s57.167 22.667 78.5 39s37.833 35.333 49.5 57s17.5 45.167 17.5 70.5h211c0 -46.667 -9.83301 -92 -29.5 -136s-49.667 -83 -90 -117s-90.666 -61.167 -150.999 -81.5
s-131.5 -30.5 -213.5 -30.5h-170v182h-114z" />
    <glyph glyph-name="maitrithai.alt4" 
d="M-812 1764c-4 54 -1 101.002 9 141.002s24.167 73 42.5 99s40.166 45.5 65.499 58.5s51.666 19.5 78.999 19.5c29.333 0 55.666 -6.83301 78.999 -20.5s43.333 -32.167 60 -55.5c15.333 23.333 35.333 41.833 60 55.5s51.334 20.5 80.001 20.5c38 0 72 -10.667 102 -32
s51 -54.333 63 -99c7.33301 8.66699 15 19.5 23 32.5s14.333 27 19 42s8.33398 30.833 11.001 47.5c1.33301 16.667 2 33.334 2 50h194c0 -24.667 -2.66699 -49.834 -8 -75.5c-5.33301 -25.667 -13.333 -51.167 -24 -76.5s-23.5 -49.5 -38.5 -72.5s-31.5 -43.667 -49.5 -62
s-37.333 -33.833 -58 -46.5c-20 -13.333 -41.333 -22 -64 -26h-156c0 8.66699 -0.5 20.5 -1.5 35.5s-3 29.833 -6 44.5s-7.16699 27.334 -12.5 38.001c-6 10.667 -13 16 -21 16s-14.167 -4.33301 -18.5 -13s-7.66602 -19.834 -9.99902 -33.501s-3.5 -28.334 -3.5 -44.001
s-0.666992 -30.167 -2 -43.5h-159c0 12.667 -0.166992 27 -0.5 43s-2 30.833 -5 44.5s-7.16699 24.834 -12.5 33.501s-11.333 13 -18 13c-8 0 -14.667 -5.33301 -20 -16s-9.5 -23.334 -12.5 -38.001s-4.83301 -29.334 -5.5 -44.001c0.666992 -14.667 1 -26.667 1 -36h-184z
" />
    <glyph glyph-name="maichattawathai.alt4" 
d="M-514 2094h171l1 149h222l-3 -149h174l2 -177h-173v-153h-222v153h-169z" />
    <glyph glyph-name="maiekthai.alt5" 
d="M-734 1797l1 358h228l-3 -358h-226z" />
    <glyph glyph-name="maithothai.alt5" 
d="M-1066 1977l0.000976562 181h308v-181c39.333 0.666992 74.833 5.66699 106.5 15s58.167 22.333 79.5 39s37.666 36 48.999 58c10.667 20.667 16 43.667 16 69h209c0 -46.667 -9.66699 -92 -29 -136s-49 -83 -89 -117s-90.333 -61 -151 -81c-62 -20 -134 -30 -216 -30
h-169v183h-114z" />
    <glyph glyph-name="maitrithai.alt5" 
d="M-1126 1794c-4 54.667 -0.99707 101.668 9.00293 141.001s24.5 72.166 43.5 98.499s41.167 45.833 66.5 58.5c26.667 12.667 53.667 19 81 19c28.667 0 54.167 -6.83301 76.5 -20.5s41.833 -32.167 58.5 -55.5c15.333 23.333 36.166 41.833 62.499 55.5
s54.166 20.5 83.499 20.5c36.667 0 70.167 -10.667 100.5 -32s50.833 -54.333 61.5 -99c8.66699 8.66699 16.334 19.5 23.001 32.5s12.5 27.333 17.5 43s8.83301 31.834 11.5 48.5c3.33301 16.667 5 32.667 5 48h192c0 -24 -2.83301 -49 -8.5 -75s-14.167 -51.667 -25.5 -77
s-24.5 -49.333 -39.5 -72s-31.5 -43 -49.5 -61s-37 -33.333 -57 -46s-40.667 -21.667 -62 -27h-156c0 8.66699 -0.333008 20.667 -1 36s-2.33398 30.333 -5.00098 45s-6.5 27.334 -11.5 38.001s-11.5 16 -19.5 16c-7.33301 0 -14 -4.66699 -20 -14
s-10.5 -20.833 -13.5 -34.5s-5 -28.334 -6 -44.001s-1.5 -29.834 -1.5 -42.501h-159c0 12.667 -0.166992 26.834 -0.5 42.501s-2 30.334 -5 44.001s-6.5 25.167 -10.5 34.5s-9.83301 14 -17.5 14s-14.334 -5.33301 -20.001 -16s-10 -23.334 -13 -38.001s-5 -29.667 -6 -45
s-1.5 -27.333 -1.5 -36h-183z" />
    <glyph glyph-name="maichattawathai.alt5" 
d="M-908 2123h172l3 149h221l-2 -149h169l3 -177h-169l-1 -152h-221v152h-174z" />
    <glyph glyph-name="sarauthai.alt6" 
d="M-695 -330l3 190h337l-1 -459h-231v269h-108z" />
    <glyph glyph-name="sarauuthai.alt6" 
d="M-969 -330l0.998047 189.998h340v-168c-0.666992 -38.667 7.33301 -68.334 24 -89.001c15.333 -20.667 40.333 -31 75 -31c33.333 0 58.833 10.333 76.5 31s26.834 50.334 27.501 89.001l2 168h230l-1 -168c-1.33301 -42.667 -7.83301 -82.834 -19.5 -120.501
s-30.334 -70.5 -56.001 -98.5s-59.5 -50.333 -101.5 -67s-93.667 -25 -155 -25c-58 0 -107.5 6.83301 -148.5 20.5s-75.167 33.334 -102.5 59.001s-47.666 56.334 -60.999 92.001s-21.666 74.834 -24.999 117.501h-106z" />
    <glyph glyph-name="phinthuthai.alt6" 
d="M-689 -269c0 23.333 4.33203 45 12.999 65s20.5 37.667 35.5 53s32.5 27.333 52.5 36s41.667 13 65 13c22.667 0 44 -4.33301 64 -13s37.5 -20.667 52.5 -36s26.833 -33 35.5 -53s13 -41.667 13 -65c0 -22 -4.16699 -43 -12.5 -63s-19.666 -37.5 -33.999 -52.5
s-31.833 -27 -52.5 -36s-41.667 -13.5 -63 -13.5c-23.333 0 -45.166 4.5 -65.499 13.5s-38.333 21 -54 36s-27.834 32.5 -36.501 52.5s-13 41 -13 63z" />
    <glyph glyph-name="sarauthai.alt7" 
d="M-666 -330l3 190h339l-3 -459h-231v269h-108z" />
    <glyph glyph-name="sarauuthai.alt7" 
d="M-1120 -330l1.99805 190h341v-168c-0.666992 -38.667 7 -68.334 23 -89.001s41.667 -31 77 -31c32.667 0 57.834 10.333 75.501 31s26.5 50.334 26.5 89.001l3 168h229l-2 -168c0 -42.667 -5.83301 -82.834 -17.5 -120.501s-30.334 -70.5 -56.001 -98.5
s-59.667 -50.333 -102 -67s-93.833 -25 -154.5 -25c-57.333 0 -106.666 6.83301 -147.999 20.5s-75.666 33.334 -102.999 59.001s-48 56.5 -62 92.5c-14.667 35.333 -23 74.333 -25 117h-107z" />
    <glyph glyph-name="phinthuthai.alt7" 
d="M-642 -269c0 23.333 4.32812 45 12.9951 65s20.834 37.667 36.501 53s33.334 27.333 53.001 36s41.5 13 65.5 13c22 0 43.167 -4.33301 63.5 -13s37.833 -20.667 52.5 -36s26.334 -33 35.001 -53s13 -41.667 13 -65c0 -22 -4.33301 -43 -13 -63
s-20.334 -37.5 -35.001 -52.5s-31.667 -27 -51 -36s-40.666 -13.5 -63.999 -13.5s-45.166 4.5 -65.499 13.5s-38.166 21 -53.499 36s-27.5 32.5 -36.5 52.5s-13.5 41 -13.5 63z" />
    <glyph glyph-name="maihanakatthai.alt8" 
d="M-929 1413v295h228l-1 -105h939v-190h-1166z" />
    <glyph glyph-name="maiekthai.alt8" 
d="M-715 1917v358h226l1 -358h-227z" />
    <glyph glyph-name="maithothai.alt8" 
d="M-1028 2278h307.001l3 -181c38.667 0 73.667 4.83301 105 14.5s57.666 22.667 78.999 39s37.333 35.5 48 57.5c10.667 21.333 15 44.666 13 70h213c0 -46.667 -9.5 -92 -28.5 -136s-48.5 -83 -88.5 -117s-90.333 -61.167 -151 -81.5s-132 -30.5 -214 -30.5h-169v184h-114
z" />
    </font>
</defs>
</svg>
