<svg xmlns="http://www.w3.org/2000/svg">
<defs>
<font id="DBHelvethaicaX-55Regular" horiz-adv-x="0" >
  <font-face 
    font-family="DB Helvethaica X 55 Regular"
    font-weight="400"
    font-stretch="normal"
    units-per-em="2048"
    panose-1="2 0 5 6 9 0 0 2 0 4"
    ascent="1638"
    descent="-410"
    x-height="1061"
    cap-height="1460"
    bbox="-1551 -936 2523 2365"
    underline-thickness="41"
    underline-position="-393"
    unicode-range="U+000D-U+F882"
  />
<missing-glyph horiz-adv-x="839" 
d="M66 3l0.00195312 280c0 31.333 6 59.166 18 83.499s28.333 44.833 49 61.5s43.667 29.334 69 38.001c24.667 8.66699 50.667 13 78 13s53.666 -3.83301 78.999 -11.5s47.5 -19.334 66.5 -35.001s34.167 -35.167 45.5 -58.5s17 -51.666 17 -84.999v-235h222v413h55v-464
h-388v51h60v242c0 21.333 -4.16699 40.166 -12.5 56.499s-19.333 29.333 -33 39s-29.834 17.167 -48.501 22.5s-38.667 8 -60 8s-41.5 -3 -60.5 -9s-36 -14.5 -51 -25.5s-26.833 -24.833 -35.5 -41.5s-13 -35.667 -13 -57v-215l119 120c-2.66699 0 -6.66699 1.66699 -12 5
s-10.5 7.5 -15.5 12.5s-9.16699 11.333 -12.5 19s-5 16.5 -5 26.5c0 25.333 7.5 45.333 22.5 60s35.167 22 60.5 22c12 0 22.833 -2.16699 32.5 -6.5s18.167 -10.166 25.5 -17.499s13.166 -16 17.499 -26s6.5 -20.667 6.5 -32c0 -8.66699 -1.5 -16.667 -4.5 -24
s-6.16699 -14 -9.5 -20s-7.16602 -10.333 -11.499 -13s-7.83301 -4.66699 -10.5 -6c-1.33301 -2.66699 -4.83301 -7 -10.5 -13s-13.5 -13.333 -23.5 -22s-20.333 -19 -31 -31l-33 -35c-16 -13.333 -32 -27.5 -48 -42.5l-49 -47.5h-65zM85.002 578
c5.33301 29.333 16.8301 57.6689 34.4971 85.002s40.334 51.666 68.001 72.999s59.834 38 96.501 50s76.334 18 119.001 18c42 0 79.667 -4.5 113 -13.5s63 -20.833 89 -35.5s47.5 -29.834 64.5 -45.501s30.5 -30.167 40.5 -43.5v138h55v-290
c-68 19.333 -143.667 36.333 -227 51c-84 14.667 -172 22 -264 22c-64 0 -127 -3 -189 -9zM168.999 637.003c24.667 1.33301 49.3311 2.49902 73.998 3.49902s49.334 1.5 74.001 1.5h92c13.333 -2 28.833 -3.83301 46.5 -5.5s36.167 -4 55.5 -7l60 -9.5

<glyph glyph-name="plusminus" unicode="&#x2b;&#x2d;" horiz-adv-x="1216" 
d="M91 0v152h1033v-152h-1033zM91 548v151h440v338h154v-338h439v-151h-439v-338h-154v338h-440z" />
    <glyph glyph-name="ellipsis" unicode="&#x2e;&#x2e;&#x2e;" horiz-adv-x="2026" 
d="M222 0v239h234v-239h-234zM894 0v239h236v-239h-236zM1570 0v239h236v-239h-236z" />
    <glyph glyph-name="lessequal" unicode="&#x3c;&#x3d;" horiz-adv-x="1201" 
d="M85 0v152h1045v-152h-1045zM85 736v146l1045 470v-159l-853 -386l853 -382v-156z" />
    <glyph glyph-name="greaterequal" unicode="&#x3e;&#x3d;" horiz-adv-x="1227" 
d="M85 0v152h1045v-152h-1045zM85 269v156l851 382l-851 386v159l1045 -470v-146z" />
    <glyph glyph-name="fongmanfunnuthai" unicode="&#xe4f;&#x22;" horiz-adv-x="1480" 
d="M91 610c0 59.333 7.5 116.5 22.5 171.5s36.5 106.167 64.5 153.5s61.833 90.666 101.5 129.999s83.5 72.666 131.5 99.999s99.5 48.833 154.5 64.5s112.833 23.5 173.5 23.5c58 0 114.333 -7.83301 169 -23.5s105.834 -37.167 153.501 -64.5s91 -60.666 130 -99.999
s72.167 -82.666 99.5 -129.999s48.666 -98.5 63.999 -153.5s23 -112.167 23 -171.5s-7.66699 -116.5 -23 -171.5s-36.666 -106.333 -63.999 -154s-60.5 -91 -99.5 -130s-82.333 -72.333 -130 -100s-98.834 -49 -153.501 -64s-111 -22.5 -169 -22.5
c-60.667 0 -118.5 7.5 -173.5 22.5s-106.5 36.333 -154.5 64s-91.833 61 -131.5 100s-73.5 82.333 -101.5 130s-49.5 99 -64.5 154s-22.5 112.167 -22.5 171.5zM257 616c0 -44 5.83301 -86.333 17.5 -127s27.667 -78.834 48 -114.501s45.166 -68.334 74.499 -98.001
s61.833 -55 97.5 -76s74.167 -37.333 115.5 -49s84.333 -17.5 129 -17.5c42.667 0 84.5 5.83301 125.5 17.5s79 28 114 49s67 46.333 96 76s53.833 62.334 74.5 98.001s36.834 73.834 48.501 114.501s17.5 83 17.5 127s-5.83301 86.167 -17.5 126.5s-27.834 78 -48.501 113
s-45.5 67.167 -74.5 96.5s-61 54.166 -96 74.499s-73 36.333 -114 48s-82.833 17.5 -125.5 17.5c-44.667 0 -87.667 -5.83301 -129 -17.5s-79.833 -27.667 -115.5 -48s-68.167 -45.166 -97.5 -74.499s-54.166 -61.5 -74.499 -96.5s-36.333 -72.667 -48 -113
s-17.5 -82.5 -17.5 -126.5zM394 616c0 46 9.33301 89.333 28 130s43.5 76.334 74.5 107.001s67.5 55.334 109.5 74.001s86.333 28 133 28c45.333 0 88.333 -9.33301 129 -28s76 -43.334 106 -74.001s54 -66.334 72 -107.001s27 -84 27 -130c0 -46.667 -9 -91 -27 -133
s-42 -78.333 -72 -109s-65.333 -55 -106 -73s-83.667 -27 -129 -27c-46.667 0 -91 9 -133 27s-78.5 42.333 -109.5 73s-55.833 67 -74.5 109s-28 86.333 -28 133zM499 1764h177l-25 -335h-131zM540 616c0 -27.333 5.16699 -53.166 15.5 -77.499
s24.166 -45.166 41.499 -62.499s38 -31.333 62 -42s50.667 -16 80 -16c26 0 50.5 5.33301 73.5 16s43 24.667 60 42s30.333 38.166 40 62.499s14.5 50.166 14.5 77.499c0 26.667 -4.83301 51.334 -14.5 74.001s-23 42.834 -40 60.501s-37 31.5 -60 41.5s-47.5 15 -73.5 15
c-29.333 0 -56 -5 -80 -15s-44.667 -23.833 -62 -41.5s-31.166 -37.834 -41.499 -60.501s-15.5 -47.334 -15.5 -74.001zM804 1764h180l-20 -335h-135z" />
    <glyph glyph-name="dochadaphinthuthai" unicode="&#xe0e;&#xe3a;" horiz-adv-x="1309" 
d="M72 0l0.00488281 152.003h119v511c0 19.333 -1.16699 38.666 -3.5 57.999s-7.33301 38 -15 56s-17.834 35.167 -30.501 51.5s-29 30.166 -49 41.499c10 46.667 27.833 92.834 53.5 138.501s60.667 86.667 105 123s98.666 65.666 162.999 87.999
s140.166 33.5 227.499 33.5c69.333 0 131 -6.66699 185 -20s101.167 -31.333 141.5 -54s74.5 -50.167 102.5 -82.5s50.667 -67.5 68 -105.5s29.666 -78.167 36.999 -120.5s11 -85.166 11 -128.499v-1116h-200c-16.667 23.333 -36 44 -58 62s-45.5 32.833 -70.5 44.5
s-52 20.167 -81 25.5s-57.833 8 -86.5 8c-33.333 0 -66 -3.33301 -98 -10s-62.833 -16.334 -92.5 -29.001s-57.167 -29.167 -82.5 -49.5s-48 -43.166 -68 -68.499v181c23.333 21.333 48.166 40.333 74.499 57s54.166 30.334 83.499 41.001s59.5 18.334 90.5 23.001
s61.833 7 92.5 7c52 0 103.333 -7.66699 154 -23s98 -38.333 142 -69v939c0 38 -5.83301 75.667 -17.5 113s-30.667 71.166 -57 101.499s-61.5 54.833 -105.5 73.5c-45.333 18 -100.333 28 -165 30c-38 0 -72.5 -3.33301 -103.5 -10s-58.833 -15.834 -83.5 -27.501
s-46.5 -25.334 -65.5 -41.001s-34.833 -31.334 -47.5 -47.001s-22.667 -31.167 -30 -46.5s-11.666 -29 -12.999 -41c14 -8 26.5 -19 37.5 -33s20.5 -30 28.5 -48s14 -38 18 -60c3.33301 -22.667 5 -45.667 5 -69v-660h-316zM939.005 -612.997
c0 19.333 3.83496 37.833 11.502 55.5s18.167 33 31.5 46s28.666 23.167 45.999 30.5s36.666 11 57.999 11c19.333 0 37.666 -3.66699 54.999 -11s32.5 -17.5 45.5 -30.5s23.333 -28.333 31 -46s11.5 -36.167 11.5 -55.5s-3.83301 -38 -11.5 -56s-18 -33.667 -31 -47
s-28.167 -23.833 -45.5 -31.5s-35.666 -11.5 -54.999 -11.5c-20 0 -39 3.83301 -57 11.5s-33.667 18.167 -47 31.5s-23.833 29 -31.5 47s-11.5 36.667 -11.5 56z" />
    <glyph glyph-name="topatakphintuthai" unicode="&#xe0f;&#xe3a;" horiz-adv-x="1309" 
d="M72 0l0.00390625 152.006h119v511c0 19.333 -1.16699 38.666 -3.5 57.999s-7.33301 38 -15 56s-17.834 35.167 -30.501 51.5s-29 30.166 -49 41.499c10 46.667 27.833 92.834 53.5 138.501s60.667 86.667 105 123s98.666 65.666 162.999 87.999
s140.166 33.5 227.499 33.5c69.333 0 131 -6.66699 185 -20s101.167 -31.333 141.5 -54s74.5 -50.167 102.5 -82.5s50.667 -67.5 68 -105.5s29.666 -78.167 36.999 -120.5s11 -85.166 11 -128.499v-1116h-200c-2.66699 14 -7.66699 29.167 -15 45.5s-17.333 31.333 -30 45
s-27.834 24.834 -45.501 33.501s-38.167 13 -61.5 13s-44.166 -4.33301 -62.499 -13s-33.333 -19.834 -45 -33.501s-20.667 -28.167 -27 -43.5s-9.5 -31 -9.5 -47h-160c0 10 -1.83301 23.167 -5.5 39.5s-10.334 31.833 -20.001 46.5s-23.334 27.334 -41.001 38.001
s-40.167 16 -67.5 16c-22 0 -40.667 -4 -56 -12s-27.833 -18.833 -37.5 -32.5s-17 -28.834 -22 -45.501s-7.5 -33.334 -7.5 -50.001h-181c0 50.667 7.66699 94.5 23 131.5s35.833 67.667 61.5 92s56 42.666 91 54.999s72.167 18.5 111.5 18.5c52 0 96.5 -11.5 133.5 -34.5
s66.5 -56.833 88.5 -101.5c11.333 21.333 24.833 40.333 40.5 57s32.667 29.834 51 39.501s37.333 16.834 57 21.501s37.5 7 53.5 7c25.333 0 47.5 -2.83301 66.5 -8.5s36.167 -12.834 51.5 -21.501s28.333 -18 39 -28s19.334 -19.333 26.001 -28v939
c0 38 -5.83301 75.667 -17.5 113s-30.667 71.166 -57 101.499s-61.5 54.833 -105.5 73.5c-45.333 18 -100.333 28 -165 30c-38 0 -72.5 -3.33301 -103.5 -10s-58.833 -15.834 -83.5 -27.501s-46.5 -25.334 -65.5 -41.001s-34.833 -31.334 -47.5 -47.001
s-22.667 -31.167 -30 -46.5s-11.666 -29 -12.999 -41c14 -8 26.5 -19 37.5 -33s20.5 -30 28.5 -48s14 -38 18 -60c3.33301 -22.667 5 -45.667 5 -69v-660h-316zM939.004 -612.994c0 19.333 3.83496 37.833 11.502 55.5s18.167 33 31.5 46s28.666 23.167 45.999 30.5
s36.666 11 57.999 11c19.333 0 37.666 -3.66699 54.999 -11s32.5 -17.5 45.5 -30.5s23.333 -28.333 31 -46s11.5 -36.167 11.5 -55.5s-3.83301 -38 -11.5 -56s-18 -33.667 -31 -47s-28.167 -23.833 -45.5 -31.5s-35.666 -11.5 -54.999 -11.5c-20 0 -39 3.83301 -57 11.5
s-33.667 18.167 -47 31.5s-23.833 29 -31.5 47s-11.5 36.667 -11.5 56z" />
    <glyph glyph-name="dochadasarauthai" unicode="&#xe0e;&#xe38;" horiz-adv-x="1309" 
d="M72 0l0.00488281 152.003h119v511c0 19.333 -1.16699 38.666 -3.5 57.999s-7.33301 38 -15 56s-17.834 35.167 -30.501 51.5s-29 30.166 -49 41.499c10 46.667 27.833 92.834 53.5 138.501s60.667 86.667 105 123s98.666 65.666 162.999 87.999
s140.166 33.5 227.499 33.5c69.333 0 131 -6.66699 185 -20s101.167 -31.333 141.5 -54s74.5 -50.167 102.5 -82.5s50.667 -67.5 68 -105.5s29.666 -78.167 36.999 -120.5s11 -85.166 11 -128.499v-1116h-200c-16.667 23.333 -36 44 -58 62s-45.5 32.833 -70.5 44.5
s-52 20.167 -81 25.5s-57.833 8 -86.5 8c-33.333 0 -66 -3.33301 -98 -10s-62.833 -16.334 -92.5 -29.001s-57.167 -29.167 -82.5 -49.5s-48 -43.166 -68 -68.499v181c23.333 21.333 48.166 40.333 74.499 57s54.166 30.334 83.499 41.001s59.5 18.334 90.5 23.001
s61.833 7 92.5 7c52 0 103.333 -7.66699 154 -23s98 -38.333 142 -69v939c0 38 -5.83301 75.667 -17.5 113s-30.667 71.166 -57 101.499s-61.5 54.833 -105.5 73.5c-45.333 18 -100.333 28 -165 30c-38 0 -72.5 -3.33301 -103.5 -10s-58.833 -15.834 -83.5 -27.501
s-46.5 -25.334 -65.5 -41.001s-34.833 -31.334 -47.5 -47.001s-22.667 -31.167 -30 -46.5s-11.666 -29 -12.999 -41c14 -8 26.5 -19 37.5 -33s20.5 -30 28.5 -48s14 -38 18 -60c3.33301 -22.667 5 -45.667 5 -69v-660h-316zM894.005 -481.997h296v-435h-188v289h-108v146z
" />
    <glyph glyph-name="topataksarauthai" unicode="&#xe0f;&#xe38;" horiz-adv-x="1309" 
d="M72 0l0.00390625 152.006h119v511c0 19.333 -1.16699 38.666 -3.5 57.999s-7.33301 38 -15 56s-17.834 35.167 -30.501 51.5s-29 30.166 -49 41.499c10 46.667 27.833 92.834 53.5 138.501s60.667 86.667 105 123s98.666 65.666 162.999 87.999
s140.166 33.5 227.499 33.5c69.333 0 131 -6.66699 185 -20s101.167 -31.333 141.5 -54s74.5 -50.167 102.5 -82.5s50.667 -67.5 68 -105.5s29.666 -78.167 36.999 -120.5s11 -85.166 11 -128.499v-1116h-200c-2.66699 14 -7.66699 29.167 -15 45.5s-17.333 31.333 -30 45
s-27.834 24.834 -45.501 33.501s-38.167 13 -61.5 13s-44.166 -4.33301 -62.499 -13s-33.333 -19.834 -45 -33.501s-20.667 -28.167 -27 -43.5s-9.5 -31 -9.5 -47h-160c0 10 -1.83301 23.167 -5.5 39.5s-10.334 31.833 -20.001 46.5s-23.334 27.334 -41.001 38.001
s-40.167 16 -67.5 16c-22 0 -40.667 -4 -56 -12s-27.833 -18.833 -37.5 -32.5s-17 -28.834 -22 -45.501s-7.5 -33.334 -7.5 -50.001h-181c0 50.667 7.66699 94.5 23 131.5s35.833 67.667 61.5 92s56 42.666 91 54.999s72.167 18.5 111.5 18.5c52 0 96.5 -11.5 133.5 -34.5
s66.5 -56.833 88.5 -101.5c11.333 21.333 24.833 40.333 40.5 57s32.667 29.834 51 39.501s37.333 16.834 57 21.501s37.5 7 53.5 7c25.333 0 47.5 -2.83301 66.5 -8.5s36.167 -12.834 51.5 -21.501s28.333 -18 39 -28s19.334 -19.333 26.001 -28v939
c0 38 -5.83301 75.667 -17.5 113s-30.667 71.166 -57 101.499s-61.5 54.833 -105.5 73.5c-45.333 18 -100.333 28 -165 30c-38 0 -72.5 -3.33301 -103.5 -10s-58.833 -15.834 -83.5 -27.501s-46.5 -25.334 -65.5 -41.001s-34.833 -31.334 -47.5 -47.001
s-22.667 -31.167 -30 -46.5s-11.666 -29 -12.999 -41c14 -8 26.5 -19 37.5 -33s20.5 -30 28.5 -48s14 -38 18 -60c3.33301 -22.667 5 -45.667 5 -69v-660h-316zM894.004 -481.994h296v-435h-188v289h-108v146z" />
    <glyph glyph-name="dochadasarauuthai" unicode="&#xe0e;&#xe39;" horiz-adv-x="1309" 
d="M72 0l0.00488281 152.003h119v511c0 19.333 -1.16699 38.666 -3.5 57.999s-7.33301 38 -15 56s-17.834 35.167 -30.501 51.5s-29 30.166 -49 41.499c10 46.667 27.833 92.834 53.5 138.501s60.667 86.667 105 123s98.666 65.666 162.999 87.999
s140.166 33.5 227.499 33.5c69.333 0 131 -6.66699 185 -20s101.167 -31.333 141.5 -54s74.5 -50.167 102.5 -82.5s50.667 -67.5 68 -105.5s29.666 -78.167 36.999 -120.5s11 -85.166 11 -128.499v-1116h-200c-16.667 23.333 -36 44 -58 62s-45.5 32.833 -70.5 44.5
s-52 20.167 -81 25.5s-57.833 8 -86.5 8c-33.333 0 -66 -3.33301 -98 -10s-62.833 -16.334 -92.5 -29.001s-57.167 -29.167 -82.5 -49.5s-48 -43.166 -68 -68.499v181c23.333 21.333 48.166 40.333 74.499 57s54.166 30.334 83.499 41.001s59.5 18.334 90.5 23.001
s61.833 7 92.5 7c52 0 103.333 -7.66699 154 -23s98 -38.333 142 -69v939c0 38 -5.83301 75.667 -17.5 113s-30.667 71.166 -57 101.499s-61.5 54.833 -105.5 73.5c-45.333 18 -100.333 28 -165 30c-38 0 -72.5 -3.33301 -103.5 -10s-58.833 -15.834 -83.5 -27.501
s-46.5 -25.334 -65.5 -41.001s-34.833 -31.334 -47.5 -47.001s-22.667 -31.167 -30 -46.5s-11.666 -29 -12.999 -41c14 -8 26.5 -19 37.5 -33s20.5 -30 28.5 -48s14 -38 18 -60c3.33301 -22.667 5 -45.667 5 -69v-660h-316zM458.005 -481.997l297.999 0.000976562v-146
c0 -46.667 10 -81.667 30 -105s51 -35 93 -35c82 0 123 46.667 123 140v146h188v-146c0 -38.667 -5.33301 -75.834 -16 -111.501s-28.5 -66.667 -53.5 -93s-57.167 -47 -96.5 -62s-87.666 -22.5 -144.999 -22.5c-56.667 0 -104.834 6.83301 -144.501 20.5
s-72.167 33.167 -97.5 58.5s-43.666 56 -54.999 92s-17 75.333 -17 118h-107v146z" />
    <glyph glyph-name="topataksarauuthai" unicode="&#xe0f;&#xe39;" horiz-adv-x="1309" 
d="M72 0l0.00390625 152.006h119v511c0 19.333 -1.16699 38.666 -3.5 57.999s-7.33301 38 -15 56s-17.834 35.167 -30.501 51.5s-29 30.166 -49 41.499c10 46.667 27.833 92.834 53.5 138.501s60.667 86.667 105 123s98.666 65.666 162.999 87.999
s140.166 33.5 227.499 33.5c69.333 0 131 -6.66699 185 -20s101.167 -31.333 141.5 -54s74.5 -50.167 102.5 -82.5s50.667 -67.5 68 -105.5s29.666 -78.167 36.999 -120.5s11 -85.166 11 -128.499v-1116h-200c-2.66699 14 -7.66699 29.167 -15 45.5s-17.333 31.333 -30 45
s-27.834 24.834 -45.501 33.501s-38.167 13 -61.5 13s-44.166 -4.33301 -62.499 -13s-33.333 -19.834 -45 -33.501s-20.667 -28.167 -27 -43.5s-9.5 -31 -9.5 -47h-160c0 10 -1.83301 23.167 -5.5 39.5s-10.334 31.833 -20.001 46.5s-23.334 27.334 -41.001 38.001
s-40.167 16 -67.5 16c-22 0 -40.667 -4 -56 -12s-27.833 -18.833 -37.5 -32.5s-17 -28.834 -22 -45.501s-7.5 -33.334 -7.5 -50.001h-181c0 50.667 7.66699 94.5 23 131.5s35.833 67.667 61.5 92s56 42.666 91 54.999s72.167 18.5 111.5 18.5c52 0 96.5 -11.5 133.5 -34.5
s66.5 -56.833 88.5 -101.5c11.333 21.333 24.833 40.333 40.5 57s32.667 29.834 51 39.501s37.333 16.834 57 21.501s37.5 7 53.5 7c25.333 0 47.5 -2.83301 66.5 -8.5s36.167 -12.834 51.5 -21.501s28.333 -18 39 -28s19.334 -19.333 26.001 -28v939
c0 38 -5.83301 75.667 -17.5 113s-30.667 71.166 -57 101.499s-61.5 54.833 -105.5 73.5c-45.333 18 -100.333 28 -165 30c-38 0 -72.5 -3.33301 -103.5 -10s-58.833 -15.834 -83.5 -27.501s-46.5 -25.334 -65.5 -41.001s-34.833 -31.334 -47.5 -47.001
s-22.667 -31.167 -30 -46.5s-11.666 -29 -12.999 -41c14 -8 26.5 -19 37.5 -33s20.5 -30 28.5 -48s14 -38 18 -60c3.33301 -22.667 5 -45.667 5 -69v-660h-316zM458.004 -481.994l297.999 0.000976562v-146c0 -46.667 10 -81.667 30 -105s51 -35 93 -35
c82 0 123 46.667 123 140v146h188v-146c0 -38.667 -5.33301 -75.834 -16 -111.501s-28.5 -66.667 -53.5 -93s-57.167 -47 -96.5 -62s-87.666 -22.5 -144.999 -22.5c-56.667 0 -104.834 6.83301 -144.501 20.5s-72.167 33.167 -97.5 58.5s-43.666 56 -54.999 92
s-17 75.333 -17 118h-107v146z" />
    <glyph glyph-name=".notdef" horiz-adv-x="839" 
d="M66 3l0.00195312 280c0 31.333 6 59.166 18 83.499s28.333 44.833 49 61.5s43.667 29.334 69 38.001c24.667 8.66699 50.667 13 78 13s53.666 -3.83301 78.999 -11.5s47.5 -19.334 66.5 -35.001s34.167 -35.167 45.5 -58.5s17 -51.666 17 -84.999v-235h222v413h55v-464
h-388v51h60v242c0 21.333 -4.16699 40.166 -12.5 56.499s-19.333 29.333 -33 39s-29.834 17.167 -48.501 22.5s-38.667 8 -60 8s-41.5 -3 -60.5 -9s-36 -14.5 -51 -25.5s-26.833 -24.833 -35.5 -41.5s-13 -35.667 -13 -57v-215l119 120c-2.66699 0 -6.66699 1.66699 -12 5
s-10.5 7.5 -15.5 12.5s-9.16699 11.333 -12.5 19s-5 16.5 -5 26.5c0 25.333 7.5 45.333 22.5 60s35.167 22 60.5 22c12 0 22.833 -2.16699 32.5 -6.5s18.167 -10.166 25.5 -17.499s13.166 -16 17.499 -26s6.5 -20.667 6.5 -32c0 -8.66699 -1.5 -16.667 -4.5 -24
s-6.16699 -14 -9.5 -20s-7.16602 -10.333 -11.499 -13s-7.83301 -4.66699 -10.5 -6c-1.33301 -2.66699 -4.83301 -7 -10.5 -13s-13.5 -13.333 -23.5 -22s-20.333 -19 -31 -31l-33 -35c-16 -13.333 -32 -27.5 -48 -42.5l-49 -47.5h-65zM85.002 578
c5.33301 29.333 16.8301 57.6689 34.4971 85.002s40.334 51.666 68.001 72.999s59.834 38 96.501 50s76.334 18 119.001 18c42 0 79.667 -4.5 113 -13.5s63 -20.833 89 -35.5s47.5 -29.834 64.5 -45.501s30.5 -30.167 40.5 -43.5v138h55v-290
c-68 19.333 -143.667 36.333 -227 51c-84 14.667 -172 22 -264 22c-64 0 -127 -3 -189 -9zM168.999 637.003c24.667 1.33301 49.3311 2.49902 73.998 3.49902s49.334 1.5 74.001 1.5h92c13.333 -2 28.833 -3.83301 46.5 -5.5s36.167 -4 55.5 -7l60 -9.5
c20.667 -3.33301 40 -7.16602 58 -11.499s34 -9 48 -14s25 -10.5 33 -16.5c-14 26.667 -32.5 50.167 -55.5 70.5s-47.833 37.5 -74.5 51.5s-55 25 -85 33s-59.667 12 -89 12c-23.333 0 -46.166 -2.33301 -68.499 -7s-43.833 -11.5 -64.5 -20.5s-39.667 -20.333 -57 -34
s-33 -29.167 -47 -46.5zM241.996 257.002c0 -19.333 11.667 -29 35 -29c8 0 15.667 2.33301 23 7s11 12 11 22c0 11.333 -3.66699 19.5 -11 24.5s-15 7.5 -23 7.5c-11.333 0 -20 -2.5 -26 -7.5s-9 -13.167 -9 -24.5zM815.996 783.002c0 16 4.66699 29.167 14 39.5
s22.666 15.5 39.999 15.5c16.667 0 29.334 -4.83301 38.001 -14.5s13 -23.167 13 -40.5c0 -11.333 -4.33301 -21.5 -13 -30.5s-21.334 -13.5 -38.001 -13.5c-17.333 0 -30.666 4.83301 -39.999 14.5s-14 19.5 -14 29.5zM821.996 783.002c0 -11.333 3.66699 -20.5 11 -27.5
s19.666 -10.5 36.999 -10.5c8 0 14.833 1.33301 20.5 4s10.5 6 14.5 10s6.5 8 7.5 12s1.5 8 1.5 12c0 16 -3.83301 28.167 -11.5 36.5s-18.5 12.5 -32.5 12.5c-13.333 0 -24.666 -3.83301 -33.999 -11.5s-14 -20.167 -14 -37.5zM849.996 753.002v68.999h20
c8 0 14 -1.5 18 -4.5s6 -7.5 6 -13.5c0 -11.333 -2 -18.166 -6 -20.499s-9 -3.5 -15 -3.5l21 -27h-9l-21 27h-6v-27h-8zM857.996 783.001h12c10 0 15 7 15 21c0 2 -1 3.66699 -3 5c-3.33301 2.66699 -7.33301 4 -12 4h-12v-30z" />
    <glyph glyph-name="uni000D" unicode="&#xd;" horiz-adv-x="576" 
 />
    <glyph glyph-name="space" unicode=" " horiz-adv-x="508" 
 />
    <glyph glyph-name="exclam" unicode="!" horiz-adv-x="645" 
d="M204 0v239h235v-239h-235zM219 1004v456h209v-456l-51 -633h-108z" />
    <glyph glyph-name="quotedbl" unicode="&#x22;" horiz-adv-x="864" 
d="M216 927v533h152v-533h-152zM499 927v533h152v-533h-152z" />
    <glyph glyph-name="numbersign" unicode="#" horiz-adv-x="1127" 
d="M63 418v150h217l40 293h-203v146h225l58 419h150l-59 -419h242l55 419h154l-57 -419h179v-146h-197l-42 -293h179v-150h-202l-57 -418h-155l58 418h-236l-59 -418h-153l57 418h-194zM431 568h242l39 293h-236z" />
    <glyph glyph-name="dollar" unicode="$" horiz-adv-x="1127" 
d="M44 456l187.002 0.00292969c0 -45.333 6.83301 -86 20.5 -122s32.667 -67.333 57 -94s53 -48.5 86 -65.5s69.833 -28.5 110.5 -34.5v523c-66 19.333 -124.833 40 -176.5 62s-95.667 48.333 -132 79s-64 66.667 -83 108s-28.5 91 -28.5 149
c0 61.333 10.833 117.666 32.5 168.999s51.5 95.666 89.5 132.999s82.667 67.666 134 90.999s106 37 164 41v134h123v-134c106.667 -16.667 193.167 -59.834 259.5 -129.501s112.166 -164.834 137.499 -285.501h-184c-13.333 66.667 -37.666 119.334 -72.999 158.001
s-82 64.334 -140 77.001v-490l117 -34c17.333 -4.66699 37.166 -11.334 59.499 -20.001s45.666 -20.167 69.999 -34.5s48 -31.166 71 -50.499s43.5 -42.166 61.5 -68.499s32.5 -56.5 43.5 -90.5s16.5 -72.333 16.5 -115c0 -64.667 -10.833 -123.167 -32.5 -175.5
s-52 -97.833 -91 -136.5s-85.5 -69.334 -139.5 -92.001s-112.667 -35 -176 -37v-171h-123v171c-136 13.333 -243.667 61 -323 143c-80.667 82 -126.667 196 -138 342zM280.002 1083c0 -34.667 5.83398 -64.1699 17.501 -88.5029s27.5 -44.833 47.5 -61.5
s43.667 -30.334 71 -41.001s57 -21 89 -31v457c-31.333 -3.33301 -60.5 -10.666 -87.5 -21.999s-50.833 -26.666 -71.5 -45.999s-36.834 -42.666 -48.501 -69.999s-17.5 -59.666 -17.5 -96.999zM628.003 134c36.667 2 70.168 8.83398 100.501 20.501
s56.166 28.334 77.499 50.001s37.833 48 49.5 79s17.5 66.833 17.5 107.5c0 37.333 -6 69.166 -18 95.499s-29 48.666 -51 66.999s-47.833 33.833 -77.5 46.5s-62.5 24 -98.5 34v-500z" />
    <glyph glyph-name="percent" unicode="%" horiz-adv-x="2026" 
d="M182 1047c0 54.667 5.49805 107 16.498 157s29.333 94 55 132s59.834 68.667 102.501 92c41.333 23.333 94 35 158 35s117.5 -11.167 160.5 -33.5s77.167 -52.333 102.5 -90s43.333 -81.5 54 -131.5s16 -102.667 16 -158c0 -52.667 -6.33301 -104 -19 -154
s-32.167 -94 -58.5 -132s-60.5 -68.667 -102.5 -92s-93 -35 -153 -35c-61.333 0 -113.166 10.667 -155.499 32s-76.333 50.166 -102 86.499s-44.5 79.333 -56.5 129s-18 103.834 -18 162.501zM344.998 1050c0 -30.667 1.66309 -63 4.99609 -97s11 -65.333 23 -94
s28.833 -52.5 50.5 -71.5s50.834 -28.5 87.501 -28.5s66.334 9.33301 89.001 28s39.834 42.5 51.501 71.5s19.667 60.5 24 94.5s6.5 66.333 6.5 97c0 19.333 -0.833008 40 -2.5 62s-4.33398 43.667 -8.00098 65s-9.16699 41.666 -16.5 60.999s-17.166 36.666 -29.499 51.999
s-27.666 27.5 -45.999 36.5s-40.166 13.5 -65.499 13.5c-23.333 0 -43.833 -4.5 -61.5 -13.5s-32.834 -21.167 -45.501 -36.5s-23.334 -32.666 -32.001 -51.999s-15.167 -39.666 -19.5 -60.999s-7.16602 -43 -8.49902 -65s-2 -42.667 -2 -62zM469.994 -29l902 1518h189
l-900 -1518h-191zM1180.99 394c0 55.333 5.66699 108.332 17 158.999s29.833 95.334 55.5 134.001s59.834 69.334 102.501 92.001c42 22.667 95.167 34 159.5 34s118.166 -10.833 161.499 -32.5s77.333 -51.5 102 -89.5s42.334 -81.833 53.001 -131.5
s16 -102.834 16 -159.501c0 -54.667 -6.33301 -106.5 -19 -155.5s-32 -92.5 -58 -130.5s-60 -68.5 -102 -91.5s-93.333 -34.5 -154 -34.5s-112.334 10.833 -155.001 32.5s-77 51 -103 88s-45.167 79.833 -57.5 128.5s-18.5 101 -18.5 157zM1345.99 396.999
c0 -19.333 0.500977 -39.6641 1.50098 -60.9971s3.66699 -42.5 8 -63.5s10.5 -41.333 18.5 -61s18 -37 30 -52s26.833 -26.833 44.5 -35.5s38.167 -13 61.5 -13c25.333 0 47 4.33301 65 13s33.5 20.167 46.5 34.5s23.333 31.166 31 50.499s14 39.666 19 60.999
s8.16699 43.333 9.5 66c1.33301 21.333 2 42.666 2 63.999c0 19.333 -0.666992 40.166 -2 62.499s-4.16602 44.333 -8.49902 66s-10.166 42.167 -17.499 61.5s-17.333 36.333 -30 51s-27.834 26.667 -45.501 36s-39.167 14 -64.5 14c-24 0 -45 -4.66699 -63 -14
s-33.333 -21.333 -46 -36s-22.834 -32 -30.501 -52s-13.834 -41 -18.501 -63s-7.66699 -44.167 -9 -66.5s-2 -43.166 -2 -62.499z" />
    <glyph glyph-name="ampersand" unicode="&#x26;" horiz-adv-x="1276" 
d="M69 371c0 58 8.99902 108.497 26.999 151.497s42 81.5 72 115.5s65.667 64.667 107 92c40.667 27.333 84.334 54 131.001 80l-61.5 80c-19.667 26 -36.667 52.333 -51 79s-26.166 54.667 -35.499 84c-8.66699 28 -13 59.667 -13 95c0 38.667 7.33301 76.5 22 113.5
s35.667 69.167 63 96.5s61.333 49 102 65s87 24 139 24c44.667 0 88.167 -6.33301 130.5 -19s80 -31.5 113 -56.5s59.5 -56 79.5 -93s30 -79.833 30 -128.5c0 -42.667 -7.83301 -82.5 -23.5 -119.5s-36 -71 -61 -102s-53.833 -59.167 -86.5 -84.5
s-66.667 -47.666 -102 -66.999l260 -316c13.333 37.333 24 74 32 110s14 73 18 111h163c-6 -42 -11.667 -78 -17 -108s-11.666 -58.167 -18.999 -84.5s-15.333 -52.166 -24 -77.499l-36 -86l282 -326h-227l-153 180c-21.333 -33.333 -47.333 -62.666 -78 -87.999
s-64 -46.5 -100 -63.5s-73.667 -29.833 -113 -38.5c-40.667 -8.66699 -80.334 -13 -119.001 -13c-66.667 0 -123.834 6.83301 -171.501 20.5s-88 32.167 -121 55.5s-60 49.333 -81 78s-37 57.834 -48 87.501s-18.667 57.667 -23 84s-6.5 49.166 -6.5 68.499z
M250.999 373.997c0 -37.333 7.83105 -71.002 23.498 -101.002s36.167 -55.667 61.5 -77s54.5 -38 87.5 -50s67.167 -18 102.5 -18c66 0 124.333 15.333 175 46s94.334 73.334 131.001 128.001l-333 397c-32.667 -19.333 -64.167 -39.166 -94.5 -59.499
s-56.666 -43 -78.999 -68s-40.333 -53.5 -54 -85.5s-20.5 -69.333 -20.5 -112zM417.997 1142c0 -21.333 4.33301 -42.833 13 -64.5s19.834 -42.667 33.501 -63s28.667 -41.166 45 -62.499s32.833 -41.666 49.5 -60.999c20.667 13.333 42.167 28.333 64.5 45
s42.666 35.167 60.999 55.5s33.833 42.666 46.5 66.999s19 52.166 19 83.499c0 21.333 -3.83301 41.166 -11.5 59.499s-18.5 34.833 -32.5 49.5s-31.5 26.167 -52.5 34.5s-44.167 12.5 -69.5 12.5c-20.667 0 -41 -3.16699 -61 -9.5s-37.667 -15.833 -53 -28.5
s-27.833 -28.667 -37.5 -48s-14.5 -42.666 -14.5 -69.999z" />
    <glyph glyph-name="quotesingle" unicode="'" horiz-adv-x="562" 
d="M207 927v533h149v-533h-149z" />
    <glyph glyph-name="parenleft" unicode="(" horiz-adv-x="525" 
d="M88 550c0 82 6.49707 164.168 19.4971 246.501s32.833 163.333 59.5 243s60.334 158.167 101.001 235.5c39.333 76.667 86.333 150 141 220h147c-48.667 -80 -90.5 -158.333 -125.5 -235s-63.5 -154 -85.5 -232s-38.333 -156.333 -49 -235s-16 -159.667 -16 -243
s5.33301 -164.5 16 -243.5s27 -157.167 49 -234.5s50.333 -154.833 85 -232.5s76.667 -156.5 126 -236.5h-147c-48 74 -91.667 148.5 -131 223.5s-73.166 151.333 -101.499 229s-50.166 157.667 -65.499 240s-23 167.166 -23 254.499z" />
    <glyph glyph-name="parenright" unicode=")" horiz-adv-x="525" 
d="M-32 1495l145.997 0.000976562c50.667 -76 95.5 -152 134.5 -228s72.333 -152.833 100 -230.5s48.834 -157.834 63.501 -240.501s22 -168 22 -256c0 -80.667 -6.66699 -161.667 -20 -243s-33.166 -161.833 -59.499 -241.5s-59.166 -157.834 -98.499 -234.501
c-40 -75.333 -87.333 -148 -142 -218h-140c48.667 76 90 152 124 228s61.667 152.833 83 230.5s36.833 156.5 46.5 236.5s14.5 160.667 14.5 242c0 84 -4.83301 165.833 -14.5 245.5s-25.667 158.5 -48 236.5s-50.833 156 -85.5 234
c-33.333 78.667 -75.333 158.334 -126 239.001z" />
    <glyph glyph-name="asterisk" unicode="*" horiz-adv-x="711" 
d="M38 1199l44 108l214 -78v225h119v-225l213 78l45 -108l-217 -78l131 -185l-96 -66l-135 191l-128 -191l-105 66l131 185z" />
    <glyph glyph-name="plus" unicode="+" horiz-adv-x="1216" 
d="M91 470v158h438v442h159v-442h436v-158h-436v-441h-159v441h-438z" />
    <glyph glyph-name="comma" unicode="," horiz-adv-x="562" 
d="M161 0l0.00195312 239.001h239v-213c0 -38.667 -4.33301 -75 -13 -109s-22.5 -64.667 -41.5 -92s-43.333 -51.666 -73 -72.999s-65.834 -38.333 -108.501 -51v117c22 7.33301 40.5 18.166 55.5 32.499s27.167 29.666 36.5 45.999s16.166 33.833 20.499 52.5
s6.5 35.667 6.5 51h-122z" />
    <glyph glyph-name="hyphen" unicode="-" horiz-adv-x="938" 
d="M96 470v158h748v-158h-748z" />
    <glyph glyph-name="period" unicode="." horiz-adv-x="562" 
d="M161 0v239h239v-239h-239z" />
    <glyph glyph-name="slash" unicode="/" horiz-adv-x="675" 
d="M-41 -29l597 1524h165l-604 -1524h-158z" />
    <glyph glyph-name="zero" unicode="0" horiz-adv-x="1127" 
d="M77 715c0 39.333 0.835938 79.667 2.50293 121s4.83398 82.833 9.50098 124.5s12 82.834 22 123.501s23.167 79 39.5 115s36.166 69.5 59.499 100.5s51.833 57.667 85.5 80s72.334 39.833 116.001 52.5s93.834 19 150.501 19c76 0 140.833 -11.167 194.5 -33.5
s98.5 -52 134.5 -89s64.333 -80 85 -129s36.667 -100.833 48 -155.5s18.5 -110.5 21.5 -167.5s4.5 -110.833 4.5 -161.5c0 -40.667 -0.833008 -82.334 -2.5 -125.001s-4.83398 -85.5 -9.50098 -128.5s-11.834 -84.5 -21.501 -124.5s-22.834 -78 -39.501 -114
s-37 -69 -61 -99s-52.667 -56.167 -86 -78.5s-72 -39.333 -116 -51s-94.667 -17.5 -152 -17.5c-74.667 0 -138.834 10.667 -192.501 32s-98.5 50 -134.5 86s-64.167 78.5 -84.5 127.5s-35.833 100.833 -46.5 155.5s-17.834 111 -21.501 169s-5.5 114 -5.5 168z
M272.003 715.501c0 -35 0.333984 -74.001 1.00098 -117.001s4 -85.333 10 -127s14.833 -82.5 26.5 -122.5s28.167 -75.5 49.5 -106.5s48.666 -55.833 81.999 -74.5s73.666 -28 120.999 -28c48.667 0 89.5 9.33301 122.5 28s60.5 43.5 82.5 74.5s38.833 66.5 50.5 106.5
s20.5 80.833 26.5 122.5s9.33301 83.834 10 126.501c1.33301 43.333 2 82.5 2 117.5s-0.5 73.167 -1.5 114.5s-4.5 83.166 -10.5 125.499s-14.833 83 -26.5 122s-28.5 73.833 -50.5 104.5s-49.667 55 -83 73s-74 27 -122 27c-46.667 0 -86.5 -9 -119.5 -27
s-60.333 -42.333 -82 -73s-38.5 -65.5 -50.5 -104.5s-20.667 -79.667 -26 -122s-8.66602 -84.166 -9.99902 -125.499s-2 -79.5 -2 -114.5z" />
    <glyph glyph-name="one" unicode="1" horiz-adv-x="1127" 
d="M164 978l0.000976562 167.002c51.333 2.66699 99.166 7.66699 143.499 15s84 20.666 119 39.999s64.667 46.5 89 81.5s41.833 83.167 52.5 144.5h159v-1426h-184v1064c-23.333 -16 -48.666 -29.5 -75.999 -40.5s-56.5 -19.833 -87.5 -26.5s-64.167 -11.334 -99.5 -14.001
c-36.667 -3.33301 -75.334 -5 -116.001 -5z" />
    <glyph glyph-name="two" unicode="2" horiz-adv-x="1127" 
d="M63 0c4.66699 55.333 13.835 105.67 27.502 151.003s30.167 86.666 49.5 123.999s41.666 71.333 66.999 102s52.166 59.167 80.499 85.5s58 50.666 89 72.999l93.5 66.5l161 109.5c44.667 31.667 81.167 63.167 109.5 94.5s49.5 64 63.5 98s21 74.333 21 121
c0 38.667 -6.83301 73.667 -20.5 105s-32.5 57.666 -56.5 78.999s-52 37.833 -84 49.5s-66 17.5 -102 17.5c-48.667 0 -90.667 -10 -126 -30s-64.5 -46.833 -87.5 -80.5s-39.667 -71.667 -50 -114s-14.5 -85.833 -12.5 -130.5h-187c-5.33301 74 1.66699 142.833 21 206.5
s49.833 119 91.5 166s93 83.833 154 110.5s129.5 40 205.5 40c62 0 120.833 -9.5 176.5 -28.5s104.167 -46.333 145.5 -82s73.666 -79.5 96.999 -131.5s35 -112 35 -180c0 -44 -4.83301 -84.167 -14.5 -120.5s-22.834 -70.166 -39.501 -101.499s-36.5 -60 -59.5 -86
s-47.333 -50.333 -73 -73s-52.667 -43.167 -81 -61.5l-81.5 -53.5l-128.5 -83.5c-43 -28.333 -82.167 -57.333 -117.5 -87s-65.166 -60.334 -89.499 -92.001s-39.166 -64.167 -44.499 -97.5h717v-166h-950z" />
    <glyph glyph-name="three" unicode="3" horiz-adv-x="1127" 
d="M60 445l190.994 0.00195312c0 -45.333 6.33301 -87.333 19 -126s31.167 -71.834 55.5 -99.501s54.5 -49.334 90.5 -65.001s77.333 -23.5 124 -23.5c44.667 0 85.834 6.33301 123.501 19s69.834 30.667 96.501 54s47.334 51.666 62.001 84.999s22 71.333 22 114
c0 44.667 -7.5 83.5 -22.5 116.5s-35.667 60.833 -62 83.5s-57.833 39.5 -94.5 50.5s-75.667 16.5 -117 16.5c-20 0 -38.5 -0.666992 -55.5 -2s-33.833 -3 -50.5 -5v156h81c34.667 0 68.167 4.83301 100.5 14.5s60.333 24 84 43s42.5 42.667 56.5 71s21 61.5 21 99.5
s-6 71.5 -18 100.5s-29 53.333 -51 73s-48 34.334 -78 44.001s-63.667 14.5 -101 14.5c-45.333 0 -84.166 -8.83301 -116.499 -26.5s-58.833 -41 -79.5 -70s-36 -63 -46 -102s-15 -78.833 -15 -119.5h-189c1.33301 70 12 134.167 32 192.5s48.833 109.166 86.5 152.499
s83.834 77 138.501 101c54 24.667 117 37 189 37c63.333 0 122 -8.33301 176 -25s101 -41.5 141 -74.5s71.167 -74.5 93.5 -124.5s33.5 -108.667 33.5 -176c0 -31.333 -4.83301 -61.333 -14.5 -90s-22.5 -55.167 -38.5 -79.5s-35.5 -46.166 -58.5 -65.499
s-47.5 -37 -73.5 -53c41.333 -9.33301 77.333 -24.833 108 -46.5s56 -47.5 76 -77.5s35 -64 45 -102s15 -79.333 15 -124c0 -46 -6 -88.667 -18 -128s-28.167 -75 -48.5 -107s-44.666 -60.667 -72.999 -86s-58.5 -47 -90.5 -65c-18 -9.33301 -37.833 -17 -59.5 -23
s-44.167 -10.833 -67.5 -14.5s-47 -6.16699 -71 -7.5c-24.667 -0.666992 -48.667 -1 -72 -1c-72.667 0 -138.5 10.167 -197.5 30.5s-109.5 50.5 -151.5 90.5s-74.333 89.333 -97 148s-34 126 -34 202z" />
    <glyph glyph-name="four" unicode="4" horiz-adv-x="1127" 
d="M63 326v176l658 924h155v-933h194v-167h-194v-326h-182v326h-631zM245 493h449v608z" />
    <glyph glyph-name="five" unicode="5" horiz-adv-x="1127" 
d="M77 403l188.994 -0.00195312c4 -37.333 13.167 -71.666 27.5 -102.999s34 -58.5 59 -81.5s54.5 -41.333 88.5 -55s72.333 -20.5 115 -20.5c41.333 0 80 7 116 21s67.333 35 94 63s47.834 62.833 63.501 104.5s23.5 90.834 23.5 147.501
c0 46.667 -7.83301 89.5 -23.5 128.5s-37.167 72.5 -64.5 100.5s-60.333 50.333 -99 67c-39.333 16 -82.333 24 -129 24c-29.333 0 -55.666 -3.66699 -78.999 -11s-45.666 -16.833 -66.999 -28.5s-41 -25.834 -59 -42.501c-18.667 -16.667 -37 -34.667 -55 -54l-163 7
l134 756h724v-165h-581l-68 -391c16 16.667 34.333 30.667 55 42s41.834 20.5 63.501 27.5s44.5 12.333 68.5 16s47.667 5.5 71 5.5c66 0 127.333 -10.5 184 -31.5s106.167 -52.167 148.5 -93.5s75.5 -93 99.5 -155c24.667 -60.667 37 -133 37 -217
c0 -40.667 -4.66699 -81.167 -14 -121.5s-23.166 -78.333 -41.499 -114s-41.666 -68.5 -69.999 -98.5s-61.5 -56 -99.5 -78s-80.667 -39 -128 -51c-48 -12.667 -100.333 -19 -157 -19c-62 0 -120.333 9 -175 27s-102.834 44.833 -144.501 80.5
s-75.167 79.834 -100.5 132.501s-39.666 113 -42.999 181z" />
    <glyph glyph-name="six" unicode="6" horiz-adv-x="1127" 
d="M72 673c0 66 3.50195 131.5 10.502 196.5s18.833 126.167 35.5 183.5s38.667 110.333 66 159s60.666 90.5 99.999 125.5s85.5 62.667 138.5 83s114.5 30.5 184.5 30.5c60.667 0 114.834 -8.16699 162.501 -24.5s89 -40.833 124 -73.5s63.167 -72.667 84.5 -120
s35 -101.666 41 -162.999h-184c-8 66 -32.333 117.833 -73 155.5s-96 56.5 -166 56.5c-46 0 -86.333 -7.5 -121 -22.5s-64.167 -35.5 -88.5 -61.5s-44.166 -56.167 -59.499 -90.5s-28 -70.833 -38 -109.5s-16.833 -77.834 -20.5 -117.501s-6.5 -78.167 -8.5 -115.5
c19.333 27.333 41.666 51.666 66.999 72.999s53.166 39.333 83.499 54s62.166 26.167 95.499 34.5s68 12.5 104 12.5c71.333 0 134.5 -12.5 189.5 -37.5s101.5 -58.667 139.5 -101s67 -92.166 87 -149.499c20 -56.667 30 -118 30 -184c0 -36.667 -3.5 -74 -10.5 -112
s-18 -75.5 -33 -112.5s-35 -71.5 -60 -103.5s-55.5 -60.167 -91.5 -84.5s-78 -43.333 -126 -57s-102.667 -20.5 -164 -20.5c-72 0 -134.5 10.167 -187.5 30.5s-98 47.833 -135 82.5s-67 75 -90 121s-41 94.833 -54 146.5s-21.667 104.5 -26 158.5s-6.5 106.333 -6.5 157z
M286.002 456c0 -45.333 6.83203 -87.334 20.499 -126.001s33 -72 58 -100s55.667 -50 92 -66s77.833 -24 124.5 -24c44.667 0 84.5 8.33301 119.5 25s64.667 39 89 67s42.833 61 55.5 99s19 78 19 120c0 44.667 -5.83301 86.334 -17.5 125.001s-29.167 72.5 -52.5 101.5
s-52.666 51.833 -87.999 68.5s-77 25 -125 25c-46.667 0 -88.5 -8.33301 -125.5 -25s-67.833 -39 -92.5 -67s-43.667 -61.5 -57 -100.5s-20 -79.833 -20 -122.5z" />
    <glyph glyph-name="seven" unicode="7" horiz-adv-x="1127" 
d="M96 1250l-0.000976562 176h941v-156c-48.667 -46.667 -95.167 -100.167 -139.5 -160.5s-86.333 -125 -126 -194s-75.5 -141.5 -107.5 -217.5s-60.333 -153 -85 -231s-44.667 -156.667 -60 -236s-24.666 -156.333 -27.999 -231h-211c8 122.667 27.5 241.5 58.5 356.5
s70.5 225 118.5 330s104 204.667 168 299s134 182.5 210 264.5h-739z" />
    <glyph glyph-name="eight" unicode="8" horiz-adv-x="1127" 
d="M74 418c0 41.333 5.16992 80.8379 15.5029 118.505s25.333 71.5 45 101.5s44.167 57 73.5 81c30 22.667 64.333 42 103 58c-29.333 13.333 -55.333 30.666 -78 51.999s-41.834 45.166 -57.501 71.499s-27.834 54.666 -36.501 84.999s-13 60.833 -13 91.5
c0 61.333 11.667 115.166 35 161.499s54.833 85.166 94.5 116.499s85.334 55.166 137.001 71.499s105.167 24.5 160.5 24.5c78 0 145 -10.667 201 -32s102 -49.5 138 -84.5s62.333 -74.833 79 -119.5s25 -90.667 25 -138c0 -32 -4.5 -62.833 -13.5 -92.5
s-21.5 -57.167 -37.5 -82.5s-35.333 -48.166 -58 -68.499s-48.334 -38.166 -77.001 -53.499c38 -16 72.167 -35.833 102.5 -59.5s56.166 -50.834 77.499 -81.501s37.666 -64.5 48.999 -101.5s17 -76.833 17 -119.5c0 -71.333 -13 -134.5 -39 -189.5
s-60.833 -101 -104.5 -138s-95.167 -65.167 -154.5 -84.5s-121.666 -29 -186.999 -29c-70 0 -135 9.16699 -195 27.5s-112.333 46 -157 83s-80 83.333 -106 139s-39 119.5 -39 191.5zM269.003 412.005c0 -43.333 7.50098 -81.667 22.501 -115s35.833 -61.5 62.5 -84.5
s58.5 -40.833 95.5 -53.5s77.5 -19 121.5 -19c42.667 0 81.834 6.83301 117.501 20.5s66.167 32.667 91.5 57s44.666 53.166 57.999 86.499c13.333 32.667 20 69.667 20 111c0 36.667 -7.66699 71.5 -23 104.5s-36.166 61.5 -62.499 85.5s-57 42.833 -92 56.5
s-72.5 20.5 -112.5 20.5c-40.667 0 -79.334 -6.16699 -116.001 -18.5s-68.334 -30.166 -95.001 -53.499s-48 -51.833 -64 -85.5s-24 -71.167 -24 -112.5zM317.004 1067c0 -36.667 7.00195 -68.8301 21.002 -96.4971s32.667 -50.834 56 -69.501
s50.166 -32.834 80.499 -42.501s62.5 -14.5 96.5 -14.5c32.667 0 63.167 4.83301 91.5 14.5s52.666 24.167 72.999 43.5s36.5 43 48.5 71s18 59.333 18 94c0 36 -6 67.667 -18 95s-28.333 49.833 -49 67.5s-45.667 30.834 -75 39.501s-61 13 -95 13
c-31.333 0 -61.833 -4.33301 -91.5 -13s-56.167 -21.834 -79.5 -39.501s-42 -39.834 -56 -66.501s-21 -58.667 -21 -96z" />
    <glyph glyph-name="nine" unicode="9" horiz-adv-x="1127" 
d="M63 975c0 70 11.6689 134.336 35.002 193.003s56.166 108.834 98.499 150.501s92.666 74.167 150.999 97.5s122.5 35 192.5 35c46 0 90.333 -4.5 133 -13.5s82.5 -24 119.5 -45s70.833 -48.833 101.5 -83.5s56.667 -77.834 78 -129.501s38 -112.167 50 -181.5
s18 -150 18 -242c0 -125.333 -9.83301 -236.5 -29.5 -333.5s-50.167 -178.5 -91.5 -244.5s-93.833 -116 -157.5 -150s-139.5 -51 -227.5 -51c-60 0 -115.833 7.66699 -167.5 23s-96.667 38.666 -135 69.999s-69.5 71 -93.5 119s-39 104.667 -45 170h184
c3.33301 -34.667 12.333 -65.5 27 -92.5s33.334 -50 56.001 -69s49 -33.167 79 -42.5c28.667 -10 60.334 -15 95.001 -15c52.667 0 98.5 10.167 137.5 30.5s71.167 52 96.5 95s44.666 97.5 57.999 163.5c14 66.667 22 145.667 24 237
c-16.667 -28.667 -37 -53.834 -61 -75.501s-50 -40.334 -78 -56.001s-58 -27.5 -90 -35.5c-32.667 -7.33301 -65.334 -11 -98.001 -11c-75.333 0 -141.5 12.167 -198.5 36.5s-104.833 57.833 -143.5 100.5s-68 93.667 -88 153s-30 125 -30 197zM260.002 952.003
c0 -38 6.83008 -74.998 20.4971 -110.998s32.334 -67.833 56.001 -95.5s52.334 -49.834 86.001 -66.501s70.834 -25 111.501 -25c45.333 0 86 8.33301 122 25s66.167 39 90.5 67s43 60.833 56 98.5s19.5 77.5 19.5 119.5c0 44.667 -6.16699 86 -18.5 124
s-30.666 71.5 -54.999 100.5s-54.166 51.833 -89.499 68.5c-36.667 16.667 -78.334 25 -125.001 25c-51.333 0 -94.333 -8.83301 -129 -26.5s-62.834 -41.834 -84.501 -72.501s-37.167 -66.167 -46.5 -106.5s-14 -81.833 -14 -124.5z" />
    <glyph glyph-name="colon" unicode=":" horiz-adv-x="562" 
d="M161 0v239h239v-239h-239zM161 822v239h239v-239h-239z" />
    <glyph glyph-name="semicolon" unicode=";" horiz-adv-x="562" 
d="M161 0l0.00195312 239.001h239v-213c0 -38.667 -4.33301 -75 -13 -109s-22.5 -64.667 -41.5 -92s-43.333 -51.666 -73 -72.999s-65.834 -38.333 -108.501 -51v117c22 7.33301 40.5 18.166 55.5 32.499s27.167 29.666 36.5 45.999s16.166 33.833 20.499 52.5
s6.5 35.667 6.5 51h-122zM161.002 822.001v239h239v-239h-239z" />
    <glyph glyph-name="less" unicode="&#x3c;" horiz-adv-x="1216" 
d="M85 482v146l1045 470v-159l-853 -386l853 -384v-154z" />
    <glyph glyph-name="equal" unicode="=" horiz-adv-x="1216" 
d="M91 269v153h1033v-153h-1033zM91 676v153h1033v-153h-1033z" />
    <glyph glyph-name="greater" unicode="&#x3e;" horiz-adv-x="1216" 
d="M85 15v154l851 384l-851 386v159l1045 -470v-146z" />
    <glyph glyph-name="question" unicode="?" horiz-adv-x="1127" 
d="M105 996c-2 70.667 7.49902 136.498 28.499 197.498s51.667 113.833 92 158.5s89.5 79.667 147.5 105s122 38 192 38c64 0 122.667 -9.16699 176 -27.5s98.833 -45.333 136.5 -81s67.334 -79 89.001 -130s32.5 -108.833 32.5 -173.5c0 -42.667 -5.83301 -81 -17.5 -115
s-26.334 -65.167 -44.001 -93.5s-37.167 -54.166 -58.5 -77.499s-42.333 -44.666 -63 -63.999l-61 -61c-19.333 -20 -36.666 -41.667 -51.999 -65s-27.833 -48.833 -37.5 -76.5s-14.5 -58.834 -14.5 -93.501v-84h-184v103c2 40.667 8.66699 77.5 20 110.5
s25.666 63.167 42.999 90.5s36.666 52 57.999 74c20.667 22.667 41.667 44.334 63 65.001c16.667 17.333 34.5 37 53.5 59s36.333 45.667 52 71s28.334 52.5 38.001 81.5s13.834 60.167 12.501 93.5c-2.66699 36 -10.167 68.333 -22.5 97s-28.666 53 -48.999 73
s-44.833 35.5 -73.5 46.5s-61 16.5 -97 16.5c-48.667 0 -90.334 -9.16699 -125.001 -27.5s-63.167 -42.833 -85.5 -73.5s-38.833 -66.5 -49.5 -107.5s-16 -84.167 -16 -129.5h-184zM436.999 -0.00195312v239h236v-239h-236z" />
    <glyph glyph-name="at" unicode="@" horiz-adv-x="1620" 
d="M77 736c0 70 9.00488 137.669 27.0049 203.002s43.833 126.166 77.5 182.499s73.667 107.333 120 153s97.666 85 153.999 118s116.666 58.333 180.999 76s131.5 26.5 201.5 26.5c62 0 122.5 -7 181.5 -21s114.333 -34.167 166 -60.5s98.667 -58.333 141 -96
s79 -79.834 110 -126.501s54.833 -97.5 71.5 -152.5s25 -113.167 25 -174.5c0 -58 -7.33301 -113.167 -22 -165.5s-34.334 -100.5 -59.001 -144.5s-53.334 -83.5 -86.001 -118.5s-67 -64.667 -103 -89s-72.5 -43.333 -109.5 -57s-71.5 -20.5 -103.5 -20.5
c-35.333 0 -64.333 10 -87 30c-22.667 18.667 -40 49.334 -52 92.001c-15.333 -16.667 -32 -32.5 -50 -47.5s-37.5 -28.5 -58.5 -40.5s-43.167 -21.667 -66.5 -29s-47.666 -11 -72.999 -11c-42.667 0 -82 8.66699 -118 26s-67.167 40.666 -93.5 69.999s-46.833 64 -61.5 104
s-22 83.333 -22 130s5.33301 93.5 16 140.5s25.667 92.167 45 135.5s43.166 83.5 71.499 120.5s60.5 69.5 96.5 97.5s75.5 49.667 118.5 65s88.833 23 137.5 23c23.333 0 46.166 -2.33301 68.499 -7s43.166 -13.167 62.499 -25.5s37.333 -28.5 54 -48.5
c16.667 -20.667 30.667 -45.667 42 -75l38 117h143l-172 -588c-2.66699 -10 -6.66699 -23.5 -12 -40.5s-8.5 -34.333 -9.5 -52s1.33301 -32.834 7 -45.501s17.5 -19 35.5 -19c19.333 0 39.666 6.66699 60.999 20s42.166 31.166 62.499 53.499s39.833 48.333 58.5 78
s34.834 61.5 48.501 95.5s24.167 69.333 31.5 106c8 37.333 12 73.666 12 108.999c0 54 -6.83301 104 -20.5 150s-33.167 88.167 -58.5 126.5s-55 72.333 -89 102s-71 54.667 -111 75s-82.667 35.833 -128 46.5c-44 10.667 -89.333 16 -136 16
c-58.667 0 -114.167 -7.66699 -166.5 -23s-101.166 -37.166 -146.499 -65.499s-86.333 -62 -123 -101s-68 -82.333 -94 -130s-45.833 -99.167 -59.5 -154.5s-20.5 -112.333 -20.5 -171c0 -59.333 7.16699 -116.166 21.5 -170.499s35 -105.166 62 -152.499
s59.167 -90 96.5 -128s79.166 -70.667 125.499 -98s95.833 -48.333 148.5 -63c53.333 -14 108.333 -21 165 -21c47.333 0 94.666 5.33301 141.999 16s92.333 26.667 135 48s83 47 121 77s71.667 64.667 101 104h146c-36 -59.333 -77.667 -111.666 -125 -156.999
s-98.666 -83.5 -153.999 -114.5s-114.166 -54.333 -176.499 -70s-126.5 -23.5 -192.5 -23.5c-72 0 -141.167 8.66699 -207.5 26s-127.666 42.166 -183.999 74.499s-107.833 71.5 -154.5 117.5s-86.667 97.5 -120 154.5s-59 118.333 -77 184s-27 135.167 -27 208.5z
M534.005 604.002c0 -26.667 4 -51.834 12 -75.501s19.333 -43.667 34 -60s32.334 -29.5 53.001 -39.5c22 -9.33301 45.667 -14 71 -14c27.333 0 54 6.83301 80 20.5s50.333 31.667 73 54s43.167 48 61.5 77s34.166 59.167 47.499 90.5s23.5 63 30.5 95s10.5 61.667 10.5 89
c0 23.333 -4.33301 46.166 -13 68.499s-20 42 -34 59s-30.333 30.667 -49 41s-38 15.5 -58 15.5c-32.667 0 -63 -6.33301 -91 -19s-53.667 -29.667 -77 -51s-44.333 -46.166 -63 -74.499s-34.5 -58 -47.5 -89s-23 -62.667 -30 -95s-10.5 -63.166 -10.5 -92.499z" />
    <glyph glyph-name="A" unicode="A" horiz-adv-x="1315" 
d="M-15 0l558 1460h228l566 -1460h-233l-156 437h-589l-162 -437h-212zM425 607h457l-231 652z" />
    <glyph glyph-name="B" unicode="B" horiz-adv-x="1389" 
d="M158 0l-0.00195312 1460h518c31.333 0 64.666 -0.5 99.999 -1.5s70.833 -3.5 106.5 -7.5s69.334 -9.33301 101.001 -16s57.5 -16.667 77.5 -30c22.667 -16 44.5 -34.167 65.5 -54.5s39.5 -43 55.5 -68s28.833 -52.833 38.5 -83.5s14.5 -63.334 14.5 -98.001
c0 -78 -16.333 -144.333 -49 -199c-33.333 -54 -83 -96.667 -149 -128c42.667 -12 80.334 -28.667 113.001 -50s59.834 -47 81.501 -77s38.167 -64 49.5 -102s17 -79 17 -123c0 -52.667 -9.66699 -104 -29 -154s-47.833 -95 -85.5 -135s-84.167 -72.167 -139.5 -96.5
s-119 -36.5 -191 -36.5h-695zM361.998 174.001l462.997 -0.000976562c42.667 0 80.834 5.83301 114.501 17.5s62.167 28.334 85.5 50.001s40.833 48.667 52.5 81s17.5 68.5 17.5 108.5c0 45.333 -9.16699 82.833 -27.5 112.5s-42.166 53 -71.499 70s-62.333 29.167 -99 36.5
c-37.333 6.66699 -74.666 10 -111.999 10h-423v-486zM361.995 838l367.998 -0.000976562c54.667 0 101 4.33301 139 13s69.167 22.334 93.5 41.001s42.333 42 54 70s17.5 61 17.5 99c0 34.667 -3.66699 64.167 -11 88.5s-17.666 44.5 -30.999 60.5s-29.5 28.833 -48.5 38.5
s-39.833 17.167 -62.5 22.5s-46.667 8.5 -72 9.5s-51.666 1.5 -78.999 1.5h-368v-444z" />
    <glyph glyph-name="C" unicode="C" horiz-adv-x="1464" 
d="M88 724c0 72 6.33301 140.828 19 206.495s32 127 58 184s58.333 108.833 97 155.5s83.334 86.667 134.001 120s107.334 59.166 170.001 77.499s131 27.5 205 27.5c76.667 0 148.834 -10.5 216.501 -31.5s127.5 -51.667 179.5 -92s95.5 -90.666 130.5 -150.999
s58.833 -129.5 71.5 -207.5h-207c-9.33301 50.667 -25.5 95.5 -48.5 134.5s-51.833 71.167 -86.5 96.5s-73.834 44.5 -117.501 57.5s-90.834 19.5 -141.501 19.5c-55.333 0 -105.5 -7.5 -150.5 -22.5s-85.167 -35.667 -120.5 -62s-66.166 -58 -92.499 -95
s-47.833 -76.833 -64.5 -119.5s-29.334 -88.167 -38.001 -136.5s-13 -97.166 -13 -146.499c0 -82 9.5 -159 28.5 -231s48.167 -135.167 87.5 -189.5s89.166 -97.666 149.499 -129.999s132.5 -48.5 216.5 -48.5c62 0 117.333 10.667 166 32s90.334 50.5 125.001 87.5
s61.667 80.833 81 131.5s31 105.667 35 165h203c-8.66699 -93.333 -28.5 -176.166 -59.5 -248.499s-72.833 -133.333 -125.5 -183s-115.834 -87.667 -189.501 -114s-157.167 -39.5 -250.5 -39.5c-112 0 -209.833 19.167 -293.5 57.5s-153.5 91.333 -209.5 159
s-97.5 147.334 -124.5 239.001s-40.5 190.834 -40.5 297.501z" />
    <glyph glyph-name="D" unicode="D" horiz-adv-x="1429" 
d="M158 0v1460h490c112 0 211.5 -14.333 298.5 -43s160.333 -72 220 -130s105 -130.333 136 -217s46.5 -188.334 46.5 -305.001c0 -122.667 -13.667 -231.5 -41 -326.5s-69.166 -174.833 -125.499 -239.5s-128.833 -114 -217.5 -148s-194.334 -51 -317.001 -51h-490z
M362 174.001l301 0.00292969c15.333 0 34.5 0.666992 57.5 2s47.333 5.16602 73 11.499s52.167 15.166 79.5 26.499s54.166 26.166 80.499 44.499s51.333 41.333 75 69s44.334 60.834 62.001 99.501s31.667 83.5 42 134.5s15.5 109.167 15.5 174.5
c0 87.333 -8.33301 165.166 -25 233.499s-44 125.5 -82 171.5s-87.333 81 -148 105s-135 36 -223 36h-308v-1108z" />
    <glyph glyph-name="E" unicode="E" horiz-adv-x="1238" 
d="M158 0v1460h1001v-178h-797v-444h742v-178h-742v-486h800v-174h-1004z" />
    <glyph glyph-name="F" unicode="F" horiz-adv-x="1162" 
d="M158 0v1460h952v-178h-748v-444h651v-178h-651v-660h-204z" />
    <glyph glyph-name="G" unicode="G" horiz-adv-x="1538" 
d="M88 704c0 70 6.32715 138.005 18.9941 204.005s31.5 128.333 56.5 187s56.833 112.5 95.5 161.5s83.5 91.333 134.5 127s108.667 63.167 173 82.5s134.5 29 210.5 29c76.667 0 150.334 -9.16699 221.001 -27.5s134 -47.5 190 -87.5s102.167 -91.667 138.5 -155
s59.5 -138.666 69.5 -225.999h-200c-10 56 -27.667 104.167 -53 144.5s-56.5 73.666 -93.5 99.999s-78.5 45.833 -124.5 58.5s-95.333 19 -148 19c-57.333 0 -109.166 -8 -155.499 -24s-87.5 -38.167 -123.5 -66.5s-67.167 -61.333 -93.5 -99s-47.833 -79.167 -64.5 -124.5
s-29.334 -93 -38.001 -143c-8.66699 -48.667 -13 -98.334 -13 -149.001s4.83301 -99.834 14.5 -147.501s23.834 -92.834 42.501 -135.501s41.667 -81.834 69 -117.501s59 -66.334 95 -92.001s76.333 -45.834 121 -60.501s93.334 -22 146.001 -22
c46.667 0 90.834 5.33301 132.501 16s79.667 25.834 114 45.501s64.5 43 90.5 70s47.833 57.667 65.5 92s30.834 71.166 39.501 110.499c7.33301 32.667 11 66.334 11 101.001c0 8 -0.333008 16 -1 24h-458v175h642v-774h-134l-47 169
c-29.333 -34.667 -61.5 -64.667 -96.5 -90s-72.333 -45.833 -112 -61.5s-80.5 -27.334 -122.5 -35.001s-83.333 -11.5 -124 -11.5c-72 0 -139.167 9 -201.5 27s-118.833 43.333 -169.5 76s-96 71.5 -136 116.5s-73.667 94.5 -101 148.5s-47.666 112 -60.999 174
c-13.333 62.667 -20 126.334 -20 191.001z" />
    <glyph glyph-name="H" unicode="H" horiz-adv-x="1464" 
d="M158 0v1460h204v-622h742v622h203v-1460h-203v660h-742v-660h-204z" />
    <glyph glyph-name="I" unicode="I" horiz-adv-x="562" 
d="M177 0v1460h208v-1460h-208z" />
    <glyph glyph-name="J" unicode="J" horiz-adv-x="1052" 
d="M41 391l0.00195312 100.001h210v-69c0 -40.667 3 -78.334 9 -113.001s16.667 -64.5 32 -89.5s37.666 -44.5 66.999 -58.5s67.333 -21 114 -21c42 0 76.833 6.16699 104.5 18.5s49.834 29.333 66.501 51s28.667 48.167 36 79.5s11 66.333 11 105v1066h203v-1092
c0 -35.333 -3 -69.5 -9 -102.5s-15.333 -64.167 -28 -93.5s-30 -56.333 -52 -81s-48.833 -46 -80.5 -64s-68.834 -31.833 -111.501 -41.5s-91.334 -14.5 -146.001 -14.5c-138 0 -243.5 35.5 -316.5 106.5s-109.5 175.5 -109.5 313.5z" />
    <glyph glyph-name="K" unicode="K" horiz-adv-x="1350" 
d="M158 0v1460h204v-715l718 715h260l-616 -590l640 -870h-260l-517 727l-225 -213v-514h-204z" />
    <glyph glyph-name="L" unicode="L" horiz-adv-x="1115" 
d="M158 0v1460h204v-1286h753v-174h-957z" />
    <glyph glyph-name="M" unicode="M" horiz-adv-x="1757" 
d="M158 0v1460h290l428 -1218l431 1218h293v-1460h-204v1206l-432 -1206h-168l-434 1209v-1209h-204z" />
    <glyph glyph-name="N" unicode="N" horiz-adv-x="1470" 
d="M158 0v1460h233l719 -1188v1188h203v-1460h-236l-715 1178v-1178h-204z" />
    <glyph glyph-name="O" unicode="O" horiz-adv-x="1543" 
d="M77 730c0 66 6.33301 131 19 195s32 124.333 58 181s58 108.834 96 156.501s82.5 88.667 133.5 123s108.5 61.166 172.5 80.499c63.333 19.333 134 29 212 29s149.333 -9.66699 214 -29s122.834 -46.166 174.501 -80.499s96.667 -75.333 135 -123
s70.333 -99.834 96 -156.501s45.167 -117 58.5 -181s20 -129 20 -195s-6.66699 -131.167 -20 -195.5s-32.833 -124.5 -58.5 -180.5s-57.667 -107.667 -96 -155s-83.333 -88 -135 -122s-109.834 -60.167 -174.501 -78.5s-136 -27.5 -214 -27.5s-148.833 9.16699 -212.5 27.5
s-121 44.5 -172 78.5s-95.5 74.667 -133.5 122s-70 99 -96 155s-45.333 116.167 -58 180.5s-19 129.5 -19 195.5zM280 730c0 -48.667 4.16602 -96.835 12.499 -144.502s21 -93.334 38 -137.001s38.5 -84.334 64.5 -122.001s57.167 -70.334 93.5 -98.001
s77.5 -49.167 123.5 -64.5c45.333 -16 97.333 -24 156 -24s111.834 7.83301 159.501 23.5s89.667 37.334 126 65.001s67.666 60.334 93.999 98.001s48 78.334 65 122.001s29.333 89.334 37 137.001s11.5 95.834 11.5 144.501s-3.83301 96.834 -11.5 144.501
s-20 93.334 -37 137.001s-38.667 84.5 -65 122.5s-57.666 70.667 -93.999 98s-78.166 49 -125.499 65c-48 16 -101.333 24 -160 24s-110.834 -8 -156.501 -24s-86.667 -37.667 -123 -65s-67.5 -60 -93.5 -98s-47.5 -78.833 -64.5 -122.5s-29.667 -89.334 -38 -137.001
s-12.5 -95.834 -12.5 -144.501z" />
    <glyph glyph-name="P" unicode="P" horiz-adv-x="1315" 
d="M158 0l0.000976562 1460h627c75.333 0 141 -9.66699 197 -29s103 -47.5 141 -84.5s66 -82.5 84 -136.5c18.667 -55.333 28 -117 28 -185s-9.16699 -128.833 -27.5 -182.5s-46.5 -99 -84.5 -136s-85 -65.167 -141 -84.5c-50.667 -17.333 -109.334 -26 -176.001 -26h-21
h-423v-596h-204zM362.001 768h359h14c100.667 0 175 21.333 223 64c50.667 44.667 76 109 76 193c0 83.333 -25.333 147 -76 191s-129.667 66 -237 66h-359v-514z" />
    <glyph glyph-name="Q" unicode="Q" horiz-adv-x="1543" 
d="M77 730c0 66 6.33301 131 19 195s32 124.333 58 181s58 108.834 96 156.501s82.5 88.667 133.5 123s108.5 61.166 172.5 80.499c63.333 19.333 134 29 212 29s149.333 -9.66699 214 -29s122.834 -46.166 174.501 -80.499s96.667 -75.333 135 -123
s70.333 -99.834 96 -156.501s45.167 -117 58.5 -181s20 -129 20 -195c0 -54.667 -4.33301 -108.167 -13 -160.5s-21.834 -102.833 -39.501 -151.5s-39.167 -94.5 -64.5 -137.5s-55.333 -82.833 -90 -119.5l201 -158l-108 -131l-231 185c-49.333 -29.333 -103 -51 -161 -65
s-122 -21 -192 -21c-78 0 -148.833 9.16699 -212.5 27.5s-121 44.5 -172 78.5s-95.5 74.667 -133.5 122s-70 99 -96 155s-45.333 116 -58 180c-12.667 64.667 -19 130 -19 196zM280 730c0 -48.667 4.16602 -96.8301 12.499 -144.497s21 -93.334 38 -137.001
s38.5 -84.334 64.5 -122.001s57.167 -70.334 93.5 -98.001s77.5 -49.167 123.5 -64.5c45.333 -16 97.333 -24 156 -24c38.667 0 74.667 3.16699 108 9.5s64.333 16.5 93 30.5l-150 122l108 126l183 -148c26.667 28.667 49.5 60.5 68.5 95.5s34.667 71.667 47 110
s21.333 78 27 119s8.5 82.833 8.5 125.5c0 48.667 -3.83301 96.834 -11.5 144.501s-20 93.334 -37 137.001s-38.667 84.5 -65 122.5s-57.666 70.667 -93.999 98s-78.166 49 -125.499 65c-48 16 -101.333 24 -160 24s-110.834 -8 -156.501 -24s-86.667 -37.667 -123 -65
s-67.5 -60 -93.5 -98s-47.5 -78.833 -64.5 -122.5s-29.667 -89.334 -38 -137.001s-12.5 -95.834 -12.5 -144.501z" />
    <glyph glyph-name="R" unicode="R" horiz-adv-x="1389" 
d="M158 0v1460h677c70 0 132.5 -8.83301 187.5 -26.5s101.833 -43 140.5 -76s67.667 -73.5 87 -121.5s29 -102.333 29 -163c0 -42.667 -4.16699 -83.5 -12.5 -122.5s-22 -74.333 -41 -106s-43 -59.667 -72 -84s-64.5 -43.166 -106.5 -56.499
c40.667 -10 73.167 -24.667 97.5 -44s43.5 -42.166 57.5 -68.499s24 -55.5 30 -87.5s11 -65.667 15 -101l6 -80c2 -29.333 4.33301 -59.333 7 -90s7 -60.167 13 -88.5s14 -55.166 24 -80.499c11.333 -25.333 25.666 -46.666 42.999 -63.999h-222
c-16 19.333 -28.667 46.5 -38 81.5s-14.666 74.5 -15.999 118.5c-2 25.333 -3.66699 51.833 -5 79.5s-4.33301 56.167 -9 85.5c-6 33.333 -12.667 65.5 -20 96.5s-19.333 58.167 -36 81.5s-39 41.833 -67 55.5s-65 20.5 -111 20.5h-454v-619h-204zM362 787.996h386
c42.667 0 83.667 4 123 12s74.333 21.667 105 41s55.167 45.5 73.5 78.5s27.5 75.5 27.5 127.5c0 34.667 -5 66.5 -15 95.5s-25.5 53.833 -46.5 74.5s-47.5 36.667 -79.5 48s-70 17 -114 17h-460v-494z" />
    <glyph glyph-name="S" unicode="S" horiz-adv-x="1315" 
d="M77 491l191.999 0.00292969c0 -62.667 11.167 -115.834 33.5 -159.501s52 -79.667 89 -108s80.333 -49.333 130 -63s102.167 -20.5 157.5 -20.5c29.333 0 58.333 1.66699 87 5s56.167 8.66602 82.5 15.999s51.166 17.333 74.499 30s43.166 28.834 59.499 48.501
s29.5 42.167 39.5 67.5s15 55.333 15 90c0 44.667 -11 81.667 -33 111s-51.833 53.666 -89.5 72.999s-80.834 35.333 -129.501 48l-151 34l-125 29c-41.333 10 -81.333 21.833 -120 35.5s-74.167 30.167 -106.5 49.5s-60.666 42.166 -84.999 68.499s-43.333 57.5 -57 93.5
s-20.5 77.667 -20.5 125c0 48.667 6.83301 93.5 20.5 134.5s32.334 77.333 56.001 109s52 59.334 85 83.001s69 43.167 108 58.5s80.167 26.833 123.5 34.5s87.333 11.5 132 11.5c74 0 143.167 -9.16699 207.5 -27.5s119.833 -46.5 166.5 -84.5s83.834 -86.667 111.501 -146
s43.5 -130 47.5 -212h-194c-6 52.667 -18 97.667 -36 135s-41.833 68 -71.5 92s-64.667 41.5 -105 52.5s-85.166 16.5 -134.499 16.5c-39.333 0 -77.666 -4.16699 -114.999 -12.5s-70.833 -21.666 -100.5 -39.999s-53.5 -43 -71.5 -74s-27 -69.167 -27 -114.5
c0 -38 10 -69.833 30 -95.5s47 -47.167 81 -64.5s73.333 -32 118 -44s92 -22.667 142 -32l129 -29.5c43.333 -9.66699 85.333 -21.834 126 -36.501s78.5 -32.167 113.5 -52.5s65.667 -45.333 92 -75s46.833 -64.667 61.5 -105s22 -87.833 22 -142.5
c0 -52.667 -7.83301 -99.834 -23.5 -141.501s-36.834 -78.667 -63.501 -111s-58.167 -59.833 -94.5 -82.5s-75.5 -41.167 -117.5 -55.5s-85.667 -24.833 -131 -31.5s-90.333 -10 -135 -10c-82 0 -159.167 9.66699 -231.5 29s-135.5 50 -189.5 92s-96.667 96 -128 162
s-47 145 -47 237z" />
    <glyph glyph-name="T" unicode="T" horiz-adv-x="1169" 
d="M6 1282v178h1153v-178h-477v-1282h-203v1282h-473z" />
    <glyph glyph-name="U" unicode="U" horiz-adv-x="1483" 
d="M158 529l0.000976562 931.001h204v-931c0 -259.333 130.333 -389 391 -389c245.333 0 368 129.667 368 389v931h205v-931c0 -94 -12.667 -175.667 -38 -245s-62.333 -127.5 -111 -174.5s-108.5 -81.833 -179.5 -104.5s-152.5 -34 -244.5 -34
c-94 0 -177.833 10.667 -251.5 32s-135.834 54.833 -186.501 100.5s-89.5 103.667 -116.5 174s-40.5 154.166 -40.5 251.499z" />
    <glyph glyph-name="V" unicode="V" horiz-adv-x="1238" 
d="M-3 1460h222l406 -1235l406 1235h216l-514 -1460h-228z" />
    <glyph glyph-name="W" unicode="W" horiz-adv-x="1877" 
d="M23 1460h211l283 -1186l308 1186h225l311 -1188l289 1188h204l-388 -1460h-213l-323 1196l-323 -1196h-210z" />
    <glyph glyph-name="X" unicode="X" horiz-adv-x="1238" 
d="M-6 0l499 750l-473 710h246l353 -564l368 564h231l-479 -710l508 -750h-251l-380 590l-391 -590h-231z" />
    <glyph glyph-name="Y" unicode="Y" horiz-adv-x="1315" 
d="M0 1460h242l424 -683l417 683h232l-553 -861v-599h-206v599z" />
    <glyph glyph-name="Z" unicode="Z" horiz-adv-x="1238" 
d="M41 0v169l886 1113h-813v178h1058v-175l-876 -1111h903v-174h-1158z" />
    <glyph glyph-name="bracketleft" unicode="[" horiz-adv-x="531" 
d="M137 -397v1892h394v-149h-214v-1594h214v-149h-394z" />
    <glyph glyph-name="backslash" unicode="\" horiz-adv-x="675" 
d="M-41 1495h158l604 -1524h-165z" />
    <glyph glyph-name="bracketright" unicode="]" horiz-adv-x="531" 
d="M0 -248h216v1594h-216v149h388v-1892h-388v149z" />
    <glyph glyph-name="asciicircum" unicode="^" horiz-adv-x="1216" 
d="M91 534l446 892h139l445 -892h-149l-365 722l-356 -722h-160z" />
    <glyph glyph-name="underscore" unicode="_" horiz-adv-x="1024" 
d="M0 -137h1025v-117h-1025v117z" />
    <glyph glyph-name="grave" unicode="`" horiz-adv-x="448" 
d="M-54 1495h234l182 -302h-143z" />
    <glyph glyph-name="a" unicode="a" horiz-adv-x="1087" 
d="M72 274c0 41.333 4.50293 77.002 13.5029 107.002s21.5 56.167 37.5 78.5s35 40.833 57 55.5s46.167 27.167 72.5 37.5s53.666 19.166 81.999 26.499s57.5 14 87.5 20l70.5 11c25.667 4 51.167 8.5 76.5 13.5s50.166 10.333 74.499 16s45.833 13.334 64.5 23.001
s33.334 21.834 44.001 36.501s16 31.667 16 51c0 37.333 -6.5 67.166 -19.5 89.499s-30 39.333 -51 51s-45.167 19.667 -72.5 24s-54.666 6.5 -81.999 6.5c-34.667 0 -66.667 -3.16699 -96 -9.5s-55 -16.833 -77 -31.5s-39.5 -35 -52.5 -61s-20.167 -58.667 -21.5 -98h-185
c2 67.333 15.333 124.166 40 170.499s57.5 84 98.5 113s88 49.833 141 62.5s109.167 19 168.5 19c31.333 0 62.833 -1.5 94.5 -4.5s62 -8.5 91 -16.5s56.167 -19.167 81.5 -33.5s47.833 -32.333 67.5 -54s34.834 -47.834 45.501 -78.501s16 -67.667 16 -111v-537v-49.5
c0 -13.667 1.5 -25.167 4.5 -34.5s7.66699 -16.166 14 -20.499s15.833 -6.5 28.5 -6.5c5.33301 0 13.166 1 23.499 3s22.166 6 35.499 12v-143c-16 -12 -34.5 -20.833 -55.5 -26.5s-45.167 -8.5 -72.5 -8.5c-21.333 0 -41.5 3.33301 -60.5 10s-35.333 16.834 -49 30.501
s-24.334 30.667 -32.001 51s-11.5 44.166 -11.5 71.499c-20.667 -27.333 -44.167 -51.166 -70.5 -71.499s-55 -37.333 -86 -51s-63.667 -23.834 -98 -30.501s-68.833 -10 -103.5 -10c-48.667 0 -94.167 5.33301 -136.5 16s-79.333 28.167 -111 52.5
s-56.834 55.166 -75.501 92.499c-18 36.667 -27 82 -27 136zM263.003 286.002c0 -27.333 5.33301 -50.166 16 -68.499s25.167 -33.333 43.5 -45s39.5 -20 63.5 -25s49 -7.5 75 -7.5c56 0 103.167 7.83301 141.5 23.5s69.833 34.667 94.5 57s42.667 47.166 54 74.499
s17 52.666 17 75.999v172c-15.333 -9.33301 -34 -17.5 -56 -24.5s-46.333 -13 -73 -18s-54.5 -9.33301 -83.5 -13s-57.333 -8.66699 -85 -15s-54.167 -14.166 -79.5 -23.499s-47.5 -21 -66.5 -35s-34 -31.5 -45 -52.5s-16.5 -46.167 -16.5 -75.5z" />
    <glyph glyph-name="b" unicode="b" horiz-adv-x="1201" 
d="M128 0v1460h186v-533c36 54.667 82 95 138 121c54.667 25.333 117 38 187 38c54 0 103.667 -7.33301 149 -22s86 -34.334 122 -59.001s67.5 -54.334 94.5 -89.001s49.833 -72.667 68.5 -114s32.334 -85 41.001 -131s13 -93.333 13 -142
c0 -76 -10.167 -147.667 -30.5 -215s-50.5 -126 -90.5 -176s-90.167 -89.333 -150.5 -118s-130.5 -43 -210.5 -43c-25.333 0 -52.833 2.16699 -82.5 6.5s-59.334 12.333 -89.001 24s-58.5 27.167 -86.5 46.5s-52.333 44 -73 74v-128h-186zM305 531.002
c0 -50 5.66895 -98.501 17.002 -145.501s29.833 -88.667 55.5 -125s59.167 -65.5 100.5 -87.5s91.333 -33 150 -33c57.333 0 105.166 11.5 143.499 34.5s69.166 53.167 92.499 90.5s40.166 79.833 50.499 127.5s15.5 96.834 15.5 147.501c0 46.667 -5.83301 93 -17.5 139
s-30.167 87 -55.5 123s-57.666 64.833 -96.999 86.5s-87.333 32.5 -144 32.5s-104.834 -11.333 -144.501 -34s-71.667 -52.5 -96 -89.5s-42.166 -78.833 -53.499 -125.5s-17 -93.667 -17 -141z" />
    <glyph glyph-name="c" unicode="c" horiz-adv-x="1087" 
d="M72 517c0 78 9.83008 151.668 29.4971 221.001s50 129.666 91 180.999s92.667 92 155 122s135.833 45 220.5 45c60 0 116.167 -7.66699 168.5 -23s98.833 -38.333 139.5 -69s73.667 -69.667 99 -117s41 -102.333 47 -165h-187c-13.333 68.667 -40.5 120.667 -81.5 156
s-97.5 53 -169.5 53c-61.333 0 -112.666 -11.167 -153.999 -33.5s-74.166 -52.166 -98.499 -89.499s-41.833 -80.333 -52.5 -129s-16 -99.334 -16 -152.001c0 -32 2.33301 -63.333 7 -94s12.167 -60.167 22.5 -88.5s23.5 -54.166 39.5 -77.499s35 -43.833 57 -61.5
s47.333 -31.334 76 -41.001s61 -14.5 97 -14.5c84 0 148.333 22 193 66c45.333 44 74 106.667 86 188h190c-12 -66 -30.167 -124.833 -54.5 -176.5s-56 -95.5 -95 -131.5s-84.667 -63.167 -137 -81.5s-113.166 -27.5 -182.499 -27.5c-82 0 -153.333 13.333 -214 40
s-111.5 64 -152.5 112s-71.833 105.167 -92.5 171.5s-31 138.5 -31 216.5z" />
    <glyph glyph-name="d" unicode="d" horiz-adv-x="1198" 
d="M72 534c0 75.333 9.83105 146.332 29.498 212.999s49.5 125.334 89.5 176.001s89.667 90.5 149 119.5s129.333 43.5 210 43.5c29.333 0 59.333 -2.83301 90 -8.5s60.834 -14.334 90.501 -26.001s58 -27.834 85 -48.501s50.167 -46 69.5 -76v533h185v-1460h-185l-3 128
c-16.667 -23.333 -36.667 -44.666 -60 -63.999s-49.166 -35.333 -77.499 -48s-58.333 -22.334 -90 -29.001s-64.5 -10 -98.5 -10c-54.667 0 -104.5 6.83301 -149.5 20.5s-85.5 32.667 -121.5 57s-67.167 53.5 -93.5 87.5s-48.5 71.833 -66.5 113.5
s-31.333 85.834 -40 132.501s-13 95.334 -13 146.001zM262.998 519.999c0 -48 6.33398 -94.6699 19.001 -140.003s31.667 -85.666 57 -120.999s57.833 -64 97.5 -86s87.834 -33 144.501 -33c38.667 0 73 5.33301 103 16s56.333 25 79 43s42.334 39.5 59.001 64.5
s30 51.833 40 80.5s17.333 58.834 22 90.501s7 63.167 7 94.5c0 34 -2.5 67.167 -7.5 99.5s-12.833 63.166 -23.5 92.499s-24.834 56.166 -42.501 80.499s-38.167 45.333 -61.5 63s-50.5 31.5 -81.5 41.5s-65.5 15 -103.5 15c-57.333 0 -105.833 -11.167 -145.5 -33.5
s-71.334 -52.166 -95.001 -89.499s-40.834 -80.166 -51.501 -128.499s-16 -98.166 -16 -149.499z" />
    <glyph glyph-name="e" unicode="e" horiz-adv-x="1087" 
d="M72 534c0 80 11.8301 153.665 35.4971 220.998s57.334 125.333 101.001 174s95.834 87 156.501 115s127.334 42 200.001 42c64 0 120.167 -9.16699 168.5 -27.5s90.5 -43.333 126.5 -75s66.167 -68 90.5 -109s43.333 -84.167 57 -129.5s23.167 -91.333 28.5 -138
c5.33301 -42 8 -81.333 8 -118v-13h-781c0 -46 6.33301 -89.167 19 -129.5s32.334 -75.833 59.001 -106.5s60.167 -55 100.5 -73s87.833 -27 142.5 -27c33.333 0 64 4.16699 92 12.5s53.167 20.833 75.5 37.5s41.833 37.834 58.5 63.501s30 56.167 40 91.5h178
c-12 -60.667 -30.833 -113.834 -56.5 -159.501s-58 -84.167 -97 -115.5s-83.5 -54.666 -133.5 -69.999s-104.333 -23 -163 -23c-84.667 0 -158.334 13.5 -221.001 40.5s-114.667 65.333 -156 115s-72.666 108.834 -93.999 177.501c-20.667 68 -32.334 142.667 -35.001 224z
M262.997 636.998l586.998 0.00195312c-3.33301 39.333 -13 76.333 -29 111s-36.667 64.667 -62 90s-55.166 45.5 -89.499 60.5s-72.166 22.5 -113.499 22.5c-42.667 0 -81.5 -7.5 -116.5 -22.5s-65 -35.333 -90 -61s-45 -55.834 -60 -90.501s-23.833 -71.334 -26.5 -110.001
z" />
    <glyph glyph-name="f" unicode="f" horiz-adv-x="610" 
d="M23 894l0.00195312 167.002h174v151c0 87.333 25.333 153.5 76 198.5s124 67.5 220 67.5c18 0 37.5 -1.5 58.5 -4.5s40.5 -7.5 58.5 -13.5v-165c-16.667 8 -34 13 -52 15s-34.667 3 -50 3c-19.333 0 -36.833 -1.83301 -52.5 -5.5s-28.834 -9.83398 -39.501 -18.501
s-18.834 -19.834 -24.501 -33.501s-8.5 -31.167 -8.5 -52.5v-142h204v-167h-204v-894h-186v894h-174z" />
    <glyph glyph-name="g" unicode="g" horiz-adv-x="1165" 
d="M72 526c0 40.667 3.33105 83.1729 9.99805 127.506s17.834 87.166 33.501 128.499s35.834 80.5 60.501 117.5s55 69.167 91 96.5s78.333 49.166 127 65.499s103.667 24.5 165 24.5c63.333 0 121.333 -14.333 174 -43s96.334 -69.334 131.001 -122.001v140h173v-965
c0 -86.667 -9.83301 -162.834 -29.5 -228.501s-49.5 -120.334 -89.5 -164.001s-91 -76.5 -153 -98.5s-136 -33 -222 -33c-32 0 -64.5 2.66699 -97.5 8s-65.333 13.666 -97 24.999s-61.667 25.5 -90 42.5s-53.166 37.667 -74.499 62s-38.333 51.833 -51 82.5
c-12.667 29.333 -20 63.666 -22 102.999h185c2 -19.333 7.16699 -37.333 15.5 -54s19.166 -31.334 32.499 -44.001s28.5 -23.334 45.5 -32.001s35.167 -16 54.5 -22s38.666 -10.333 57.999 -13s38.333 -4 57 -4c55.333 0 102.5 9.33301 141.5 28s70.667 45.334 95 80.001
s41.833 75.834 52.5 123.501s16 99.834 16 156.501v55c-15.333 -28.667 -34.666 -54 -57.999 -76s-49.333 -40.5 -78 -55.5s-58.834 -26.5 -90.501 -34.5s-64.167 -12 -97.5 -12c-78 0 -146.333 14.167 -205 42.5s-107.5 67 -146.5 116s-68.167 106 -87.5 171
s-29 133.5 -29 205.5zM262.998 543.006c0 -46.667 4.83008 -92.8281 14.4971 -138.495s25.667 -87.5 48 -125.5s51.833 -68.667 88.5 -92s82 -35 136 -35c38 0 71.833 5.33301 101.5 16s56 25.667 79 45s42.333 41.666 58 66.999s28.334 52.666 38.001 81.999s17 60 22 92
s7.5 64 7.5 96c0 29.333 -2.5 59.166 -7.5 89.499s-12.333 59.333 -22 87s-22.167 53.167 -37.5 76.5s-33.666 43.833 -54.999 61.5s-45.833 31.5 -73.5 41.5s-59.5 15 -95.5 15c-54.667 0 -101.167 -10.167 -139.5 -30.5s-69.666 -47.833 -93.999 -82.5
s-41.833 -74.834 -52.5 -120.501s-16 -93.834 -16 -144.501z" />
    <glyph glyph-name="h" unicode="h" horiz-adv-x="1130" 
d="M128 0l-0.00292969 1460h186v-543c15.333 25.333 36 48.166 62 68.499s53.833 37.833 83.5 52.5s60.334 26.334 92.001 35.001s60.834 13 87.501 13c71.333 0 130.333 -9.66699 177 -29s83.834 -46.5 111.501 -81.5s47 -76.333 58 -124s16.5 -99.5 16.5 -155.5v-696h-186
v715c0 64.667 -17.333 115.167 -52 151.5s-85 54.5 -151 54.5c-50.667 0 -94.5 -8.5 -131.5 -25.5s-68.167 -39.833 -93.5 -68.5s-44 -62.334 -56 -101.001c-12 -38 -18 -79.333 -18 -124v-602h-186z" />
    <glyph glyph-name="i" unicode="i" horiz-adv-x="465" 
d="M140 1235v225h186v-225h-186zM143 0v1061h187v-1061h-187z" />
    <glyph glyph-name="j" unicode="j" horiz-adv-x="459" 
d="M-26 -234c13.333 -2 25.332 -2.99902 35.999 -2.99902h38c17.333 0 32 2.5 44 7.5s21.5 12.667 28.5 23s12 24.5 15 42.5s4.5 39.667 4.5 65v1160h186v-1187c0 -47.333 -6.16699 -88.333 -18.5 -123s-29.666 -62.834 -51.999 -84.501s-49.5 -37.667 -81.5 -48
s-68 -15.5 -108 -15.5c-18 0 -34.5 0.5 -49.5 1.5s-29.167 2.5 -42.5 4.5v157zM139.999 1235v225h186v-225h-186z" />
    <glyph glyph-name="k" unicode="k" horiz-adv-x="1043" 
d="M128 0v1460h183v-850l469 451h242l-420 -388l448 -673h-234l-355 540l-150 -137v-403h-183z" />
    <glyph glyph-name="l" unicode="l" horiz-adv-x="462" 
d="M140 0v1460h183v-1460h-183z" />
    <glyph glyph-name="m" unicode="m" horiz-adv-x="1727" 
d="M128 0l0.000976562 1061h177l3 -147c38.667 60 84.834 103.667 138.501 131s117.167 41 190.5 41c30.667 0 61.167 -3.33301 91.5 -10s58.333 -17.167 84 -31.5s48.5 -32.333 68.5 -54s36.333 -48.167 49 -79.5c38.667 61.333 84.334 105.833 137.001 133.5
s112.667 41.5 180 41.5c54.667 0 103.334 -6 146.001 -18s79.667 -31 111 -57s55.166 -58.333 71.499 -97s24.5 -86.334 24.5 -143.001v-771h-182v694c0 30.667 -2.66699 59.834 -8 87.501s-15.333 51.834 -30 72.501s-35 37 -61 49c-24.667 12 -57.5 18 -98.5 18
s-78 -6 -111 -18s-60.667 -29.667 -83 -53s-39.333 -51.166 -51 -83.499s-17.5 -68.833 -17.5 -109.5v-657h-187v694c0 32 -2.5 61.833 -7.5 89.5s-14.5 51.667 -28.5 72s-33 36.333 -57 48s-54.333 17.5 -91 17.5c-34 0 -64.333 -4.5 -91 -13.5
s-50.334 -21.167 -71.001 -36.5s-37.834 -32.5 -51.501 -51.5s-24.834 -38.167 -33.501 -57.5s-15.167 -38.333 -19.5 -57s-6.5 -34.667 -6.5 -48v-657h-186z" />
    <glyph glyph-name="n" unicode="n" horiz-adv-x="1130" 
d="M128 0l-0.000976562 1061h177l3 -159c36 62.667 81.333 109 136 139s119.667 45 195 45c71.333 0 130.333 -9.66699 177 -29s83.834 -46.5 111.501 -81.5s47 -76.333 58 -124s16.5 -99.5 16.5 -155.5v-696h-183v715c0 64.667 -17.833 115.167 -53.5 151.5
s-86.5 54.5 -152.5 54.5c-50.667 0 -94.5 -8.5 -131.5 -25.5s-68.167 -39.833 -93.5 -68.5s-44 -62.334 -56 -101.001c-12 -38 -18 -79.333 -18 -124v-602h-186z" />
    <glyph glyph-name="o" unicode="o" horiz-adv-x="1162" 
d="M72 529c0 77.333 10.835 150.167 32.502 218.5s54 127.5 97 177.5s96.167 89.333 159.5 118s137.666 43 222.999 43c84 0 157.5 -14.333 220.5 -43s116 -68 159 -118s75.5 -109 97.5 -177c22.667 -68.667 34 -141.667 34 -219s-11.167 -149.5 -33.5 -216.5
s-55 -125.667 -98 -176s-96 -89.5 -159 -117.5s-136.5 -42 -220.5 -42c-84.667 0 -158.834 14 -222.501 42s-117 67.167 -160 117.5s-75.333 109 -97 176s-32.5 139.167 -32.5 216.5zM263.002 529.001c0 -64.667 8.16699 -121 24.5 -169s39 -88.333 68 -121
s63.167 -57.334 102.5 -74.001s81.333 -25 126 -25c42.667 0 83 8.33301 121 25s71.667 41.334 101 74.001s52.166 73 68.499 121s24.5 104.333 24.5 169c0 62 -8.16699 117.333 -24.5 166s-39.166 89.834 -68.499 123.501s-63.333 59.167 -102 76.5
c-37.333 17.333 -77.333 26 -120 26c-44.667 0 -86.667 -8.66699 -126 -26s-73.5 -42.833 -102.5 -76.5s-51.667 -74.834 -68 -123.501s-24.5 -104 -24.5 -166z" />
    <glyph glyph-name="p" unicode="p" horiz-adv-x="1201" 
d="M128 -397v1458h186v-131c16.667 26 36.667 48.833 60 68.5s48.833 35.834 76.5 48.501s57.5 22.334 89.5 29.001c31.333 6.66699 64.333 10 99 10c54 0 103.667 -7.33301 149 -22s86 -34.334 122 -59.001s67.5 -54.334 94.5 -89.001s49.833 -72.667 68.5 -114
s32.334 -85 41.001 -131s13 -93.333 13 -142c0 -76 -10.167 -147.667 -30.5 -215s-50.5 -126 -90.5 -176s-90.167 -89.333 -150.5 -118s-130.5 -43 -210.5 -43c-25.333 0 -52.833 2.16699 -82.5 6.5s-59.334 12.333 -89.001 24s-58.5 27.167 -86.5 46.5s-52.333 44 -73 74
v-525h-186zM305 531c0 -50 5.66895 -98.501 17.002 -145.501s29.833 -88.667 55.5 -125s59.167 -65.5 100.5 -87.5s91.333 -33 150 -33c57.333 0 105.166 11.5 143.499 34.5s69.166 53.167 92.499 90.5s40.166 79.833 50.499 127.5s15.5 96.834 15.5 147.501
c0 46.667 -5.83301 93 -17.5 139s-30.167 87 -55.5 123s-57.666 64.833 -96.999 86.5s-87.333 32.5 -144 32.5s-104.834 -11.333 -144.501 -34s-71.667 -52.5 -96 -89.5s-42.166 -78.833 -53.499 -125.5s-17 -93.667 -17 -141z" />
    <glyph glyph-name="q" unicode="q" horiz-adv-x="1195" 
d="M72 534c0 75.333 9.83301 146.332 29.5 212.999s49.5 125.334 89.5 176.001s89.667 90.5 149 119.5s129.333 43.5 210 43.5c29.333 0 59.166 -1.83301 89.499 -5.5s60 -11.334 89 -23.001s57 -27.834 84 -48.501s51.167 -47 72.5 -79v131h182v-1458h-182l-3 525
c-16.667 -23.333 -36.667 -44.666 -60 -63.999s-49.166 -35.333 -77.499 -48s-58.333 -22.334 -90 -29.001s-64.5 -10 -98.5 -10c-54.667 0 -104.5 6.83301 -149.5 20.5s-85.5 32.667 -121.5 57s-67.167 53.5 -93.5 87.5s-48.5 71.833 -66.5 113.5
s-31.333 85.834 -40 132.501s-13 95.334 -13 146.001zM263 519.999c0 -48 6.33398 -94.6699 19.001 -140.003s31.667 -85.666 57 -120.999s57.833 -64 97.5 -86s87.834 -33 144.501 -33c38.667 0 73 5.33301 103 16s56.333 25 79 43s42.334 39.5 59.001 64.5
s30 51.833 40 80.5s17.333 58.834 22 90.501s7 63.167 7 94.5c0 34 -2.5 67.167 -7.5 99.5s-12.833 63.166 -23.5 92.499s-24.834 56.166 -42.501 80.499s-38.167 45.333 -61.5 63s-50.5 31.5 -81.5 41.5s-65.5 15 -103.5 15c-57.333 0 -105.833 -11.167 -145.5 -33.5
s-71.334 -52.166 -95.001 -89.499s-40.834 -80.166 -51.501 -128.499s-16 -98.166 -16 -149.499z" />
    <glyph glyph-name="r" unicode="r" horiz-adv-x="690" 
d="M128 0v1061h174l3 -200c21.333 39.333 44 73 68 101s51.5 51.333 82.5 70s65 32.334 102 41.001s79.5 13 127.5 13v-195c-70 0 -128.833 -9.33301 -176.5 -28s-86.167 -46 -115.5 -82s-50.333 -80 -63 -132c-12.667 -51.333 -19 -110 -19 -176v-473h-183z" />
    <glyph glyph-name="s" unicode="s" horiz-adv-x="1013" 
d="M60 342l185.002 -0.00683594c2 -38 10.833 -70 26.5 -96s35.667 -46.667 60 -62s52.5 -26.5 84.5 -33.5s65.667 -10.5 101 -10.5c26 0 53.333 2 82 6s54.667 11.333 78 22s42.833 25.667 58.5 45s23.5 44.666 23.5 75.999c0 29.333 -7.83301 53.666 -23.5 72.999
s-36.334 35.333 -62.001 48s-55.5 23.334 -89.5 32.001c-33.333 9.33301 -68.333 17.666 -105 24.999c-31.333 6 -62.833 12.833 -94.5 20.5s-62.334 16.834 -92.001 27.501s-57.167 23.834 -82.5 39.501s-47.666 34 -66.999 55s-34.333 45.333 -45 73s-16 60.167 -16 97.5
c0 54 11.667 100.333 35 139s53.666 70.334 90.999 95.001s79.666 42.834 126.999 54.501s95.333 17.5 144 17.5c57.333 0 111.333 -5.5 162 -16.5s95.167 -29.5 133.5 -55.5s69.166 -60.833 92.499 -104.5s37 -98.5 41 -164.5h-184c-2 32.667 -10.333 60.5 -25 83.5
s-32.667 41.333 -54 55s-45.666 23.334 -72.999 29.001s-54.333 8.5 -81 8.5c-23.333 0 -48 -1.83301 -74 -5.5s-49.5 -10.5 -70.5 -20.5s-38.333 -23.5 -52 -40.5s-20.5 -38.167 -20.5 -63.5c0 -23.333 7.33301 -43.166 22 -59.499s34 -30.333 58 -42
s51.667 -22.167 83 -31.5c30 -8.66699 62.333 -16.667 97 -24l76 -18c46.667 -11.333 91 -24.833 133 -40.5s78.5 -34.667 109.5 -57s55.833 -50.166 74.5 -83.499s28 -73.666 28 -120.999c0 -44 -6.33301 -83 -19 -117s-29.167 -63.167 -49.5 -87.5
s-45.166 -45.333 -74.499 -63s-60.333 -31.5 -93 -41.5s-67 -17.167 -103 -21.5s-72 -6.5 -108 -6.5c-60 0 -116.333 6.33301 -169 19s-99.167 33.334 -139.5 62.001s-73 66 -98 112s-38.833 103.333 -41.5 172z" />
    <glyph glyph-name="t" unicode="t" horiz-adv-x="639" 
d="M18 894l-0.00292969 167h173v314h183v-314h207v-167h-207v-643c0 -19.333 1.83301 -34.833 5.5 -46.5s10.167 -20.5 19.5 -26.5s22 -9.83301 38 -11.5s35.667 -2.5 59 -2.5h85v-164h-136c-45.333 0 -84.166 3.16699 -116.499 9.5s-58.666 18 -78.999 35
s-35.166 40.667 -44.499 71s-14 69.833 -14 118.5v660h-173z" />
    <glyph glyph-name="u" unicode="u" horiz-adv-x="1135" 
d="M128 371v689.999h192v-714c0 -62 16.667 -111 50 -147s83.333 -54 150 -54c52.667 0 97.834 7.83301 135.501 23.5s68.667 37.5 93 65.5s42.166 62 53.499 102s17 83.333 17 130v594h188v-1061h-178l-7 146c-72 -112.667 -180.667 -169 -326 -169
c-70.667 0 -129.667 9.5 -177 28.5s-85 45.667 -113 80s-48 75.833 -60 124.5s-18 102.334 -18 161.001z" />
    <glyph glyph-name="v" unicode="v" horiz-adv-x="1013" 
d="M20 1061h211l289 -854l276 854h197l-386 -1061h-195z" />
    <glyph glyph-name="w" unicode="w" horiz-adv-x="1535" 
d="M26 1061h211l230 -836l206 836h197l219 -839l226 839h195l-338 -1061h-191l-216 810l-203 -810h-197z" />
    <glyph glyph-name="x" unicode="x" horiz-adv-x="1052" 
d="M12 0l391 556l-368 505h237l248 -362l251 362h228l-362 -490l403 -571h-233l-287 425l-286 -425h-222z" />
    <glyph glyph-name="y" unicode="y" horiz-adv-x="1013" 
d="M12 1061l207 -0.000976562l304 -842l284 842h195l-454 -1198c-20 -50.667 -40.333 -93.5 -61 -128.5s-43.167 -64 -67.5 -87s-51.166 -39.667 -80.499 -50s-62.666 -15.5 -99.999 -15.5c-24 0 -47 1.5 -69 4.5s-41.667 8.5 -59 16.5v169
c19.333 -7.33301 38.333 -13 57 -17s35.667 -6 51 -6c31.333 0 59.166 7.33301 83.499 22s42.166 37.334 53.499 68.001l69 176z" />
    <glyph glyph-name="z" unicode="z" horiz-adv-x="973" 
d="M48 0v140l622 754h-579v167h820v-128l-631 -769h622v-164h-854z" />
    <glyph glyph-name="braceleft" unicode="{" horiz-adv-x="675" 
d="M91 473v146.006c23.333 0 44.833 6.16699 64.5 18.5s37.167 28.833 52.5 49.5s27.333 45.167 36 73.5s13 59.166 13 92.499v370c0 43.333 7 82 21 116s32 62.5 54 85.5s46.667 40.5 74 52.5s53.666 18 78.999 18h149v-134h-108c-18 0 -33 -4.83301 -45 -14.5
s-21.667 -22.334 -29 -38.001s-12.666 -33.834 -15.999 -54.501s-5 -42 -5 -64v-368c0 -38.667 -5.66699 -73.334 -17 -104.001s-25 -57.667 -41 -81s-33 -42.833 -51 -58.5s-34 -27.5 -48 -35.5c14 -6 30 -14.333 48 -25s35 -26.667 51 -48s29.667 -48.333 41 -81
c11.333 -33.333 17 -73.333 17 -120v-368c0 -20.667 1.66699 -40.5 5 -59.5s8.66602 -36.333 15.999 -52s17 -28.334 29 -38.001s27 -14.5 45 -14.5h108v-134h-149c-25.333 0 -51.666 5.33301 -78.999 16s-52 27.167 -74 49.5s-40 50.5 -54 84.5s-21 73.667 -21 119v367
c0 35.333 -4.33301 67.666 -13 96.999s-20.667 53.833 -36 73.5s-32.833 35.167 -52.5 46.5s-41.167 17 -64.5 17z" />
    <glyph glyph-name="bar" unicode="|" horiz-adv-x="448" 
d="M149 -431v2037h150v-2037h-150z" />
    <glyph glyph-name="braceright" unicode="}" horiz-adv-x="675" 
d="M41 -263l108.001 -0.00390625c17.333 0 32.333 4.33301 45 13s22.5 20.834 29.5 36.501s11.833 33.334 14.5 53.001s4 40.167 4 61.5v368c0 41.333 5.66699 77.833 17 109.5s25 58.667 41 81s33.333 40.833 52 55.5s34.667 25.667 48 33
c-15.333 4.66699 -31.833 13.5 -49.5 26.5s-34.834 30.5 -51.501 52.5s-30.334 49 -41.001 81s-16 70 -16 114v365c0 23.333 -1.33301 45.5 -4 66.5s-7.5 39.333 -14.5 55s-16.5 28.167 -28.5 37.5c-13.333 10 -28.666 15 -45.999 15h-108v134h150
c25.333 0 51.5 -6 78.5 -18s51.167 -29.5 72.5 -52.5s38.833 -51.5 52.5 -85.5s20.5 -72.667 20.5 -116v-370c0 -35.333 4.83301 -67.166 14.5 -95.499s22.334 -52.666 38.001 -72.999s33.167 -36.166 52.5 -47.499c21.333 -12 42.666 -18 63.999 -18v-146
c-21.333 0 -42.166 -5.83301 -62.499 -17.5s-38.333 -27.667 -54 -48s-28.334 -44.833 -38.001 -73.5s-14.5 -60.334 -14.5 -95.001v-367c0 -45.333 -6.83301 -85 -20.5 -119s-31.167 -62.167 -52.5 -84.5s-45.5 -38.833 -72.5 -49.5s-53.167 -16 -78.5 -16h-150v134z" />
    <glyph glyph-name="asciitilde" unicode="~" horiz-adv-x="1216" 
d="M123 470c9.33301 23.333 21.8301 46.168 37.4971 68.501s34.667 42.333 57 60s48.5 31.834 78.5 42.501c28.667 10.667 61.334 16 98.001 16c21.333 0 42.333 -2 63 -6s41 -9.33301 61 -16s40 -14.334 60 -23.001l61 -28l71 -35c20 -10 37.333 -17.667 52 -23
s27.167 -9.16602 37.5 -11.499s18.833 -3.5 25.5 -3.5c17.333 0 34.5 5.16699 51.5 15.5s32.833 23.5 47.5 39.5s28.834 33.667 42.501 53s25.5 38.333 35.5 57l93 -126l-52.5 -67.5c-17.667 -21.667 -36.667 -41.334 -57 -59.001s-43.833 -31.834 -70.5 -42.501
s-57.667 -16 -93 -16c-23.333 0 -45.666 3 -66.999 9s-42 12.833 -62 20.5s-39.833 16.334 -59.5 26.001l-55.5 27.5c-11.333 6 -25.333 12.333 -42 19s-33.834 13.167 -51.501 19.5s-35.167 12 -52.5 17s-33.666 7.5 -48.999 7.5c-20 0 -37.5 -4.33301 -52.5 -13
s-29 -20.334 -42 -35.001s-25.833 -31.667 -38.5 -51s-26 -41 -40 -65z" />
    <glyph glyph-name="uni00A0" unicode="&#xa0;" horiz-adv-x="362" 
 />
    <glyph glyph-name="cent" unicode="&#xa2;" horiz-adv-x="1127" 
d="M85 531c0 75.333 9.16992 145.334 27.5029 210.001s46.333 121.667 84 171s83.834 90 138.501 122c55.333 32.667 119 54 191 64v193h131v-193c52.667 -4 101.167 -14 145.5 -30s83.166 -38.833 116.499 -68.5s61.333 -67.167 84 -112.5
c22.667 -44 38.334 -97.333 47.001 -160h-189c-15.333 58.667 -39.5 105.667 -72.5 141s-76.833 57 -131.5 65v-775c31.333 5.33301 59.166 15.333 83.499 30s45.166 33 62.499 55s31.833 46.833 43.5 74.5s20.5 58.167 26.5 91.5h183c-4 -33.333 -11.167 -66.5 -21.5 -99.5
s-23.333 -64.667 -39 -95s-34.334 -58.5 -56.001 -84.5s-46.667 -48.833 -75 -68.5s-59.833 -35.834 -94.5 -48.501s-72.334 -20 -113.001 -22v-210h-131v213c-71.333 4 -134.5 20.667 -189.5 50s-101 67.833 -138 115.5s-65.167 103 -84.5 166s-29 131.5 -29 205.5z
M280.003 531.001c0 -44.667 5 -87.833 15 -129.5s24.667 -79.5 44 -113.5s44.5 -62.833 75.5 -86.5s68.167 -39.167 111.5 -46.5v778c-46 -8 -84.333 -24.333 -115 -49s-55.667 -55 -75 -91s-33.5 -76.667 -42.5 -122s-13.5 -92 -13.5 -140z" />
    <glyph glyph-name="sterling" unicode="&#xa3;" horiz-adv-x="1127" 
d="M85 120c30.667 18 59.6641 39.999 86.9971 65.999s51.166 54.5 71.499 85.5s36.666 64 48.999 99s18.5 72.167 18.5 111.5c0 13.333 -1.66699 27.833 -5 43.5s-7.5 31.5 -12.5 47.5s-10.333 31.5 -16 46.5s-11.5 28.5 -17.5 40.5h-172v108h112
c-12 21.333 -23.5 43.166 -34.5 65.499s-20.333 46.166 -28 71.499s-14 52.166 -19 80.499s-7.5 58.833 -7.5 91.5c0 64.667 12.667 122.834 38 174.501s59.833 95.5 103.5 131.5s93.834 63.667 150.501 83s116 29 178 29c76 0 143.667 -11.167 203 -33.5
s110 -55.833 152 -100.5s74 -100.334 96 -167.001c22.667 -66 33.334 -143.667 32.001 -233h-185c-2 58 -9.33301 110.167 -22 156.5s-30.667 85.5 -54 117.5s-52.5 56.5 -87.5 73.5s-75.833 25.5 -122.5 25.5c-41.333 0 -79.5 -6.66699 -114.5 -20s-65.167 -32 -90.5 -56
s-45 -52.333 -59 -85s-21 -68 -21 -106c0 -30 3 -58.167 9 -84.5s13.5 -51.666 22.5 -75.999s19.833 -47.666 32.5 -69.999s25 -45.166 37 -68.499h324v-108h-272c8.66699 -17.333 16.667 -39.166 24 -65.499s11 -52.166 11 -77.499c0 -40.667 -5.83301 -78.667 -17.5 -114
s-26.667 -68 -45 -98s-39.666 -57.667 -63.999 -83s-50.166 -48.666 -77.499 -69.999c29.333 11.333 58 21.666 86 30.999s60.667 14 98 14c38.667 0 73.667 -3.66699 105 -11s59.666 -14.666 84.999 -21.999c21.333 -7.33301 40 -13.166 56 -17.499s30.333 -8 43 -11
s24.334 -4.83301 35.001 -5.5c12 -1.33301 23.667 -2 35 -2c15.333 0 30.833 2.33301 46.5 7s31.334 10.667 47.001 18s30.834 15.833 45.501 25.5s27.667 20.167 39 31.5l100 -144c-22 -18.667 -45.333 -34.334 -70 -47.001s-50.167 -22.334 -76.5 -29.001
s-52.833 -11.5 -79.5 -14.5s-53.334 -4.5 -80.001 -4.5c-36 0 -70 3.83301 -102 11.5s-65.667 16.5 -101 26.5c-36.667 11.333 -71.5 20.666 -104.5 27.999s-68.167 11 -105.5 11c-38 0 -73 -6.5 -105 -19.5s-64.667 -30.167 -98 -51.5z" />
    <glyph glyph-name="yen" unicode="&#xa5;" horiz-adv-x="1127" 
d="M-12 1460h240l346 -710l334 710h231l-365 -701h187v-131h-257l-38 -66v-74h295v-135h-295v-353h-199v353h-287v135h287v74l-36 66h-251v131h179z" />
    <glyph glyph-name="copyright" unicode="&#xa9;" horiz-adv-x="1626" 
d="M48 721c0 70 9.33301 137.666 28 202.999s44.667 125.666 78 180.999s73.166 106 119.499 152s97.666 85.333 153.999 118s117 58 182 76s131.833 27 200.5 27c69.333 0 136.166 -9 200.499 -27s124.666 -43.333 180.999 -76s107.833 -72 154.5 -118
s86.5 -96.667 119.5 -152s58.667 -115.666 77 -180.999s27.5 -133 27.5 -203c0 -72 -9.16699 -141 -27.5 -207s-44 -127 -77 -183s-72.833 -106.667 -119.5 -152s-98.167 -84 -154.5 -116s-116.666 -56.333 -180.999 -73s-131.166 -25 -200.499 -25
c-68.667 0 -135.5 8.33301 -200.5 25s-125.667 41 -182 73s-107.666 70.667 -153.999 116s-86.166 96 -119.499 152s-59.333 116.833 -78 182.5s-28 134.834 -28 207.501zM210 720.999c0 -89.333 14.668 -172.498 44.001 -249.498s70.666 -143.167 123.999 -198.5
s116.833 -98.666 190.5 -129.999s154.167 -47 241.5 -47c56.667 0 110.834 7.16699 162.501 21.5s99.667 34.666 144 60.999s84.666 58.166 120.999 95.499s67.333 79.166 93 125.499s45.334 96.5 59.001 150.5s20.5 111 20.5 171c0 60.667 -6.83301 117.667 -20.5 171
s-33.334 103 -59.001 149s-56.667 87.5 -93 124.5s-76.666 68.333 -120.999 94s-92.333 45.5 -144 59.5s-105.834 21 -162.501 21c-58 0 -113.167 -7 -165.5 -21s-100.833 -33.833 -145.5 -59.5s-85 -57 -121 -94s-66.333 -78.5 -91 -124.5s-43.667 -95.667 -57 -149
s-20 -110.333 -20 -171zM380.001 718.001c0 68.667 10.3311 131.169 30.998 187.502s50.334 105 89.001 146s85.5 72.833 140.5 95.5s116.5 34 184.5 34c50.667 0 97.834 -6.5 141.501 -19.5s82.334 -33 116.001 -60s62.167 -60.667 85.5 -101s40 -87.833 50 -142.5h-151
c-6 27.333 -15.5 52.666 -28.5 75.999s-29.667 43.833 -50 61.5s-43.833 31.5 -70.5 41.5c-26 10.667 -55.667 16 -89 16c-46.667 0 -88 -8.5 -124 -25.5s-66.167 -40.167 -90.5 -69.5s-42.833 -64.5 -55.5 -105.5s-19 -84.833 -19 -131.5
c0 -44.667 6.83301 -87.5 20.5 -128.5s33 -77 58 -108s55.667 -55.667 92 -74s77.833 -27.5 124.5 -27.5c31.333 0 60.166 4.83301 86.499 14.5s49.5 23.167 69.5 40.5s36.5 38.666 49.5 63.999s21.833 53.666 26.5 84.999h139l12 -13
c-12 -50.667 -29.667 -96.167 -53 -136.5s-51.5 -74.666 -84.5 -102.999s-70.5 -49.833 -112.5 -64.5s-86.333 -22 -133 -22c-68 0 -130.167 12 -186.5 36s-104.5 57.167 -144.5 99.5s-70.667 91.833 -92 148.5c-21.333 58 -32 120 -32 186z" />
    <glyph glyph-name="guillemotleft" unicode="&#xab;" horiz-adv-x="938" 
d="M96 479v181l319 251v-187l-196 -159l196 -150v-190zM491 479v181l322 251v-187l-197 -159l197 -150v-190z" />
    <glyph glyph-name="uni00AD" unicode="&#xad;" horiz-adv-x="938" 
d="M96 470v158h748v-158h-748z" />
    <glyph glyph-name="registered" unicode="&#xae;" horiz-adv-x="1617" 
d="M48 721c0 70 9.33301 137.666 28 202.999s44.667 125.666 78 180.999s73.166 106 119.499 152s97.666 85.333 153.999 118s117 58 182 76s131.833 27 200.5 27c69.333 0 136.166 -9 200.499 -27s124.666 -43.333 180.999 -76s107.833 -72 154.5 -118
s86.5 -96.667 119.5 -152s58.667 -115.666 77 -180.999s27.5 -133 27.5 -203c0 -72 -9.16699 -141 -27.5 -207s-44 -127 -77 -183s-72.833 -106.667 -119.5 -152s-98.167 -84 -154.5 -116s-116.666 -56.333 -180.999 -73s-131.166 -25 -200.499 -25
c-68.667 0 -135.5 8.33301 -200.5 25s-125.667 41 -182 73s-107.666 70.667 -153.999 116s-86.166 96 -119.499 152s-59.333 116.833 -78 182.5s-28 134.834 -28 207.501zM210 720.999c0 -89.333 14.668 -172.498 44.001 -249.498s70.666 -143.167 123.999 -198.5
s116.833 -98.666 190.5 -129.999s154.167 -47 241.5 -47c56.667 0 110.834 7.16699 162.501 21.5s99.667 34.666 144 60.999s84.666 58.166 120.999 95.499s67.333 79.166 93 125.499s45.334 96.5 59.001 150.5s20.5 111 20.5 171c0 60.667 -6.83301 117.667 -20.5 171
s-33.334 103 -59.001 149s-56.667 87.5 -93 124.5s-76.666 68.333 -120.999 94s-92.333 45.5 -144 59.5s-105.834 21 -162.501 21c-58 0 -113.167 -7 -165.5 -21s-100.833 -33.833 -145.5 -59.5s-85 -57 -121 -94s-66.333 -78.5 -91 -124.5s-43.667 -95.667 -57 -149
s-20 -110.333 -20 -171zM508.001 269.001v893.001h350c104.667 0 183.167 -20.833 235.5 -62.5s78.5 -106.5 78.5 -194.5c0 -36 -5.5 -68.167 -16.5 -96.5s-26.5 -52.833 -46.5 -73.5s-42.833 -37.834 -68.5 -51.501s-53.167 -23.5 -82.5 -29.5l248 -385h-175l-240 373h-125
v-373h-158zM666.001 780.002h129.998c29.333 0 57.333 0.833008 84 2.5s49.667 6.66699 69 15s34.833 21.5 46.5 39.5s17.5 42.667 17.5 74c0 25.333 -5 46 -15 62s-23.667 28.167 -41 36.5s-36.666 14 -57.999 17s-42.666 4.5 -63.999 4.5h-169v-251z" />
    <glyph glyph-name="guillemotright" unicode="&#xbb;" horiz-adv-x="938" 
d="M126 219v190l197 153l-197 156v187l319 -251v-181zM523 219v190l195 153l-195 156v187l321 -251v-181z" />
    <glyph glyph-name="onequarter" unicode="&#xbc;" horiz-adv-x="1703" 
d="M99 1127l0.00195312 128.998c29.333 2 57.666 5.83301 84.999 11.5s51.666 14.834 72.999 27.501s39.833 29.5 55.5 50.5s27.167 47.833 34.5 80.5h120v-867h-137v628c-30 -19.333 -64 -33.666 -102 -42.999c-37.333 -9.33301 -80.333 -15 -129 -17zM356.002 -0.00195312
l834 1460h144l-835 -1460h-143zM945.002 190.998v123l422 553h111v-553h119v-123h-119v-191h-138v191h-395zM1080 313.998h260v331z" />
    <glyph glyph-name="onehalf" unicode="&#xbd;" horiz-adv-x="1703" 
d="M99 1127l0.00195312 128.998c29.333 2 57.666 5.83301 84.999 11.5s51.666 14.834 72.999 27.501s39.833 29.5 55.5 50.5s27.167 47.833 34.5 80.5h120v-867h-137v628c-30 -19.333 -64 -33.666 -102 -42.999c-37.333 -9.33301 -80.333 -15 -129 -17zM323.002 -0.00195312
l833 1460h145l-834 -1460h-144zM1004 -0.00195312c4 52.667 13.6689 98.001 29.002 136.001s34.666 70.833 57.999 98.5s49.833 52 79.5 73s59.834 40.167 90.501 57.5c37.333 19.333 70.166 37.833 98.499 55.5s52.166 35.667 71.499 54s33.833 38.166 43.5 59.499
s14.5 46.666 14.5 75.999c0 21.333 -3.83301 40.333 -11.5 57s-18.834 30.834 -33.501 42.501s-31.667 21 -51 28s-40.666 10.5 -63.999 10.5c-29.333 0 -54.333 -5.5 -75 -16.5s-36.834 -25.667 -48.501 -44s-20.167 -39.5 -25.5 -63.5s-8 -48.667 -8 -74h-150
c0 46 7.5 88.5 22.5 127.5s36.167 72.667 63.5 101s60.166 50.166 98.499 65.499s81.833 23 130.5 23c41.333 0 80 -5.83301 116 -17.5s67.833 -28.5 95.5 -50.5s49.5 -48.667 65.5 -80s24 -67.666 24 -108.999c0 -45.333 -9.16699 -85.333 -27.5 -120
s-42.666 -65.667 -72.999 -93s-64.166 -52 -101.499 -74l-110 -66l-55.5 -33c-17 -10 -32.333 -20.167 -46 -30.5s-25.5 -21.333 -35.5 -33s-18 -25.167 -24 -40.5h461v-120h-622z" />
    <glyph glyph-name="threequarters" unicode="&#xbe;" horiz-adv-x="1703" 
d="M105 838l152.002 -0.000976562c2 -56.667 17.167 -100 45.5 -130s72.166 -45 131.499 -45c23.333 0 45.666 3.33301 66.999 10s40.5 16.167 57.5 28.5s30.333 27 40 44s14.5 36.5 14.5 58.5c0 27.333 -4.83301 50.333 -14.5 69s-23 33.834 -40 45.501
s-36.167 20.167 -57.5 25.5s-43.666 8 -66.999 8h-69v109h53c20 0 39.5 2.33301 58.5 7s36 12 51 22s27.167 22.5 36.5 37.5s14 33.833 14 56.5c0 20.667 -4.16699 38.334 -12.5 53.001s-19.333 27 -33 37s-29.167 17.5 -46.5 22.5s-35.666 7.5 -54.999 7.5
c-29.333 0 -53.833 -4.33301 -73.5 -13s-35.5 -20.834 -47.5 -36.501s-21 -34 -27 -55s-9 -44.167 -9 -69.5h-148c2.66699 44.667 11.5 85.334 26.5 122.001s35.667 67.834 62 93.501s57.5 45.5 93.5 59.5s77 21 123 21c41.333 0 79.666 -5 114.999 -15s66 -25.333 92 -46
s46.333 -46 61 -76s22 -65 22 -105c0 -17.333 -3.33301 -34 -10 -50s-15.334 -31.333 -26.001 -46s-23 -28 -37 -40c-13.333 -13.333 -28 -24 -44 -32c25.333 -8 47.833 -18.667 67.5 -32s36.334 -29 50.001 -47s23.834 -37.833 30.501 -59.5s10 -44.167 10 -67.5
c0 -44.667 -9.16699 -83.834 -27.5 -117.501s-42.833 -61.334 -73.5 -83.001s-65.834 -38.167 -105.501 -49.5s-80.167 -17 -121.5 -17c-45.333 0 -87.833 6.33301 -127.5 19s-74.334 31.167 -104.001 55.5s-53.5 54.833 -71.5 91.5c-17.333 37.333 -26 80.333 -26 129z
M508.002 -0.000976562l835 1460h143l-835 -1460h-143zM1007 190.999v123l422 553h110v-553h120v-123h-120v-191h-137v191h-395zM1142 313.999h260v331z" />
    <glyph glyph-name="multiply" unicode="&#xd7;" horiz-adv-x="1046" 
d="M44 149l374 399l-374 400l114 108l368 -396l370 396l114 -108l-376 -400l376 -399l-114 -108l-370 393l-368 -393z" />
    <glyph glyph-name="divide" unicode="&#xf7;" horiz-adv-x="1216" 
d="M91 470v158h1033v-158h-1033zM473 128c0 20 3.3291 38.165 9.99609 54.498s16.334 31.166 29.001 44.499s27.334 23.666 44.001 30.999s33.667 11 51 11c20 0 38 -3.66699 54 -11s30.333 -17.666 43 -30.999s22.667 -28.166 30 -44.499s11 -34.5 11 -54.5
c0 -16 -3.66699 -31.667 -11 -47s-17.166 -29 -29.499 -41s-26.666 -21.667 -42.999 -29s-33.5 -11 -51.5 -11c-17.333 0 -34.333 3.33301 -51 10s-31.5 15.834 -44.5 27.501s-23.167 25.334 -30.5 41.001s-11 32.167 -11 49.5zM472.996 966.998
c0 18 3.3291 35.333 9.99609 52s16.334 31 29.001 43s27.334 22 44.001 30s33.667 12 51 12c20 0 38 -4 54 -12s30.333 -18 43 -30s22.667 -26.5 30 -43.5s11 -34.333 11 -52s-3.66699 -34.667 -11 -51s-17.166 -30.833 -29.499 -43.5s-26.666 -22.5 -42.999 -29.5
s-33.5 -10.5 -51.5 -10.5c-17.333 0 -34.333 3.5 -51 10.5s-31.5 16.833 -44.5 29.5s-23.167 27.167 -30.5 43.5s-11 33.5 -11 51.5z" />
    <glyph glyph-name="kokaithai" unicode="&#xe01;" horiz-adv-x="1255" 
d="M41 870c10.667 46.667 28.832 92.8389 54.499 138.506s61 86.667 106 123s99.5 65.666 163.5 87.999s140 33.5 228 33.5c68.667 0 129.834 -6.66699 183.501 -20s100.667 -31.333 141 -54s74.333 -50.167 102 -82.5s50.167 -67.5 67.5 -105.5s29.833 -78.167 37.5 -120.5
s11.5 -85.166 11.5 -128.499v-742h-200v765c0 38 -5.66699 75.667 -17 113s-30.5 71.166 -57.5 101.499s-62.5 55 -106.5 74s-98 28.833 -162 29.5c-38 0 -72.833 -3.33301 -104.5 -10s-60 -15.834 -85 -27.501s-46.833 -25.334 -65.5 -41.001
s-34.334 -31.334 -47.001 -47.001s-22.5 -31.167 -29.5 -46.5s-11.5 -29 -13.5 -41c14 -8 26.833 -19 38.5 -33s21.167 -30 28.5 -48s13 -38 17 -60c4.66699 -22.667 7 -45.667 7 -69v-660h-199v663c0 19.333 -1.16699 38.666 -3.5 57.999s-7.16602 38 -14.499 56
s-17.333 35.167 -30 51.5s-29.667 30.166 -51 41.499z" />
    <glyph glyph-name="khokhaithai" unicode="&#xe02;" horiz-adv-x="1052" 
d="M26 1077v149h330l225 -1071l223 1071h203l-274 -1226h-308l-243 1077h-156z" />
    <glyph glyph-name="khokhuatthai" unicode="&#xe03;" horiz-adv-x="1130" 
d="M51 1226l186.003 0.00195312c0 -16 2.16699 -31.667 6.5 -47s11 -28.833 20 -40.5s20.167 -20.834 33.5 -27.501c14 -6.66699 29.833 -10 47.5 -10s33.334 2.83301 47.001 8.5s25 14.334 34 26.001s16.167 25.167 21.5 40.5c6 16 9 32.667 9 50h189v-239
c0 -27.333 -4.33301 -51.666 -13 -72.999s-20.834 -41.5 -36.501 -60.5s-33.167 -37.833 -52.5 -56.5l-61 -61c-19.333 -21.333 -36.333 -40.833 -51 -58.5s-26.834 -35.667 -36.501 -54s-17 -37.333 -22 -57s-7.5 -42.167 -7.5 -67.5v-81
c0 -43.333 5.33301 -81.5 16 -114.5s26.167 -61.167 46.5 -84.5s44.5 -41 72.5 -53c28.667 -11.333 59.667 -17 93 -17c30.667 0 59.5 4.33301 86.5 13s50.5 23 70.5 43s35.333 46 46 78c11.333 31.333 17 70.333 17 117v826h197v-846c0 -70.667 -11.333 -131.667 -34 -183
s-53.334 -93.833 -92.001 -127.5s-83.167 -58.5 -133.5 -74.5s-102.833 -24 -157.5 -24c-56.667 0 -111.334 8.66699 -164.001 26s-98.667 43.166 -138 77.499s-70.833 77 -94.5 128s-35.5 110.167 -35.5 177.5v59c0 33.333 0.833008 62.666 2.5 87.999s4.5 48 8.5 68
s9.66699 38.333 17 55s16.666 32.667 27.999 48s25 30.333 41 45s34.667 30.667 56 48c11.333 10 26 21.333 44 34s34.833 28.167 50.5 46.5s28.5 39.5 38.5 63.5c11.333 22.667 15 49.667 11 81h-10c-4 -9.33301 -10.833 -18 -20.5 -26s-21 -15.333 -34 -22
s-27.167 -12.167 -42.5 -16.5s-30.666 -6.5 -45.999 -6.5c-13.333 0 -28.5 1.16699 -45.5 3.5s-35 7.16602 -54 14.499s-37.833 17.5 -56.5 30.5s-35 29.833 -49 50.5s-25.667 46 -35 76s-14 65.333 -14 106z" />
    <glyph glyph-name="khokhwaithai" unicode="&#xe04;" horiz-adv-x="1267" 
d="M120 0l-0.00292969 732.999c0 44 3.16699 87.167 9.5 129.5s17 82.833 32 121.5s35.333 74.334 61 107.001s57.5 61 95.5 85s83 42.833 135 56.5s112.167 20.5 180.5 20.5s128.333 -6.83301 180 -20.5s96.334 -32.5 134.001 -56.5s69.5 -52.333 95.5 -85
s46.833 -68.334 62.5 -107.001s26.667 -79.167 33 -121.5s9.5 -85.5 9.5 -129.5v-733h-200v759c0 25.333 -2.33301 50.666 -7 75.999s-11.834 50.166 -21.501 74.499s-22.667 47 -39 68s-36.333 39.333 -60 55s-50.667 28 -81 37s-65.5 13.5 -105.5 13.5
s-75.667 -4.5 -107 -13.5s-58.666 -21.333 -81.999 -37s-43 -34 -59 -55s-29.333 -43.667 -40 -68s-18.167 -49.166 -22.5 -74.499s-6.5 -50.666 -6.5 -75.999v-274c22 42.667 46.5 79.334 73.5 110.001s56.833 55.5 89.5 74.5s68.334 32.833 107.001 41.5
s82.334 13 131.001 13v-168c-72 0 -133.333 -10 -184 -30s-92 -48.5 -124 -85.5s-55.5 -82.5 -70.5 -136.5s-22.5 -114.333 -22.5 -181v-123h-197z" />
    <glyph glyph-name="khokhonthai" unicode="&#xe05;" horiz-adv-x="1278" 
d="M120 0l-0.00292969 741.997c0 38 2.16699 75.5 6.5 112.5s11.833 72.667 22.5 107s25 66.666 43 96.999s40.167 57.666 66.5 81.999s58 44.666 95 60.999s79.833 28.5 128.5 36.5l157 -168l149 168c50 -8 94 -20.167 132 -36.5s70.833 -36.166 98.5 -59.499
s50.5 -50.333 68.5 -81s32.667 -63.334 44 -98.001s18.833 -70.5 22.5 -107.5s5.5 -74.833 5.5 -113.5v-742h-198v765c0 25.333 -2 52.833 -6 82.5s-11.167 57.834 -21.5 84.501s-24 50.834 -41 72.501s-38.167 36.834 -63.5 45.501l-166 -171l-10 -8
c-3.33301 -2.66699 -7.83301 -4 -13.5 -4s-10.667 1.33301 -15 4s-8.16602 5.33398 -11.499 8.00098l-168 171c-25.333 -10 -46 -25.667 -62 -47s-28.833 -45.333 -38.5 -72s-16.667 -54.667 -21 -84s-6.5 -56.666 -6.5 -81.999v-280c22 42.667 46.5 79.334 73.5 110.001
s56.833 55.5 89.5 74.5s68.334 32.833 107.001 41.5s82.334 13 131.001 13v-168c-72 0 -133.333 -10 -184 -30s-92 -48.5 -124 -85.5s-55.5 -82.5 -70.5 -136.5s-22.5 -114.333 -22.5 -181v-123h-197z" />
    <glyph glyph-name="khorakhangthai" unicode="&#xe06;" horiz-adv-x="1264" 
d="M51 1226l185.999 -0.00195312c0 -16 2.16699 -31.667 6.5 -47s11 -28.833 20 -40.5s20.167 -20.834 33.5 -27.501c14 -6.66699 29.833 -10 47.5 -10s33.334 2.83301 47.001 8.5s25 14.334 34 26.001s16.167 25.167 21.5 40.5c6 16 9 32.667 9 50h189v-239
c0 -36 -5.83301 -67.667 -17.5 -95s-26.167 -51.5 -43.5 -72.5s-35.666 -39.5 -54.999 -55.5l-50 -46c-21.333 -19.333 -39.333 -36.833 -54 -52.5s-26.334 -31.667 -35.001 -48s-15 -36.166 -19 -59.499c-4 -21.333 -6 -49.666 -6 -84.999
c0 -40.667 7.83301 -80.5 23.5 -119.5s38.5 -73.667 68.5 -104s66 -54.666 108 -72.999s89.333 -27.5 142 -27.5c34.667 0 66.667 6 96 18s54.666 29 75.999 51s37.666 48.167 48.999 78.5s17 63.833 17 100.5v829h200v-804c0 -66 -6.66699 -127 -20 -183
s-35.833 -103.833 -67.5 -143.5s-73.667 -70.334 -126 -92.001s-118.5 -32.5 -198.5 -32.5c-87.333 0 -161.666 18.5 -222.999 55.5s-112.666 93.833 -153.999 170.5l-6 -197h-189v431c0 30.667 0.5 58 1.5 82s2.66699 45.667 5 65s6.16602 36.833 11.499 52.5
s13.333 31.334 24 47.001s24 31.5 40 47.5c16 15.333 35.667 32.666 59 51.999l66 54c18.667 14.667 34.5 30 47.5 46s22.5 34.667 28.5 56c6 20.667 8.33301 48.334 7 83.001h-3c-4 -9.33301 -10.833 -18 -20.5 -26s-21 -15.333 -34 -22s-27.167 -12.167 -42.5 -16.5
s-30.666 -6.5 -45.999 -6.5c-13.333 0 -28.5 1.16699 -45.5 3.5s-35 7.16602 -54 14.499s-37.833 17.5 -56.5 30.5s-35 29.833 -49 50.5s-25.667 46 -35 76s-14 65.333 -14 106z" />
    <glyph glyph-name="ngonguthai" unicode="&#xe07;" horiz-adv-x="930" 
d="M48 718h203.001l183 -514c8.66699 -21.333 20.667 -37.333 36 -48s32 -16 50 -16c29.333 0 52 8.66699 68 26c16.667 18 25 38.667 25 62v845h-171v153h368v-960c0 -52.667 -7.5 -97.5 -22.5 -134.5s-35.667 -67.667 -62 -92s-57.5 -41.833 -93.5 -52.5
s-74.333 -16 -115 -16s-76.334 5 -107.001 15s-57.5 25 -80.5 45s-42.333 44 -58 72s-29.167 59.333 -40.5 94z" />
    <glyph glyph-name="chochanthai" unicode="&#xe08;" horiz-adv-x="1147" 
d="M72 870c8.66699 56.667 26.499 108.168 53.499 154.501s62 86.166 105 119.499s94.167 59.333 153.5 78s126 28 200 28c36 0 72.333 -2.66699 109 -8s72.167 -14.333 106.5 -27s66.666 -29.5 96.999 -50.5s56.333 -47 78 -78s38.834 -67.833 51.501 -110.5
s18.667 -91.667 18 -147c0 -32 -4.66699 -69.167 -14 -111.5s-21.333 -87.333 -36 -135s-31.167 -97.334 -49.5 -149.001s-37.666 -102.834 -57.999 -153.501l-61.5 -147.5l-60 -132.5h-274l-195 565h-159v153h314l180 -541l41 96l43.5 109l43 113.5
c14.333 38.333 26.833 76 37.5 113s19 72.5 25 106.5c7.33301 34 11 65.667 11 95c2 90.667 -19.833 158.834 -65.5 204.501s-114.834 68.5 -207.501 68.5c-74 0 -133.167 -18.167 -177.5 -54.5s-74.166 -89.166 -89.499 -158.499h-220z" />
    <glyph glyph-name="chochingthai" unicode="&#xe09;" horiz-adv-x="1255" 
d="M93 879c6 49.333 19.6689 96.6641 41.002 141.997s52.833 85 94.5 119s94 61.333 157 82s138.833 31 227.5 31c70 0 131.333 -6.66699 184 -20s98.5 -31.333 137.5 -54s71.333 -50.167 97 -82.5s46.334 -67.5 62.001 -105.5s26.667 -78.167 33 -120.5
s9.5 -85.166 9.5 -128.499v-742h-188l-6 197c-41.333 -76.667 -95.333 -133.5 -162 -170.5s-146.667 -55.5 -240 -55.5c-81.333 0 -148.833 10.833 -202.5 32.5s-96.5 52.334 -128.5 92.001s-54.833 87.167 -68.5 142.5s-20.5 116.666 -20.5 183.999v263h197v-288
c0 -36.667 6 -70.167 18 -100.5s28.833 -56.5 50.5 -78.5s48.167 -39 79.5 -51s66.666 -18 105.999 -18c61.333 0 114.833 9.66699 160.5 29s83.667 46.333 114 81s53 75.667 68 123s22.5 98 22.5 152v231c0 38 -5.16699 76 -15.5 114s-27.666 72 -51.999 102
s-57.333 54.5 -99 73.5s-93.834 28.5 -156.501 28.5c-56 0 -103.333 -6.33301 -142 -19s-69.834 -28.667 -93.501 -48s-41.334 -41.166 -53.001 -65.499s-20.167 -48.166 -25.5 -71.499h-206z" />
    <glyph glyph-name="chochangthai" unicode="&#xe0a;" horiz-adv-x="1118" 
d="M57 1050l0.00292969 146c21.333 7.33301 42.166 14.166 62.499 20.499s39.833 11.5 58.5 15.5s35.5 7 50.5 9s27.5 3 37.5 3c42.667 0 81.334 -5.16699 116.001 -15.5s63.667 -26 87 -47s40.333 -46.833 51 -77.5c9.33301 -31.333 12.333 -68.333 9 -111
c-4 -29.333 -10.667 -55.5 -20 -78.5s-21 -45.333 -35 -67s-29.5 -44.167 -46.5 -67.5l-53.5 -76c-14 -21.333 -24.333 -40.333 -31 -57s-11.667 -33.334 -15 -50.001s-5.33301 -34.167 -6 -52.5s-1.33398 -39.166 -2.00098 -62.499v-64c0 -43.333 6.5 -81.5 19.5 -114.5
s30.667 -61.167 53 -84.5s48.166 -40.833 77.499 -52.5s61 -17.5 95 -17.5c32 0 62.167 4.33301 90.5 13s53.166 23 74.499 43s38 46 50 78c12.667 31.333 19 70.333 19 117v82c0 36.667 -2.66699 67.667 -8 93s-13.5 46.333 -24.5 63s-23.667 29.334 -38 38.001
s-30.833 15.167 -49.5 19.5s-39 7.16602 -61 8.49902c-22.667 2 -46 3 -70 3v160c50 0 92.667 7.33301 128 22s63.833 36.667 85.5 66s37.167 66.333 46.5 111s14 98 14 160h200c0 -48.667 -3.33301 -97.334 -10 -146.001s-20.334 -92.334 -41.001 -131.001
s-49.5 -71.667 -86.5 -99s-85.5 -45.333 -145.5 -54v-8c38.667 -3.33301 72.167 -10.833 100.5 -22.5s52 -26.167 71 -43.5s34 -36.166 45 -56.499s19.5 -41.5 25.5 -63.5s10 -43.167 12 -63.5s3 -39.166 3 -56.499v-102c0 -70.667 -12.167 -131.667 -36.5 -183
s-56.5 -93.833 -96.5 -127.5s-85.833 -58.5 -137.5 -74.5s-105.167 -24 -160.5 -24c-56.667 0 -111.5 8.66699 -164.5 26s-100.167 43.166 -141.5 77.499s-74.333 77 -99 128s-37 110.167 -37 177.5v102c0 32 0.833008 59.667 2.5 83s4.33398 44 8.00098 62
s8.33398 34.333 14.001 49s12.834 29 21.501 43s18.667 28.5 30 43.5l40 50.5l34.5 45.5c10.333 13.667 19.166 26.834 26.499 39.501s13.333 25.334 18 38.001c6 12.667 10 25.667 12 39c6 37.333 0.166992 66.166 -17.5 86.499s-43.834 30.5 -78.501 30.5
c-20 0 -38.667 -1.66699 -56 -5s-33.333 -7.16602 -48 -11.499s-28 -9 -40 -14s-23 -8.83301 -33 -11.5z" />
    <glyph glyph-name="sosothai" unicode="&#xe0b;" horiz-adv-x="1147" 
d="M26 1226l187.004 0.00390625c0 -16 2.16699 -31.667 6.5 -47s11.166 -28.833 20.499 -40.5s20.833 -20.834 34.5 -27.501s28.834 -10 45.501 -10c17.333 0 32.833 2.83301 46.5 8.5s25.167 14.334 34.5 26.001s16.666 25.167 21.999 40.5c5.33301 16 8 32.667 8 50h191
v-239c0 -27.333 -4.33301 -51.666 -13 -72.999s-20.834 -41.5 -36.501 -60.5s-33.167 -37.833 -52.5 -56.5l-62 -61c-20 -21.333 -36.333 -44.666 -49 -69.999s-22.5 -52.166 -29.5 -80.499s-11.667 -56.833 -14 -85.5s-3.5 -56 -3.5 -82c0 -43.333 6.33301 -81.5 19 -114.5
s30.167 -61.167 52.5 -84.5s48.166 -40.833 77.499 -52.5s60.333 -17.5 93 -17.5s63 4.33301 91 13s52.5 23 73.5 43s37.833 46 50.5 78c12.667 31.333 19 70.333 19 117v82c0 50.667 -5.33301 90.5 -16 119.5s-25.334 51.167 -44.001 66.5s-41.334 25.166 -68.001 29.499
s-56 7.5 -88 9.5v160c44.667 3.33301 82.167 13 112.5 29s55.166 38.5 74.499 67.5s33.333 65.5 42 109.5s13 95 13 153h197c0 -48.667 -3.5 -97.334 -10.5 -146.001s-20.833 -92.334 -41.5 -131.001s-49.5 -71.667 -86.5 -99s-85.5 -45.333 -145.5 -54v-8
c38.667 -3.33301 72.334 -10.833 101.001 -22.5s52.5 -26.167 71.5 -43.5s34.333 -36.166 46 -56.499s20.5 -41.5 26.5 -63.5s10 -43.167 12 -63.5s3 -39.166 3 -56.499v-102c0 -46.667 -5.5 -89.334 -16.5 -128.001s-26.333 -73.334 -46 -104.001
s-43.167 -57.167 -70.5 -79.5s-57.166 -40.833 -89.499 -55.5s-66.166 -25.334 -101.499 -32.001s-71.666 -10 -108.999 -10c-56 0 -110.833 8.66699 -164.5 26s-100.834 43.166 -141.501 77.499s-73.667 77 -99 128s-38 110.167 -38 177.5
c0 49.333 0.833008 93.666 2.5 132.999s6.5 75.333 14.5 108s20.667 62.834 38 90.501s42.666 54.167 75.999 79.5l28 21.5c10.667 8.33301 21.5 17.333 32.5 27s22 20.667 33 33s20.5 25.666 28.5 39.999s14 30.333 18 48s4.66699 36.167 2 55.5h-9
c-4 -9.33301 -10.667 -18 -20 -26s-20.333 -15.333 -33 -22s-26.667 -12.167 -42 -16.5s-32 -6.5 -50 -6.5c-13.333 0 -28.5 1.16699 -45.5 3.5s-35 7.16602 -54 14.499s-37.833 17.5 -56.5 30.5s-35 29.833 -49 50.5s-25.667 46 -35 76s-14 65.333 -14 106z" />
    <glyph glyph-name="chochoethai" unicode="&#xe0c;" horiz-adv-x="1898" 
d="M41 870c10.667 46.667 28.8311 92.834 54.498 138.501s60 86.667 103 123s95.167 65.666 156.5 87.999s132.333 33.5 213 33.5c66 0 124.667 -6.66699 176 -20s95.833 -31.333 133.5 -54s70 -50.167 97 -82.5s48.5 -67.5 64.5 -105.5s27.833 -78.167 35.5 -120.5
s11.5 -85.166 11.5 -128.499v-208c0 -55.333 6.33301 -106.333 19 -153s31.667 -87.334 57 -122.001s56.833 -61.667 94.5 -81s80.167 -29 127.5 -29c29.333 0 56.166 4.33301 80.499 13s45 22.834 62 42.501s30.167 45.167 39.5 76.5c9.33301 30.667 14 69.334 14 116.001
v829h198v-804c0 -72 -5.83301 -136 -17.5 -192s-31.5 -103.167 -59.5 -141.5s-66 -67.5 -114 -87.5s-107 -30 -177 -30c-38.667 0 -74.5 6 -107.5 18s-63.667 28.5 -92 49.5s-53.166 45.167 -74.499 72.5s-40 56 -56 86l-7 -197h-188v765c0 38 -5.33301 75.667 -16 113
s-28.167 71.166 -52.5 101.499s-57 54.666 -98 72.999s-91.167 28.5 -150.5 30.5c-50.667 0 -95.167 -6.33301 -133.5 -19s-70.666 -29.667 -96.999 -51s-46.833 -44.666 -61.5 -69.999s-24 -49.666 -28 -72.999c14 -8 26.833 -19 38.5 -33s21.167 -30 28.5 -48
s13 -38 17 -60c4.66699 -22.667 7 -45.667 7 -69v-508h131v-152h-330v663c0 19.333 -1.16699 38.666 -3.5 57.999s-7.16602 38 -14.499 56s-17.333 35.167 -30 51.5s-29.667 30.166 -51 41.499z" />
    <glyph glyph-name="yoyingthai" unicode="&#xe0d;" horiz-adv-x="1898" 
d="M41 870c10.667 46.667 28.835 92.8379 54.502 138.505s60 86.667 103 123s95.167 65.666 156.5 87.999s132.333 33.5 213 33.5c66 0 124.667 -6.66699 176 -20s95.833 -31.333 133.5 -54s70 -50.167 97 -82.5s48.5 -67.5 64.5 -105.5s27.833 -78.167 35.5 -120.5
s11.5 -85.166 11.5 -128.499v-240c0 -46.667 4.5 -85.5 13.5 -116.5s21.667 -56.333 38 -76s36.666 -33.834 60.999 -42.501s51.166 -13 80.499 -13c47.333 0 89.833 9.66699 127.5 29s69.167 46.666 94.5 81.999s44.833 76.333 58.5 123s20.5 97 20.5 151v587h198v-972
c0 -56.667 -2.66699 -106.334 -8 -149.001s-12.666 -80.334 -21.999 -113.001s-19.666 -60.667 -30.999 -84c-12 -22.667 -24.333 -42.667 -37 -60c-23.333 -34.667 -49.833 -64 -79.5 -88s-61.5 -43.5 -95.5 -58.5s-69.667 -25.833 -107 -32.5
c-38.667 -7.33301 -77.334 -11 -116.001 -11c-54.667 0 -106.834 6.83301 -156.501 20.5s-94.5 34.667 -134.5 63s-72.5 63.833 -97.5 106.5s-40.5 93.334 -46.5 152.001h184c4 -31.333 14.667 -58.666 32 -81.999s37.666 -42.833 60.999 -58.5s48.666 -27.5 75.999 -35.5
s53.666 -12 78.999 -12c38.667 0 73.167 4.5 103.5 13.5s56.833 21.333 79.5 37s41.834 34.167 57.501 55.5s28.334 44.166 38.001 68.499s16.834 49.666 21.501 75.999s7 52.166 7 77.499v162c-16 -30 -35.167 -58.667 -57.5 -86s-47.333 -51.166 -75 -71.499
s-58.334 -36.666 -92.001 -48.999s-69.834 -18.5 -108.501 -18.5c-70 0 -128.667 10 -176 30s-85.333 49 -114 87s-49 85 -61 141c-11.333 55.333 -17 119 -17 191v239c0 38 -5.33301 75.667 -16 113s-28.167 71.166 -52.5 101.499s-57 54.666 -98 72.999
s-91.167 28.5 -150.5 30.5c-50.667 0 -95.167 -6.33301 -133.5 -19s-71 -29.167 -98 -49.5s-47.667 -43.166 -62 -68.499s-23.166 -50.666 -26.499 -75.999c14 -8 26.833 -19 38.5 -33s21.167 -30 28.5 -48s13 -38 17 -60c4.66699 -22.667 7 -45.667 7 -69v-508h131v-152
h-330v663c0 19.333 -1.16699 38.666 -3.5 57.999s-7.16602 38 -14.499 56s-17.333 35.167 -30 51.5s-29.667 30.166 -51 41.499z" />
    <glyph glyph-name="dochadathai" unicode="&#xe0e;" horiz-adv-x="1306" 
d="M72 0l0.00195312 152.007h119v511c0 19.333 -1.16699 38.666 -3.5 57.999s-7.33301 38 -15 56s-17.834 35.167 -30.501 51.5s-29 30.166 -49 41.499c10 46.667 27.833 92.834 53.5 138.501s60.667 86.667 105 123s98.666 65.666 162.999 87.999
s140.166 33.5 227.499 33.5c69.333 0 131 -6.66699 185 -20s101.167 -31.333 141.5 -54s74.5 -50.167 102.5 -82.5s50.667 -67.5 68 -105.5s29.666 -78.167 36.999 -120.5s11 -85.166 11 -128.499v-1139h-200c-16.667 23.333 -36 43.666 -58 60.999s-45.5 32 -70.5 44
s-52 20.833 -81 26.5s-57.833 8.5 -86.5 8.5c-33.333 0 -66 -3.33301 -98 -10s-62.833 -16.667 -92.5 -30s-57.167 -30 -82.5 -50s-48 -42.667 -68 -68v181c46.667 43.333 99.834 75.666 159.501 96.999s120.167 32 181.5 32c52 0 103.333 -7.83301 154 -23.5
s98 -38.5 142 -68.5v962c0 38 -5.83301 75.667 -17.5 113s-30.667 71.166 -57 101.499s-61.5 54.833 -105.5 73.5c-45.333 18 -100.333 28 -165 30c-38 0 -72.5 -3.33301 -103.5 -10s-58.833 -15.834 -83.5 -27.501s-46.5 -25.334 -65.5 -41.001
s-34.833 -31.334 -47.5 -47.001s-22.667 -31.167 -30 -46.5s-11.666 -29 -12.999 -41c14 -8 26.5 -19 37.5 -33s20.5 -30 28.5 -48s14 -38 18 -60c3.33301 -22.667 5 -45.667 5 -69v-660h-316z" />
    <glyph glyph-name="topatakthai" unicode="&#xe0f;" horiz-adv-x="1306" 
d="M72 0l0.00585938 152.003h119v511c0 19.333 -1.16699 38.666 -3.5 57.999s-7.33301 38 -15 56s-17.834 35.167 -30.501 51.5s-29 30.166 -49 41.499c10 46.667 27.833 92.834 53.5 138.501s60.667 86.667 105 123s98.666 65.666 162.999 87.999
s140.166 33.5 227.499 33.5c69.333 0 131 -6.66699 185 -20s101.167 -31.333 141.5 -54s74.5 -50.167 102.5 -82.5s50.667 -67.5 68 -105.5s29.666 -78.167 36.999 -120.5s11 -85.166 11 -128.499v-1139h-200c-2.66699 13.333 -7.66699 28.333 -15 45
s-17.333 31.834 -30 45.501s-27.834 24.834 -45.501 33.501s-38.167 13 -61.5 13s-44.166 -4.33301 -62.499 -13s-33.333 -19.834 -45 -33.501s-20.834 -28.5 -27.501 -44.5c-6 -15.333 -9 -30.666 -9 -45.999h-160c0 10.667 -1.83301 23.834 -5.5 39.501
s-10.334 31 -20.001 46s-23.334 27.833 -41.001 38.5s-40.167 16 -67.5 16c-22 0 -40.667 -4.33301 -56 -13s-27.833 -19.834 -37.5 -33.501s-17 -28.834 -22 -45.501s-7.5 -32.667 -7.5 -48h-181c0 50.667 7.66699 94.5 23 131.5s35.833 67.667 61.5 92s56 42.333 91 54
s72.167 17.5 111.5 17.5c52 0 96.5 -11.5 133.5 -34.5s66.5 -56.5 88.5 -100.5c11.333 22 24.833 41 40.5 57s32.667 29 51 39s37.333 17.5 57 22.5s37.5 7.5 53.5 7.5c25.333 0 47.5 -2.83301 66.5 -8.5s36.167 -13.167 51.5 -22.5s28.333 -19.166 39 -29.499l26 -25.5v962
c0 38 -5.83301 75.667 -17.5 113s-30.667 71.166 -57 101.499s-61.5 54.833 -105.5 73.5c-45.333 18 -100.333 28 -165 30c-38 0 -72.5 -3.33301 -103.5 -10s-58.833 -15.834 -83.5 -27.501s-46.5 -25.334 -65.5 -41.001s-34.833 -31.334 -47.5 -47.001
s-22.667 -31.167 -30 -46.5s-11.666 -29 -12.999 -41c14 -8 26.5 -19 37.5 -33s20.5 -30 28.5 -48s14 -38 18 -60c3.33301 -22.667 5 -45.667 5 -69v-660h-316z" />
    <glyph glyph-name="thothanthai" unicode="&#xe10;" horiz-adv-x="1141" 
d="M72 870c8.66699 56.667 26.498 108.167 53.498 154.5s62 86.166 105 119.499s94.167 59.333 153.5 78s126 28 200 28c33.333 0 66.5 -2.5 99.5 -7.5s66.167 -12.167 99.5 -21.5c23.333 1.33301 43 6 59 14s29 18 39 30s17.667 25.333 23 40c4.66699 16 7 30.667 7 44h216
c-0.666992 -21.333 -4.16699 -43.5 -10.5 -66.5s-16.833 -44.833 -31.5 -65.5s-33.5 -39.667 -56.5 -57s-50.833 -30.333 -83.5 -39c15.333 -16.667 29.333 -34.834 42 -54.501s23.334 -41.667 32.001 -66s15 -50.666 19 -78.999s6 -59.166 6 -92.499
c0 -32 -4.66699 -69.167 -14 -111.5s-21.333 -87.333 -36 -135s-31.167 -97.334 -49.5 -149.001s-37.666 -102.834 -57.999 -153.501l-61.5 -147.5l-60 -132.5h-274l-195 565h-159v153h314l180 -541l41 96l43.5 109l43 113.5c14.333 38.333 26.833 76 37.5 113
s19 72.5 25 106.5c7.33301 34 11 65.667 11 95c2 90.667 -19.833 158.834 -65.5 204.501s-114.834 68.5 -207.501 68.5c-74 0 -133.167 -18.167 -177.5 -54.5s-74.166 -89.166 -89.499 -158.499h-220zM110.998 -406c-2.66699 50.667 2.66113 91.9951 15.9941 123.995
s30.833 57.833 52.5 77.5s44.334 33.334 68.001 41.001s44.834 11.5 63.501 11.5s35.334 -2.16699 50.001 -6.5s28 -9.83301 40 -16.5s22.667 -14.667 32 -24s17.666 -19 24.999 -29c9.33301 16 20 28.833 32 38.5s24.833 17.334 38.5 23.001s26.334 9.5 38.001 11.5
s21.5 3 29.5 3c15.333 0 29.333 -2 42 -6s24.834 -8.33301 36.501 -13s21.834 -10.5 30.501 -17.5s16 -14.167 22 -21.5h6v93h200v-289h-200c-4 14 -8.66699 27 -14 39s-12.166 22.833 -20.499 32.5s-18 17.5 -29 23.5s-24.833 9 -41.5 9s-30.834 -2.66699 -42.501 -8
s-21.167 -12.666 -28.5 -21.999s-13 -20.166 -17 -32.499s-6 -26.166 -6 -41.499h-112c-4 8.66699 -8.16699 19.167 -12.5 31.5s-9.83301 23.833 -16.5 34.5s-15 19.667 -25 27s-22.667 11 -38 11c-13.333 0 -25.166 -3 -35.499 -9s-19 -13.833 -26 -23.5
s-12.167 -20.5 -15.5 -32.5s-5 -25 -5 -39h-137z" />
    <glyph glyph-name="thonangmonthothai" unicode="&#xe11;" horiz-adv-x="1264" 
d="M51 1226l185.998 0.00292969c0 -16 2.16699 -31.667 6.5 -47s11 -28.833 20 -40.5s20.167 -20.834 33.5 -27.501c14 -6.66699 29.833 -10 47.5 -10s33.334 2.83301 47.001 8.5s25 14.334 34 26.001s16.167 25.167 21.5 40.5c6 16 9 32.667 9 50h189v-119
c33.333 28 66 51.5 98 70.5s62.167 34.333 90.5 46s54.666 20 78.999 25s46.166 7.5 65.499 7.5c35.333 0 63.666 -6.16699 84.999 -18.5s38.333 -29.666 51 -51.999s21 -49.333 25 -81s6 -66.834 6 -105.501v-999h-200v921c0 18.667 -0.333008 36.5 -1 53.5
s-2.5 32.167 -5.5 45.5s-7.83301 23.5 -14.5 30.5s-16.667 10.5 -30 10.5c-16.667 0 -37 -6.5 -61 -19.5s-51 -31.167 -81 -54.5s-61.833 -52 -95.5 -86s-68.167 -72.667 -103.5 -116l-67.5 -79.5c-19.667 -22.333 -36.667 -42.833 -51 -61.5
s-26.166 -35.834 -35.499 -51.501s-16.833 -32.167 -22.5 -49.5s-9.5 -36.166 -11.5 -56.499s-3 -45.166 -3 -74.499v-412h-201v388c0 31.333 0.5 58.666 1.5 81.999s2.83301 44.5 5.5 63.5s7 36.5 13 52.5s13.667 32.333 23 49s21 33.667 35 51l50 62l66.5 69.5
c21.667 21.667 40.334 42.667 56.001 63s27.334 41.166 35.001 62.499s9.16699 45.666 4.5 72.999h-3c-4 -9.33301 -10.833 -18 -20.5 -26s-21 -15.333 -34 -22s-27.167 -12.167 -42.5 -16.5s-30.666 -6.5 -45.999 -6.5c-13.333 0 -28.5 1.16699 -45.5 3.5
s-35 7.16602 -54 14.499s-37.833 17.5 -56.5 30.5s-35 29.833 -49 50.5s-25.667 46 -35 76s-14 65.333 -14 106z" />
    <glyph glyph-name="thophuthaothai" unicode="&#xe12;" horiz-adv-x="1949" 
d="M120 0l-0.00292969 761.999c0 56.667 4.5 111.167 13.5 163.5s26.5 100 52.5 143s61.667 79.167 107 108.5c46 29.333 105 49.666 177 60.999l158 -168l149 168c74.667 -10.667 135.667 -30.667 183 -60s83.833 -65.166 109.5 -107.499s43.167 -90 52.5 -143
s14 -108.167 14 -165.5v-228c0 -55.333 6.5 -106.333 19.5 -153s32.5 -87.334 58.5 -122.001s57.5 -61.667 94.5 -81s79.167 -29 126.5 -29c31.333 0 58.833 4.33301 82.5 13s43.834 22.834 60.501 42.501s29.334 45.167 38.001 76.5c8.66699 30.667 13 69.334 13 116.001
v829h202v-804c0 -72 -6.16699 -136 -18.5 -192s-32.833 -103.167 -61.5 -141.5s-66.334 -67.5 -113.001 -87.5s-105 -30 -175 -30c-38.667 0 -75.167 6 -109.5 18s-65 28.5 -92 49.5s-51.833 45.167 -74.5 72.5s-41.667 56 -57 86l-6 -197h-188v785
c0 25.333 -1.16699 51.666 -3.5 78.999s-7.66602 53.166 -15.999 77.499s-20.333 46.333 -36 66s-36.167 33.834 -61.5 42.501l-168 -171c-2 -2.66699 -4.83301 -5.33398 -8.5 -8.00098s-8.5 -4 -14.5 -4s-11.5 1.33301 -16.5 4s-8.16699 5.33398 -9.5 8.00098l-168 171
c-25.333 -10 -45.666 -24.667 -60.999 -44s-27 -41.166 -35 -65.499s-13.5 -50 -16.5 -77s-4.5 -53.167 -4.5 -78.5v-531l251 320h-101v153h298v-153l-448 -574h-197z" />
    <glyph glyph-name="nonenthai" unicode="&#xe13;" horiz-adv-x="1898" 
d="M41 870c10.667 46.667 28.8359 92.8359 54.5029 138.503s60 86.667 103 123s95.167 65.666 156.5 87.999s132.333 33.5 213 33.5c66 0 124.667 -6.66699 176 -20s95.833 -31.333 133.5 -54s70 -50.167 97 -82.5s48.5 -67.5 64.5 -105.5s27.833 -78.167 35.5 -120.5
s11.5 -85.166 11.5 -128.499v-345c0 -46.667 4.5 -85.5 13.5 -116.5s21.667 -56.333 38 -76s36.666 -33.834 60.999 -42.501s51.166 -13 80.499 -13c47.333 0 89.833 9.66699 127.5 29s69.167 46.333 94.5 81s44.833 75.667 58.5 123s20.5 98 20.5 152v692h198v-1226h-187
l-5 197c-16 -30 -35.167 -58.667 -57.5 -86s-47.333 -51.5 -75 -72.5s-58.334 -37.5 -92.001 -49.5s-69.834 -18 -108.501 -18c-70 0 -128.667 10 -176 30s-85.333 49.167 -114 87.5s-48.834 85.5 -60.501 141.5s-17.5 120 -17.5 192v343c0 38 -5.33301 75.667 -16 113
s-28.167 71.166 -52.5 101.499s-57 54.666 -98 72.999s-91.167 28.5 -150.5 30.5c-50.667 0 -95.167 -6.33301 -133.5 -19s-71 -29.167 -98 -49.5s-47.667 -43.166 -62 -68.499s-23.166 -50.666 -26.499 -75.999c14 -8 26.833 -19 38.5 -33s21.167 -30 28.5 -48
s13 -38 17 -60c4.66699 -22.667 7 -45.667 7 -69v-508h131v-152h-330v663c0 19.333 -1.16699 38.666 -3.5 57.999s-7.16602 38 -14.499 56s-17.333 35.167 -30 51.5s-29.667 30.166 -51 41.499z" />
    <glyph glyph-name="dodekthai" unicode="&#xe14;" horiz-adv-x="1278" 
d="M120 0l-0.00195312 736.001c0 44 3.16699 87.167 9.5 129.5s17.166 82.666 32.499 120.999s36 73.833 62 106.5s58.167 60.667 96.5 84s83.833 41.666 136.5 54.999c51.333 14 112 21 182 21c68.667 0 129.167 -6.83301 181.5 -20.5s97.833 -32.167 136.5 -55.5
s70.834 -51.333 96.501 -84s46.334 -68.167 62.001 -106.5s26.834 -78.666 33.501 -120.999s10 -85.5 10 -129.5v-736h-198v762c0 25.333 -2 50.666 -6 75.999s-10.667 50 -20 74s-22 46.333 -38 67s-35.667 38.667 -59 54s-51.333 27.333 -84 36
c-33.333 9.33301 -71.666 14 -114.999 14s-81.333 -4.5 -114 -13.5s-61.167 -21.167 -85.5 -36.5s-44.333 -33.333 -60 -54s-28.334 -43 -38.001 -67s-16.167 -48.667 -19.5 -74s-5 -50.666 -5 -75.999v-508l279 320h-114v153h309v-153l-474 -574h-197z" />
    <glyph glyph-name="totaothai" unicode="&#xe15;" horiz-adv-x="1287" 
d="M120 0l0.000976562 742c0 38 2.33301 75.5 7 112.5s12.334 72.667 23.001 107s25.334 66.666 44.001 96.999s41.667 57.666 69 81.999s59.166 44.666 95.499 60.999s78.5 28.5 126.5 36.5l160 -168l151 168c74 -10.667 135.333 -31.834 184 -63.501
s86.834 -69.834 114.501 -114.501s47 -94.5 58 -149.5s16.5 -111.167 16.5 -168.5v-742h-197v765c0 25.333 -2.33301 52.833 -7 82.5s-12.334 57.834 -23.001 84.501s-24.834 50.834 -42.501 72.501s-39.167 36.834 -64.5 45.501l-165 -171l-12 -8
c-4.66699 -2.66699 -9 -4 -13 -4c-5.33301 0 -10.333 1.33301 -15 4s-8.33398 5.33398 -11.001 8.00098l-168 171c-25.333 -10 -46.5 -25.667 -63.5 -47s-30.667 -45.333 -41 -72s-17.833 -54.667 -22.5 -84s-7 -56.666 -7 -81.999v-511l279 320h-114v153h314v-153
l-479 -574h-197z" />
    <glyph glyph-name="thothungthai" unicode="&#xe16;" horiz-adv-x="1232" 
d="M41 870c6.66699 31.333 16.6631 62.5039 29.9961 93.5039s30.166 60.667 50.499 89s44.833 54.666 73.5 78.999s61.667 45.5 99 63.5s79.833 32.167 127.5 42.5s100.834 15.5 159.501 15.5c69.333 0 130.5 -6.66699 183.5 -20s99.167 -31.333 138.5 -54
s72.333 -50.167 99 -82.5s48.334 -67.5 65.001 -105.5s28.5 -78.167 35.5 -120.5s10.5 -85.166 10.5 -128.499v-742h-199v765c0 38 -5.16699 75.667 -15.5 113s-28.333 71.166 -54 101.499s-60 54.666 -103 72.999s-96.5 28.5 -160.5 30.5
c-40 0 -75.833 -3.33301 -107.5 -10s-59.667 -16.167 -84 -28.5s-45.166 -26 -62.499 -41s-31.833 -30.833 -43.5 -47.5s-20.167 -32.167 -25.5 -46.5s-8.66602 -27.5 -9.99902 -39.5c14 -8 26.833 -19 38.5 -33s21.167 -30 28.5 -48s13 -38 17 -60
c4.66699 -22.667 7 -45.667 7 -69v-508h131v-152h-330v663c0 19.333 -1.16699 38.666 -3.5 57.999s-7.16602 38 -14.499 56s-17.333 35.167 -30 51.5s-29.667 30.166 -51 41.499z" />
    <glyph glyph-name="thothahanthai" unicode="&#xe17;" horiz-adv-x="1255" 
d="M120 0v1226h188v-195h3c84.667 150 218.334 225 401.001 225c82 0 150.333 -11.333 205 -34s98 -53.334 130 -92.001s54.833 -85.834 68.5 -141.501s20.5 -116.167 20.5 -181.5v-807h-200v829c0 38 -5.83301 72.333 -17.5 103s-28.5 56.667 -50.5 78
s-48.333 37.833 -79 49.5s-65.334 17.5 -104.001 17.5c-61.333 0 -114.833 -9.66699 -160.5 -29s-84.167 -46.333 -115.5 -81s-54.5 -75.334 -69.5 -122.001s-22.5 -97 -22.5 -151v-694h-197z" />
    <glyph glyph-name="thothongthai" unicode="&#xe18;" horiz-adv-x="1189" 
d="M120 350l-0.00292969 256.996h197v-257c0 -38.667 8.5 -71.167 25.5 -97.5s38.667 -47.666 65 -63.999s56 -28 89 -35s66.167 -10.5 99.5 -10.5c28.667 0 59.334 3 92.001 9s63 16.5 91 31.5s51.167 35.833 69.5 62.5s27.5 61.334 27.5 104.001c0 23.333 -1 44 -3 62
s-6.83301 35.167 -14.5 51.5s-19.334 31.333 -35.001 45s-36.167 27 -61.5 40s-57 26.5 -95 40.5s-84 29 -138 45l-98 28c-32 9.33301 -63.667 19.833 -95 31.5s-60.166 25 -86.499 40s-49.166 32.5 -68.499 52.5s-34.666 43.333 -45.999 70s-16.333 58.667 -15 96
c0.666992 34.667 7.66699 66.5 21 95.5s30.666 54.333 51.999 76s46.166 40.5 74.499 56.5s58.5 29.167 90.5 39.5s64.5 18 97.5 23s65.5 7.5 97.5 7.5c70 0 134.5 -6.83301 193.5 -20.5s110.5 -35.667 154.5 -66s78.167 -69 102.5 -116s36.5 -104.167 36.5 -171.5h-205
c-0.666992 38 -7.66699 69.833 -21 95.5s-31.666 46.834 -54.999 63.501s-51 28.334 -83 35.001s-67 11 -105 13c-33.333 0 -65.333 -1.83301 -96 -5.5s-57.667 -10.5 -81 -20.5s-42 -22.667 -56 -38s-21 -33.666 -21 -54.999c0 -18.667 4.83301 -35 14.5 -49
s22.834 -27 39.501 -39s35.834 -22 57.501 -30s45.167 -16 70.5 -24s51.166 -15.667 77.499 -23l77.5 -22l130 -44.5c40 -13.667 75.5 -29 106.5 -46s58.5 -35.667 82.5 -56s44 -43.833 60 -70.5s27.833 -57 35.5 -91s11.5 -73.667 11.5 -119
c0 -44.667 -6.33301 -85 -19 -121s-29.834 -67.833 -51.501 -95.5s-47.667 -51.5 -78 -71.5s-63.5 -36.333 -99.5 -49s-74.167 -21.834 -114.5 -27.501s-80.833 -8.5 -121.5 -8.5c-43.333 0 -84.833 2.83301 -124.5 8.5s-77 14.834 -112 27.501s-67.167 29.167 -96.5 49.5
s-54.666 44.166 -75.999 71.499s-37.833 59 -49.5 95s-17.5 76.333 -17.5 121z" />
    <glyph glyph-name="nonuthai" unicode="&#xe19;" horiz-adv-x="1255" 
d="M120 422l0.000976562 804h197v-829c0 -36.667 6 -70.167 18 -100.5s28.833 -56.5 50.5 -78.5s48.167 -39 79.5 -51s66.666 -18 105.999 -18c61.333 0 114.833 9.66699 160.5 29s83.667 46.333 114 81s53 75.667 68 123s22.5 98 22.5 152v692h200v-1226h-188l-6 197
c-41.333 -76.667 -95.333 -133.5 -162 -170.5s-146.667 -55.5 -240 -55.5c-81.333 0 -148.833 10.833 -202.5 32.5s-96.5 52.334 -128.5 92.001s-54.833 87.167 -68.5 142.5s-20.5 116.666 -20.5 183.999z" />
    <glyph glyph-name="bobaimaithai" unicode="&#xe1a;" horiz-adv-x="1255" 
d="M120 493l-0.00195312 733h197v-756c0 -25.333 2.16699 -51.166 6.5 -77.499s11.333 -51.666 21 -75.999s22.334 -46.833 38.001 -67.5s35.167 -38.834 58.5 -54.501s50.333 -28.167 81 -37.5s66 -14 106 -14s75.333 4.66699 106 14s57.334 21.833 80.001 37.5
s41.834 33.834 57.501 54.501s28.167 43.167 37.5 67.5s16.166 49.666 20.499 75.999s6.5 52.166 6.5 77.499v756h200v-733c0 -43.333 -3.16699 -86.5 -9.5 -129.5s-17 -83.667 -32 -122s-35.167 -74 -60.5 -107s-56.5 -61.5 -93.5 -85.5s-81.333 -42.5 -133 -55.5
s-111.5 -19.5 -179.5 -19.5s-127.833 6.5 -179.5 19.5s-96.5 31.5 -134.5 55.5s-69.5 52.5 -94.5 85.5s-45 68.667 -60 107s-25.333 79 -31 122s-8.5 86.167 -8.5 129.5z" />
    <glyph glyph-name="poplathai" unicode="&#xe1b;" horiz-adv-x="1255" 
d="M120 493l-0.00195312 733h197v-756c0 -25.333 2.16699 -51.166 6.5 -77.499s11.333 -51.666 21 -75.999s22.334 -46.833 38.001 -67.5s35.167 -38.834 58.5 -54.501s50.333 -28.167 81 -37.5s66 -14 106 -14s75.333 4.66699 106 14s57.334 21.833 80.001 37.5
s41.834 33.834 57.501 54.501s28.167 43.167 37.5 67.5s16.166 49.666 20.499 75.999s6.5 52.166 6.5 77.499v1291h200v-1268c0 -43.333 -3.16699 -86.5 -9.5 -129.5s-17 -83.667 -32 -122s-35.167 -74 -60.5 -107s-56.5 -61.5 -93.5 -85.5s-81.333 -42.5 -133 -55.5
s-111.5 -19.5 -179.5 -19.5s-127.833 6.5 -179.5 19.5s-96.5 31.5 -134.5 55.5s-69.5 52.5 -94.5 85.5s-45 68.667 -60 107s-25.333 79 -31 122s-8.5 86.167 -8.5 129.5z" />
    <glyph glyph-name="phophungthai" unicode="&#xe1c;" horiz-adv-x="1347" 
d="M120 339l-0.00390625 887h359v-153h-162v-685c0 -85.333 11 -147.5 33 -186.5s53.667 -58.5 95 -58.5c32 0 56.833 7.83301 74.5 23.5s30.334 36.834 38.001 63.501s12.334 58 14.001 94s2.5 74.333 2.5 115v177h200v-177c0 -40.667 1 -79 3 -115s7.5 -67.333 16.5 -94
s22.5 -47.834 40.5 -63.501s43.667 -23.5 77 -23.5c40.667 0 70.834 19.5 90.501 58.5s29.5 101.167 29.5 186.5v838h198v-887c0 -62.667 -6.83301 -116.834 -20.5 -162.501s-33 -83.334 -58 -113.001s-55.167 -51.5 -90.5 -65.5s-74.666 -21 -117.999 -21
c-64.667 0 -120.5 15.5 -167.5 46.5s-81.833 75.833 -104.5 134.5c-18.667 -58.667 -49 -103.667 -91 -135c-43.333 -30.667 -98 -46 -164 -46c-45.333 0 -86 7 -122 21s-66.833 35.833 -92.5 65.5s-45.5 67.334 -59.5 113.001s-21 99.834 -21 162.501z" />
    <glyph glyph-name="fofathai" unicode="&#xe1d;" horiz-adv-x="1347" 
d="M120 336l-0.00390625 890h359v-153h-162v-688c0 -85.333 11 -147.5 33 -186.5s53.667 -58.5 95 -58.5c32 0 56.833 7.83301 74.5 23.5s30.334 36.834 38.001 63.501s12.334 58 14.001 94s2.5 74.667 2.5 116v176h200v-176c0 -41.333 1 -80 3 -116s7.5 -67.333 16.5 -94
s22.5 -47.834 40.5 -63.501s43.667 -23.5 77 -23.5c40.667 0 70.834 19.5 90.501 58.5s29.5 101.167 29.5 186.5v1376h198v-1425c0 -62.667 -6.83301 -116.834 -20.5 -162.501s-33 -83.334 -58 -113.001s-55.167 -51.5 -90.5 -65.5s-74.666 -21 -117.999 -21
c-64.667 0 -120.5 15.5 -167.5 46.5s-81.833 75.833 -104.5 134.5c-18.667 -58.667 -49 -103.667 -91 -135c-43.333 -30.667 -98 -46 -164 -46c-45.333 0 -86 7 -122 21s-66.833 35.833 -92.5 65.5s-45.5 67.334 -59.5 113.001s-21 99.834 -21 162.501z" />
    <glyph glyph-name="phophanthai" unicode="&#xe1e;" horiz-adv-x="1587" 
d="M44 1226h219l204 -995h3l215 995h217l216 -995h3l205 995h217l-311 -1226h-219l-214 975h-11l-214 -975h-218z" />
    <glyph glyph-name="fofanthai" unicode="&#xe1f;" horiz-adv-x="1587" 
d="M44 1226h219l204 -995h3l215 995h217l216 -995h3l289 1530h219l-397 -1761h-219l-214 975h-11l-214 -975h-218z" />
    <glyph glyph-name="phosamphaothai" unicode="&#xe20;" horiz-adv-x="1306" 
d="M72 0l0.00292969 152.005h119v511c0 19.333 -1.16699 38.666 -3.5 57.999s-7.33301 38 -15 56s-17.834 35.167 -30.501 51.5s-29 30.166 -49 41.499c10 46.667 27.833 92.834 53.5 138.501s60.667 86.667 105 123s98.666 65.666 162.999 87.999
s140.166 33.5 227.499 33.5c69.333 0 131 -6.66699 185 -20s101.167 -31.333 141.5 -54s74.5 -50.167 102.5 -82.5s50.667 -67.5 68 -105.5s29.666 -78.167 36.999 -120.5s11 -85.166 11 -128.499v-742h-200v765c0 38 -5.83301 75.667 -17.5 113s-30.667 71.166 -57 101.499
s-61.5 54.833 -105.5 73.5c-45.333 18 -100.333 28 -165 30c-38 0 -72.5 -3.33301 -103.5 -10s-58.833 -15.834 -83.5 -27.501s-46.5 -25.334 -65.5 -41.001s-34.833 -31.334 -47.5 -47.001s-22.667 -31.167 -30 -46.5s-11.666 -29 -12.999 -41c14 -8 26.5 -19 37.5 -33
s20.5 -30 28.5 -48s14 -38 18 -60c3.33301 -22.667 5 -45.667 5 -69v-660h-316z" />
    <glyph glyph-name="momathai" unicode="&#xe21;" horiz-adv-x="1255" 
d="M120 0l-0.000976562 1226h197v-692c0 -55.333 7.5 -106.333 22.5 -153s38.167 -87.334 69.5 -122.001s69.833 -61.667 115.5 -81s99.167 -29 160.5 -29c38.667 0 73.334 6 104.001 18s57 29 79 51s38.833 48.167 50.5 78.5s17.5 63.833 17.5 100.5v829h200v-804
c0 -66 -6.83301 -127 -20.5 -183s-36.5 -103.833 -68.5 -143.5s-75.333 -70.334 -130 -92.001s-123 -32.5 -205 -32.5c-91.333 0 -170.5 18.5 -237.5 55.5s-121.5 93.833 -163.5 170.5v-197h-191z" />
    <glyph glyph-name="yoyakthai" unicode="&#xe22;" horiz-adv-x="1222" 
d="M99 377c0 34.667 2.6709 66.832 8.00391 96.499s14.666 57 27.999 82s30.666 46.667 51.999 65s47.666 33.5 78.999 45.5c-36 13.333 -64.833 30.666 -86.5 51.999s-38.334 44.166 -50.001 68.499s-19.167 49.5 -22.5 75.5s-5 50.667 -5 74
c0 38.667 4.83301 72.334 14.5 101.001s22.834 53.834 39.501 75.501s35.667 39.667 57 54s44.166 26 68.499 35s49.166 15.333 74.499 19s49.333 5.5 72 5.5h162v-168h-111c-12.667 0 -28.667 -0.666992 -48 -2s-38.166 -6.33301 -56.499 -15s-34 -21.834 -47 -39.501
s-19.5 -42.5 -19.5 -74.5c0 -36 4.66699 -65.167 14 -87.5s22.166 -39.833 38.499 -52.5s36 -21.5 59 -26.5s47.5 -8.5 73.5 -10.5h97v-163h-97c-26.667 -2 -51.667 -5.5 -75 -10.5s-42.833 -14.167 -58.5 -27.5s-28.167 -32.666 -37.5 -57.999s-14 -60.666 -14 -105.999
c0 -40.667 8.33301 -76.334 25 -107.001s38.834 -56.167 66.501 -76.5s59.5 -35.666 95.5 -45.999s73.333 -15.5 112 -15.5c43.333 0 83.5 5.83301 120.5 17.5s68.5 30.5 94.5 56.5s46.333 59.667 61 101s22 92 22 152v759h199v-801c0 -74 -13.167 -139.5 -39.5 -196.5
s-62.166 -104.5 -107.499 -142.5s-97.833 -66.667 -157.5 -86s-123.834 -29 -192.501 -29c-42.667 0 -84.834 3.33301 -126.501 10s-81 17.334 -118 32.001s-71.833 33.167 -104.5 55.5s-60.667 48.666 -84 78.999s-41.666 64.5 -54.999 102.5s-20 80.333 -20 127z" />
    <glyph glyph-name="roruathai" unicode="&#xe23;" horiz-adv-x="1052" 
d="M63 380l202.997 0.00195312c5.33301 -82 30.666 -142 75.999 -180c44.667 -38 109.667 -57 195 -57c16.667 0 34.334 1.16699 53.001 3.5s36.667 6.16602 54 11.499s34 12.5 50 21.5s30.333 20.5 43 34.5s22.334 30.667 29.001 50c7.33301 20.667 11 43.667 11 69
c0 29.333 -5.33301 54 -16 74s-27.334 38.167 -50.001 54.5s-51 32 -85 47s-74.333 31.833 -121 50.5l-108.5 45c-34.333 14 -66.333 28.833 -96 44.5s-56.5 32.167 -80.5 49.5s-44.833 37 -62.5 59s-31.334 46.667 -41.001 74s-14.5 58.333 -14.5 93
c0 38 5.16699 72.333 15.5 103s25 58 44 82s41.667 45 68 63s54.333 32.5 84 43.5s60.5 19.5 92.5 25.5s64 9 96 9c63.333 0 121.5 -5.83301 174.5 -17.5s99.333 -32.167 139 -61.5s70.834 -67.833 93.501 -115.5s35.667 -107.5 39 -179.5h-200
c-4 38.667 -12.167 71.667 -24.5 99s-28.5 49.333 -48.5 66s-43.167 28.834 -69.5 36.501s-54.833 11.5 -85.5 11.5c-23.333 0 -47.666 -2.83301 -72.999 -8.5s-48.333 -14.834 -69 -27.501s-37.5 -29.334 -50.5 -50.001s-19.5 -46 -19.5 -76
c0 -29.333 6.16699 -53 18.5 -71s30.333 -34.333 54 -49s52.5 -28.334 86.5 -41.001c35.333 -12 74.333 -26 117 -42c52.667 -19.333 99 -38.333 139 -57s74.5 -37.167 103.5 -55.5s53.333 -37.166 73 -56.499s35.334 -40.333 47.001 -63s19.834 -46.667 24.501 -72
c4.66699 -24.667 7 -52.667 7 -84c0 -66 -11.667 -122.167 -35 -168.5s-55.5 -83.666 -96.5 -111.999s-88.667 -48.5 -143 -60.5s-113.5 -18 -177.5 -18c-62.667 0 -121.167 7.16699 -175.5 21.5s-102.5 37.666 -144.5 69.999s-75.667 74.333 -101 126
s-39.333 113.5 -42 185.5z" />
    <glyph glyph-name="ruthai" unicode="&#xe24;" horiz-adv-x="1232" 
d="M41 870c6.66699 31.333 16.667 62.5049 30 93.5049s30.166 60.667 50.499 89s44.833 54.666 73.5 78.999s61.667 45.5 99 63.5s79.833 32.167 127.5 42.5s100.834 15.5 159.501 15.5c69.333 0 130.5 -6.66699 183.5 -20s99.167 -31.333 138.5 -54
s72.333 -50.167 99 -82.5s48.334 -67.5 65.001 -105.5s28.5 -78.167 35.5 -120.5s10.5 -85.166 10.5 -128.499v-1139h-199v1162c0 38 -5.16699 75.667 -15.5 113s-28.333 71.166 -54 101.499s-60 54.666 -103 72.999s-96.5 28.5 -160.5 30.5
c-60 0 -110.833 -6.83301 -152.5 -20.5s-75.334 -30.834 -101.001 -51.501s-44.834 -43.667 -57.501 -69s-20 -49.333 -22 -72c14 -8 26.833 -19 38.5 -33s21.167 -30 28.5 -48s13 -38 17 -60c4.66699 -22.667 7 -45.667 7 -69v-508h131v-152h-330v663
c0 19.333 -1.16699 38.666 -3.5 57.999s-7.16602 38 -14.499 56s-17.333 35.167 -30 51.5s-29.667 30.166 -51 41.499z" />
    <glyph glyph-name="lolingthai" unicode="&#xe25;" horiz-adv-x="1224" 
d="M85 314c0 46.667 5.33398 87.5029 16.001 122.503s25.5 65.333 44.5 91s41.333 47.5 67 65.5s54.167 33.167 85.5 45.5s63.5 22.833 96.5 31.5s66.833 16.667 101.5 24c30.667 5.33301 62.167 9.66602 94.5 12.999s63.666 7.5 93.999 12.5s59.166 10.667 86.499 17
s51.166 15.166 71.499 26.499s36.333 26 48 44s17.5 40 17.5 66c0 31.333 -3.66699 58.166 -11 80.499s-17.5 41.333 -30.5 57s-28.333 28 -46 37s-36.5 16.167 -56.5 21.5s-40.833 9 -62.5 11s-43.167 3 -64.5 3c-43.333 0 -83 -3.83301 -119 -11.5
s-67.167 -20.834 -93.5 -39.501s-47.166 -43.5 -62.499 -74.5s-24 -68.833 -26 -113.5h-205c2 50.667 9.83301 96 23.5 136s32.167 75 55.5 105s50.666 55.167 81.999 75.5s66.166 37.333 104.499 51s79.166 23.5 122.499 29.5s87.333 9 132 9
c36 0 72.333 -2.16699 109 -6.5s72 -12 106 -23s65.5 -25.167 94.5 -42.5s54.333 -39.166 76 -65.499s38.834 -57.5 51.501 -93.5c12.667 -36.667 19 -78.334 19 -125.001v-894h-199v634c-19.333 -14 -43.166 -25.167 -71.499 -33.5s-59 -15.166 -92 -20.499
s-67 -9.83301 -102 -13.5s-69.5 -8.5 -103.5 -14.5s-66.167 -13.833 -96.5 -23.5s-57.166 -23 -80.499 -40s-41.833 -38.5 -55.5 -64.5s-20.5 -57.5 -20.5 -94.5s7.33301 -67.667 22 -92s34 -44 58 -59s50.833 -25.667 80.5 -32s58.834 -9.5 87.501 -9.5
c23.333 0 44.833 1.5 64.5 4.5s38.167 6.5 55.5 10.5v-155c-27.333 -8 -54.166 -13.833 -80.499 -17.5s-54.833 -5.5 -85.5 -5.5c-54.667 0 -106.334 5.83301 -155.001 17.5s-91.5 31.167 -128.5 58.5s-66.167 62.5 -87.5 105.5s-32 95.833 -32 158.5z" />
    <glyph glyph-name="luthai" unicode="&#xe26;" horiz-adv-x="1306" 
d="M72 0l0.00292969 152.005h119v511c0 19.333 -1.16699 38.666 -3.5 57.999s-7.33301 38 -15 56s-17.834 35.167 -30.501 51.5s-29 30.166 -49 41.499c10 46.667 27.833 92.834 53.5 138.501s60.667 86.667 105 123s98.666 65.666 162.999 87.999
s140.166 33.5 227.499 33.5c69.333 0 131 -6.66699 185 -20s101.167 -31.333 141.5 -54s74.5 -50.167 102.5 -82.5s50.667 -67.5 68 -105.5s29.666 -78.167 36.999 -120.5s11 -85.166 11 -128.499v-1139h-200v1162c0 38 -5.83301 75.667 -17.5 113
s-30.667 71.166 -57 101.499s-61.5 54.833 -105.5 73.5c-45.333 18 -100.333 28 -165 30c-38 0 -72.5 -3.33301 -103.5 -10s-58.833 -15.834 -83.5 -27.501s-46.5 -25.334 -65.5 -41.001s-34.833 -31.334 -47.5 -47.001s-22.667 -31.167 -30 -46.5s-11.666 -29 -12.999 -41
c14 -8 26.5 -19 37.5 -33s20.5 -30 28.5 -48s14 -38 18 -60c3.33301 -22.667 5 -45.667 5 -69v-660h-316z" />
    <glyph glyph-name="wowaenthai" unicode="&#xe27;" horiz-adv-x="1112" 
d="M82 418l200.998 -0.00390625c3.33301 -47.333 12 -88 26 -122s32.167 -62.667 54.5 -86s48.5 -40.666 78.5 -51.999c28.667 -12 60.334 -18 95.001 -18c44.667 0 84.667 9.33301 120 28s65.166 47.334 89.499 86.001s43 87.834 56 147.501s19.5 130.334 19.5 212.001
s-6.5 152.167 -19.5 211.5s-31.667 108.5 -56 147.5s-54.166 68.167 -89.499 87.5s-75.333 29 -120 29c-34.667 0 -66.667 -5.83301 -96 -17.5s-55.166 -29.167 -77.499 -52.5s-40.333 -52.5 -54 -87.5s-22.5 -75.5 -26.5 -121.5h-201c2 64.667 14.167 124.5 36.5 179.5
s53.5 101.833 93.5 140.5s87.667 69.334 143 92.001s116 34 182 34c84.667 0 158 -15.667 220 -47s113.333 -75 154 -131s70.834 -123.333 90.501 -202s29.5 -166.334 29.5 -263.001c0 -96 -9.83301 -183.5 -29.5 -262.5s-49.834 -146.5 -90.501 -202.5
s-91.667 -99 -153 -129s-135 -45 -221 -45c-66.667 0 -127.5 10.667 -182.5 32s-102.5 52 -142.5 92s-71.167 87.167 -93.5 141.5s-34.5 113.833 -36.5 178.5z" />
    <glyph glyph-name="sosalathai" unicode="&#xe28;" horiz-adv-x="1267" 
d="M120 0v733.001c0 44.667 2.83301 88.5 8.5 131.5s15.834 83.333 30.501 121s34.667 73.167 60 106.5s57 61.666 95 84.999s83.333 41.833 136 55.5s114 20.5 184 20.5c48.667 0 92.334 -3.33301 131.001 -10c38.667 -5.33301 74.667 -12.666 108 -21.999
c22.667 0 42.167 3.83301 58.5 11.5s30.166 17.5 41.499 29.5s19.666 25.667 24.999 41s8.33301 30.666 9 45.999h216c-0.666992 -21.333 -4.66699 -43.666 -12 -66.999s-18.333 -45.666 -33 -66.999s-33.667 -41 -57 -59c-25.333 -17.333 -54.333 -30 -87 -38
c21.333 -22 39.333 -47.833 54 -77.5s26.334 -61.334 35.001 -95.001s15 -68.834 19 -105.501s6 -72.334 6 -107.001v-733h-200v759c0 25.333 -1.83301 50.666 -5.5 75.999s-9.83398 50.166 -18.501 74.499s-20.334 47 -35.001 68s-33.667 39.333 -57 55s-51.333 28 -84 37
s-70.667 13.5 -114 13.5c-44 0 -82.333 -4.5 -115 -13.5s-60.667 -21.333 -84 -37s-42.833 -34 -58.5 -55s-27.834 -43.667 -36.501 -68s-14.667 -49.166 -18 -74.499s-5 -50.666 -5 -75.999v-274c22 42.667 46.5 79.334 73.5 110.001s56.833 55.5 89.5 74.5
s68.334 32.833 107.001 41.5s82.334 13 131.001 13v-168c-72 0 -133.333 -10 -184 -30s-92 -48.5 -124 -85.5s-55.5 -82.5 -70.5 -136.5s-22.5 -114.333 -22.5 -181v-123h-197z" />
    <glyph glyph-name="sorusithai" unicode="&#xe29;" horiz-adv-x="1255" 
d="M120 493l0.00195312 733h197v-756c0 -25.333 1.66699 -51.166 5 -77.499s9.33301 -51.666 18 -75.999s20.334 -46.833 35.001 -67.5s33.667 -38.834 57 -54.501s51.166 -28.167 83.499 -37.5s69.833 -14 112.5 -14s80 4.66699 112 14s59.667 21.833 83 37.5
s42.333 33.834 57 54.501s26 43.167 34 67.5s13.667 49.666 17 75.999s5 52.166 5 77.499v126h-355v245h196v-91h159v476h200v-476h111v-154h-111v-103c0 -43.333 -3 -86.5 -9 -129.5s-16 -83.667 -30 -122s-33.333 -74 -58 -107s-55.834 -61.5 -93.501 -85.5
s-82.5 -42.5 -134.5 -55.5s-113 -19.5 -183 -19.5s-131.333 6.5 -184 19.5s-97.667 31.5 -135 55.5s-68.5 52.5 -93.5 85.5s-44.333 68.667 -58 107s-23.334 79 -29.001 122s-8.5 86.167 -8.5 129.5z" />
    <glyph glyph-name="sosuathai" unicode="&#xe2a;" horiz-adv-x="1224" 
d="M85 314c0 46.667 5.33203 87.499 15.999 122.499s25.5 65.333 44.5 91s41.333 47.5 67 65.5s54.167 33.167 85.5 45.5s63.5 22.833 96.5 31.5s66.833 16.667 101.5 24c30.667 5.33301 62.167 9.66602 94.5 12.999s63.666 7.5 93.999 12.5s59.166 10.667 86.499 17
s51.166 15.166 71.499 26.499s36.333 26 48 44s17.5 40 17.5 66c0 31.333 -3.66699 58.166 -11 80.499s-17.5 41.333 -30.5 57s-28.333 28 -46 37s-36.5 16.167 -56.5 21.5s-40.833 9 -62.5 11s-43.167 3 -64.5 3c-43.333 0 -83 -3.83301 -119 -11.5
s-67.167 -20.834 -93.5 -39.501s-47.166 -43.5 -62.499 -74.5s-24 -68.833 -26 -113.5h-205c2 50.667 9.83301 96 23.5 136s32.167 75 55.5 105s50.666 55.167 81.999 75.5s66.166 37.333 104.499 51s79.166 23.5 122.499 29.5s87.333 9 132 9c35.333 0 71 -2.5 107 -7.5
s71.333 -12.167 106 -21.5c21.333 0 40.833 3.83301 58.5 11.5s32.334 17.834 44.001 30.501s20.667 26.334 27 41.001s9.83301 29.667 10.5 45h217c0 -21.333 -3.66699 -43.666 -11 -66.999s-18.666 -45.666 -33.999 -66.999s-34.666 -41 -57.999 -59
c-25.333 -17.333 -54.333 -30 -87 -38c24 -27.333 42.667 -59 56 -95s20 -79 20 -129v-894h-199v634c-19.333 -14 -43.166 -25.167 -71.499 -33.5s-59 -15.166 -92 -20.499s-67 -9.83301 -102 -13.5s-69.5 -8.5 -103.5 -14.5s-66.167 -13.833 -96.5 -23.5
s-57.166 -23 -80.499 -40s-41.833 -38.5 -55.5 -64.5s-20.5 -57.5 -20.5 -94.5s7.33301 -67.667 22 -92s34 -44 58 -59s50.833 -25.667 80.5 -32s58.834 -9.5 87.501 -9.5c23.333 0 44.833 1.5 64.5 4.5s38.167 6.5 55.5 10.5v-155
c-27.333 -8 -54.166 -13.833 -80.499 -17.5s-54.833 -5.5 -85.5 -5.5c-54.667 0 -106.334 5.83301 -155.001 17.5s-91.5 31.167 -128.5 58.5s-66.167 62.5 -87.5 105.5s-32 95.833 -32 158.5z" />
    <glyph glyph-name="hohipthai" unicode="&#xe2b;" horiz-adv-x="1227" 
d="M120 0l-0.000976562 1226h197v-478l553 478h292l-283 -239c46.667 -13.333 84.834 -33.666 114.501 -60.999s53 -59.333 70 -96s29 -77.834 36 -123.501s10.5 -94.834 10.5 -147.501v-559h-199v584c0 33.333 -3.33301 65.333 -10 96s-17.834 57.834 -33.501 81.501
s-35.167 43.834 -58.5 60.501s-50.666 28 -81.999 34l-410 -354v-502h-197z" />
    <glyph glyph-name="lochulathai" unicode="&#xe2c;" horiz-adv-x="1566" 
d="M35 1226l225.001 0.000976562l165 -1004h6l232 788h219l233 -788h6l117 588c8 46 13 87 15 123s-1.5 66.667 -10.5 92s-24.667 44.833 -47 58.5s-52.833 20.5 -91.5 20.5v125c38 2 72.333 6.5 103 13.5s57.667 18.167 81 33.5s41.833 34.666 55.5 57.999
s22.167 52.333 25.5 87h234c-6 -42 -17.5 -78.333 -34.5 -109s-37.833 -56.5 -62.5 -77.5s-52.667 -37.5 -84 -49.5c-31.333 -13.333 -62.333 -22 -93 -26c25.333 -7.33301 47.5 -19.333 66.5 -36s33.833 -38.167 44.5 -64.5s16.167 -57 16.5 -92
s-4.83398 -73.833 -15.501 -116.5l-209 -850h-219l-236 788h-9l-237 -788h-220z" />
    <glyph glyph-name="oangthai" unicode="&#xe2d;" horiz-adv-x="1207" 
d="M77 610v68.999h530v-153h-324c0 -58 7.83301 -110.5 23.5 -157.5s37.834 -87.5 66.501 -121.5s62.667 -60.333 102 -79s83.333 -28 132 -28c50.667 0 96.5 10.667 137.5 32s75.667 52 104 92s50 89 65 147s22.5 124.333 22.5 199c0 76 -7 143.5 -21 202.5
s-34.667 108.5 -62 148.5s-62 70.333 -104 91s-90.333 31 -145 31c-41.333 0 -80.333 -5.83301 -117 -17.5s-68.667 -27.667 -96 -48s-49.666 -45.166 -66.999 -74.499s-29 -61.333 -35 -96h-207c11.333 60 30.666 115.167 57.999 165.5s62.5 93.5 105.5 129.5
s94.167 64 153.5 84s127.666 30 204.999 30c97.333 0 180.166 -16.667 248.499 -50s123.833 -78.833 166.5 -136.5s73.334 -125.667 92.001 -204s28 -163.5 28 -255.5c0 -56 -4.16699 -110.833 -12.5 -164.5s-21.5 -104.334 -39.5 -152.001s-41.167 -91 -69.5 -130
s-62.166 -72.667 -101.499 -101s-84.5 -50.166 -135.5 -65.499s-108.667 -23 -173 -23s-122.333 7.66699 -174 23s-97.167 37 -136.5 65s-72.833 61.667 -100.5 101s-50.334 82.333 -68.001 129s-30.667 97 -39 151s-12.5 109.667 -12.5 167z" />
    <glyph glyph-name="honokhukthai" unicode="&#xe2e;" horiz-adv-x="1201" 
d="M77 610v69h530v-153h-324c0 -58 7.83301 -110.5 23.5 -157.5s37.834 -87.5 66.501 -121.5s62.667 -60.333 102 -79s83.333 -28 132 -28c50.667 0 96.5 10.667 137.5 32s75.667 52 104 92s50 89 65 147s22.5 124.333 22.5 199c0 76 -7 143.5 -21 202.5
s-34.667 108.5 -62 148.5s-62 70.333 -104 91s-90.333 31 -145 31c-41.333 0 -79.333 -5.5 -114 -16.5s-65.334 -26.833 -92.001 -47.5s-49 -45.334 -67 -74.001s-32 -61.334 -42 -98.001h-207c11.333 60 30.666 115.167 57.999 165.5s62.5 93.5 105.5 129.5
s94.167 64 153.5 84s127.666 30 204.999 30c82 0 152.667 -11.667 212 -35c20.667 1.33301 38.334 6 53.001 14s27.334 17.833 38.001 29.5s18.334 24.834 23.001 39.501s7.66699 29.667 9 45h217c-0.666992 -21.333 -4.5 -43.5 -11.5 -66.5s-17.667 -44.833 -32 -65.5
s-33 -39.667 -56 -57s-50.167 -30.333 -81.5 -39c29.333 -29.333 54.166 -62.333 74.499 -99s37.333 -76.667 51 -120s23.5 -89.666 29.5 -138.999s9 -100.333 9 -153c0 -56 -4.16699 -110.833 -12.5 -164.5s-21.5 -104.334 -39.5 -152.001s-41.167 -91 -69.5 -130
s-62.166 -72.667 -101.499 -101s-84.5 -50.166 -135.5 -65.499s-108.667 -23 -173 -23s-122.333 7.66699 -174 23s-97.167 37 -136.5 65s-72.833 61.667 -100.5 101s-50.334 82.333 -68.001 129s-30.667 97 -39 151s-12.5 109.667 -12.5 167z" />
    <glyph glyph-name="paiyannoithai" unicode="&#xe2f;" horiz-adv-x="1232" 
d="M93 885c0 42.667 5.49707 80.8369 16.4971 114.504s25.833 63.167 44.5 88.5s41 46.666 67 63.999s53.167 31.666 81.5 42.999s58 19.333 89 24s61.167 7 90.5 7h172v-168h-172c-63.333 0 -109.666 -14.333 -138.999 -43s-44 -73 -44 -133
c0 -27.333 4.16699 -54.666 12.5 -81.999s22.666 -51.666 42.999 -72.999s47.666 -38.833 81.999 -52.5s78.166 -20.5 131.499 -20.5c56.667 0 106.334 5.33301 149.001 16s78.834 27.167 108.501 49.5s51.834 50.666 66.501 84.999s22 75.166 22 122.499v299h199v-1226
h-199v628c-17.333 -21.333 -37.666 -40.833 -60.999 -58.5s-49.666 -32.334 -78.999 -44.001s-60.5 -20.334 -93.5 -26.001s-67.167 -8.5 -102.5 -8.5c-80 0 -150.333 9.16699 -211 27.5s-111.167 44.833 -151.5 79.5s-70.833 76 -91.5 124s-31 102.333 -31 163z" />
    <glyph glyph-name="saraathai" unicode="&#xe30;" horiz-adv-x="702" 
d="M120 210v241h191v-89h293v-152h-484zM120 816v245h191v-89h293v-156h-484z" />
    <glyph glyph-name="maihanakatthai" unicode="&#xe31;" 
d="M-736 1432v257h193v-103h587v-154h-780z" />
    <glyph glyph-name="saraaathai" unicode="&#xe32;" horiz-adv-x="1007" 
d="M38 870c0 40.667 5.83496 78.668 17.502 114.001s27.167 67 46.5 95s42.666 52.833 69.999 74.5s57.166 39.5 89.499 53.5s66 24.667 101 32s70.833 11 107.5 11c60.667 0 116.167 -8.33301 166.5 -25s94.333 -41.5 132 -74.5s67 -74.833 88 -125.5s31.5 -110 31.5 -178
v-847h-197v804c0 97.333 -18.833 168.166 -56.5 212.499s-92.5 66.5 -164.5 66.5c-64 0 -116 -18 -156 -54s-62 -89 -66 -159h-210z" />
    <glyph glyph-name="saraamthai" unicode="&#xe33;" horiz-adv-x="1007" 
d="M-429 1624c0 28 5.33398 54.667 16.001 80s25.167 47.166 43.5 65.499s40.166 33.166 65.499 44.499s52.333 17 81 17c27.333 0 53.5 -5.66699 78.5 -17s47 -26.166 66 -44.499s33.833 -40.166 44.5 -65.499s16 -52 16 -80c0 -29.333 -5.33301 -56.166 -16 -80.499
s-25.5 -46 -44.5 -65s-40.833 -33.833 -65.5 -44.5s-51 -16 -79 -16c-29.333 0 -56.5 5.33301 -81.5 16s-46.667 25.5 -65 44.5s-32.833 40.667 -43.5 65s-16 51.166 -16 80.499zM-306.999 1624c0 -12 2.33594 -22.833 7.00293 -32.5s10.5 -18.5 17.5 -26.5
s16 -14.333 27 -19s21.833 -7 32.5 -7c11.333 0 22.166 2.33301 32.499 7s19.166 11 26.499 19s13.166 16.833 17.499 26.5s6.5 20.5 6.5 32.5c0 11.333 -2.16699 21.833 -6.5 31.5s-10.166 18.5 -17.499 26.5s-16.333 14.333 -27 19s-21.334 7 -32.001 7
c-12 0 -23.167 -2.33301 -33.5 -7s-19 -11 -26 -19s-12.833 -16.833 -17.5 -26.5s-7 -20.167 -7 -31.5zM38.0039 870c0 40.667 5.83496 78.668 17.502 114.001s27.167 67 46.5 95s42.666 52.833 69.999 74.5s57.166 39.5 89.499 53.5s66 24.667 101 32s70.833 11 107.5 11
c60.667 0 116.167 -8.33301 166.5 -25s94.333 -41.5 132 -74.5s67 -74.833 88 -125.5s31.5 -110 31.5 -178v-847h-197v804c0 97.333 -18.833 168.166 -56.5 212.499s-92.5 66.5 -164.5 66.5c-64 0 -116 -18 -156 -54s-62 -89 -66 -159h-210z" />
    <glyph glyph-name="saraithai" unicode="&#xe34;" 
d="M-1136 1432l78 154h938v-154h-1016z" />
    <glyph glyph-name="saraiithai" unicode="&#xe35;" 
d="M-1136 1432l78 154h747v186h191v-340h-1016z" />
    <glyph glyph-name="sarauethai" unicode="&#xe36;" 
d="M-1136 1432l78.0029 154.001h582c-2 7.33301 -3 14.5 -3 21.5v18.5c0 27.333 5.16699 52.666 15.5 75.999s24.166 43.833 41.499 61.5s38 31.667 62 42s49.667 15.5 77 15.5s52.666 -5.16699 75.999 -15.5s43.666 -24.333 60.999 -42s30.833 -38.167 40.5 -61.5
s14.5 -48.666 14.5 -75.999c0 -26.667 -4.83301 -51.834 -14.5 -75.501s-23.167 -44.167 -40.5 -61.5s-38 -31 -62 -41c-22.667 -10.667 -47.667 -16 -75 -16h-853zM-361.997 1626c0 -9.33301 2.00098 -18.833 6.00098 -28.5s9.83301 -17.667 17.5 -24
s16.167 -11.5 25.5 -15.5c10 -4 20 -6 30 -6c9.33301 0 19 2 29 6s18.333 9.16699 25 15.5s12 14.333 16 24s6 19.167 6 28.5c0 12 -2 22.667 -6 32s-9.33301 17.666 -16 24.999s-15 12.833 -25 16.5s-19.667 5.5 -29 5.5c-10 0 -19.833 -1.83301 -29.5 -5.5
s-18.334 -9.16699 -26.001 -16.5s-13.5 -15.666 -17.5 -24.999s-6 -20 -6 -32z" />
    <glyph glyph-name="saraueethai" unicode="&#xe37;" 
d="M-1136 1432l78 154h430v186h189v-186h131v186h188v-340h-1016z" />
    <glyph glyph-name="sarauthai" unicode="&#xe38;" 
d="M-415 -161h295v-438h-188v291h-107v147z" />
    <glyph glyph-name="sarauuthai" unicode="&#xe39;" 
d="M-853 -161l300 0.000976562v-147c0 -46.667 10 -81.667 30 -105s50.667 -35 92 -35c82 0 123 46.667 123 140v147h188v-147c0 -38.667 -5.33301 -75.834 -16 -111.501s-28.167 -66.667 -52.5 -93s-56.5 -47.333 -96.5 -63s-88.667 -23.5 -146 -23.5
c-56 0 -104 7.16699 -144 21.5s-72.5 34.333 -97.5 60s-43.333 56 -55 91s-17.5 74.5 -17.5 118.5h-108v147z" />
    <glyph glyph-name="phinthuthai" unicode="&#xe3a;" 
d="M-368 -254c0 19.333 3.83203 38 11.499 56s18.167 33.667 31.5 47s29 23.833 47 31.5s36.667 11.5 56 11.5s37.833 -3.83301 55.5 -11.5s33 -18.167 46 -31.5s23.5 -29 31.5 -47s12 -36.667 12 -56s-4 -37.833 -12 -55.5s-18.5 -33 -31.5 -46s-28.333 -23.167 -46 -30.5
s-36.167 -11 -55.5 -11c-20.667 0 -39.667 3.66699 -57 11s-32.666 17.5 -45.999 30.5s-23.833 28.333 -31.5 46s-11.5 36.167 -11.5 55.5z" />
    <glyph glyph-name="PUCR2005" unicode="&#xe3e;" 
 />
    <glyph glyph-name="bahtthai" unicode="&#xe3f;" horiz-adv-x="1389" 
d="M152 0l-0.000976562 1460h407v128h180v-128h44c25.333 0 51.833 -1 79.5 -3s54.334 -5.33301 80.001 -10s49.167 -10.5 70.5 -17.5s39.333 -15.167 54 -24.5c23.333 -14 45.833 -31.167 67.5 -51.5s40.167 -43.166 55.5 -68.499s27.666 -53.666 36.999 -84.999
s14 -64.333 14 -99c0 -78 -16.333 -144.167 -49 -198.5s-82 -97.166 -148 -128.499c42.667 -12 80 -28.667 112 -50s59 -47 81 -77s38.667 -64 50 -102s17 -79 17 -123c0 -52.667 -9.83301 -104 -29.5 -154s-48.167 -95 -85.5 -135s-83.666 -72.167 -138.999 -96.5
s-119.333 -36.5 -192 -36.5h-119v-137h-180v137h-407zM355.999 173.997h203v486h-203v-486zM355.999 837.997h203v444h-203v-444zM738.999 173.997l93 -0.000976562c42.667 0 80.667 5.83301 114 17.5s61.666 28.334 84.999 50.001s40.833 48.667 52.5 81
s17.5 68.5 17.5 108.5c0 45.333 -9.33301 82.833 -28 112.5s-42.5 53 -71.5 70s-61.833 29.167 -98.5 36.5c-37.333 6.66699 -74.666 10 -111.999 10h-52v-486zM738.999 1282l2.99609 -444.002c52.667 0 97.834 4.33301 135.501 13s68.667 22.334 93 41.001s42 42 53 70
s16.5 61 16.5 99c0 33.333 -3.5 62 -10.5 86s-17.333 44.167 -31 60.5s-29.667 29.333 -48 39s-38.666 17.334 -60.999 23.001s-46.166 9.16699 -71.499 10.5s-51.666 2 -78.999 2z" />
    <glyph glyph-name="saraethai" unicode="&#xe40;" horiz-adv-x="499" 
d="M149 0v1226h201v-1226h-201z" />
    <glyph glyph-name="saraaethai" unicode="&#xe41;" horiz-adv-x="851" 
d="M120 0v1226h197v-1226h-197zM534 0v1226h199v-1226h-199z" />
    <glyph glyph-name="saraothai" unicode="&#xe42;" horiz-adv-x="585" 
d="M0 1615l40.998 157.001h563l90 -157h-395c12.667 -10 23.834 -22.333 33.501 -37s18 -30.167 25 -46.5s12.5 -33.833 16.5 -52.5s6 -36.334 6 -53.001v-1274h128v-152h-326v1421c0 32 -4.83301 60.167 -14.5 84.5s-23 44.5 -40 60.5s-36.167 28.167 -57.5 36.5
s-44.666 12.5 -69.999 12.5z" />
    <glyph glyph-name="saraaimaimuanthai" unicode="&#xe43;" horiz-adv-x="585" 
d="M-63 1498c0 56.667 9.00195 105.835 27.002 147.502s42.167 76.167 72.5 103.5s65 47.833 104 61.5s79.833 20.5 122.5 20.5c38 0 74.667 -4.33301 110 -13s66.666 -22.334 93.999 -41.001s49 -43 65 -73s24 -65.667 24 -107c0 -21.333 -3.16699 -40.333 -9.5 -57
s-14.833 -32.5 -25.5 -47.5s-24 -30.5 -40 -46.5s-33.667 -35.667 -53 -59c-12 -13.333 -21.333 -28.833 -28 -46.5s-11.5 -36 -14.5 -55s-4.66699 -37.667 -5 -56s-0.5 -35.5 -0.5 -51.5v-1026h128v-152h-326v1178c0 33.333 1.33301 62.333 4 87s7.33398 47.5 14.001 68.5
s16.834 41.5 30.501 61.5s32.167 41.667 55.5 65c8.66699 8.66699 18.667 18.167 30 28.5s21.666 21 30.999 32s17.166 22.167 23.499 33.5s9.5 22 9.5 32c0 11.333 -1.5 22.666 -4.5 33.999s-8.83301 21.5 -17.5 30.5s-20.834 16.167 -36.501 21.5s-35.167 8 -58.5 8
c-46.667 0 -81.167 -16.167 -103.5 -48.5s-33.5 -76.833 -33.5 -133.5h-189z" />
    <glyph glyph-name="saraaimaimalaithai" unicode="&#xe44;" horiz-adv-x="585" 
d="M-131 1615l89.999 157h561l42 -157c-25.333 0 -49 -4.16699 -71 -12.5s-41.167 -20.5 -57.5 -36.5s-29.333 -36.167 -39 -60.5s-14.5 -52.5 -14.5 -84.5v-1269h128v-152h-326v1426c0 18 1.83301 36 5.5 54s8.83398 35.167 15.501 51.5s15.167 31.833 25.5 46.5
s21.833 27 34.5 37h-394z" />
    <glyph glyph-name="lakkhangyaothai" unicode="&#xe45;" horiz-adv-x="1007" 
d="M38 870c0 40.667 5.83496 78.668 17.502 114.001s27.167 67 46.5 95s42.666 52.833 69.999 74.5s57.166 39.5 89.499 53.5s66 24.667 101 32s70.833 11 107.5 11c60.667 0 116.167 -8.33301 166.5 -25s94.333 -41.5 132 -74.5s67 -74.833 88 -125.5s31.5 -110 31.5 -178
v-1244h-197v1201c0 97.333 -18.833 168.166 -56.5 212.499s-92.5 66.5 -164.5 66.5c-64 0 -116 -18 -156 -54s-62 -89 -66 -159h-210z" />
    <glyph glyph-name="maiyamokthai" unicode="&#xe46;" horiz-adv-x="1159" 
d="M82 796c0 56 4.3291 108.668 12.9961 158.001s25.667 93 51 131s60.833 70.167 106.5 96.5s104.167 45.166 175.5 56.499l137 -143l126 143c51.333 -4 95.5 -13.5 132.5 -28.5s68.333 -34 94 -57s46.167 -49 61.5 -78s27 -60.5 35 -94.5s13.333 -69.5 16 -106.5
s4 -75.167 4 -114.5v-1153h-199v1177c0 25.333 -1 52.833 -3 82.5s-6.16699 57.334 -12.5 83.001s-16.5 48 -30.5 67s-33.667 30.5 -59 34.5l-140 -148c-3.33301 -2.66699 -7.16602 -5.16699 -11.499 -7.5s-8.83301 -3.5 -13.5 -3.5c-6 0 -11.167 1.33301 -15.5 4
s-8.5 5 -12.5 7l-143 148c-25.333 -10 -45.666 -23.5 -60.999 -40.5s-27.5 -36.167 -36.5 -57.5s-15 -45.166 -18 -71.499s-3.5 -53.5 -1.5 -81.5c0 -22 2.5 -42.833 7.5 -62.5s12.833 -37.834 23.5 -54.501s25.5 -29.834 44.5 -39.501s43.167 -14.5 72.5 -14.5h26v-167h-26
c-46.667 0 -90.667 6.33301 -132 19s-77.666 32.667 -108.999 60s-56.166 62 -74.499 104s-27.5 92.667 -27.5 152z" />
    <glyph glyph-name="maitaikhuthai" unicode="&#xe47;" 
d="M-975 1683c0 46.667 8.66895 86.166 26.002 118.499s40.166 58.5 68.499 78.5s61.166 34.667 98.499 44c38.667 8.66699 77.334 13 116.001 13h578v-140h-557c-33.333 0 -60 -3.83301 -80 -11.5s-34.833 -17.167 -44.5 -28.5s-15.667 -23.5 -18 -36.5
s-3.5 -25.5 -3.5 -37.5c0 -7.33301 1 -16 3 -26s5.83301 -19.5 11.5 -28.5s14.334 -16.5 26.001 -22.5s27.167 -9 46.5 -9c16 0 30 2.66699 42 8s22.167 13.166 30.5 23.499s14.166 22.333 17.499 36s4.66602 29.167 3.99902 46.5h131
c-0.666992 -16.667 0.666016 -32 3.99902 -46s8.83301 -26.167 16.5 -36.5s17.334 -18.166 29.001 -23.499s25.5 -8 41.5 -8c17.333 0 31.333 3 42 9s19 14 25 24s9.66699 22.167 11 36.5s1 29.166 -1 44.499h150c6 -46.667 4.66699 -86.5 -4 -119.5
s-22.834 -60.167 -42.501 -81.5s-43 -37.166 -70 -47.499s-55.167 -15.5 -84.5 -15.5c-25.333 0 -48.166 4.16699 -68.499 12.5s-38.333 19.333 -54 33s-28.334 28.167 -38.001 43.5s-15.5 31 -17.5 47c-2 -16 -8.66699 -31.667 -20 -47s-25.666 -29.833 -42.999 -43.5
s-37.5 -24.667 -60.5 -33s-46.167 -12.5 -69.5 -12.5c-44.667 0 -82.667 7.83301 -114 23.5s-56.333 35.334 -75 59.001s-32.167 49.167 -40.5 76.5s-12.5 53 -12.5 77z" />
    <glyph glyph-name="maiekthai" unicode="&#xe48;" 
d="M-311 1910v324h191v-324h-191z" />
    <glyph glyph-name="maithothai" unicode="&#xe49;" 
d="M-645 2097l-0.000976562 146h271v-183c44.667 0 84.334 4.66699 119.001 14s64 22.166 88 38.5c24 16.333 42.333 35.833 55 58.5s19 46.667 19 72h184c0 -43.333 -9.83301 -84.666 -29.5 -124c-19.667 -39.333 -49 -74.333 -88 -105s-87.667 -55.167 -146 -73.5
s-127.5 -27.5 -207.5 -27.5h-160v184h-105z" />
    <glyph glyph-name="maitrithai" unicode="&#xe4a;" 
d="M-691 1910c-2.66699 48.667 0.334961 91 9.00195 127s21.834 66.167 39.501 90.5s38.167 42.333 61.5 54s47.666 17.5 72.999 17.5c30 0 57.5 -7.5 82.5 -22.5s43.167 -34.833 54.5 -59.5c12 22.667 30.667 42 56 58s54.333 24 87 24c18.667 0 36.5 -3.5 53.5 -10.5
s32.5 -16.833 46.5 -29.5s26 -28 36 -46s16.667 -38.667 20 -62c10 8 19.667 19.333 29 34s17.833 30.667 25.5 48s14 35.333 19 54s7.5 36.334 7.5 53.001h165c0 -33.333 -6.33301 -68.333 -19 -105s-29.5 -70.5 -50.5 -101.5s-45.833 -58 -74.5 -81
s-58.667 -37.167 -90 -42.5h-137c0 8.66699 -1.16699 20.5 -3.5 35.5s-5.83301 29.333 -10.5 43s-10.334 25.334 -17.001 35.001s-14.334 14.5 -23.001 14.5s-16.5 -4.16699 -23.5 -12.5s-12.667 -19 -17 -32s-7.66602 -26.833 -9.99902 -41.5s-3.5 -28.667 -3.5 -42h-129
c0 12.667 -1.16699 26.5 -3.5 41.5s-5.5 29 -9.5 42s-9.33301 23.667 -16 32s-14 12.5 -22 12.5c-8.66699 0 -16.334 -4.83301 -23.001 -14.5s-12.167 -21.334 -16.5 -35.001s-7.5 -27.834 -9.5 -42.501s-3 -26.667 -3 -36h-154z" />
    <glyph glyph-name="maichattawathai" unicode="&#xe4b;" 
d="M-488 2066v147h177v152h191v-152h177v-147h-177v-156h-191v156h-177z" />
    <glyph glyph-name="thanthakhatthai" unicode="&#xe4c;" 
d="M-473 1791c0 50.667 9.66699 95.832 29 135.499s46.5 73.5 81.5 101.5s78.167 49.667 129.5 65s109 23.333 173 24v-149c-74 0 -130.167 -14.167 -168.5 -42.5s-57.5 -73.166 -57.5 -134.499h-187z" />
    <glyph glyph-name="nikhahitthai" unicode="&#xe4d;" 
d="M-429 1624c0 28 5.33398 54.667 16.001 80s25.167 47.166 43.5 65.499s40.166 33.166 65.499 44.499s52.333 17 81 17c27.333 0 53.5 -5.66699 78.5 -17s47 -26.166 66 -44.499s33.833 -40.166 44.5 -65.499s16 -52 16 -80c0 -29.333 -5.33301 -56.166 -16 -80.499
s-25.5 -46 -44.5 -65s-40.833 -33.833 -65.5 -44.5s-51 -16 -79 -16c-29.333 0 -56.5 5.33301 -81.5 16s-46.667 25.5 -65 44.5s-32.833 40.667 -43.5 65s-16 51.166 -16 80.499zM-306.999 1624c0 -12 2.33594 -22.833 7.00293 -32.5s10.5 -18.5 17.5 -26.5
s16 -14.333 27 -19s21.833 -7 32.5 -7c11.333 0 22.166 2.33301 32.499 7s19.166 11 26.499 19s13.166 16.833 17.499 26.5s6.5 20.5 6.5 32.5c0 11.333 -2.16699 21.833 -6.5 31.5s-10.166 18.5 -17.499 26.5s-16.333 14.333 -27 19s-21.334 7 -32.001 7
c-12 0 -23.167 -2.33301 -33.5 -7s-19 -11 -26 -19s-12.833 -16.833 -17.5 -26.5s-7 -20.167 -7 -31.5z" />
    <glyph glyph-name="yamakkanthai" unicode="&#xe4e;" 
d="M-529 1432c0 36 4.16406 70.1689 12.4971 102.502s21.5 61.5 39.5 87.5s41.333 48 70 66c28 19.333 62 33 102 41c6 28 16.167 53.5 30.5 76.5s34.5 42.667 60.5 59s58 29.333 96 39s82.333 15.167 133 16.5v-153c-33.333 0 -60.666 -2.5 -81.999 -7.5
s-38.166 -12.833 -50.499 -23.5s-20.666 -24.834 -24.999 -42.501s-6.5 -39.167 -6.5 -64.5v-32h-42c-30.667 0 -55.667 -3.83301 -75 -11.5s-34.833 -18.834 -46.5 -33.501s-20 -32 -25 -52s-7.5 -42.667 -7.5 -68h-184z" />
    <glyph glyph-name="fongmanthai" unicode="&#xe4f;" horiz-adv-x="1480" 
d="M91 610c0 59.333 7.5 116.5 22.5 171.5s36.5 106.167 64.5 153.5s61.833 90.666 101.5 129.999s83.5 72.666 131.5 99.999s99.5 48.833 154.5 64.5s112.833 23.5 173.5 23.5c58 0 114.333 -7.83301 169 -23.5s105.834 -37.167 153.501 -64.5s91 -60.666 130 -99.999
s72.167 -82.666 99.5 -129.999s48.666 -98.5 63.999 -153.5s23 -112.167 23 -171.5s-7.66699 -116.5 -23 -171.5s-36.666 -106.333 -63.999 -154s-60.5 -91 -99.5 -130s-82.333 -72.333 -130 -100s-98.834 -49 -153.501 -64s-111 -22.5 -169 -22.5
c-60.667 0 -118.5 7.5 -173.5 22.5s-106.5 36.333 -154.5 64s-91.833 61 -131.5 100s-73.5 82.333 -101.5 130s-49.5 99 -64.5 154s-22.5 112.167 -22.5 171.5zM257 616c0 -44 5.83301 -86.333 17.5 -127s27.667 -78.834 48 -114.501s45.166 -68.334 74.499 -98.001
s61.833 -55 97.5 -76s74.167 -37.333 115.5 -49s84.333 -17.5 129 -17.5c42.667 0 84.5 5.83301 125.5 17.5s79 28 114 49s67 46.333 96 76s53.833 62.334 74.5 98.001s36.834 73.834 48.501 114.501s17.5 83 17.5 127s-5.83301 86.167 -17.5 126.5s-27.834 78 -48.501 113
s-45.5 67.167 -74.5 96.5s-61 54.166 -96 74.499s-73 36.333 -114 48s-82.833 17.5 -125.5 17.5c-44.667 0 -87.667 -5.83301 -129 -17.5s-79.833 -27.667 -115.5 -48s-68.167 -45.166 -97.5 -74.499s-54.166 -61.5 -74.499 -96.5s-36.333 -72.667 -48 -113
s-17.5 -82.5 -17.5 -126.5zM394 616c0 46 9.33301 89.333 28 130s43.5 76.334 74.5 107.001s67.5 55.334 109.5 74.001s86.333 28 133 28c45.333 0 88.333 -9.33301 129 -28s76 -43.334 106 -74.001s54 -66.334 72 -107.001s27 -84 27 -130c0 -46.667 -9 -91 -27 -133
s-42 -78.333 -72 -109s-65.333 -55 -106 -73s-83.667 -27 -129 -27c-46.667 0 -91 9 -133 27s-78.5 42.333 -109.5 73s-55.833 67 -74.5 109s-28 86.333 -28 133zM540 616c0 -27.333 5.16699 -53.166 15.5 -77.499s24.166 -45.166 41.499 -62.499s38 -31.333 62 -42
s50.667 -16 80 -16c26 0 50.5 5.33301 73.5 16s43 24.667 60 42s30.333 38.166 40 62.499s14.5 50.166 14.5 77.499c0 26.667 -4.83301 51.334 -14.5 74.001s-23 42.834 -40 60.501s-37 31.5 -60 41.5s-47.5 15 -73.5 15c-29.333 0 -56 -5 -80 -15
s-44.667 -23.833 -62 -41.5s-31.166 -37.834 -41.499 -60.501s-15.5 -47.334 -15.5 -74.001z" />
    <glyph glyph-name="zerothai" unicode="&#xe50;" horiz-adv-x="1295" 
d="M93 565c0 76.667 12.6689 146.67 38.002 210.003s61.833 117.333 109.5 162s106.167 79.667 175.5 105s146.833 38 232.5 38s163 -12.667 232 -38s127.333 -60.333 175 -105s84.167 -98.667 109.5 -162s38 -133.333 38 -210c0 -74 -6.83301 -140 -20.5 -198
s-32.334 -108.833 -56.001 -152.5s-52.334 -80.334 -86.001 -110.001s-71 -54 -112 -73s-85.333 -32.333 -133 -40s-96.834 -11.5 -147.501 -11.5s-99.5 4 -146.5 12s-91.167 21.5 -132.5 40.5s-79.166 43.667 -113.499 74s-63.333 67.166 -87 110.499
s-42.167 93.666 -55.5 150.999s-20 123 -20 197zM283.002 523.003c0 -56 8.83398 -107 26.501 -153s42.5 -85.833 74.5 -119.5s70.333 -60 115 -79s94.334 -28.5 149.001 -28.5s104.334 9.5 149.001 28.5s82.667 45.333 114 79s55.666 73.5 72.999 119.5s26 97 26 153
c0 70.667 -9.66699 131.167 -29 181.5s-45.5 91 -78.5 122s-71.5 53.333 -115.5 67s-90.333 20.5 -139 20.5s-94.834 -6.83301 -138.501 -20.5s-82.334 -36 -116.001 -67s-60.5 -71.333 -80.5 -121s-30 -110.5 -30 -182.5z" />
    <glyph glyph-name="onethai" unicode="&#xe51;" horiz-adv-x="1284" 
d="M26 146l156.004 131c24 -26.667 50.5 -49.334 79.5 -68.001s59.833 -33.334 92.5 -44.001s67.167 -18.5 103.5 -23.5s74.166 -7.5 113.499 -7.5c61.333 0 117.333 9.33301 168 28s94.167 46.5 130.5 83.5s64.5 82.167 84.5 135.5s30 114.666 30 183.999
c0 54.667 -6.83301 104.167 -20.5 148.5s-34.667 82.333 -63 114s-64.333 56.167 -108 73.5s-95.5 26 -155.5 26c-48.667 0 -93 -6.5 -133 -19.5s-74.167 -30 -102.5 -51s-50 -45.167 -65 -72.5s-22.5 -55.666 -22.5 -84.999c0 -27.333 5.16699 -53.833 15.5 -79.5
s27.166 -48 50.499 -67s54.666 -32.667 93.999 -41s88.666 -8.5 147.999 -0.5v-137c-25.333 -6 -48.666 -10 -69.999 -12s-41 -3 -59 -3c-54 0 -104.667 7.83301 -152 23.5s-88.666 37.667 -123.999 66s-63.333 62.166 -84 101.499s-31 83.333 -31 132
c0 47.333 6.83301 90.333 20.5 129s33.167 72.834 58.5 102.501s54.5 55.167 87.5 76.5s69.333 38.833 109 52.5s81 23.834 124 30.501s86.167 10 129.5 10c78 0 151.5 -9.5 220.5 -28.5s128.833 -49.167 179.5 -90.5s90.834 -94.5 120.501 -159.5
s44.5 -143.833 44.5 -236.5c0 -87.333 -14.167 -166.833 -42.5 -238.5s-69 -133.334 -122 -185.001s-117.667 -91.667 -194 -120s-162.833 -42.5 -259.5 -42.5c-44.667 0 -90.834 1.5 -138.501 4.5s-94.834 9.83301 -141.501 20.5s-92.834 27.334 -138.501 50.001
s-90.167 52.334 -133.5 89.001z" />
    <glyph glyph-name="twothai" unicode="&#xe52;" horiz-adv-x="1458" 
d="M6 1064l29.0059 168.003c38.667 0 74.667 -6.33301 108 -19s61.666 -31.667 84.999 -57s41.5 -57.333 54.5 -96s19.5 -85 19.5 -139v-460c0 -42.667 9.5 -82.5 28.5 -119.5s47.5 -69.333 85.5 -97s85.667 -49.5 143 -65.5s124 -24 200 -24c72 0 133.667 7.5 185 22.5
s92.666 34.833 123.999 59.5s54.333 53.167 69 85.5s22 65.5 22 99.5v311c0 27.333 -3.33301 50.666 -10 69.999s-16.167 36.333 -28.5 51s-26.5 25.834 -42.5 33.501s-33.667 13.5 -53 17.5l-155 -140l-155 131c-12.667 0 -26 -2.83301 -40 -8.5s-26.833 -15 -38.5 -28
s-20.834 -29.333 -27.501 -49s-10 -42.5 -10 -68.5v-94c-1.33301 -23.333 -1.66602 -46.833 -0.999023 -70.5s4.16699 -45 10.5 -64s16.5 -34.667 30.5 -47s34 -18.5 60 -18.5h75v-149h-95c-42.667 0 -79.334 5.83301 -110.001 17.5s-56.334 27 -77.001 46
s-36.834 40.667 -48.501 65s-20.667 49.166 -27 74.499s-10.5 50.333 -12.5 75c-2.66699 24 -4 45.667 -4 65v82c0 44.667 8.33301 87 25 127s40 75.833 70 107.5s66.167 58 108.5 79s89.5 35.167 141.5 42.5l125 -111l117 111
c51.333 -2.66699 99.166 -12.834 143.499 -30.501s83 -40.834 116 -69.501s59.333 -62 79 -100s29.5 -79.333 29.5 -124v-298c0 -54 -6.83301 -103.5 -20.5 -148.5s-32.167 -85 -55.5 -120s-51.5 -65.333 -84.5 -91s-69.333 -47 -109 -64s-82 -29.5 -127 -37.5
s-91.5 -12 -139.5 -12h-104c-96 0 -181.667 11.667 -257 35s-139.166 57 -191.499 101s-91.833 96.333 -118.5 157c-26.667 62 -40 130 -40 204v400c0 32.667 -2 60.834 -6 84.501s-10.333 42.667 -19 57s-19.334 24.666 -32.001 30.999s-27.667 9.5 -45 9.5z" />
    <glyph glyph-name="threethai" unicode="&#xe53;" horiz-adv-x="1318" 
d="M102 482l-0.00488281 85.9961c0 84 9 156.333 27 217s44.333 111.667 79 153s77.334 73.5 128.001 96.5s108 38.167 172 45.5l149 -138c27.333 21.333 55.166 44.333 83.499 69l81.5 69c68 -3.33301 126.833 -17 176.5 -41s90.834 -54.167 123.501 -90.5
s56.834 -78 72.501 -125s23.5 -96.167 23.5 -147.5v-676h-199v676c0 29.333 -4.83301 57.333 -14.5 84s-22.834 49.667 -39.501 69s-35.667 35 -57 47s-42.666 17 -63.999 15l-45.5 -38.5l-48 -41l-47.5 -39.5c-17.333 -12.667 -32.666 -24.667 -45.999 -36l-172 155
c-19.333 -2 -39.833 -8 -61.5 -18s-41.667 -27.167 -60 -51.5s-33.666 -56.833 -45.999 -97.5s-18.5 -91.667 -18.5 -153v-86c0 -25.333 0.333008 -50.666 1 -75.999s2.16699 -50.166 4.5 -74.499s6.5 -47 12.5 -68s14.5 -39.333 25.5 -55s25 -28 42 -37
s38.167 -13.5 63.5 -13.5c14 0 33.833 0.833008 59.5 2.5s53.167 5.16699 82.5 10.5v-168c-10 -3.33301 -23.667 -6.16602 -41 -8.49902s-35.833 -4.16602 -55.5 -5.49902s-39.167 -2.33301 -58.5 -3s-36.666 0 -51.999 2c-47.333 6 -87 18.167 -119 36.5s-58.5 41 -79.5 68
s-37 56.833 -48 89.5s-19 66 -24 100s-8 68 -9 102s-1.5 65.667 -1.5 95z" />
    <glyph glyph-name="fourthai" unicode="&#xe54;" horiz-adv-x="1309" 
d="M93 464l-0.00585938 122.996c0 80.667 13.167 150.5 39.5 209.5s63.833 108 112.5 147s107.334 67.833 176.001 86.5c68 18.667 144.667 28 230 28h207c32.667 0 59.167 4 79.5 12s36.5 19.333 48.5 34s20 32.334 24 53.001s6 43.667 6 69h205c0 -26 -2 -52.667 -6 -80
s-10.833 -53.333 -20.5 -78s-23.334 -48 -41.001 -70s-39.334 -41 -65.001 -57s-56.834 -28.833 -93.501 -38.5s-79.334 -14.5 -128.001 -14.5h-236c-52.667 0 -100 -5.83301 -142 -17.5s-77.833 -29 -107.5 -52s-52.5 -51.333 -68.5 -85s-24 -71.834 -24 -114.501v-146
c0 -42.667 6.16699 -83 18.5 -121s30.833 -70.667 55.5 -98s56.5 -48.833 95.5 -64.5s85.833 -23.5 140.5 -23.5h49c-11.333 10 -22.333 22 -33 36s-20 29.5 -28 46.5s-14.667 36.333 -20 58s-8 44.167 -8 67.5c0 10.667 0.833008 24 2.5 40s5.83398 33.167 12.501 51.5
s16.334 36.333 29.001 54s31 33.834 55 48.501s53.667 26.334 89 35.001s78.333 13 129 13v-165c-31.333 0 -55.666 -3.66699 -72.999 -11s-30 -16.333 -38 -27s-13 -21.667 -15 -33c-1.33301 -10 -2 -19 -2 -27c0 -16.667 3 -33 9 -49s14.167 -30.833 24.5 -44.5
s21.833 -26 34.5 -37s25.334 -20.667 38.001 -29s24.834 -15 36.501 -20s21.834 -7.5 30.501 -7.5h300v-166h-650c-63.333 0 -119.166 6.83301 -167.499 20.5s-90.166 32.167 -125.499 55.5s-64.666 50.333 -87.999 81s-42.333 63.334 -57 98.001s-25 69.667 -31 105
c-6 36.667 -9 71.334 -9 104.001z" />
    <glyph glyph-name="fivethai" unicode="&#xe55;" horiz-adv-x="1318" 
d="M93 464l-0.00292969 122.995c0 71.333 9.33301 133 28 185s45 96 79 132s74.667 65 122 87c48 22.667 100.333 40.334 157 53.001c-3.33301 6 -6 14.333 -8 25c-2.66699 11.333 -4 22 -4 32c0 28 5.16699 54.5 15.5 79.5s24.5 46.667 42.5 65s39.167 33.166 63.5 44.499
s50.166 17 77.499 17c29.333 0 56.833 -5.66699 82.5 -17s47.667 -26.166 66 -44.499s32.666 -40 42.999 -65s15.5 -51.5 15.5 -79.5c0 -4 -0.166992 -9 -0.5 -15s-1.16602 -10.667 -2.49902 -14c-0.666992 -5.33301 -1.66699 -10 -3 -14
c31.333 2 56.666 7.16699 75.999 15.5s34.333 19.833 45 34.5s18 32 22 52c4 20.667 6 42.667 6 66h205c0 -26 -2 -52.667 -6 -80s-10.833 -53.333 -20.5 -78s-23.334 -48 -41.001 -70s-39.334 -41 -65.001 -57s-56.834 -28.833 -93.501 -38.5s-79.334 -14.5 -128.001 -14.5
h-225c-52 0 -99.5 -5 -142.5 -15s-80 -25.667 -111 -47s-55.333 -49 -73 -83s-26.5 -75.333 -26.5 -124v-146c0 -42.667 6.16699 -83 18.5 -121s30.833 -70.667 55.5 -98s56.5 -48.833 95.5 -64.5s85.833 -23.5 140.5 -23.5h49c-11.333 10 -22.333 22 -33 36
s-20 29.5 -28 46.5s-14.667 36.333 -20 58s-8 44.167 -8 67.5c0 10.667 0.833008 24 2.5 40s5.83398 33.167 12.501 51.5s16.334 36.333 29.001 54s31 33.834 55 48.501s53.667 26.334 89 35.001s78.333 13 129 13v-165c-31.333 0 -55.666 -3.66699 -72.999 -11
s-30 -16.333 -38 -27s-13 -21.667 -15 -33c-1.33301 -10 -2 -19 -2 -27c0 -16.667 3 -33 9 -49s14.167 -30.833 24.5 -44.5s21.833 -26 34.5 -37s25.334 -20.667 38.001 -29s24.834 -15 36.501 -20s21.834 -7.5 30.501 -7.5h300v-166h-650
c-63.333 0 -119.166 6.83301 -167.499 20.5s-90.166 32.167 -125.499 55.5s-64.666 50.333 -87.999 81s-42.333 63.334 -57 98.001s-25 69.667 -31 105c-6 36.667 -9 71.334 -9 104.001zM586.997 1107c0 -23.333 6.66699 -42.333 20 -57c12 -14.667 28.667 -22 50 -22
c24.667 0 44 7.33301 58 22s21 33.667 21 57s-6.83301 42 -20.5 56s-33.167 21 -58.5 21c-21.333 0 -38.333 -7 -51 -21s-19 -32.667 -19 -56z" />
    <glyph glyph-name="sixthai" unicode="&#xe56;" horiz-adv-x="1324" 
d="M54 1080l153.005 91.9971l119 -197c23.333 12 47.833 23.833 73.5 35.5s54.5 22.167 86.5 31.5s67 17.166 105 23.499s81.333 10.166 130 11.499c68 2 128.833 -3 182.5 -15s100.167 -29.5 139.5 -52.5s72.5 -50.5 99.5 -82.5s49 -67.167 66 -105.5
s29.167 -79.166 36.5 -122.499s11 -87 11 -131v-77c0 -68.667 -12 -134.334 -36 -197.001s-59.833 -117.334 -107.5 -164.001s-107.334 -83.167 -179.001 -109.5s-154.5 -38.166 -248.5 -35.499c-70 2 -133.833 11.833 -191.5 29.5s-107.167 41.834 -148.5 72.501
s-73 67.334 -95 110.001c-22.667 44 -34 92.333 -34 145c0 48.667 8.33301 91 25 127s40 65.333 70 88s66.167 39.667 108.5 51s89.833 17 142.5 17h77v-149h-68c-32 0 -58.333 -3.66699 -79 -11s-36.834 -17.333 -48.501 -30s-19.834 -27.667 -24.501 -45
c-4.66699 -16.667 -7 -35.667 -7 -57c0 -25.333 6.83301 -48.666 20.5 -69.999s33.167 -40.333 58.5 -57s55.333 -29.667 90 -39c35.333 -10 73.666 -15 114.999 -15c46.667 -1.33301 91.667 5.16699 135 19.5s81.666 35.5 114.999 63.5s60 63.167 80 105.5
s30 91.5 30 147.5v74c0 60.667 -7.66699 112.667 -23 156s-37 79 -65 107s-62 48.667 -102 62c-40 12 -85.333 18 -136 18c-40.667 -0.666992 -80.5 -4.16699 -119.5 -10.5s-78 -16.166 -117 -29.499s-78 -30.166 -117 -50.499s-78.833 -44.5 -119.5 -72.5z" />
    <glyph glyph-name="seventhai" unicode="&#xe57;" horiz-adv-x="1554" 
d="M120 476l-0.0078125 83.002c0 80 9 150.167 27 210.5s44.167 111.666 78.5 153.999s76.333 76.166 126 101.499s106.834 41.333 171.501 48l119 -131l126 128c74 -8.66699 135.333 -27.334 184 -56.001s87.334 -65.167 116.001 -109.5s48.667 -95.166 60 -152.499
s17 -118.666 17 -183.999v-86c-1.33301 -23.333 -2.66602 -49.666 -3.99902 -78.999s-3.66602 -57.833 -6.99902 -85.5s-8.66602 -53.834 -15.999 -78.501c-5.33301 -25.333 -14 -45 -26 -59c29.333 8.66699 54.666 24.334 75.999 47.001s38.833 49.834 52.5 81.501
s23.5 65.834 29.5 102.501c6 35.333 9 71.666 9 108.999v401c0 52.667 6.16699 98.667 18.5 138s30.333 71.666 54 96.999s52 44.333 85 57s68.833 19 107.5 19l31 -168c-17.333 0 -32.666 -3.16699 -45.999 -9.5s-23.833 -16.666 -31.5 -30.999s-13.5 -33.333 -17.5 -57
s-6 -51.834 -6 -84.501v-342c0 -74 -9.16699 -142.667 -27.5 -206s-46.333 -119 -84 -167s-85.334 -87.333 -143.001 -118s-126.5 -51 -206.5 -61l-155 114c29.333 29.333 51.833 58.666 67.5 87.999s27.334 59 35.001 89s12.5 61 14.5 93s3 66.667 3 104v92
c0 51.333 -4.5 96 -13.5 134s-21 69.667 -36 95s-32.167 44.833 -51.5 58.5s-39.666 22.5 -60.999 26.5l-154 -155l-146 158c-18 -1.33301 -37.5 -8 -58.5 -20s-40.5 -30.667 -58.5 -56s-32.833 -58.5 -44.5 -99.5s-17.5 -90.167 -17.5 -147.5v-80
c0 -17.333 0.166992 -37.5 0.5 -60.5s2 -46.167 5 -69.5s7.83301 -46 14.5 -68s16 -41.667 28 -59s26.667 -31.5 44 -42.5s38.666 -16.5 63.999 -16.5c6 0 12.833 0.5 20.5 1.5s16.334 1.83301 26.001 2.5s19.834 1.66699 30.501 3s20 2.66602 28 3.99902l3 -165
c-10 -2 -21.667 -4.5 -35 -7.5s-27.833 -5.5 -43.5 -7.5s-32.334 -3.16699 -50.001 -3.5s-34.167 0.833984 -49.5 3.50098c-44.667 10 -82.667 24.667 -114 44s-57.666 42.166 -78.999 68.499s-37.833 54.833 -49.5 85.5s-20.667 62 -27 94s-10.166 63.833 -11.499 95.5
s-2 62.167 -2 91.5z" />
    <glyph glyph-name="eightthai" unicode="&#xe58;" horiz-adv-x="1315" 
d="M117 391l-0.000976562 199.008c0 72.667 10.667 138 32 196s53.5 107.5 96.5 148.5s96.333 72.333 160 94s137.834 32.5 222.501 32.5h271c31.333 0 57.166 3.66699 77.499 11s36.833 18.333 49.5 33s21.167 32.167 25.5 52.5s6.5 43.166 6.5 68.499h201
c0 -26 -2 -52.833 -6 -80.5s-10.833 -54 -20.5 -79s-22.834 -48.333 -39.501 -70s-38.167 -40.834 -64.5 -57.501s-57.5 -29.834 -93.5 -39.501s-78.333 -14.5 -127 -14.5h-301c-51.333 0 -95.666 -7.33301 -132.999 -22s-67.833 -34.167 -91.5 -58.5s-41 -52.5 -52 -84.5
s-16.5 -64.667 -16.5 -98v-231c0 -29.333 5.16699 -56.5 15.5 -81.5s24 -47.333 41 -67s35.667 -35.834 56 -48.501s40.833 -19.334 61.5 -20.001l90 79l88 80l192 -159c22.667 0 43.5 3.66699 62.5 11s35.833 18.666 50.5 33.999s25.834 36.166 33.501 62.499
s11.5 59.166 11.5 98.499c0 17.333 -1.16699 34.666 -3.5 51.999s-7.16602 33.333 -14.499 48s-18.333 27.334 -33 38.001s-33.667 18 -57 22c-6 2 -14.333 3 -25 3h-33v148h64c44 -2 82 -8.16699 114 -18.5s59 -23 81 -38s39.833 -32.5 53.5 -52.5s23.834 -41 30.501 -63
s11.5 -44.833 14.5 -68.5s4.5 -47.167 4.5 -70.5c0 -64.667 -7.33301 -121.334 -22 -170.001s-37.5 -89.5 -68.5 -122.5s-70.833 -57.833 -119.5 -74.5s-106.334 -25 -173.001 -25l-163 135l-149 -135c-66 4 -123.833 17.667 -173.5 41s-91.334 53 -125.001 89
s-59 77.333 -76 124s-25.5 96.334 -25.5 149.001z" />
    <glyph glyph-name="ninethai" unicode="&#xe59;" horiz-adv-x="1290" 
d="M99 473l0.00390625 89.0029c0 84.667 6.33301 159.167 19 223.5s34.167 117.833 64.5 160.5s69.833 75.167 118.5 97.5s109 33.5 181 33.5c13.333 0 27.833 -0.166992 43.5 -0.5s31.5 -1.16602 47.5 -2.49902s31.333 -3.66602 46 -6.99902
c13.333 -2.66699 26 -6.33398 38 -11.001c21.333 -10.667 39.833 -23.834 55.5 -39.501s31.167 -35.167 46.5 -58.5l102 100c3.33301 3.33301 8.33301 7.33301 15 12c6 4.66699 13.667 7 23 7h73c31.333 0 56.333 3 75 9s32.834 15.167 42.501 27.5s16 27.833 19 46.5
s4.5 40.667 4.5 66h197c0 -26 -1.83301 -52.167 -5.5 -78.5s-9.5 -51.333 -17.5 -75s-19.667 -45.834 -35 -66.501s-35.333 -38.334 -60 -53.001s-54.834 -26.334 -90.501 -35.001s-76.834 -13 -123.501 -13h-17c-8 0 -15.167 -1.83301 -21.5 -5.5s-12.5 -8.5 -18.5 -14.5
l-68 -72l385 -813h-210l-343 736c-27.333 55.333 -57.333 97.333 -90 126s-71.334 43 -116.001 43c-26.667 0 -51.167 -5 -73.5 -15s-41.5 -28 -57.5 -54s-28.667 -60.333 -38 -103s-14 -96.667 -14 -162v-115c0 -20 1.33301 -41.167 4 -63.5s6.16699 -44.166 10.5 -65.499
s10.666 -42 18.999 -62s18.833 -37.5 31.5 -52.5s27.667 -26.833 45 -35.5s38.666 -13 63.999 -13c10 0 22.333 0.833008 37 2.5s30 4.16699 46 7.5l28 -165c-10 -2 -21.667 -4.16699 -35 -6.5s-28.166 -4.33301 -44.499 -6s-33 -3 -50 -4s-34.167 -0.5 -51.5 1.5
c-46.667 6 -86.334 17.333 -119.001 34s-60.167 37.167 -82.5 61.5s-40 52 -53 83s-23 63.333 -30 97s-11.5 67.667 -13.5 102s-3 68.166 -3 101.499z" />
    <glyph glyph-name="angkhankhuthai" unicode="&#xe5a;" horiz-adv-x="1646" 
d="M93 885c0 42.667 5.49707 80.8369 16.4971 114.504s25.833 63.167 44.5 88.5s41 46.666 67 63.999s53.167 31.666 81.5 42.999s58 19.333 89 24s61.167 7 90.5 7h172v-168h-172c-63.333 0 -109.666 -14.333 -138.999 -43s-44 -73 -44 -133
c0 -27.333 4.16699 -54.666 12.5 -81.999s22.666 -51.666 42.999 -72.999s47.666 -38.833 81.999 -52.5s78.166 -20.5 131.499 -20.5c56.667 0 106.334 5.33301 149.001 16s78.834 27.167 108.501 49.5s51.834 50.666 66.501 84.999s22 75.166 22 122.499v299h199v-1226
h-199v628c-17.333 -21.333 -37.666 -40.833 -60.999 -58.5s-49.666 -32.334 -78.999 -44.001s-60.5 -20.334 -93.5 -26.001s-67.167 -8.5 -102.5 -8.5c-80 0 -150.333 9.16699 -211 27.5s-111.167 44.833 -151.5 79.5s-70.833 76 -91.5 124s-31 102.333 -31 163z
M1332 0.00292969v1226h195v-1226h-195z" />
    <glyph glyph-name="khomutthai" unicode="&#xe5b;" horiz-adv-x="2591" 
d="M108 634c0 44.667 5.16797 90.166 15.501 136.499s25.5 91 45.5 134s45 83.5 75 121.5s64.167 71.167 102.5 99.5s81.166 50.833 128.499 67.5s99.333 25 156 25c52.667 0 100.167 -6.33301 142.5 -19s79.666 -29.5 111.999 -50.5s60.666 -46.167 84.999 -75.5
s44.333 -61 60 -95s27.334 -69.667 35.001 -107s11.5 -75.666 11.5 -114.999l-186 -3c0 86.667 -20.5 152.667 -61.5 198s-99.5 70 -175.5 74c-54.667 0 -103.167 -10.667 -145.5 -32s-78.333 -50.333 -108 -87s-52 -79.5 -67 -128.5s-22.5 -101.833 -22.5 -158.5
c0 -54.667 10 -106.834 30 -156.501s47.667 -93.5 83 -131.5s78.166 -68.167 128.499 -90.5s106.5 -33.5 168.5 -33.5c59.333 0 112.166 8.83301 158.499 26.5s87.333 42.834 123 75.501s65.834 71.167 90.501 115.5s44.834 92.666 60.501 144.999
s27.167 108.166 34.5 167.499s11 119.333 11 180l138 76c22.667 -23.333 44.5 -48.666 65.5 -75.999l60 -80.5c19 -26.333 36.5 -52.166 52.5 -77.499s29.333 -48 40 -68c11.333 19.333 24.666 40.333 39.999 63l46 70c15.333 24 31.666 48 48.999 72l50 71l48 -71.5
l46.5 -74l41.5 -70l34 -60.5l111 150h376l126 -196h-444l-13 -20c-22.667 -31.333 -48 -68.333 -76 -111s-55.667 -91.334 -83 -146.001l-83.5 161c-28.333 52 -56.166 97.667 -83.499 137l-45 -66c-16.667 -25.333 -33.167 -53.333 -49.5 -84s-32.666 -64 -48.999 -100
s-31.166 -74 -44.499 -114c-29.333 80 -61.166 152.333 -95.499 217s-67.166 120 -98.499 166c-4 -64.667 -14.833 -126.167 -32.5 -184.5s-40.5 -112.5 -68.5 -162.5s-61 -95.167 -99 -135.5s-80.333 -75 -127 -104s-96.834 -51.167 -150.501 -66.5
s-109.834 -23 -168.501 -23c-64 0 -123.667 8.16699 -179 24.5s-105.5 39.333 -150.5 69s-84.5 64.5 -118.5 104.5s-62.667 83.167 -86 129.5s-40.833 94.833 -52.5 145.5s-17.5 101.334 -17.5 152.001z" />
    <glyph glyph-name="uni2000" unicode="&#x2000;" horiz-adv-x="1182" 
 />
    <glyph glyph-name="uni2001" unicode="&#x2001;" horiz-adv-x="2365" 
 />
    <glyph glyph-name="uni2002" unicode="&#x2002;" horiz-adv-x="1182" 
 />
    <glyph glyph-name="uni2003" unicode="&#x2003;" horiz-adv-x="2365" 
 />
    <glyph glyph-name="uni2004" unicode="&#x2004;" horiz-adv-x="788" 
 />
    <glyph glyph-name="uni2005" unicode="&#x2005;" horiz-adv-x="591" 
 />
    <glyph glyph-name="uni2006" unicode="&#x2006;" horiz-adv-x="394" 
 />
    <glyph glyph-name="uni2007" unicode="&#x2007;" horiz-adv-x="394" 
 />
    <glyph glyph-name="uni2008" unicode="&#x2008;" horiz-adv-x="295" 
 />
    <glyph glyph-name="uni2009" unicode="&#x2009;" horiz-adv-x="473" 
 />
    <glyph glyph-name="uni200A" unicode="&#x200a;" horiz-adv-x="131" 
 />
    <glyph glyph-name="ZWSP" unicode="&#x200b;" 
 />
    <glyph glyph-name="uni2010" unicode="&#x2010;" horiz-adv-x="938" 
d="M96 470v158h748v-158h-748z" />
    <glyph glyph-name="uni2011" unicode="&#x2011;" horiz-adv-x="938" 
d="M96 470v158h748v-158h-748z" />
    <glyph glyph-name="figuredash" unicode="&#x2012;" horiz-adv-x="938" 
d="M96 470v158h748v-158h-748z" />
    <glyph glyph-name="endash" unicode="&#x2013;" horiz-adv-x="1024" 
d="M0 482v175h1025v-175h-1025z" />
    <glyph glyph-name="emdash" unicode="&#x2014;" horiz-adv-x="2026" 
d="M257 482v175h1513v-175h-1513z" />
    <glyph glyph-name="quoteleft" unicode="&#x2018;" horiz-adv-x="562" 
d="M164 927v226c0 41.333 4.83301 80.5 14.5 117.5s24.167 69.5 43.5 97.5s44 50.333 74 67c28.667 16.667 63.334 25 104.001 25v-114c-23.333 0 -42.833 -5.33301 -58.5 -16s-27.834 -24.834 -36.501 -42.501s-15 -37.667 -19 -60s-6 -45.166 -6 -68.499h120v-232h-236z
" />
    <glyph glyph-name="quoteright" unicode="&#x2019;" horiz-adv-x="562" 
d="M161 1223l0.000976562 237.002h239v-231c0 -41.333 -4.66699 -80.333 -14 -117s-23.666 -68.667 -42.999 -96s-43.833 -49 -73.5 -65s-64.834 -24 -105.501 -24v113c21.333 0 39.666 5.33301 54.999 16s28 24.167 38 40.5s16.833 35.666 20.5 57.999
s5.5 45.166 5.5 68.499h-122z" />
    <glyph glyph-name="quotedblleft" unicode="&#x201c;" horiz-adv-x="864" 
d="M128 927l0.000976562 226c0 41.333 4.5 80.5 13.5 117.5s23.167 69.5 42.5 97.5s43.833 50.333 73.5 67s65.5 25 107.5 25v-114c-23.333 0 -42.833 -5.33301 -58.5 -16s-27.834 -24.834 -36.501 -42.501s-14.5 -37.667 -17.5 -60s-4.5 -45.166 -4.5 -68.499h120v-232
h-240zM499.001 927v226c0 41.333 4.66699 80.5 14 117.5s23.5 69.5 42.5 97.5s43.167 50.333 72.5 67s64.333 25 105 25v-114c-22.667 0 -41.5 -5.33301 -56.5 -16s-26.833 -24.834 -35.5 -42.501s-15 -37.667 -19 -60s-6 -45.166 -6 -68.499h120v-232h-237z" />
    <glyph glyph-name="quotedblright" unicode="&#x201d;" horiz-adv-x="864" 
d="M128 1223l0.000976562 237.002h240v-231c0 -41.333 -4.83301 -80.333 -14.5 -117s-24.834 -68.667 -45.501 -96s-45.5 -49 -74.5 -65s-63.167 -24 -102.5 -24v113c22.667 0 41.5 5.33301 56.5 16s27 24.167 36 40.5s15.333 35.666 19 57.999s5.5 45.166 5.5 68.499h-120z
M499.001 1223v237.002h237v-231c0 -41.333 -4.66699 -80.333 -14 -117s-23.5 -68.667 -42.5 -96s-43 -49 -72 -65s-64.167 -24 -105.5 -24v113c22.667 0 41.5 5.33301 56.5 16s26.833 24.167 35.5 40.5s15 35.666 19 57.999s6 45.166 6 68.499h-120z" />
    <glyph glyph-name="bullet" unicode="&#x2022;" horiz-adv-x="735" 
d="M54 628c0 38.667 8 76 24 112s38.167 67.667 66.5 95s61.5 49 99.5 65s78.333 24 121 24s83.5 -8 122.5 -24s72.667 -37.667 101 -65s51 -59 68 -95s25.5 -73.333 25.5 -112c0 -42 -8.5 -81.167 -25.5 -117.5s-39.667 -68.166 -68 -95.499s-62 -49 -101 -65
s-79.833 -24 -122.5 -24s-83 8 -121 24s-71.167 37.667 -99.5 65s-50.5 59.166 -66.5 95.499s-24 75.5 -24 117.5z" />
    <glyph glyph-name="uni202F" unicode="&#x202f;" horiz-adv-x="473" 
 />
    <glyph glyph-name="uni205F" unicode="&#x205f;" horiz-adv-x="591" 
 />
    <glyph glyph-name="Euro" unicode="&#x20ac;" horiz-adv-x="1569" 
d="M54 550l0.000976562 134.996h150v39v37c0 12.667 1 25.334 3 38.001h-153v134h171c16.667 82 43.167 157.167 79.5 225.5s82.333 127.333 138 177s120.5 88.834 194.5 117.501c74 28 157.667 42 251 42c76.667 0 148.834 -10.5 216.501 -31.5s127.5 -51.667 179.5 -92
s95.5 -90.666 130.5 -150.999s58.833 -129.5 71.5 -207.5h-207c-10 50.667 -26.333 95.5 -49 134.5s-51.334 71.167 -86.001 96.5s-73.834 44.5 -117.501 57.5s-90.834 19.5 -141.501 19.5c-64.667 0 -122.167 -10 -172.5 -30s-94.5 -47.5 -132.5 -82.5
s-69.667 -76.333 -95 -124s-44.333 -98.167 -57 -151.5h463v-134h-482c-2 -10.667 -3 -21.167 -3 -31.5v-28.5v-54h485v-135h-466c11.333 -59.333 29.5 -113.833 54.5 -163.5s56.5 -93 94.5 -130s83.167 -65.667 135.5 -86s111.833 -30.5 178.5 -30.5
c62 0 117.333 10.667 166 32s90 50.5 124 87.5s61 80.833 81 131.5s32 105.667 36 165h203c-8.66699 -93.333 -28.667 -176.166 -60 -248.499s-73.166 -133.333 -125.499 -183s-115.333 -87.667 -189 -114s-157.167 -39.5 -250.5 -39.5c-96 0 -181.833 14 -257.5 42
s-140.667 67.833 -195 119.5s-98.5 113 -132.5 184s-58 148.833 -72 233.5h-162z" />
    <glyph glyph-name="trademark" unicode="&#x2122;" horiz-adv-x="2008" 
d="M123 1334v126h676v-126h-265v-724h-149v724h-262zM958 610v850h220l246 -622l237 622h225v-850h-152l-2 669l-260 -669h-100l-265 672v-672h-149z" />
    <glyph glyph-name="uni25CC" unicode="&#x25cc;" horiz-adv-x="1363" 
d="M317 590l117 54.999c-3.33301 -17.333 -5.5 -35.666 -6.5 -54.999s1.16699 -39 6.5 -59zM415 332.999l49.001 115c10.667 -16.667 22.167 -31.667 34.5 -45s26.166 -25 41.499 -35zM437.001 846.999l119 -43.001c-21.333 -10.667 -39.333 -22 -54 -34
c-13.333 -11.333 -25 -24.666 -35 -39.999zM622.001 834.998l60 117l54 -114c-19.333 4 -39.333 5.5 -60 4.5s-38.667 -3.5 -54 -7.5zM628.001 332.998c17.333 -4.66699 33.667 -7 49 -7c16 0.666992 34.667 4 56 10l-51 -114zM816.002 806.998l132 40l-52 -120
c-10.667 16.667 -23 31.5 -37 44.5s-28.333 24.833 -43 35.5zM819.002 364.998c16.667 10 31.333 21.333 44 34s23.667 26 33 40l34 -109zM933.001 533.998c6 16.667 9.16797 34 9.50098 52s-1.83398 36.667 -6.50098 56l111 -55z" />
    <glyph glyph-name="uni25FC" unicode="&#x25fc;" horiz-adv-x="1061" 
d="M0 0v1063h1063v-1063h-1063z" />
    <glyph glyph-name="thothannobasethai" unicode="&#xf700;" horiz-adv-x="1141" 
d="M72 870c8.66699 56.667 26.498 108.167 53.498 154.5s62 86.166 105 119.499s94.167 59.333 153.5 78s126 28 200 28c33.333 0 66.5 -2.5 99.5 -7.5s66.167 -12.167 99.5 -21.5c23.333 1.33301 43 6 59 14s29 18 39 30s17.667 25.333 23 40c4.66699 16 7 30.667 7 44h216
c-0.666992 -21.333 -4.16699 -43.5 -10.5 -66.5s-16.833 -44.833 -31.5 -65.5s-33.5 -39.667 -56.5 -57s-50.833 -30.333 -83.5 -39c15.333 -16.667 29.333 -34.834 42 -54.501s23.334 -41.667 32.001 -66s15 -50.666 19 -78.999s6 -59.166 6 -92.499
c0 -32 -4.66699 -69.167 -14 -111.5s-21.333 -87.333 -36 -135s-31.167 -97.334 -49.5 -149.001s-37.666 -102.834 -57.999 -153.501l-61.5 -147.5l-60 -132.5h-274l-195 565h-159v153h314l180 -541l41 96l43.5 109l43 113.5c14.333 38.333 26.833 76 37.5 113
s19 72.5 25 106.5c7.33301 34 11 65.667 11 95c2 90.667 -19.833 158.834 -65.5 204.501s-114.834 68.5 -207.501 68.5c-74 0 -133.167 -18.167 -177.5 -54.5s-74.166 -89.166 -89.499 -158.499h-220z" />
    <glyph glyph-name="saraileftthai" unicode="&#xf701;" 
d="M-1291 1432l73 154h727v-154h-800z" />
    <glyph glyph-name="saraiileftthai" unicode="&#xf702;" 
d="M-1291 1432l73 154h536v186h191v-340h-800z" />
    <glyph glyph-name="saraueleftthai" unicode="&#xf703;" 
d="M-1301 1432l77.999 154.001h367c-1.33301 7.33301 -2 14.5 -2 21.5v18.5c0 27.333 5 52.666 15 75.999s23.833 43.833 41.5 61.5s38.334 31.667 62.001 42s49.167 15.5 76.5 15.5s52.5 -5.16699 75.5 -15.5s43 -24.333 60 -42s30.333 -38.167 40 -61.5
s14.5 -48.666 14.5 -75.999c0 -26.667 -4.83301 -51.834 -14.5 -75.501s-23 -44.167 -40 -61.5s-37.167 -31 -60.5 -41c-22.667 -10.667 -47.667 -16 -75 -16h-638zM-742.001 1626c0 -21.333 7.33203 -39 21.999 -53s33.667 -21 57 -21c21.333 0 38.833 7 52.5 21
s20.5 31.667 20.5 53c0 23.333 -7 42.333 -21 57c-13.333 14.667 -30.666 22 -51.999 22c-23.333 0 -42.333 -7.33301 -57 -22s-22 -33.667 -22 -57z" />
    <glyph glyph-name="saraueeleftthai" unicode="&#xf704;" 
d="M-1304 1432l75 154h230v186h189v-186h131v186h188v-340h-813z" />
    <glyph glyph-name="maieklowleftthai" unicode="&#xf705;" 
d="M-682 1432v371h191v-371h-191z" />
    <glyph glyph-name="maitholowleftthai" unicode="&#xf706;" 
d="M-1113 1615l0.000976562 146.004h272v-181c44.667 0 84.5 4.5 119.5 13.5s64.667 21.667 89 38s43.166 35.666 56.499 57.999s20 46.166 20 71.499h182c0 -42.667 -9.66699 -83.834 -29 -123.501s-48.5 -74.834 -87.5 -105.501s-88.167 -55 -147.5 -73s-129 -27 -209 -27
h-160v183h-106z" />
    <glyph glyph-name="maitrilowleftthai" unicode="&#xf707;" 
d="M-1178 1432c-2 48.667 1.66602 90.833 10.999 126.5s22.5 65.667 39.5 90s36.833 42.333 59.5 54s45.667 17.5 69 17.5c31.333 0 59.333 -7.66699 84 -23c24 -16 42 -35.667 54 -59c10.667 22.667 28.334 42 53.001 58s53.667 24 87 24c18 0 35.667 -3.5 53 -10.5
s33 -16.333 47 -28s25.833 -26.667 35.5 -45s16.5 -39.833 20.5 -64.5c10 8 18.167 19.5 24.5 34.5s11.333 31 15 48s6.5 35 8.5 54s3 36.5 3 52.5h161c0 -22.667 -2 -45.834 -6 -69.501s-10.167 -47 -18.5 -70s-18.333 -45 -30 -66s-25 -40 -40 -57
s-31.833 -31.333 -50.5 -43s-38 -19.5 -58 -23.5h-132c0 8.66699 -1.16699 20.334 -3.5 35.001s-5.66602 28.834 -9.99902 42.501s-10 25.667 -17 36s-14.833 15.5 -23.5 15.5c-9.33301 0 -17.5 -4.16699 -24.5 -12.5s-12.667 -19.166 -17 -32.499s-7.5 -27.5 -9.5 -42.5
s-3 -28.833 -3 -41.5h-125c0 12.667 -1.33301 26.5 -4 41.5s-5.83398 29.167 -9.50098 42.5s-8.83398 24 -15.501 32c-7.33301 8.66699 -14.666 13 -21.999 13c-10 0 -18.333 -5.16699 -25 -15.5s-12 -22.333 -16 -36s-7 -27.834 -9 -42.501s-3 -26.334 -3 -35.001h-153z
" />
    <glyph glyph-name="maichattawalowleftthai" unicode="&#xf708;" 
d="M-999 1588v146h170v152h192v-152h176v-146h-176v-156h-192v156h-170z" />
    <glyph glyph-name="thanthakhatlowleftthai" unicode="&#xf709;" 
d="M-902 1432c0 50.667 9.16699 95.667 27.5 135s45.333 73.166 81 101.499s79 50 130 65s108.5 23.167 172.5 24.5v-149c-72.667 0 -128.667 -14.167 -168 -42.5s-59 -73.166 -59 -134.499h-184z" />
    <glyph glyph-name="maieklowrightthai" unicode="&#xf70a;" 
d="M-311 1429v377h191v-377h-191z" />
    <glyph glyph-name="maitholowrightthai" unicode="&#xf70b;" 
d="M-777 1618l0.000976562 146.001h272v-181c44 0 83.167 4.5 117.5 13.5s63.666 21.667 87.999 38s42.833 35.666 55.5 57.999s19 46.166 19 71.499h184c0 -43.333 -9.66699 -84.666 -29 -123.999s-48.5 -74.333 -87.5 -105s-87.667 -55 -146 -73s-127.5 -27 -207.5 -27
h-162v183h-104z" />
    <glyph glyph-name="maitrilowrightthai" unicode="&#xf70c;" 
d="M-993 1432c-2.66699 52.667 1 99.0068 11 139.007s24.333 73.167 43 99.5s41 45.833 67 58.5c26.667 13.333 53.667 20 81 20c16.667 0 32.5 -2.5 47.5 -7.5s29 -11.333 42 -19s24.667 -16.834 35 -27.501s19.5 -22.667 27.5 -36c6.66699 11.333 15 22.666 25 33.999
s21.833 21 35.5 29s28.5 14.667 44.5 20c15.333 4.66699 32.666 7 51.999 7s38.5 -3.33301 57.5 -10s36.167 -16.834 51.5 -30.501s28.333 -30.834 39 -51.501s18.334 -43.667 23.001 -69c10 9.33301 20.333 20.333 31 33s20.167 26.5 28.5 41.5s14.833 31.167 19.5 48.5
s7 35 7 53h184c0 -37.333 -7 -74.5 -21 -111.5s-33 -70.5 -57 -100.5s-51.5 -55.833 -82.5 -77.5s-63.5 -35.834 -97.5 -42.501h-149c0 10 -1.33301 23 -4 39s-6.66699 31.333 -12 46s-11.5 27.5 -18.5 38.5s-15.5 16.5 -25.5 16.5s-18.833 -4.5 -26.5 -13.5
s-14 -20.333 -19 -34s-8.66699 -28.834 -11 -45.501s-3.5 -32.334 -3.5 -47.001h-142c0 14 -0.833008 29.5 -2.5 46.5s-5 32.333 -10 46s-11.167 25.167 -18.5 34.5c-6 8.66699 -14 13 -24 13s-18.833 -5.5 -26.5 -16.5s-14 -23.833 -19 -38.5s-8.66699 -30 -11 -46
s-3.5 -29 -3.5 -39h-168z" />
    <glyph glyph-name="maichattawalowrightthai" unicode="&#xf70d;" 
d="M-488 1586v146h177v151h191v-151h177v-146h-177v-157h-191v157h-177z" />
    <glyph glyph-name="thanthakhatlowrightthai" unicode="&#xf70e;" 
d="M-473 1432c0 50.667 9.66699 95.667 29 135s46.5 73.166 81.5 101.499s78.167 50 129.5 65s109 23.167 173 24.5v-149c-74 0 -130.167 -14.167 -168.5 -42.5s-57.5 -73.166 -57.5 -134.499h-187z" />
    <glyph glyph-name="yoyingnobasethai" unicode="&#xf70f;" horiz-adv-x="1898" 
d="M41 870c10.667 46.667 28.8301 92.835 54.4971 138.502s60 86.667 103 123s95.167 65.666 156.5 87.999s132.333 33.5 213 33.5c66 0 124.667 -6.66699 176 -20s95.833 -31.333 133.5 -54s70 -50.167 97 -82.5s48.5 -67.5 64.5 -105.5s27.833 -78.167 35.5 -120.5
s11.5 -85.166 11.5 -128.499v-342c0 -42.667 6.83301 -80.5 20.5 -113.5s32.167 -60.833 55.5 -83.5s50.166 -39.834 80.499 -51.501s61.833 -17.5 94.5 -17.5s63.334 5.33301 92.001 16s54.167 26.834 76.5 48.501s40.166 49.167 53.499 82.5
c14 32.667 21 72.334 21 119.001v826h198v-846c0 -70.667 -12.167 -131.667 -36.5 -183s-57.166 -93.833 -98.499 -127.5s-88.5 -58.5 -141.5 -74.5s-107.833 -24 -164.5 -24c-59.333 0 -116.166 8.66699 -170.499 26s-102.5 43.166 -144.5 77.499s-75.333 77 -100 128
s-37 110.167 -37 177.5v385c0 38 -5.33301 75.667 -16 113s-28.167 71.166 -52.5 101.499s-57 54.666 -98 72.999s-91.167 28.5 -150.5 30.5c-50.667 0 -95.167 -6.33301 -133.5 -19s-71 -29.167 -98 -49.5s-47.667 -43.166 -62 -68.499s-23.166 -50.666 -26.499 -75.999
c14 -8 26.833 -19 38.5 -33s21.167 -30 28.5 -48s13 -38 17 -60c4.66699 -22.667 7 -45.667 7 -69v-508h131v-152h-330v663c0 19.333 -1.16699 38.666 -3.5 57.999s-7.16602 38 -14.499 56s-17.333 35.167 -30 51.5s-29.667 30.166 -51 41.499z" />
    <glyph glyph-name="maihanakatleftthai" unicode="&#xf710;" 
d="M-864 1432v257h191v-103h793v-154h-984z" />
    <glyph glyph-name="nikhahitleftthai" unicode="&#xf711;" 
d="M-888 1624c0 28 5.33594 54.667 16.0029 80s25.334 47.166 44.001 65.499s40.667 33.166 66 44.499s52 17 80 17c27.333 0 53.666 -5.66699 78.999 -17s47.5 -26.166 66.5 -44.499s33.833 -40.166 44.5 -65.499s16 -52 16 -80c0 -29.333 -5.33301 -56.166 -16 -80.499
s-25.5 -46 -44.5 -65s-40.833 -33.833 -65.5 -44.5s-51.334 -16 -80.001 -16c-29.333 0 -56.333 5.33301 -81 16s-46.334 25.5 -65.001 44.5s-33.334 40.667 -44.001 65s-16 51.166 -16 80.499zM-764.997 1624c0 -12 2.16504 -22.833 6.49805 -32.5
s10.166 -18.5 17.499 -26.5s16.333 -14.333 27 -19s21.334 -7 32.001 -7c12 0 23 2.33301 33 7s18.667 11 26 19s13.166 16.833 17.499 26.5s6.5 20.5 6.5 32.5c0 11.333 -2.16699 21.833 -6.5 31.5s-10.166 18.5 -17.499 26.5s-16.333 14.333 -27 19s-21.334 7 -32.001 7
c-11.333 0 -22.166 -2.33301 -32.499 -7s-19.166 -11 -26.499 -19s-13.166 -16.833 -17.499 -26.5s-6.5 -20.167 -6.5 -31.5z" />
    <glyph glyph-name="maitaikhuleftthai" unicode="&#xf712;" 
d="M-1209 1683c0 46.667 8.83398 86.1689 26.501 118.502s40.5 58.5 68.5 78.5s61 34.667 99 44c38 8.66699 76.667 13 116 13h569v-140h-549c-33.333 0 -59.833 -3.83301 -79.5 -11.5s-34.5 -17.167 -44.5 -28.5s-16.167 -23.5 -18.5 -36.5s-3.5 -25.5 -3.5 -37.5
c0 -7.33301 1 -16 3 -26s5.83301 -19.5 11.5 -28.5s14.667 -16.5 27 -22.5s28.166 -9 47.499 -9c16 0 30 2.66699 42 8s21.833 13.166 29.5 23.499s13.167 22.166 16.5 35.499c2.66699 14 4 29.667 4 47h132c-1.33301 -16.667 -0.333008 -32 3 -46s9 -26.167 17 -36.5
s17.833 -18.166 29.5 -23.499s25.167 -8 40.5 -8c17.333 0 31.333 3 42 9s19.167 14 25.5 24s10.333 22.167 12 36.5s1.5 29.166 -0.5 44.499h149c6 -46.667 4.5 -86.5 -4.5 -119.5s-23.167 -60.167 -42.5 -81.5s-42.333 -37.333 -69 -48c-28 -10 -56.667 -15 -86 -15
c-25.333 0 -48.166 4.16699 -68.499 12.5s-38.333 19.333 -54 33s-28.334 28.167 -38.001 43.5s-15.5 31 -17.5 47c-2 -16 -8.5 -31.667 -19.5 -47s-25.333 -29.833 -43 -43.5s-37.5 -24.834 -59.5 -33.501c-23.333 -8 -47 -12 -71 -12c-45.333 0 -83.333 7.83301 -114 23.5
s-55.5 35.334 -74.5 59.001s-32.667 49.167 -41 76.5s-12.5 53 -12.5 77z" />
    <glyph glyph-name="maiekupperleftthai" unicode="&#xf713;" 
d="M-682 1910v324h191v-324h-191z" />
    <glyph glyph-name="maithoupperleftthai" unicode="&#xf714;" 
d="M-999 2097v146h272v-183c44 0 83.5 4.66699 118.5 14s64.333 22.166 88 38.5c23.667 16.333 42.167 35.833 55.5 58.5s20 46.667 20 72h182c0 -43.333 -9.66699 -84.666 -29 -124c-19.333 -39.333 -48.5 -74.333 -87.5 -105s-87.667 -55.167 -146 -73.5
s-127.5 -27.5 -207.5 -27.5h-161v184h-105z" />
    <glyph glyph-name="maitriupperleftthai" unicode="&#xf715;" 
d="M-1037 1910c-2.66699 48.667 0.667969 91 10.001 127s22.5 66.167 39.5 90.5s37.167 42.166 60.5 53.5c22 12 45.667 18 71 18c31.333 0 59.166 -7.5 83.499 -22.5s43.5 -34.833 57.5 -59.5c10.667 22.667 28.334 42 53.001 58s54 24 88 24
c19.333 0 37.666 -3.5 54.999 -10.5s33 -16.833 47 -29.5s25.667 -28 35 -46s15.666 -38.667 18.999 -62c10 8 19.333 19.333 28 34s16.167 30.667 22.5 48s11.333 35.333 15 54s5.5 36.334 5.5 53.001h167c0 -33.333 -5.83301 -68.333 -17.5 -105
s-27.334 -70.5 -47.001 -101.5s-43.667 -58 -72 -81s-58.166 -37.167 -89.499 -42.5h-134c0 8.66699 -1.33301 20.5 -4 35.5s-6.16699 29.333 -10.5 43s-9.83301 25.334 -16.5 35.001s-14.834 14.5 -24.501 14.5s-18 -4.16699 -25 -12.5s-12.833 -19 -17.5 -32
s-8 -26.833 -10 -41.5s-3 -28.667 -3 -42h-126c0 12.667 -1.16699 26.5 -3.5 41.5s-5.66602 29 -9.99902 42s-9.83301 23.833 -16.5 32.5c-7.33301 8 -14.666 12 -21.999 12c-10 0 -18.333 -4.83301 -25 -14.5s-12 -21.334 -16 -35.001s-7 -27.834 -9 -42.501
s-3 -26.667 -3 -36h-155z" />
    <glyph glyph-name="maichattawaupperleftthai" unicode="&#xf716;" 
d="M-858 2066v147h176v152h191v-152h177v-147h-177v-156h-191v156h-176z" />
    <glyph glyph-name="thanthakhatupperleftthai" unicode="&#xf717;" 
d="M-651 1791c0 50.667 9.16602 95.832 27.499 135.499s45.333 73.5 81 101.5s79 49.667 130 65s108.833 23.333 173.5 24v-149c-73.333 0 -129.666 -14.167 -168.999 -42.5s-59 -73.166 -59 -134.499h-184z" />
    <glyph glyph-name="saraulowthai" unicode="&#xf718;" 
d="M-415 -499h295v-437h-188v291h-107v146z" />
    <glyph glyph-name="sarauulowthai" unicode="&#xf719;" 
d="M-853 -499h300v-146c0 -46.667 10 -81.667 30 -105s50.667 -35 92 -35c82 0 123 46.667 123 140v146h188v-146c0 -39.333 -5.33301 -77 -16 -113s-28.167 -67.167 -52.5 -93.5s-56.5 -47 -96.5 -62s-88.667 -22.5 -146 -22.5c-56 0 -104 7 -144 21s-72.5 33.667 -97.5 59
s-43.167 56 -54.5 92c-12 36 -18 75.667 -18 119h-108v146z" />
    <glyph glyph-name="phinthulowthai" unicode="&#xf71a;" 
d="M-368 -625c0 20.667 3.83203 39.667 11.499 57s18.167 32.666 31.5 45.999s29 23.333 47 30s36.667 10 56 10s37.833 -3.33301 55.5 -10s33 -16.667 46 -30s23.5 -28.666 31.5 -45.999s12 -36.333 12 -57s-4 -39.667 -12 -57s-18.5 -32.666 -31.5 -45.999
s-28.333 -23.333 -46 -30s-36.167 -10 -55.5 -10c-20.667 0 -39.667 3.33301 -57 10s-32.666 16.667 -45.999 30s-23.833 28.666 -31.5 45.999s-11.5 36.333 -11.5 57z" />
    <glyph glyph-name="lochula.short" unicode="&#xf71d;" horiz-adv-x="1566" 
d="M35 1226l225.001 0.000976562l165 -1004h6l232 788h219l233 -788h6l117 588c8 46 13 87 15 123s-1.5 66.667 -10.5 92s-24.667 44.833 -47 58.5s-52.833 20.5 -91.5 20.5v125c38 2 72.333 6.5 103 13.5s57.667 18.167 81 33.5s41.833 34.666 55.5 57.999
s22.167 52.333 25.5 87h234c-6 -42 -17.5 -78.333 -34.5 -109s-37.833 -56.5 -62.5 -77.5s-52.667 -37.5 -84 -49.5c-31.333 -13.333 -62.333 -22 -93 -26c25.333 -7.33301 47.5 -19.333 66.5 -36s33.833 -38.167 44.5 -64.5s16.167 -57 16.5 -92
s-4.83398 -73.833 -15.501 -116.5l-209 -850h-219l-236 788h-9l-237 -788h-220z" />
    <glyph glyph-name="rulakkhangyao" unicode="&#xf881;" horiz-adv-x="1862" 
d="M41 870c8 31.333 18.335 62.5049 31.002 93.5049s29.167 60.667 49.5 89s44.833 54.666 73.5 78.999s61.667 45.5 99 63.5s79.833 32.167 127.5 42.5s100.834 15.5 159.501 15.5c95.333 0 176.333 -12.667 243 -38s121 -59.333 163 -102
c19.333 23.333 41.666 43.5 66.999 60.5s52.666 31 81.999 42s60 19.5 92 25.5s64.667 9 98 9c60 0 115.333 -8.33301 166 -25s94.5 -41.5 131.5 -74.5s66.167 -74.833 87.5 -125.5s32 -110 32 -178v-1244h-197v1201c0 97.333 -19 168.333 -57 213
c-36.667 44 -91 66 -163 66c-65.333 0 -117.5 -17.667 -156.5 -53s-60.833 -87.666 -65.5 -156.999l6 -65.5c2 -21.667 3 -43.5 3 -65.5v-1139h-199v1162c0 38 -5.16699 75.667 -15.5 113s-28.333 71.166 -54 101.499s-60 54.666 -103 72.999s-96.5 28.5 -160.5 30.5
c-60 0 -110.833 -6.83301 -152.5 -20.5s-75.334 -30.834 -101.001 -51.501s-44.834 -43.667 -57.501 -69s-20 -49.333 -22 -72c14 -8 26.833 -19 38.5 -33s21.167 -30 28.5 -48s13 -38 17 -60c4.66699 -22.667 7 -45.667 7 -69v-508h131v-152h-330v663
c0 19.333 -1.16699 38.666 -3.5 57.999s-7.16602 38 -14.499 56s-17.333 35.167 -30 51.5s-29.667 30.166 -51 41.499z" />
    <glyph glyph-name="lulakkhangyao" unicode="&#xf882;" horiz-adv-x="1934" 
d="M72 0l0.00488281 152.006h119v511c0 19.333 -1.16699 38.666 -3.5 57.999s-7.33301 38 -15 56s-17.834 35.167 -30.501 51.5s-29 30.166 -49 41.499c10 46.667 27.833 92.834 53.5 138.501s60.667 86.667 105 123s98.666 65.666 162.999 87.999
s140.166 33.5 227.499 33.5c48.667 0 94 -3.5 136 -10.5s80 -16.833 114 -29.5s64.667 -27.667 92 -45s52 -36.666 74 -57.999c20.667 23.333 43.667 43.666 69 60.999s52.666 31.833 81.999 43.5s59.5 20.5 90.5 26.5s63.167 9 96.5 9c60 0 115.667 -8.33301 167 -25
s95.666 -41.5 132.999 -74.5s66.5 -74.833 87.5 -125.5s31.5 -110 31.5 -178v-1244h-197v1201c0 97.333 -19 168.166 -57 212.499s-93 66.5 -165 66.5c-64.667 0 -116.334 -18 -155.001 -54s-60.667 -88 -66 -156c4 -21.333 7 -43 9 -65s3 -44 3 -66v-1139h-200v1162
c0 46.667 -8.5 89.5 -25.5 128.5s-40.833 72.333 -71.5 100s-67 49 -109 64s-88.333 23.5 -139 25.5c-38 0 -72.5 -3.33301 -103.5 -10s-58.833 -15.834 -83.5 -27.501s-46.5 -25.334 -65.5 -41.001s-34.833 -31.334 -47.5 -47.001s-22.667 -31.167 -30 -46.5
s-11.666 -29 -12.999 -41c14 -8 26.5 -19 37.5 -33s20.5 -30 28.5 -48s14 -38 18 -60c3.33301 -22.667 5 -45.667 5 -69v-660h-316z" />
    <glyph glyph-name=".null" 
 />
    <glyph glyph-name="nonmarkingreturn" horiz-adv-x="4096" 
 />
    <glyph glyph-name="yamakkanleftthai" 
d="M-911 1432c0 36 4.16504 70.1689 12.498 102.502s21.5 61.5 39.5 87.5s41 48 69 66c28 19.333 62 33 102 41c6 28 16.333 53.5 31 76.5s34.834 42.667 60.501 59s57.5 29.333 95.5 39s82.333 15.167 133 16.5v-153c-33.333 0 -60.666 -2.5 -81.999 -7.5
s-38 -12.833 -50 -23.5s-20.167 -24.834 -24.5 -42.501s-6.5 -39.167 -6.5 -64.5v-32h-43c-30 0 -54.667 -3.83301 -74 -11.5s-34.833 -18.834 -46.5 -33.501s-20 -32 -25 -52s-7.5 -42.667 -7.5 -68h-184z" />
    <glyph glyph-name="saraamleft" horiz-adv-x="1007" 
d="M-888 1624c0 28 5.33594 54.667 16.0029 80s25.334 47.166 44.001 65.499s40.667 33.166 66 44.499s52 17 80 17c27.333 0 53.666 -5.66699 78.999 -17s47.5 -26.166 66.5 -44.499s33.833 -40.166 44.5 -65.499s16 -52 16 -80c0 -29.333 -5.33301 -56.166 -16 -80.499
s-25.5 -46 -44.5 -65s-40.833 -33.833 -65.5 -44.5s-51.334 -16 -80.001 -16c-29.333 0 -56.333 5.33301 -81 16s-46.334 25.5 -65.001 44.5s-33.334 40.667 -44.001 65s-16 51.166 -16 80.499zM-764.997 1624c0 -12 2.16504 -22.833 6.49805 -32.5
s10.166 -18.5 17.499 -26.5s16.333 -14.333 27 -19s21.334 -7 32.001 -7c12 0 23 2.33301 33 7s18.667 11 26 19s13.166 16.833 17.499 26.5s6.5 20.5 6.5 32.5c0 11.333 -2.16699 21.833 -6.5 31.5s-10.166 18.5 -17.499 26.5s-16.333 14.333 -27 19s-21.334 7 -32.001 7
c-11.333 0 -22.166 -2.33301 -32.499 -7s-19.166 -11 -26.499 -19s-13.166 -16.833 -17.499 -26.5s-6.5 -20.167 -6.5 -31.5zM38.001 870c0 40.667 5.83496 78.668 17.502 114.001s27.167 67 46.5 95s42.666 52.833 69.999 74.5s57.166 39.5 89.499 53.5s66 24.667 101 32
s70.833 11 107.5 11c60.667 0 116.167 -8.33301 166.5 -25s94.333 -41.5 132 -74.5s67 -74.833 88 -125.5s31.5 -110 31.5 -178v-847h-197v804c0 97.333 -18.833 168.166 -56.5 212.499s-92.5 66.5 -164.5 66.5c-64 0 -116 -18 -156 -54s-62 -89 -66 -159h-210z" />
    <glyph glyph-name="uni0E33.alt1" horiz-adv-x="1007" 
d="M-888 1624c0 28 5.33594 54.667 16.0029 80s25.334 47.166 44.001 65.499s40.667 33.166 66 44.499s52 17 80 17c27.333 0 53.666 -5.66699 78.999 -17s47.5 -26.166 66.5 -44.499s33.833 -40.166 44.5 -65.499s16 -52 16 -80c0 -29.333 -5.33301 -56.166 -16 -80.499
s-25.5 -46 -44.5 -65s-40.833 -33.833 -65.5 -44.5s-51.334 -16 -80.001 -16c-29.333 0 -56.333 5.33301 -81 16s-46.334 25.5 -65.001 44.5s-33.334 40.667 -44.001 65s-16 51.166 -16 80.499zM-764.997 1624c0 -12 2.16504 -22.833 6.49805 -32.5
s10.166 -18.5 17.499 -26.5s16.333 -14.333 27 -19s21.334 -7 32.001 -7c12 0 23 2.33301 33 7s18.667 11 26 19s13.166 16.833 17.499 26.5s6.5 20.5 6.5 32.5c0 11.333 -2.16699 21.833 -6.5 31.5s-10.166 18.5 -17.499 26.5s-16.333 14.333 -27 19s-21.334 7 -32.001 7
c-11.333 0 -22.166 -2.33301 -32.499 -7s-19.166 -11 -26.499 -19s-13.166 -16.833 -17.499 -26.5s-6.5 -20.167 -6.5 -31.5zM38.001 870c0 40.667 5.83496 78.668 17.502 114.001s27.167 67 46.5 95s42.666 52.833 69.999 74.5s57.166 39.5 89.499 53.5s66 24.667 101 32
s70.833 11 107.5 11c60.667 0 116.167 -8.33301 166.5 -25s94.333 -41.5 132 -74.5s67 -74.833 88 -125.5s31.5 -110 31.5 -178v-847h-197v804c0 97.333 -18.833 168.166 -56.5 212.499s-92.5 66.5 -164.5 66.5c-64 0 -116 -18 -156 -54s-62 -89 -66 -159h-210z" />
    <glyph glyph-name="saraithai.alt1" 
d="M-958 1432l79 154h759v-154h-838z" />
    <glyph glyph-name="saraiithai.alt1" 
d="M-958 1432l79 154h568v186h191v-340h-838z" />
    <glyph glyph-name="sarauethai.alt1" 
d="M-958 1432l79.0029 154.001h403c-2 7.33301 -3 14.5 -3 21.5v18.5c0 27.333 5.16699 52.666 15.5 75.999s24.166 43.833 41.499 61.5s38 31.667 62 42s49.667 15.5 77 15.5s52.666 -5.16699 75.999 -15.5s43.666 -24.333 60.999 -42s30.833 -38.167 40.5 -61.5
s14.5 -48.666 14.5 -75.999c0 -26.667 -4.83301 -51.834 -14.5 -75.501s-23.167 -44.167 -40.5 -61.5s-38 -31 -62 -41c-22.667 -10.667 -47.667 -16 -75 -16h-675zM-361.997 1626c0 -9.33301 2.00098 -18.833 6.00098 -28.5s9.83301 -17.667 17.5 -24
s16.167 -11.5 25.5 -15.5c10 -4 20 -6 30 -6c9.33301 0 19 2 29 6s18.333 9.16699 25 15.5s12 14.333 16 24s6 19.167 6 28.5c0 12 -2 22.667 -6 32s-9.33301 17.666 -16 24.999s-15 12.833 -25 16.5s-19.667 5.5 -29 5.5c-10 0 -19.833 -1.83301 -29.5 -5.5
s-18.334 -9.16699 -26.001 -16.5s-13.5 -15.666 -17.5 -24.999s-6 -20 -6 -32z" />
    <glyph glyph-name="saraueethai.alt1" 
d="M-958 1432l79 154h251v186h189v-186h131v186h188v-340h-838z" />
    <glyph glyph-name="saraithai.alt2" 
d="M-1539 1432l73 154h1035v-154h-1108z" />
    <glyph glyph-name="saraiithai.alt2" 
d="M-1539 1432l73 154h844v186h191v-340h-1108z" />
    <glyph glyph-name="sarauethai.alt2" 
d="M-1548 1432l75.9971 154h707c-2 7.33301 -3 14.5 -3 21.5v18.5c0 27.333 4.83301 52.666 14.5 75.999s23.334 43.833 41.001 61.5s38.334 31.667 62.001 42s49.167 15.5 76.5 15.5s52.5 -5.16699 75.5 -15.5s43.167 -24.333 60.5 -42s30.833 -38.167 40.5 -61.5
s14.5 -48.666 14.5 -75.999c0 -26.667 -4.83301 -51.834 -14.5 -75.501s-23.167 -44.167 -40.5 -61.5s-37.666 -31.166 -60.999 -41.499s-48.333 -15.5 -75 -15.5h-974zM-651.003 1626c0 -21.333 7.33496 -39 22.002 -53s33 -21 55 -21c21.333 0 39.166 7 53.499 21
s21.5 31.667 21.5 53c0 23.333 -7.33301 42.333 -22 57s-32.334 22 -53.001 22c-23.333 0 -42 -7.33301 -56 -22s-21 -33.667 -21 -57z" />
    <glyph glyph-name="saraueethai.alt2" 
d="M-1551 1432l73 154h539v186h189v-186h131v186h188v-340h-1120z" />
    <glyph glyph-name="maiekthai.alt2" 
d="M-622 1910v324h191v-324h-191z" />
    <glyph glyph-name="maithothai.alt2" 
d="M-908 2097v146h271v-183c44 0 83.333 4.66699 118 14s64.167 22.166 88.5 38.5c24.333 16.333 42.833 35.833 55.5 58.5s19 46.667 19 72h182c0 -43.333 -9.5 -84.666 -28.5 -123.999s-47.833 -74.333 -86.5 -105s-87.667 -55.334 -147 -74.001
c-58 -18 -126.667 -27 -206 -27h-162v184h-104z" />
    <glyph glyph-name="maitrithai.alt2" 
d="M-1037 1910c-2.66699 48.667 0.667969 91 10.001 127s22.5 66.167 39.5 90.5s37.167 42.166 60.5 53.5c22 12 45.667 18 71 18c31.333 0 59.166 -7.5 83.499 -22.5s43.5 -34.833 57.5 -59.5c10.667 22.667 28.334 42 53.001 58s54 24 88 24
c19.333 0 37.666 -3.5 54.999 -10.5s33 -16.833 47 -29.5s25.667 -28 35 -46s15.666 -38.667 18.999 -62c10 8 19.333 19.333 28 34s16.167 30.667 22.5 48s11.333 35.333 15 54s5.5 36.334 5.5 53.001h167c0 -33.333 -5.83301 -68.333 -17.5 -105
s-27.334 -70.5 -47.001 -101.5s-43.667 -58 -72 -81s-58.166 -37.167 -89.499 -42.5h-134c0 8.66699 -1.33301 20.5 -4 35.5s-6.16699 29.333 -10.5 43s-9.83301 25.334 -16.5 35.001s-14.834 14.5 -24.501 14.5s-18 -4.16699 -25 -12.5s-12.833 -19 -17.5 -32
s-8 -26.833 -10 -41.5s-3 -28.667 -3 -42h-126c0 12.667 -1.16699 26.5 -3.5 41.5s-5.66602 29 -9.99902 42s-9.83301 23.833 -16.5 32.5c-7.33301 8 -14.666 12 -21.999 12c-10 0 -18.333 -4.83301 -25 -14.5s-12 -21.334 -16 -35.001s-7 -27.834 -9 -42.501
s-3 -26.667 -3 -36h-155z" />
    <glyph glyph-name="maichattawathai.alt2" 
d="M-799 2066v147h177v152h191v-152h177v-147h-177v-156h-191v156h-177z" />
    <glyph glyph-name="saraithai.alt3" 
d="M-1489 1432l79 154h1290v-154h-1369z" />
    <glyph glyph-name="saraiithai.alt3" 
d="M-1489 1432l79 154h1099v186h191v-340h-1369z" />
    <glyph glyph-name="sarauethai.alt3" 
d="M-1489 1432l79.0029 154.001h934c-2 7.33301 -3 14.5 -3 21.5v18.5c0 27.333 5.16699 52.666 15.5 75.999s24.166 43.833 41.499 61.5s38 31.667 62 42s49.667 15.5 77 15.5s52.666 -5.16699 75.999 -15.5s43.666 -24.333 60.999 -42s30.833 -38.167 40.5 -61.5
s14.5 -48.666 14.5 -75.999c0 -26.667 -4.83301 -51.834 -14.5 -75.501s-23.167 -44.167 -40.5 -61.5s-38 -31 -62 -41c-22.667 -10.667 -47.667 -16 -75 -16h-1206zM-361.997 1626c0 -9.33301 2.00098 -18.833 6.00098 -28.5s9.83301 -17.667 17.5 -24
s16.167 -11.5 25.5 -15.5c10 -4 20 -6 30 -6c9.33301 0 19 2 29 6s18.333 9.16699 25 15.5s12 14.333 16 24s6 19.167 6 28.5c0 12 -2 22.667 -6 32s-9.33301 17.666 -16 24.999s-15 12.833 -25 16.5s-19.667 5.5 -29 5.5c-10 0 -19.833 -1.83301 -29.5 -5.5
s-18.334 -9.16699 -26.001 -16.5s-13.5 -15.666 -17.5 -24.999s-6 -20 -6 -32z" />
    <glyph glyph-name="saraueethai.alt3" 
d="M-1489 1432l79 154h782v186h189v-186h131v186h188v-340h-1369z" />
    <glyph glyph-name="maiekthai.alt4" 
d="M-311 1791v323h191v-323h-191z" />
    <glyph glyph-name="maithothai.alt4" 
d="M-645 1977l-0.000976562 146.002h271v-183c44.667 0 84.334 4.66699 119.001 14s64 22.333 88 39s42.333 36.167 55 58.5s19 46.166 19 71.5h184c0 -42.667 -9.83301 -83.834 -29.5 -123.501s-49 -74.834 -88 -105.501s-87.667 -55 -146 -73s-127.5 -27 -207.5 -27h-160
v183h-105z" />
    <glyph glyph-name="maitrithai.alt4" 
d="M-780 1791c-2.66699 48.667 0.668945 90.8301 10.002 126.497s22.166 65.667 38.499 90s36.166 42.333 59.499 53.999c23.333 11.667 47.666 17.5 72.999 17.5c30.667 0 58.334 -7.5 83.001 -22.5s43 -34.833 55 -59.5c11.333 23.333 30 42.833 56 58.5
s55.333 23.5 88 23.5c18.667 0 36.5 -3.33301 53.5 -10s32.5 -16.334 46.5 -29c14 -12.667 26 -28 36 -46s16.667 -38.667 20 -62c10 7.33301 19.667 18.333 29 33s17.833 30.834 25.5 48.501s13.667 35.667 18 54.001c4.33301 18.333 6.5 35.833 6.5 52.5h167
c0 -33.333 -6.33301 -68.166 -19 -104.5c-12.667 -36.333 -29.834 -70.166 -51.501 -101.499s-46.5 -58.166 -74.5 -80.499s-57.667 -36.5 -89 -42.5h-137c0 9.33301 -1.16699 21.166 -3.5 35.499s-5.83301 28.333 -10.5 42s-10.334 25.667 -17.001 36s-15 15.5 -25 15.5
c-8.66699 0 -16.167 -4.33301 -22.5 -13s-11.833 -19.667 -16.5 -33s-8 -27.333 -10 -42s-3 -28.334 -3 -41.001h-129c0 12.667 -1.16699 26.334 -3.5 41.001s-5.66602 28.667 -9.99902 42s-9.5 24.333 -15.5 33s-13.333 13 -22 13
c-9.33301 0 -17.166 -5.16699 -23.499 -15.5s-12 -22.333 -17 -36s-8.5 -27.667 -10.5 -42s-3 -26.166 -3 -35.499h-152z" />
    <glyph glyph-name="maichattawathai.alt4" 
d="M-488 1946v148h177v151h191v-151h177v-148h-177v-155h-191v155h-177z" />
    <glyph glyph-name="maiekthai.alt5" 
d="M-682 1791v323h191v-323h-191z" />
    <glyph glyph-name="maithothai.alt5" 
d="M-969 1974v146.002h273v-183c43.333 0 82.5 4.66699 117.5 14s64.5 22.333 88.5 39s42.5 36.167 55.5 58.5s19.5 46.166 19.5 71.5h181c0 -42.667 -9.5 -83.834 -28.5 -123.501s-47.833 -74.834 -86.5 -105.501s-87.5 -55 -146.5 -73s-128.5 -27 -208.5 -27h-160v183
h-105z" />
    <glyph glyph-name="maitrithai.alt5" 
d="M-1098 1791c-2.66699 48.667 0.501953 90.8301 9.50195 126.497s22.333 65.667 40 90s38.167 42.333 61.5 53.999c23.333 11.667 47.666 17.5 72.999 17.5c31.333 0 59.166 -7.5 83.499 -22.5s43.166 -34.833 56.499 -59.5c10.667 23.333 28.5 42.833 53.5 58.5
s53.833 23.5 86.5 23.5c20 0 38.667 -3.33301 56 -10s32.833 -16.334 46.5 -29c13.667 -12.667 25.334 -28 35.001 -46s15.5 -38.667 17.5 -62c10 7.33301 19.5 18.333 28.5 33s16.667 30.834 23 48.501s11.5 35.667 15.5 54.001c4 18.333 6 35.833 6 52.5h167
c0 -33.333 -5.83301 -68.166 -17.5 -104.5c-11.667 -36.333 -27.834 -70.166 -48.501 -101.499s-44.667 -58.166 -72 -80.499s-57.333 -36.5 -90 -42.5h-135c0 9.33301 -0.833008 21.166 -2.5 35.499s-5 28.333 -10 42s-10.833 25.667 -17.5 36s-14 15.5 -22 15.5
c-10 0 -18.667 -4.33301 -26 -13s-13.333 -19.667 -18 -33s-8.16699 -27.333 -10.5 -42s-3.5 -28.334 -3.5 -41.001h-126c0 12.667 -1 26.334 -3 41.001s-5.16699 28.667 -9.5 42s-9.66602 24.333 -15.999 33s-13.5 13 -21.5 13c-9.33301 0 -17.5 -5.16699 -24.5 -15.5
s-12.667 -22.333 -17 -36s-7.5 -27.667 -9.5 -42s-3 -26.166 -3 -35.499h-156z" />
    <glyph glyph-name="maichattawathai.alt5" 
d="M-858 1946v148h176v151h191v-151h177v-148h-177v-155h-191v155h-176z" />
    <glyph glyph-name="sarauthai.alt6" 
d="M-616 -161h296v-438h-188v291h-108v147z" />
    <glyph glyph-name="sarauuthai.alt6" 
d="M-894 -161l297.999 0.000976562v-147c0 -46.667 10 -81.667 30 -105c19.333 -23.333 50.333 -35 93 -35c40.667 0 71.334 11.667 92.001 35s31 58.333 31 105v147h189v-147c0 -38.667 -5.5 -75.834 -16.5 -111.501s-28.667 -66.667 -53 -93s-56.166 -47.333 -95.499 -63
s-88.333 -23.5 -147 -23.5c-56.667 0 -104.834 7.16699 -144.501 21.5s-72 34.333 -97 60s-43 56 -54 91s-16.5 74.5 -16.5 118.5h-109v147z" />
    <glyph glyph-name="phinthuthai.alt6" 
d="M-613 -254c0 19.333 3.83203 38 11.499 56s18.167 33.667 31.5 47s29 23.833 47 31.5s36.667 11.5 56 11.5s37.833 -3.83301 55.5 -11.5s33.167 -18.167 46.5 -31.5s23.666 -29 30.999 -47s11 -36.667 11 -56s-3.66699 -37.833 -11 -55.5s-17.666 -33 -30.999 -46
s-28.833 -23.167 -46.5 -30.5s-36.167 -11 -55.5 -11c-20.667 0 -39.667 3.66699 -57 11s-32.666 17.5 -45.999 30.5s-23.833 28.333 -31.5 46s-11.5 36.167 -11.5 55.5z" />
    <glyph glyph-name="sarauthai.alt7" 
d="M-596 -161h297v-438h-189v291h-108v147z" />
    </font>
</defs>
</svg>
