<?xml version="1.0" standalone="no"?>
<!DOCTYPE svg PUBLIC "-//W3C//DTD SVG 1.1//EN" "http://www.w3.org/Graphics/SVG/1.1/DTD/svg11.dtd" >
<svg>
<metadata>
Created by FontForge 20090914 at Tue Jun 25 06:05:12 2019
 By www-data
Copyright (c) 1988, 1990, 1993 Adobe Systems Incorporated.  All Rights Reserved.Helvetica is a trademark of Linotype-Hell AG and/or its subsidiaries.
</metadata>
<defs>
<font id="Helvetica35-Thin" horiz-adv-x="556" >
  <font-face 
    font-family="Helvetica35-Thin"
    font-weight="100"
    font-stretch="normal"
    units-per-em="1000"
    panose-1="2 11 2 0 0 0 0 0 0 0"
    ascent="800"
    descent="-200"
    x-height="514"
    cap-height="714"
    bbox="-61 -214 1041 926.999"
    underline-thickness="50"
    underline-position="-50"
    unicode-range="U+0020-U+2122"
  />
<missing-glyph horiz-adv-x="502" 
d="M-1 0h500v500h-500v-500zM9 10v480h480v-480h-480z" />
    <glyph glyph-name=".notdef" horiz-adv-x="502" 
d="M-1 0h500v500h-500v-500zM9 10v480h480v-480h-480z" />
    <glyph glyph-name="space" unicode=" " horiz-adv-x="278" 
 />
    <glyph glyph-name="exclam" unicode="!" horiz-adv-x="259" 
d="M106 714v-241l12 -290h24l12 290v241h-48zM155 0v103h-51v-103h51z" />
    <glyph glyph-name="quotedbl" unicode="&#x22;" horiz-adv-x="315" 
d="M80 485h38v229h-38v-229zM197 485h38v229h-38v-229z" />
    <glyph glyph-name="numbersign" unicode="#" 
d="M414 690l-31 -220h-169l31 220h-33l-31 -220h-123v-33h118l-24 -173h-122v-33h117l-32 -231h33l32 231h169l-32 -231h33l32 231h116v33h-111l24 173h115v33h-110l31 220h-33zM209 437h169l-24 -173h-169z" />
    <glyph glyph-name="dollar" unicode="$" 
d="M290 347l60.999 -15c52 -12.667 90 -31.167 114 -55.5s36 -55.5 36 -93.5c0 -28 -5.5 -52.333 -16.5 -73s-26.5 -37.667 -46.5 -51c-37.333 -25.333 -86.666 -38 -147.999 -38v326zM257.999 393l-41 9.00098c-22.667 5.33301 -42.5 11.166 -59.5 17.499
s-31.833 14.5 -44.5 24.5s-22.667 23 -30 39s-11 35.333 -11 58c0 44.667 15 80.5 45 107.5s77 41.833 141 44.5v-300zM257.999 -104.999h32v88c32.667 0.666992 63.834 4.66699 93.501 12s56.167 19 79.5 35s41.833 36.667 55.5 62s20.5 55.666 20.5 90.999
c0 44.667 -13 82.334 -39 113.001s-70 53.667 -132 69l-78 19v310c60 -1.33301 106.333 -16.333 139 -45s51 -74.667 55 -138h38c-2.66699 73.333 -24 128 -64 164s-96 54.667 -168 56v49h-32v-49c-48.667 -1.33301 -88.5 -9.33301 -119.5 -24
s-53.833 -32.334 -68.5 -53.001s-24.334 -40.667 -29.001 -60s-7 -37 -7 -53c0 -29.333 5 -54.166 15 -74.499s23.333 -37 40 -50s35 -23.333 55 -31s42.333 -14.5 67 -20.5l47 -11v-333c-68 4 -119.667 24.833 -155 62.5s-53 88.167 -53 151.5h-38
c0 -42 5.83301 -78.333 17.5 -109s28.167 -56 49.5 -76s47 -35.333 77 -46s64 -17.667 102 -21v-88z" />
    <glyph glyph-name="percent" unicode="%" horiz-adv-x="778" 
d="M138 -24h40l465 738h-40zM572 -12c49.333 0 89.332 17.332 119.999 51.999s46 76.334 46 125.001c0 52.667 -14.667 95.667 -44 129s-69.666 50 -120.999 50c-50.667 0 -91.167 -17.167 -121.5 -51.5s-45.5 -76.833 -45.5 -127.5c0 -50 15.333 -92 46 -126
s70.667 -51 120 -51zM570.999 20.999c-37.333 0 -67.832 14.333 -91.499 43s-35.5 62.334 -35.5 101.001c0 40.667 11.333 75.167 34 103.5s54 42.5 94 42.5s71.333 -14 94 -42s34 -62.667 34 -104c0 -38.667 -11.833 -72.334 -35.5 -101.001s-54.834 -43 -93.501 -43z
M206 345.999c49.333 0 89.332 17.332 119.999 51.999s46 76.334 46 125.001c0 52.667 -14.667 95.667 -44 129s-69.666 50 -120.999 50c-50.667 0 -91.167 -17.167 -121.5 -51.5s-45.5 -76.833 -45.5 -127.5c0 -50 15.333 -92 46 -126s70.667 -51 120 -51zM204.999 378.998
c-37.333 0 -67.832 14.333 -91.499 43s-35.5 62.334 -35.5 101.001c0 40.667 11.333 75.167 34 103.5s54 42.5 94 42.5s71.333 -14 94 -42s34 -62.667 34 -104c0 -38.667 -11.833 -72.334 -35.5 -101.001s-54.834 -43 -93.501 -43z" />
    <glyph glyph-name="ampersand" unicode="&#x26;" horiz-adv-x="593" 
d="M262 412c-5.33301 8 -15.001 20.667 -29.001 38c-20.667 25.333 -36.334 47.5 -47.001 66.5s-16 39.833 -16 62.5c0 26 11.5 47.5 34.5 64.5s48.833 25.5 77.5 25.5c29.333 0 55.333 -8.5 78 -25.5s34 -38.5 34 -64.5c0 -19.333 -3.66699 -37 -11 -53
s-17.166 -30.5 -29.499 -43.5s-25.166 -24.333 -38.499 -34s-30 -21.167 -50 -34.5zM432.999 137c0 -3.33301 -4.16602 -11.1689 -12.499 -23.502s-20 -25.666 -35 -39.999s-33.667 -26.666 -56 -36.999s-47.166 -15.5 -74.499 -15.5c-22 0 -43.333 3.33301 -64 10
s-39.334 16.5 -56.001 29.5s-29.834 28.833 -39.501 47.5s-14.5 39.334 -14.5 62.001c0 21.333 4 40.833 12 58.5s18.667 33.5 32 47.5s27.333 26.167 42 36.5s34 23.166 58 38.499l24 15zM545 -0.00292969l50.999 0.000976562l-116 143c21.333 48 33.333 98.333 36 151h-38
c0 -37.333 -8 -77 -24 -119l-170 209c5.33301 4 13.333 9.66699 24 17c20.667 14.667 37.5 27.334 50.5 38.001s25.167 22.667 36.5 36s20.333 28.666 27 45.999s10 36.666 10 57.999c0 38 -14.667 68 -44 90s-64.666 33 -105.999 33c-18.667 0 -37 -3 -55 -9
s-34 -14.333 -48 -25c-31.333 -24 -47 -53.667 -47 -89c0 -29.333 6.83301 -56.166 20.5 -80.499s34.167 -52.833 61.5 -85.5c0.666992 -0.666992 5.66699 -7 15 -19c-2.66699 -2 -9 -6 -19 -12c-26 -16 -47.667 -30.167 -65 -42.5s-34 -26.833 -50 -43.5
s-28.667 -35.334 -38 -56.001s-14 -44 -14 -70c0 -58 19.833 -102.833 59.5 -134.5s90.5 -47.5 152.5 -47.5c42.667 0 81.667 10.5 117 31.5s64 49.833 86 86.5z" />
    <glyph glyph-name="quotesingle" unicode="'" horiz-adv-x="204" 
d="M83 485h38v229h-38v-229z" />
    <glyph glyph-name="parenleft" unicode="(" horiz-adv-x="241" 
d="M228 -184c-41.333 67.333 -72.499 139.333 -93.499 216s-31.5 154.667 -31.5 234c0 81.333 11 161.5 33 240.5s53.667 153.833 95 224.5h-35c-41.333 -70.667 -73.5 -145.834 -96.5 -225.501s-34.5 -159.5 -34.5 -239.5c0 -78 11.167 -155.667 33.5 -233
s54.166 -149.666 95.499 -216.999h34z" />
    <glyph glyph-name="parenright" unicode=")" horiz-adv-x="241" 
d="M13 731c41.333 -67.333 72.499 -139.332 93.499 -215.999s31.5 -154.667 31.5 -234c0 -81.333 -10.833 -161.5 -32.5 -240.5s-53.5 -153.833 -95.5 -224.5h35c41.333 70.667 73.5 146 96.5 226s34.5 159.667 34.5 239c0 78 -11.167 155.667 -33.5 233
s-54.166 149.666 -95.499 216.999h-34z" />
    <glyph glyph-name="asterisk" unicode="*" horiz-adv-x="352" 
d="M161 714v-130l-123 41l-9 -28l124 -41l-81 -102l24 -20l80 106l77 -106l22 20l-76 102l123 41l-10 28l-122 -41v130h-29z" />
    <glyph glyph-name="plus" unicode="+" horiz-adv-x="600" 
d="M281 271h-233v-38h233v-233h38v233h233v38h-233v233h-38v-233z" />
    <glyph glyph-name="comma" unicode="," horiz-adv-x="278" 
d="M100 -126c22.667 8 39 23.499 49 46.499s15 49.5 15 79.5v103h-51v-103h21c0 -19.333 -2.5 -38.166 -7.5 -56.499s-13.833 -30.5 -26.5 -36.5v-33z" />
    <glyph glyph-name="hyphen" unicode="-" horiz-adv-x="352" 
d="M283 253v38h-214v-38h214z" />
    <glyph glyph-name="period" unicode="." horiz-adv-x="278" 
d="M164 0v103h-51v-103h51z" />
    <glyph glyph-name="slash" unicode="/" horiz-adv-x="333" 
d="M28 -17l318 748h-41l-318 -748h41z" />
    <glyph glyph-name="zero" unicode="0" 
d="M278 -12c47.333 0 87.5 10.334 120.5 31.001s58.833 48.167 77.5 82.5s32 72.166 40 113.499s12 84.666 12 129.999s-4 88.666 -12 129.999s-21.333 79.333 -40 114s-44.5 62.167 -77.5 82.5s-73.167 30.5 -120.5 30.5s-87.5 -10.333 -120.5 -31s-58.833 -48 -77.5 -82
s-32 -71.833 -40 -113.5s-12 -85.167 -12 -130.5s4 -88.666 12 -129.999s21.5 -79.166 40.5 -113.499s44.833 -61.833 77.5 -82.5s72.667 -31 120 -31zM278 21.001c-40.667 0 -75.167 9.83301 -103.5 29.5s-50.333 45.334 -66 77.001s-26.667 66 -33 103
s-9.5 75.167 -9.5 114.5s3.16699 77.5 9.5 114.5s17.333 71.333 33 103s37.667 57.334 66 77.001s62.833 29.5 103.5 29.5s75.167 -9.83301 103.5 -29.5s50.333 -45.334 66 -77.001s26.667 -66 33 -103s9.5 -75.167 9.5 -114.5s-3.16699 -77.5 -9.5 -114.5
s-17.333 -71.333 -33 -103s-37.667 -57.334 -66 -77.001s-62.833 -29.5 -103.5 -29.5z" />
    <glyph glyph-name="one" unicode="1" 
d="M331 690l-33.999 0.000976562c-20.667 -34.667 -47.334 -63.334 -80.001 -86.001s-69 -37 -109 -43v-33c35.333 3.33301 69 12.5 101 27.5s60 35.167 84 60.5v-616h38v690z" />
    <glyph glyph-name="two" unicode="2" 
d="M94 38c2.66699 35.333 22.999 70.6719 60.999 106.005c15.333 14 32.333 27.833 51 41.5s43.667 30.834 75 51.501l20 13c29.333 20 54.833 38.667 76.5 56s41.5 36.5 59.5 57.5s32.167 44 42.5 69s15.5 51.833 15.5 80.5c0 60.667 -20.167 107.334 -60.5 140.001
s-91.5 49 -153.5 49c-137.333 0 -210 -81.667 -218 -245h38c0 62.667 15.833 113.667 47.5 153s77.834 59 138.501 59c46.667 0 86.667 -14.333 120 -43s50 -66 50 -112c0 -26.667 -5.16699 -51.334 -15.5 -74.001s-24.166 -43.334 -41.499 -62.001
s-36.5 -35.834 -57.5 -51.501s-47.167 -33.834 -78.5 -54.501l-7 -5c-32.667 -21.333 -59.834 -40.333 -81.501 -57s-42.167 -35.334 -61.5 -56.001s-35 -43.834 -47 -69.501s-19 -53.834 -21 -84.501h460v38h-412z" />
    <glyph glyph-name="three" unicode="3" 
d="M36 228c0 -78.667 21.165 -138.329 63.498 -178.996s100.833 -61 175.5 -61c68 0 124.333 17.5 169 52.5s67 85.167 67 150.5c0 47.333 -13.667 87.333 -41 120s-64 51.667 -110 57v2c40.667 5.33301 73.334 22.666 98.001 51.999s37 64.666 37 105.999
c0 30 -6 56 -18 78s-28.333 40.167 -49 54.5s-44.167 24.833 -70.5 31.5s-53.833 10 -82.5 10c-68 0 -121.833 -21.167 -161.5 -63.5s-59.834 -97.833 -60.501 -166.5h38c2.66699 60 19.5 107.833 50.5 143.5s75.5 53.5 133.5 53.5c21.333 0 42.833 -2.83301 64.5 -8.5
s41.334 -14.334 59.001 -26.001s31.834 -26.5 42.501 -44.5s16 -38.667 16 -62c0 -27.333 -5.66699 -50.333 -17 -69s-27 -33.667 -47 -45s-42.667 -19.333 -68 -24s-53.333 -7 -84 -7v-33c3.33301 0 8.33301 0.333008 15 1h15c27.333 0 53 -2.83301 77 -8.5
s45.5 -14.834 64.5 -27.501s33.833 -29.167 44.5 -49.5s16 -45.166 16 -74.499c0 -52.667 -19.5 -94.167 -58.5 -124.5s-85.5 -45.5 -139.5 -45.5c-62 0 -111 18.167 -147 54.5s-54 87.166 -54 152.499h-38z" />
    <glyph glyph-name="four" unicode="4" 
d="M365 690l-336 -476v-38h336v-176h38v176h116v33h-116v481h-38zM365 209h-298l296 429h2v-429z" />
    <glyph glyph-name="five" unicode="5" 
d="M58 333l38.998 0.000976562c22.667 32.667 48.167 57 76.5 73s61.833 24 100.5 24c28 0 54 -5.16699 78 -15.5s44.833 -24.833 62.5 -43.5s31.334 -40.334 41.001 -65.001s14.5 -50.667 14.5 -78c0 -28 -4.66699 -54.667 -14 -80s-22.833 -47.5 -40.5 -66.5
s-38.5 -33.833 -62.5 -44.5s-50.333 -16 -79 -16c-56.667 0 -104 17.5 -142 52.5s-57 80.833 -57 137.5h-38v-8c-0.666992 -3.33301 -1 -5.66602 -1 -6.99902c0 -32 6.33301 -60.833 19 -86.5s30 -47.5 52 -65.5s47.333 -31.833 76 -41.5s59 -14.5 91 -14.5
c34 0 65.5 6 94.5 18s53.833 28.833 74.5 50.5s36.667 47.167 48 76.5s17 61 17 95s-5.66699 65.333 -17 94s-27.5 53.667 -48.5 75s-45.833 37.666 -74.5 48.999s-60 17 -94 17c-35.333 0 -67.666 -7 -96.999 -21s-54 -34.667 -74 -62l-2 2l59 275h319v33h-349z" />
    <glyph glyph-name="six" unicode="6" 
d="M288 21c-26.667 0 -51.834 4.99805 -75.501 14.998s-44.5 24 -62.5 42s-32 39.167 -42 63.5s-15 50.5 -15 78.5s4.83301 54.333 14.5 79s23.167 46.334 40.5 65.001s38 33.167 62 43.5s50 15.5 78 15.5c27.333 0 52.833 -5.33301 76.5 -16s44.334 -25.5 62.001 -44.5
s31.167 -40.833 40.5 -65.5s14 -50.334 14 -77.001s-4.83301 -52.167 -14.5 -76.5s-23.167 -45.666 -40.5 -63.999s-37.833 -32.666 -61.5 -42.999s-49.167 -15.5 -76.5 -15.5zM507 519.998c-6.66699 57.333 -28.998 102 -66.998 134s-86 48 -144 48
c-50.667 0 -92.834 -11.667 -126.501 -35s-59.667 -54.166 -78 -92.499s-31.166 -79.666 -38.499 -123.999s-11 -90.833 -11 -139.5c0 -44.667 4 -86.167 12 -124.5s21.333 -72.333 40 -102s44 -53.167 76 -70.5s71.333 -26 118 -26c32.667 0 63.167 5.66699 91.5 17
s53 27.666 74 48.999s37.167 46.166 48.5 74.499s17 58.833 17 91.5c0 33.333 -5.66699 64.5 -17 93.5s-27.333 54.167 -48 75.5s-45.167 37.833 -73.5 49.5s-59.166 17.5 -92.499 17.5c-46 0 -88.167 -13.667 -126.5 -41s-64.833 -63 -79.5 -107l-2 2
c0 40.667 2.66699 81 8 121s15.666 78.167 30.999 114.5s37.5 66 66.5 89s65.833 34.5 110.5 34.5c45.333 0 83.666 -13.667 114.999 -41s50.666 -63.333 57.999 -108h38z" />
    <glyph glyph-name="seven" unicode="7" 
d="M56 657l407.001 -0.000976562c-56.667 -61.333 -104.167 -120.833 -142.5 -178.5s-68.5 -113.334 -90.5 -167.001s-38.167 -105.167 -48.5 -154.5s-17.5 -101.666 -21.5 -156.999h44c8 81.333 21.167 154.333 39.5 219s40.333 121.834 66 171.501s53.667 94.167 84 133.5
s66.166 82 107.499 128v38h-445v-33z" />
    <glyph glyph-name="eight" unicode="8" 
d="M479 198c0 -57.333 -19.167 -101.166 -57.5 -131.499s-86.166 -45.5 -143.499 -45.5s-105.166 15.167 -143.499 45.5s-57.5 74.166 -57.5 131.499c0 28 5.16699 52.167 15.5 72.5s25.166 37.5 44.499 51.5c35.333 24.667 82.333 37 141 37s105.667 -12.333 141 -37
c19.333 -13.333 34.166 -30.333 44.499 -51s15.5 -45 15.5 -73zM65 529c0 -39.333 10.833 -72.333 32.5 -99s53.167 -44 94.5 -52v-2c-46.667 -5.33301 -83.834 -24 -111.501 -56s-41.5 -72.667 -41.5 -122c0 -68 22.333 -120 67 -156s102 -54 172 -54s127.333 18 172 54
s67 88 67 156c0 49.333 -13.667 90 -41 122s-64.666 50.667 -111.999 56v2c41.333 8 72.833 25.333 94.5 52s32.5 59.667 32.5 99c0 31.333 -5.83301 58.166 -17.5 80.499s-27.5 40.333 -47.5 54s-42.667 23.5 -68 29.5s-52 9 -80 9s-54.667 -3 -80 -9
s-48 -15.833 -68 -29.5s-35.833 -31.667 -47.5 -54s-17.5 -49.166 -17.5 -80.499zM453 529c0 -23.333 -4.66309 -43.833 -13.9961 -61.5s-22.333 -32 -39 -43s-35.334 -19.167 -56.001 -24.5s-42.667 -8 -66 -8s-45.333 2.66699 -66 8s-39.334 13.5 -56.001 24.5
s-29.667 25.333 -39 43s-14 38.167 -14 61.5c0 25.333 4.66699 47 14 65s22.166 32.5 38.499 43.5s34.833 19 55.5 24s43 7.5 67 7.5s46.333 -2.5 67 -7.5s39.167 -13 55.5 -24s29.166 -25.5 38.499 -43.5s14 -39.667 14 -65z" />
    <glyph glyph-name="nine" unicode="9" 
d="M279 267c-27.333 0 -52.832 5.33398 -76.499 16.001s-44.334 25.5 -62.001 44.5s-31.5 40.833 -41.5 65.5s-15 50.334 -15 77.001s4.83301 52.167 14.5 76.5s23.5 45.666 41.5 63.999s39 32.666 63 42.999s49.333 15.5 76 15.5c27.333 0 52.833 -5 76.5 -15
s44.5 -24.333 62.5 -43s31.833 -40 41.5 -64s14.5 -49.667 14.5 -77s-4.83301 -53.5 -14.5 -78.5s-23.167 -46.833 -40.5 -65.5s-38 -33.167 -62 -43.5s-50 -15.5 -78 -15.5zM55.001 170.001c6.66699 -57.333 28.9912 -101.998 66.9912 -133.998s86 -48 144 -48
c50.667 0 92.834 11.667 126.501 35s59.834 54.166 78.501 92.499s31.5 79.666 38.5 123.999s10.5 90.833 10.5 139.5c0 65.333 -7.16699 119.666 -21.5 162.999s-33.166 76.5 -56.499 99.5s-48.833 38.833 -76.5 47.5s-56.5 13 -86.5 13
c-33.333 0 -64.166 -5.66699 -92.499 -17s-53.166 -27.333 -74.499 -48s-37.666 -45.334 -48.999 -74.001s-17 -59.667 -17 -93c0 -34 5.66699 -65.5 17 -94.5s27.333 -54.167 48 -75.5s45.334 -37.666 74.001 -48.999s60 -17 94 -17c50.667 0 93 13 127 39
s58.667 59.667 74 101l2 -2c0 -37.333 -2.66699 -75.333 -8 -114s-15.5 -76.167 -30.5 -112.5s-37.167 -66.166 -66.5 -89.499s-66.333 -35 -111 -35c-45.333 0 -83.666 13.667 -114.999 41s-50.666 63.333 -57.999 108h-38z" />
    <glyph glyph-name="colon" unicode=":" horiz-adv-x="278" 
d="M113 514v-103h51v103h-51zM164 0v103h-51v-103h51z" />
    <glyph glyph-name="semicolon" unicode=";" horiz-adv-x="278" 
d="M100 -126c22.667 8 39 23.499 49 46.499s15 49.5 15 79.5v103h-51v-103h21c0 -19.333 -2.5 -38.166 -7.5 -56.499s-13.833 -30.5 -26.5 -36.5v-33zM113 513.999v-103h51v103h-51z" />
    <glyph glyph-name="less" unicode="&#x3c;" horiz-adv-x="600" 
d="M554 514l-508 -234v-52l508 -236v42l-475 220l475 218v42z" />
    <glyph glyph-name="equal" unicode="=" horiz-adv-x="600" 
d="M552 369h-504v-38h504v38zM552 175h-504v-38h504v38z" />
    <glyph glyph-name="greater" unicode="&#x3e;" horiz-adv-x="600" 
d="M46 -8l508 234v52l-508 236v-42l475 -220l-475 -218v-42z" />
    <glyph glyph-name="question" unicode="?" horiz-adv-x="519" 
d="M81 493c0 59.333 15.668 107.5 47.001 144.5s76 55.5 134 55.5c45.333 0 83.5 -11.833 114.5 -35.5s46.5 -58.834 46.5 -105.501c0 -31.333 -8.5 -59.333 -25.5 -84s-41.5 -52 -73.5 -82c-28 -27.333 -49.667 -56.166 -65 -86.499s-23 -69.833 -23 -118.5h38
c0 27.333 2.83301 51.5 8.5 72.5s13 39.167 22 54.5s18.5 28 28.5 38s22.667 21.667 38 35l1 1l4 4c29.333 28 50.833 53.333 64.5 76s20.5 52.667 20.5 90c0 58 -18.5 102.333 -55.5 133s-83.833 46 -140.5 46c-70.667 0 -125.334 -21.5 -164.001 -64.5
s-58 -100.833 -58 -173.5h38zM231.001 0h51v103h-51v-103z" />
    <glyph glyph-name="at" unicode="@" horiz-adv-x="800" 
d="M425 547c20 0 36.1699 -4 48.5029 -12s21.666 -18.167 27.999 -30.5s10.5 -25 12.5 -38s3 -25.5 3 -37.5c0 -26.667 -6.16699 -57.5 -18.5 -92.5s-27.833 -65.833 -46.5 -92.5c-16.667 -23.333 -35.5 -42.333 -56.5 -57s-40.833 -22 -59.5 -22
c-29.333 0 -53.833 11.167 -73.5 33.5s-29.5 51.833 -29.5 88.5c0 26.667 4.83301 55.167 14.5 85.5s23.167 58.833 40.5 85.5s37.666 48.167 60.999 64.5s48.666 24.5 75.999 24.5zM609.003 560l-41.002 -0.00292969l-23 -71h-2c-4 25.333 -16 46.833 -36 64.5
s-45.333 26.5 -76 26.5c-33.333 0 -64.5 -8.66699 -93.5 -26s-54.167 -40.666 -75.5 -69.999s-37.833 -61.666 -49.5 -96.999s-17.5 -70.333 -17.5 -105c0 -41.333 12 -76.666 36 -105.999s54.667 -44 92 -44c27.333 0 52.5 6.16699 75.5 18.5s42.5 29.833 58.5 52.5h2
c0.666992 -22.667 7.16699 -40.167 19.5 -52.5s27.833 -18.5 46.5 -18.5c25.333 0 51.666 7.83301 78.999 23.5s52.333 37.167 75 64.5s40.834 58.333 54.501 93s20.5 70.334 20.5 107.001c0 44.667 -8.66699 86 -26 124s-41.5 71 -72.5 99s-67.167 49.667 -108.5 65
s-85.333 23 -132 23c-49.333 0 -96.333 -9.5 -141 -28.5s-84.167 -45.667 -118.5 -80s-61.166 -74 -80.499 -119s-29 -92.833 -29 -143.5c0 -51.333 9.33301 -100 28 -146s45 -86.333 79 -121s73.833 -61.667 119.5 -81s94.5 -29 146.5 -29
c65.333 0 127.166 16.667 185.499 50s102.833 78.333 133.5 135h-44c-30 -46 -69.667 -82.833 -119 -110.5s-101.333 -41.5 -156 -41.5c-41.333 0 -82.166 8.33301 -122.499 25s-76.5 40.167 -108.5 70.5s-57.333 66.166 -76 107.499s-28 86 -28 134
c0 46 8.66699 89.833 26 131.5s41.5 78.667 72.5 111s66.667 57.5 107 75.5s82.833 27 127.5 27c37.333 0 73.833 -6.5 109.5 -19.5s67.834 -31.667 96.501 -56s51.334 -53.5 68.001 -87.5s25 -71.333 25 -112c0 -28 -5 -56.833 -15 -86.5s-23.667 -57.167 -41 -82.5
s-36.833 -45.666 -58.5 -60.999s-43.5 -23 -65.5 -23c-10.667 0 -19.834 3.16699 -27.501 9.5s-11.5 14.5 -11.5 24.5c0 5.33301 1.33301 12.5 4 21.5s6 19.5 10 31.5c0 1.33301 0.666992 3.66602 2 6.99902z" />
    <glyph glyph-name="A" unicode="A" horiz-adv-x="593" 
d="M275 714l-287 -714h47l91 229h342l90 -229h47l-282 714h-48zM140 267l159 404h2l153 -404h-314z" />
    <glyph glyph-name="B" unicode="B" horiz-adv-x="630" 
d="M107 352h241.999c26 0 50.833 -2.33301 74.5 -7s45.334 -12.667 65.001 -24s35.5 -27 47.5 -47s18 -44.667 18 -74c0 -52 -18.167 -92 -54.5 -120s-86.5 -42 -150.5 -42h-242v314zM62.999 0l285.998 0.000976562c76 0 136.5 17.333 181.5 52s67.5 84 67.5 148
c0 32 -6.5 59.5 -19.5 82.5s-28.667 41.167 -47 54.5s-36.166 23 -53.499 29s-31 9 -41 9l-2 2c40.667 4.66699 74 21.5 100 50.5s39 62.833 39 101.5c0 24 -4 47 -12 69s-20.667 41.667 -38 59s-40.666 31.166 -69.999 41.499s-64.333 15.5 -105 15.5h-286v-714z
M106.997 676.001l242 0.000976562c25.333 0 48.666 -2.5 69.999 -7.5s40.333 -13 57 -24s29.834 -25.5 39.501 -43.5s14.5 -39.333 14.5 -64c0 -44.667 -15.667 -80.334 -47 -107.001s-76 -40 -134 -40h-242v286z" />
    <glyph glyph-name="C" unicode="C" horiz-adv-x="704" 
d="M663 501c-0.666992 9.33301 -4.83398 25.667 -12.501 49s-21.5 49 -41.5 77s-49.333 52.333 -88 73s-87 31 -145 31c-52 0 -99.167 -9.5 -141.5 -28.5s-78.333 -45.5 -108 -79.5s-52.167 -73.833 -67.5 -119.5s-23 -94.5 -23 -146.5s7.66699 -100.833 23 -146.5
s37.833 -85.5 67.5 -119.5s65.667 -60.5 108 -79.5s89.5 -28.5 141.5 -28.5c38.667 0 75.334 7.33301 110.001 22s65.5 35.334 92.5 62.001s48.833 58 65.5 94s27 75 31 117h-44c-2 -32.667 -9.83301 -64.5 -23.5 -95.5s-32.167 -58.667 -55.5 -83s-50 -43.5 -80 -57.5
s-62 -21 -96 -21c-45.333 0 -86.5 8.66699 -123.5 26s-68.333 41.5 -94 72.5s-45.167 66.833 -58.5 107.5s-20 84 -20 130s6.66699 89.333 20 130s32.833 76.5 58.5 107.5s57 55.167 94 72.5s78.167 26 123.5 26c61.333 0 114.833 -17.333 160.5 -52
s73.167 -81.334 82.5 -140.001h44z" />
    <glyph glyph-name="D" unicode="D" horiz-adv-x="667" 
d="M107 676l182.999 0.00195312c34 0 66.833 -3.33301 98.5 -10s62.5 -20.834 92.5 -42.501s54.5 -54.167 73.5 -97.5s28.5 -99.333 28.5 -168c0 -58.667 -8.16699 -108.834 -24.5 -150.501s-38.166 -75 -65.499 -100s-57.5 -42.833 -90.5 -53.5s-67.5 -16 -103.5 -16h-192
v638zM62.999 0.00195312l232.001 0.00292969c56 0 105 9 147 27s76.667 43.167 104 75.5s47.666 70.166 60.999 113.499s20 90.666 20 141.999c0 48 -5.5 93 -16.5 135s-29.167 79.667 -54.5 113s-59.5 59.666 -102.5 78.999s-95.167 29 -156.5 29h-234v-714z" />
    <glyph glyph-name="E" unicode="E" horiz-adv-x="560" 
d="M107 38v314h410v38h-410v286h436v38h-480v-714h485v38h-441z" />
    <glyph glyph-name="F" unicode="F" horiz-adv-x="514" 
d="M471 352v38h-364v286h404v38h-448v-714h44v352h364z" />
    <glyph glyph-name="G" unicode="G" horiz-adv-x="741" 
d="M382 350l0.00195312 -37.9971h263c0 -90.667 -24.333 -161.834 -73 -213.501s-114.334 -77.5 -197.001 -77.5c-47.333 0 -89.5 8.5 -126.5 25.5s-68 40.667 -93 71s-43.667 65.666 -56 105.999s-18.5 83.5 -18.5 129.5c0 45.333 6.33301 88.5 19 129.5
s31.5 77.333 56.5 109s56 56.5 93 74.5s78.833 27 125.5 27c64 0 118.167 -17.667 162.5 -53s74.833 -84.333 91.5 -147h42c-6 36 -17.833 68.833 -35.5 98.5s-40 55 -67 76s-57 36.833 -90 47.5s-67.833 16 -104.5 16c-52 0 -99 -9.83301 -141 -29.5
s-77.667 -47.167 -107 -82.5s-51.5 -75.833 -66.5 -121.5s-22.5 -93.834 -22.5 -144.501c0 -51.333 7.33301 -99.5 22 -144.5s36.5 -84.333 65.5 -118s64.5 -60 106.5 -79s89.333 -28.5 142 -28.5c64 0 120.667 15.333 170 46s82.666 71.667 99.999 123h2v-152h38v350h-301z
" />
    <glyph glyph-name="H" unicode="H" horiz-adv-x="670" 
d="M563 352v-352h44v714h-44v-324h-456v324h-44v-714h44v352h456z" />
    <glyph glyph-name="I" unicode="I" horiz-adv-x="170" 
d="M63 0h44v714h-44v-714z" />
    <glyph glyph-name="J" unicode="J" horiz-adv-x="481" 
d="M20 227c0 -34 1.83496 -64.167 5.50195 -90.5s12 -51.333 25 -75s33.5 -42.667 61.5 -57s64.667 -21.5 110 -21.5s81.666 7.5 108.999 22.5s47.166 34.333 59.499 58s20 48 23 73s4.5 53.5 4.5 85.5v492h-44v-477c0 -36.667 -1.33301 -66.834 -4 -90.501s-9 -45 -19 -64
s-25.833 -34 -47.5 -45s-50.5 -16.5 -86.5 -16.5c-30 0 -55.167 4.33301 -75.5 13s-36.333 20.834 -48 36.501s-19.667 33.5 -24 53.5s-6.5 42.333 -6.5 67v18c0.666992 9.33301 1 15.333 1 18h-44z" />
    <glyph glyph-name="K" unicode="K" horiz-adv-x="613" 
d="M63 0h44v252l148 135l323 -387h55l-346 417l326 297h-57l-449 -411v411h-44v-714z" />
    <glyph glyph-name="L" unicode="L" horiz-adv-x="500" 
d="M63 0h449v38h-405v676h-44v-714z" />
    <glyph glyph-name="M" unicode="M" horiz-adv-x="809" 
d="M63 0h44v660h2l275 -660h44l272 660h2v-660h44v714h-63l-276 -665h-2l-279 665h-63v-714z" />
    <glyph glyph-name="N" unicode="N" horiz-adv-x="678" 
d="M63 0h44v660h2l454 -660h52v714h-44v-655h-2l-451 655h-55v-714z" />
    <glyph glyph-name="O" unicode="O" horiz-adv-x="741" 
d="M710 357c0 52 -7.66699 100.833 -23 146.5s-37.666 85.5 -66.999 119.5s-65.166 60.5 -107.499 79.5s-89.5 28.5 -141.5 28.5s-99.167 -9.5 -141.5 -28.5s-78.333 -45.5 -108 -79.5s-52.167 -73.833 -67.5 -119.5s-23 -94.5 -23 -146.5s7.66699 -100.833 23 -146.5
s37.833 -85.5 67.5 -119.5s65.667 -60.5 108 -79.5s89.5 -28.5 141.5 -28.5s99.167 9.5 141.5 28.5s78.166 45.5 107.499 79.5s51.666 73.833 66.999 119.5s23 94.5 23 146.5zM75 357c0 46 6.66699 89.333 20 130s32.833 76.5 58.5 107.5s57 55.167 94 72.5
s78.167 26 123.5 26s86.333 -8.66699 123 -26s67.834 -41.5 93.501 -72.5s45.167 -66.833 58.5 -107.5s20 -84 20 -130c0 -45.333 -6.66699 -88.5 -20 -129.5s-32.833 -77 -58.5 -108s-56.834 -55.167 -93.501 -72.5s-77.667 -26 -123 -26s-86.5 8.66699 -123.5 26
s-68.333 41.5 -94 72.5s-45.167 66.833 -58.5 107.5s-20 84 -20 130z" />
    <glyph glyph-name="P" unicode="P" horiz-adv-x="591" 
d="M107 676l257.001 -0.000976562c33.333 0 61.166 -5.5 83.499 -16.5s39.5 -24.833 51.5 -41.5s20.333 -34 25 -52s7 -35 7 -51c0 -19.333 -3.16699 -38.333 -9.5 -57s-16.333 -35.667 -30 -51s-31.667 -27.666 -54 -36.999s-48.833 -14 -79.5 -14h-251v320z
M63.001 -0.000976562h44v318h244c71.333 0 126.5 17.167 165.5 51.5s58.5 82.5 58.5 144.5c0 40.667 -6.66699 74.334 -20 101.001s-30.333 47.167 -51 61.5s-42.667 24.166 -66 29.499s-47 8 -71 8h-304v-714z" />
    <glyph glyph-name="Q" unicode="Q" horiz-adv-x="741" 
d="M453 182l-23 -31l108 -77c-46.667 -35.333 -102.334 -53 -167.001 -53c-45.333 0 -86.5 8.66699 -123.5 26s-68.333 41.5 -94 72.5s-45.167 66.833 -58.5 107.5s-20 84 -20 130s6.66699 89.333 20 130s32.833 76.5 58.5 107.5s57 55.167 94 72.5s78.167 26 123.5 26
s86.333 -8.66699 123 -26s67.834 -41.5 93.501 -72.5s45.167 -66.833 58.5 -107.5s20 -84 20 -130c0 -51.333 -8.33301 -99.5 -25 -144.5s-41 -82.833 -73 -113.5zM691 -37l22.998 31l-111 80c34.667 33.333 61.167 74.333 79.5 123s27.5 102 27.5 160
c0 52 -7.66699 100.833 -23 146.5s-37.666 85.5 -66.999 119.5s-65.166 60.5 -107.499 79.5s-89.5 28.5 -141.5 28.5s-99.167 -9.5 -141.5 -28.5s-78.333 -45.5 -108 -79.5s-52.167 -73.833 -67.5 -119.5s-23 -94.5 -23 -146.5s7.66699 -100.833 23 -146.5
s37.833 -85.5 67.5 -119.5s65.667 -60.5 108 -79.5s89.5 -28.5 141.5 -28.5c78.667 0 146 21.667 202 65z" />
    <glyph glyph-name="R" unicode="R" horiz-adv-x="630" 
d="M107 363l-0.000976562 313h254c24.667 0 48 -2.83301 70 -8.5s41.333 -14.5 58 -26.5s29.834 -27.5 39.501 -46.5s14.5 -41.5 14.5 -67.5c0 -54.667 -16.5 -95.667 -49.5 -123s-77.167 -41 -132.5 -41h-254zM62.999 0l43.9971 -0.00195312v325h254
c30 0 55.5 -3.16699 76.5 -9.5s37.833 -15.166 50.5 -26.499s22 -24.166 28 -38.499s10.333 -31.166 13 -50.499c1.33301 -8.66699 2 -19.5 2 -32.5v-64.5c0 -23.333 1.16699 -43.333 3.5 -60s6.83301 -31 13.5 -43h49c-8.66699 12 -14.167 27 -16.5 45
s-3.83301 43.667 -4.5 77c-0.666992 31.333 -1.66699 54.666 -3 69.999c-2 20 -5.5 38.333 -10.5 55s-12.667 32 -23 46s-24.166 25.5 -41.499 34.5s-38.666 14.833 -63.999 17.5v2c47.333 8 84.666 28.5 111.999 61.5s41 73.5 41 121.5c0 33.333 -5.66699 61.833 -17 85.5
s-27.166 42.667 -47.499 57s-44.166 24.833 -71.499 31.5s-57.333 10 -90 10h-298v-714z" />
    <glyph glyph-name="S" unicode="S" horiz-adv-x="630" 
d="M573 510c-1.33301 38 -9.16406 71.165 -23.4971 99.498s-33.833 51.5 -58.5 69.5s-53.167 31.167 -85.5 39.5s-67.5 12.5 -105.5 12.5c-29.333 0 -58.166 -3.66699 -86.499 -11s-54.166 -18.666 -77.499 -33.999s-41.833 -35.166 -55.5 -59.499
s-20.5 -52.833 -20.5 -85.5c0 -32 6.66699 -59.167 20 -81.5s31.166 -40.166 53.499 -53.499s46.333 -23.833 72 -31.5s58.167 -15.5 97.5 -23.5l11 -2c39.333 -8 71.166 -15.333 95.499 -22s47.166 -15.667 68.499 -27s38.166 -26.5 50.499 -45.5s18.5 -42.5 18.5 -70.5
c0 -29.333 -6.33301 -54.666 -19 -75.999s-29.334 -38.333 -50.001 -51s-43 -21.834 -67 -27.501s-47.667 -8.5 -71 -8.5c-35.333 0 -68.333 3.66699 -99 11s-58 19 -82 35s-42.667 36.833 -56 62.5s-20 55.834 -20 90.501v8v8h-44c0 -44.667 7.66699 -83.334 23 -116.001
s36.666 -59 63.999 -79s59 -34.667 95 -44s75.667 -14 119 -14c29.333 0 58.5 3.66699 87.5 11s56 19.166 81 35.499s45 37.333 60 63s22.5 56.167 22.5 91.5c0 34 -6.5 62.5 -19.5 85.5s-30.833 41.5 -53.5 55.5s-47.167 25 -73.5 33s-58.833 16 -97.5 24l-18 4
c-36 7.33301 -66.167 14.166 -90.5 20.499s-46.833 15 -67.5 26s-37 25.333 -49 43s-18 39.5 -18 65.5c0 28 6 52 18 72s27.833 35.833 47.5 47.5s40.834 20 63.501 25s45 7.5 67 7.5c68 0 122.5 -15.667 163.5 -47s62.833 -76.666 65.5 -135.999h44z" />
    <glyph glyph-name="T" unicode="T" horiz-adv-x="519" 
d="M237 676v-676h44v676h252v38h-547v-38h251z" />
    <glyph glyph-name="U" unicode="U" horiz-adv-x="672" 
d="M63 714l0.00195312 -428c0 -32.667 2.66699 -65 8 -97s16.666 -63.833 33.999 -95.5s44.5 -58 81.5 -79s85.167 -31.5 144.5 -31.5c52 0 96 7.5 132 22.5s64.667 36.167 86 63.5s36.666 59.166 45.999 95.499s14 76.833 14 121.5v428h-44v-428
c0 -42 -4.16699 -79.167 -12.5 -111.5s-21.5 -59.833 -39.5 -82.5s-42 -40.167 -72 -52.5s-66.667 -18.5 -110 -18.5c-48 0 -87.333 9 -118 27s-53.5 40.833 -68.5 68.5s-25 55.834 -30 84.501s-7.5 57 -7.5 85v428h-44z" />
    <glyph glyph-name="V" unicode="V" 
d="M32 714h-46l266 -714h51l267 714h-44l-247 -676h-2z" />
    <glyph glyph-name="W" unicode="W" horiz-adv-x="889" 
d="M200 0h49l193 676h2l196 -676h50l205 714h-47l-183 -667h-2l-192 667h-55l-189 -667h-2l-186 667h-45z" />
    <glyph glyph-name="X" unicode="X" 
d="M251 367l-268 -367h52l243 334l242 -334h53l-266 367l252 347h-50l-231 -314l-226 314h-51z" />
    <glyph glyph-name="Y" unicode="Y" horiz-adv-x="574" 
d="M287 336l-258 378h-50l285 -415v-299h44v299l287 415h-49z" />
    <glyph glyph-name="Z" unicode="Z" horiz-adv-x="537" 
d="M28 676h453l-482 -638v-38h539v38h-493l484 638v38h-501v-38z" />
    <glyph glyph-name="bracketleft" unicode="[" horiz-adv-x="241" 
d="M231 698v33h-137v-915h137v33h-99v849h99z" />
    <glyph glyph-name="backslash" unicode="\" horiz-adv-x="333" 
d="M346 -17l-318 748h-41l318 -748h41z" />
    <glyph glyph-name="bracketright" unicode="]" horiz-adv-x="241" 
d="M10 -151v-33h137v915h-137v-33h99v-849h-99z" />
    <glyph glyph-name="asciicircum" unicode="^" horiz-adv-x="600" 
d="M561 237l-234 453h-52l-236 -453h42l220 420l218 -420h42z" />
    <glyph glyph-name="underscore" unicode="_" horiz-adv-x="500" 
d="M500 -125v50h-500v-50h500z" />
    <glyph glyph-name="grave" unicode="`" horiz-adv-x="167" 
d="M141 591l-120 140h-51l134 -140h37z" />
    <glyph glyph-name="a" unicode="a" horiz-adv-x="500" 
d="M397 196c0 -11.333 -2.33496 -25.998 -7.00195 -43.998s-13.667 -37.167 -27 -57.5s-33 -37.666 -59 -51.999s-59 -21.5 -99 -21.5c-43.333 0 -76.666 10.5 -99.999 31.5s-35 47.833 -35 80.5c0 37.333 11.833 65.166 35.5 83.499s58.834 30.166 105.501 35.499
c12 2 31.333 4 58 6c36 2.66699 63.833 6.16699 83.5 10.5s34.5 12.166 44.5 23.499v-96zM434.998 392.002c0 25.333 -4.83301 46.833 -14.5 64.5s-23 31.5 -40 41.5s-36 17.167 -57 21.5s-43.833 6.5 -68.5 6.5c-61.333 0 -108.666 -14.333 -141.999 -43
s-51.333 -71 -54 -127h38c2.66699 44 18 77.833 46 101.5s65.333 35.5 112 35.5c27.333 0 50.5 -3.83301 69.5 -11.5s33.833 -17.167 44.5 -28.5s18.167 -22.5 22.5 -33.5s6.5 -20.167 6.5 -27.5c0 -23.333 -1.5 -40.833 -4.5 -52.5s-10 -21 -21 -28
s-27.833 -12.333 -50.5 -16s-56.334 -7.16699 -101.001 -10.5c-24.667 -2 -47.667 -5.5 -69 -10.5s-41.166 -13 -59.499 -24s-33 -26.167 -44 -45.5s-16.5 -43.333 -16.5 -72c0 -50.667 15.5 -87.5 46.5 -110.5s72.833 -34.5 125.5 -34.5c46.667 0 87 10.833 121 32.5
s57.333 48.834 70 81.501h2v-27c0 -24.667 4.66699 -43.334 14 -56.001s27.666 -19 54.999 -19c6 0 15.333 1.33301 28 4h3v32c-12 -2 -21.333 -3 -28 -3c-15.333 0 -24.833 5.33301 -28.5 16s-5.5 26 -5.5 46v297z" />
    <glyph glyph-name="b" unicode="b" 
d="M300 21c-33.333 0 -62.667 6.66699 -88 20s-46 31.833 -62 55.5s-27.667 50.167 -35 79.5s-11 60.333 -11 93c0 67.333 16.5 121.5 49.5 162.5s81.833 61.5 146.5 61.5c30 0 56.5 -6 79.5 -18s42.5 -28.667 58.5 -50s27.833 -45.333 35.5 -72s11.5 -54.667 11.5 -84
c0 -31.333 -3.5 -61.5 -10.5 -90.5s-17.833 -55.5 -32.5 -79.5s-34 -43 -58 -57s-52 -21 -84 -21zM64.999 0h37.999v115h2c2.66699 -8.66699 8.16699 -20 16.5 -34s20.333 -28.167 36 -42.5s35.5 -26.333 59.5 -36s51.667 -14.5 83 -14.5c22 0 45.167 3.66699 69.5 11
s48.333 20.833 72 40.5s43.167 48.5 58.5 86.5s23 85.667 23 143c0 75.333 -19 137 -57 185s-93.333 72 -166 72c-43.333 0 -83.166 -10.5 -119.499 -31.5s-61.5 -50.833 -75.5 -89.5h-2v309h-38v-714z" />
    <glyph glyph-name="c" unicode="c" horiz-adv-x="519" 
d="M481 355c-5.33301 56 -27.3301 98.498 -65.9971 127.498s-87.334 43.5 -146.001 43.5c-36.667 0 -69.834 -6.83301 -99.501 -20.5s-54.667 -32.667 -75 -57s-35.666 -52.5 -45.999 -84.5s-15.5 -66 -15.5 -102c0 -36.667 4.66699 -71.5 14 -104.5
s23.5 -62.167 42.5 -87.5s43.667 -45.333 74 -60s65.5 -22 105.5 -22c56.667 0 105 17.167 145 51.5s64 81.5 72 141.5h-38c-6.66699 -47.333 -26.334 -85.833 -59.001 -115.5s-72.667 -44.5 -120 -44.5c-64 0 -113 22 -147 66s-51 102.333 -51 175
c0 30 4.33301 58.833 13 86.5s21.5 52.334 38.5 74.001s37.833 38.834 62.5 51.501s52.667 19 84 19c48 0 88.167 -12 120.5 -36s50.166 -58 53.499 -102h38z" />
    <glyph glyph-name="d" unicode="d" 
d="M262 21c-32 0 -60.168 6.33203 -84.501 18.999s-44.5 30 -60.5 52s-27.833 47 -35.5 75s-11.5 57.667 -11.5 89c0 32 3.66699 62.167 11 90.5s18.666 53.5 33.999 75.5s35.333 39.333 60 52s53.334 19 86.001 19c32 0 60.167 -6.5 84.5 -19.5s44.333 -30.667 60 -53
s27.334 -47.666 35.001 -75.999s11.5 -57.833 11.5 -88.5c0 -30 -3.83301 -59 -11.5 -87s-19.5 -53.167 -35.5 -75.5s-36 -40 -60 -53s-51.667 -19.5 -83 -19.5zM452.999 -0.000976562h38.002v714h-38v-315h-2c-13.333 39.333 -37.5 70.333 -72.5 93s-74.167 34 -117.5 34
c-74.667 0 -131.5 -25 -170.5 -75s-58.5 -115 -58.5 -195c0 -36.667 4.33301 -71 13 -103s22.167 -60.5 40.5 -85.5s41.666 -44.5 69.999 -58.5s61.166 -21 98.499 -21c89.333 0 155 40.667 197 122h2v-110z" />
    <glyph glyph-name="e" unicode="e" horiz-adv-x="519" 
d="M486 252l0.00390625 9.99902c0.666992 4 1 7 1 9c0 35.333 -4.66699 68.333 -14 99s-23.5 57.834 -42.5 81.501s-42.833 42 -71.5 55s-61.667 19.5 -99 19.5c-36.667 0 -69.334 -7.5 -98.001 -22.5s-52.5 -35.5 -71.5 -61.5s-33.333 -55.667 -43 -89
s-14.5 -68.333 -14.5 -105c0 -75.333 20 -137.5 60 -186.5s95.667 -73.5 167 -73.5c61.333 0 111.166 16 149.499 48s62.5 78 72.5 138h-38c-8.66699 -47.333 -29.334 -84.666 -62.001 -111.999s-73.334 -41 -122.001 -41c-60 0 -106.5 22.167 -139.5 66.5
s-49.5 99.166 -49.5 164.499h415zM71.0039 284.999c2 26 7.66699 51.332 17 75.999s22.166 47 38.499 67s35.833 35.833 58.5 47.5s47.667 17.5 75 17.5c28.667 0 54.667 -5.66699 78 -17s43 -26.666 59 -45.999s28.333 -41.5 37 -66.5s13.334 -51.167 14.001 -78.5h-377z
" />
    <glyph glyph-name="f" unicode="f" horiz-adv-x="241" 
d="M92 481l0.000976562 -481.001h38v481h107v33h-107v103c0 26.667 6.66699 45.334 20 56.001s31.666 16 54.999 16c13.333 0 28.333 -1.66699 45 -5v33c-16.667 3.33301 -31.667 5 -45 5c-33.333 0 -60.5 -8.5 -81.5 -25.5s-31.5 -42.5 -31.5 -76.5v-106h-92v-33h92z" />
    <glyph glyph-name="g" unicode="g" horiz-adv-x="537" 
d="M255 493c60 0 107.001 -22.334 141.001 -67.001c15.333 -20 26.833 -43.167 34.5 -69.5s11.5 -54.166 11.5 -83.499c0 -62 -16.333 -114.333 -49 -157s-78.667 -64 -138 -64c-58 0 -103.167 21 -135.5 63s-48.5 94.667 -48.5 158c0 28 3.83301 55.167 11.5 81.5
s19.167 50 34.5 71s34.666 37.5 57.999 49.5s50 18 80 18zM443.001 513.999v-107.003h-2c-13.333 37.333 -37.333 66.5 -72 87.5s-72.667 31.5 -114 31.5c-35.333 0 -66.833 -6.66699 -94.5 -20s-51 -31.666 -70 -54.999s-33.333 -50.166 -43 -80.499
s-14.5 -62.833 -14.5 -97.5c0 -75.333 18.833 -136.5 56.5 -183.5s92.834 -70.5 165.501 -70.5c87.333 0 149.333 39 186 117h2v-118c0 -15.333 -1.5 -32 -4.5 -50s-10.333 -37.167 -22 -57.5s-30.167 -37.666 -55.5 -51.999s-59 -21.5 -101 -21.5
c-45.333 0 -83 10.333 -113 31s-47 52.667 -51 96h-38c2.66699 -56 22 -96.667 58 -122s83.667 -38 143 -38c51.333 0 92.666 8.83301 123.999 26.5s53.833 39.167 67.5 64.5s22.167 48.833 25.5 70.5s5 42.167 5 61.5v487h-38z" />
    <glyph glyph-name="h" unicode="h" horiz-adv-x="519" 
d="M56 714l0.00195312 -714h38v278c0 64 16.667 115.833 50 155.5s78.333 59.5 135 59.5c32.667 0 59.167 -5.83301 79.5 -17.5s35.166 -26.334 44.499 -44.001s15.333 -35.167 18 -52.5s4 -35.333 4 -54v-325h38v318c0 24 -1.33301 46.5 -4 67.5
s-9.83398 42.333 -21.501 64s-30.334 39.834 -56.001 54.501s-59.5 22 -101.5 22c-41.333 0 -79.166 -11 -113.499 -33s-57.833 -51.667 -70.5 -89h-2v310h-38z" />
    <glyph glyph-name="i" unicode="i" horiz-adv-x="168" 
d="M103 0v514h-38v-514h38zM103 611v103h-38v-103h38z" />
    <glyph glyph-name="j" unicode="j" horiz-adv-x="168" 
d="M65 514l-0.00195312 -566.001c0 -38.667 -5.5 -65 -16.5 -79s-30.167 -21 -57.5 -21c-8.66699 0 -17 0.666992 -25 2v-33c6.66699 -0.666992 17.334 -1 32.001 -1c21.333 0 38.833 3.33301 52.5 10s24.334 15.834 32.001 27.501s13 25 16 40s4.5 32.167 4.5 51.5v569h-38
zM102.998 610.999v103h-38v-103h38z" />
    <glyph glyph-name="k" unicode="k" horiz-adv-x="463" 
d="M58 0h38v194l117 99l219 -293h52l-241 322l225 192h-55l-317 -273v473h-38v-714z" />
    <glyph glyph-name="l" unicode="l" horiz-adv-x="168" 
d="M65 714v-714h38v714h-38z" />
    <glyph glyph-name="m" unicode="m" horiz-adv-x="796" 
d="M57 0l38 0.00195312v304c0 31.333 4.83301 59.166 14.5 83.499s22.5 44.166 38.5 59.499s33.667 26.833 53 34.5s38.333 11.5 57 11.5c11.333 0 23.5 -1.5 36.5 -4.5s26 -9.33301 39 -19s23.833 -24.167 32.5 -43.5s13 -44 13 -74v-352h38v304
c0 60 14.833 106.5 44.5 139.5s68.5 49.5 116.5 49.5c10.667 0 22.5 -1.5 35.5 -4.5s26.167 -9.16699 39.5 -18.5s24.666 -23.666 33.999 -42.999s14 -44.333 14 -75v-352h38v351c0 58 -14.667 101.667 -44 131s-68.333 44 -117 44c-40.667 0 -74.167 -9.16699 -100.5 -27.5
s-47.166 -45.5 -62.499 -81.5h-2c-6 30 -22 55.667 -48 77s-61.667 32 -107 32c-38 0 -72.333 -11.333 -103 -34s-50 -50.334 -58 -83.001h-2v105h-38v-514z" />
    <glyph glyph-name="n" unicode="n" horiz-adv-x="519" 
d="M56 0h38.002v278c0 64 16.667 115.833 50 155.5s78.333 59.5 135 59.5c32.667 0 59.167 -5.83301 79.5 -17.5s35.166 -26.334 44.499 -44.001s15.333 -35.167 18 -52.5s4 -35.333 4 -54v-325h38v318c0 24 -1.33301 46.5 -4 67.5s-9.83398 42.333 -21.501 64
s-30.334 39.834 -56.001 54.501s-59.5 22 -101.5 22c-41.333 0 -79.166 -11 -113.499 -33s-57.833 -51.667 -70.5 -89h-2v110h-38v-514z" />
    <glyph glyph-name="o" unicode="o" horiz-adv-x="537" 
d="M32 257c0 -36.667 5.33203 -71.332 15.999 -103.999s26 -61.334 46 -86.001s44.833 -44 74.5 -58s62.834 -21 99.501 -21s69.667 7 99 21s54.333 33.5 75 58.5s36.167 53.667 46.5 86s15.5 66.833 15.5 103.5s-5.16699 71.334 -15.5 104.001
s-25.666 61.334 -45.999 86.001s-45.333 44 -75 58s-62.834 21 -99.501 21s-69.667 -7 -99 -21s-54.333 -33.333 -75 -58s-36.167 -53.334 -46.5 -86.001s-15.5 -67.334 -15.5 -104.001zM69.999 257.002c0 31.333 4.33301 61.166 13 89.499s21.5 53.5 38.5 75.5
s37.833 39.333 62.5 52s52.667 19 84 19s59.333 -6.33301 84 -19s45.5 -30 62.5 -52s29.833 -47.167 38.5 -75.5s13 -58.166 13 -89.499s-4.33301 -61.166 -13 -89.499s-21.5 -53.5 -38.5 -75.5s-37.833 -39.333 -62.5 -52s-52.667 -19 -84 -19s-59.333 6.33301 -84 19
s-45.5 30 -62.5 52s-29.833 47.167 -38.5 75.5s-13 58.166 -13 89.499z" />
    <glyph glyph-name="p" unicode="p" 
d="M292 21c-34.667 0 -64.335 6.32812 -89.002 18.9951s-44.167 29.834 -58.5 51.501s-24.666 46.334 -30.999 74.001s-9.5 57.834 -9.5 90.501c0 32 3.5 62.167 10.5 90.5s18 53.5 33 75.5s34.5 39.333 58.5 52s52.667 19 86 19s62.333 -6.5 87 -19.5
s44.834 -30.833 60.501 -53.5s27.167 -48.167 34.5 -76.5s11 -57.5 11 -87.5c0 -32.667 -3.83301 -63.167 -11.5 -91.5s-19.5 -53.166 -35.5 -74.499s-36.167 -38.166 -60.5 -50.499s-52.833 -18.5 -85.5 -18.5zM102.999 513.995l-38.001 0.000976562v-698h38v291h2
c14.667 -40 38.334 -69.833 71.001 -89.5s71.334 -29.5 116.001 -29.5c76 0 133.5 24.333 172.5 73s58.5 113.667 58.5 195c0 37.333 -4.66699 72.166 -14 104.499s-23.666 61 -42.999 86s-43.5 44.5 -72.5 58.5s-62.833 21 -101.5 21
c-26.667 0 -50.834 -4.16699 -72.501 -12.5s-40.167 -19 -55.5 -32s-27.833 -27 -37.5 -42s-16.834 -29.5 -21.501 -43.5h-2v118z" />
    <glyph glyph-name="q" unicode="q" 
d="M261 21c-32.667 0 -61.167 6.33203 -85.5 18.999s-44.333 30 -60 52s-27.167 47.167 -34.5 75.5s-11 58.5 -11 90.5c0 31.333 3.83301 61 11.5 89s19.5 53 35.5 75s36.167 39.333 60.5 52s52.5 19 84.5 19c31.333 0 59 -6.5 83 -19.5s44 -30.667 60 -53
s27.833 -47.5 35.5 -75.5s11.5 -57 11.5 -87c0 -30.667 -3.83301 -60.167 -11.5 -88.5s-19.5 -53.666 -35.5 -75.999s-36 -40 -60 -53s-52 -19.5 -84 -19.5zM453 -184.001h37.998v698h-38v-110h-2c-42 81.333 -107.667 122 -197 122c-37.333 0 -70.166 -7 -98.499 -21
s-51.666 -33.5 -69.999 -58.5s-31.833 -53.5 -40.5 -85.5s-13 -66.333 -13 -103c0 -80 19.5 -145 58.5 -195s95.833 -75 170.5 -75c43.333 0 82.5 11.333 117.5 34s59.167 53.667 72.5 93h2v-299z" />
    <glyph glyph-name="r" unicode="r" horiz-adv-x="278" 
d="M94 514h-38.001v-514h38v281c2 37.333 7.16699 66.166 15.5 86.499s22.5 40.833 42.5 61.5c18 18 37.833 31 59.5 39s42.834 12 63.501 12h10c4 -0.666992 7 -1 9 -1v38c-48.667 0 -91.167 -11.167 -127.5 -33.5s-59.5 -50.166 -69.5 -83.499h-3v114z" />
    <glyph glyph-name="s" unicode="s" horiz-adv-x="481" 
d="M36 171c1.33301 -58 21.165 -103.008 59.498 -135.008s87.833 -48 148.5 -48c24 0 47.667 2.33301 71 7s44.833 12.5 64.5 23.5s35.5 25.833 47.5 44.5s18 41 18 67s-4.5 47.833 -13.5 65.5s-21.5 31.834 -37.5 42.501s-34.167 19 -54.5 25s-45.833 12 -76.5 18
c-4 0.666992 -9.33301 1.66699 -16 3c-26 6 -47 11.167 -63 15.5s-31.167 10.333 -45.5 18s-25.666 17.834 -33.999 30.501s-12.5 28 -12.5 46c0 17.333 4.16699 32.5 12.5 45.5s19.666 23.333 33.999 31s30.166 13.334 47.499 17.001s35.333 5.5 54 5.5
c46 0 82.667 -10.667 110 -32s41.333 -54.333 42 -99h38c0 56 -17.167 97.333 -51.5 124s-80.5 40 -138.5 40c-23.333 0 -45.833 -2.16699 -67.5 -6.5s-41.5 -11.666 -59.5 -21.999s-32.333 -24.166 -43 -41.499s-16 -38 -16 -62c0 -24.667 4.83301 -45.667 14.5 -63
s22.667 -31.166 39 -41.499s34.333 -18.5 54 -24.5s42.834 -11.667 69.501 -17l14 -3c26.667 -5.33301 48.667 -10.333 66 -15s33.333 -11 48 -19s26.334 -18.5 35.001 -31.5s13 -29.5 13 -49.5c0 -21.333 -5 -39.166 -15 -53.499s-23.167 -25.5 -39.5 -33.5
s-33.666 -13.667 -51.999 -17s-37.166 -5 -56.499 -5c-47.333 0 -86.833 13.333 -118.5 40s-48.834 63.334 -51.501 110.001h-38z" />
    <glyph glyph-name="t" unicode="t" horiz-adv-x="259" 
d="M245 514h-112.001v160h-38v-160h-95v-33h95v-359c0 -24.667 3.16699 -45.167 9.5 -61.5s15 -29 26 -38s23.667 -15.167 38 -18.5s30.5 -5 48.5 -5h13c8 0.666992 12.667 1 14 1v33c-41.333 0 -70.166 5.66699 -86.499 17s-24.5 35.333 -24.5 72v359h112v33z" />
    <glyph glyph-name="u" unicode="u" horiz-adv-x="519" 
d="M463 514h-38.002v-278c0 -64 -16.667 -115.833 -50 -155.5s-78.333 -59.5 -135 -59.5c-32.667 0 -59.167 5.83301 -79.5 17.5s-35.166 26.334 -44.499 44.001s-15.333 35.167 -18 52.5s-4 35.333 -4 54v325h-38v-318c0 -24 1.33301 -46.5 4 -67.5
s9.83398 -42.333 21.501 -64s30.334 -39.834 56.001 -54.501s59.5 -22 101.5 -22c41.333 0 79.166 11 113.499 33s57.833 51.667 70.5 89h2v-110h38v514z" />
    <glyph glyph-name="v" unicode="v" horiz-adv-x="444" 
d="M446 514h-42l-174 -470h-2l-186 470h-44l207 -514h47z" />
    <glyph glyph-name="w" unicode="w" horiz-adv-x="704" 
d="M39 514h-41l163 -514h48l142 466h2l141 -466h47l165 514h-42l-144 -470h-2l-141 470h-51l-140 -470h-2z" />
    <glyph glyph-name="x" unicode="x" horiz-adv-x="444" 
d="M-6 0h48l180 241l176 -241h52l-203 270l186 244h-49l-162 -215l-161 215h-53l188 -244z" />
    <glyph glyph-name="y" unicode="y" horiz-adv-x="444" 
d="M209 3c-14 -38.667 -24.667 -66.8311 -32 -84.498s-14.333 -29.834 -21 -36.501c-12.667 -12.667 -26.834 -21.334 -42.501 -26.001s-37.167 -7 -64.5 -7v-33c32.667 0 57.667 1.33301 75 4s32.333 9 45 19c10 8 19.333 20 28 36s19.334 39.333 32.001 70l220 569h-43
l-176 -469l-191 469h-45z" />
    <glyph glyph-name="z" unicode="z" horiz-adv-x="426" 
d="M55 33l346 445v36h-365v-33h318l-345 -445v-36h408v33h-362z" />
    <glyph glyph-name="braceleft" unicode="{" horiz-adv-x="333" 
d="M293 731l-50.001 0.00195312c-29.333 0 -51.333 -8.83301 -66 -26.5s-22 -48.167 -22 -91.5v-159c0 -22.667 -1 -43.167 -3 -61.5s-5.83301 -35 -11.5 -50s-13.167 -27 -22.5 -36s-21 -13.833 -35 -14.5v-38c14 -0.666992 25.667 -5.5 35 -14.5s16.833 -21 22.5 -36
s9.5 -31.667 11.5 -50s3 -38.833 3 -61.5v-158c0 -43.333 7.33301 -73.833 22 -91.5s36.667 -26.5 66 -26.5h50v33h-48c-20 0 -33.667 7.5 -41 22.5s-11 41.833 -11 80.5v157c0 27.333 -2.16699 50.666 -6.5 69.999s-9.83301 35 -16.5 47s-13 21 -19 27s-13 12 -21 18
c-4 2.66699 -6.33301 4.33398 -7 5.00098c0.666992 0.666992 1.33398 1 2.00098 1c6.66699 3.33301 13.5 7.66602 20.5 12.999s14.167 13.833 21.5 25.5s13.5 27.667 18.5 48s7.5 45.166 7.5 74.499v157c0 38.667 3.66699 65.5 11 80.5s21 22.5 41 22.5h48v33z" />
    <glyph glyph-name="bar" unicode="|" horiz-adv-x="222" 
d="M92 -214h38v1000h-38v-1000z" />
    <glyph glyph-name="braceright" unicode="}" horiz-adv-x="333" 
d="M40 -184l49.998 -0.00195312c29.333 0 51.333 8.83301 66 26.5s22 48.167 22 91.5v158c0 22.667 1.16699 43.167 3.5 61.5s6.16602 35 11.499 50s12.666 27 21.999 36s21 13.833 35 14.5v38c-14 0.666992 -25.667 5.5 -35 14.5s-16.666 21 -21.999 36
s-9.16602 31.667 -11.499 50s-3.5 38.833 -3.5 61.5v159c0 43.333 -7.33301 73.833 -22 91.5s-36.667 26.5 -66 26.5h-50v-33h48c20 0 33.667 -7.5 41 -22.5s11 -41.833 11 -80.5v-157c0 -29.333 2.5 -54.166 7.5 -74.499s11.167 -36.333 18.5 -48s14.333 -20 21 -25
s13.667 -9.5 21 -13.5c0.666992 0 1.33398 -0.333008 2.00098 -1c-0.666992 -0.666992 -3 -2.33398 -7 -5.00098c-7.33301 -5.33301 -14.166 -11.166 -20.499 -17.499s-12.833 -15.5 -19.5 -27.5s-12.167 -27.667 -16.5 -47s-6.5 -42.666 -6.5 -69.999v-157
c0 -38.667 -3.66699 -65.5 -11 -80.5s-21 -22.5 -41 -22.5h-48v-33z" />
    <glyph glyph-name="asciitilde" unicode="~" horiz-adv-x="600" 
d="M500 312c-10 -19.333 -23.499 -36.667 -40.499 -52s-34.167 -23 -51.5 -23c-14.667 0 -28.167 2.33301 -40.5 7s-26.5 11 -42.5 19c-10.667 6 -17 9.33301 -19 10l-3 1c-26.667 12 -46.834 20.167 -60.501 24.5s-29.5 6.5 -47.5 6.5
c-28.667 0 -51.834 -6.83301 -69.501 -20.5s-35.167 -34.5 -52.5 -62.5l29 -30c9.33301 21.333 21.666 39.166 36.999 53.499s36 21.5 62 21.5c11.333 0 25.833 -3.16699 43.5 -9.5s33.834 -13.166 48.501 -20.499c26 -13.333 47.333 -23 64 -29s33.334 -9 50.001 -9
c26 0 48.667 7.83301 68 23.5s37 36.167 53 61.5z" />
    <glyph glyph-name="exclamdown" unicode="&#xa1;" horiz-adv-x="259" 
d="M153 -184v241l-12 290h-24l-12 -290v-241h48zM104 535v-103h51v103h-51z" />
    <glyph glyph-name="cent" unicode="&#xa2;" 
d="M272 21c-59.333 3.33301 -104.667 26.998 -136 70.998s-47 100.667 -47 170c0 28.667 4 56.334 12 83.001s19.833 50.834 35.5 72.501s35 39.167 58 52.5s48.833 21 77.5 23v-472zM271.999 -118.002h32.001v106c53.333 3.33301 98 22.166 134 56.499s58 79.833 66 136.5
h-38c-6 -44.667 -23.667 -81.667 -53 -111s-65.666 -45.666 -108.999 -48.999v472c44.667 -3.33301 81.167 -16.833 109.5 -40.5s44.166 -56.167 47.499 -97.5h38c-4.66699 53.333 -24.667 94.5 -60 123.5s-80.333 44.833 -135 47.5v89h-32v-89
c-34.667 -1.33301 -65.834 -9.33301 -93.501 -24s-51 -34.167 -70 -58.5s-33.333 -52 -43 -83s-14.5 -63.833 -14.5 -98.5c0 -36 4.33301 -70 13 -102s22 -60.667 40 -86s41 -45.5 69 -60.5s61 -23.5 99 -25.5v-106z" />
    <glyph glyph-name="sterling" unicode="&#xa3;" 
d="M50 330l78 -0.00390625c8.66699 -13.333 15.667 -29.5 21 -48.5s8 -38.167 8 -57.5c0 -40 -10 -76 -30 -108s-47.667 -65 -83 -99l25 -34l5 3c24 15.333 43.667 26 59 32s34 9 56 9c14 0 28 -1.66699 42 -5s31 -8.66602 51 -15.999l3 -1c22 -7.33301 41 -12.833 57 -16.5
s33 -5.5 51 -5.5c27.333 0 54.166 6.66699 80.499 20s49.833 31 70.5 53l-22 33c-24 -22 -45.833 -38.833 -65.5 -50.5s-42.834 -17.5 -69.501 -17.5c-19.333 0 -46.666 6 -81.999 18l-9 3c-19.333 7.33301 -36.833 13 -52.5 17s-32.834 6 -51.501 6
c-16 0 -31.5 -3.16699 -46.5 -9.5s-30.833 -15.166 -47.5 -26.499l-2 2c28 24 51.5 53 70.5 87s28.5 68.667 28.5 104c0 24 -2.16699 45.333 -6.5 64s-9.83301 33.334 -16.5 44.001h141v33h-160c-3.33301 7.33301 -9.33301 19 -18 35c-15.333 28 -27 52.667 -35 74
s-12 44.333 -12 69c0 46.667 17.167 83.667 51.5 111s80.5 41 138.5 41c66.667 0 115.834 -17.667 147.501 -53s47.834 -87.333 48.501 -156h38c0 82.667 -20 144.5 -60 185.5s-98.333 61.5 -175 61.5c-30 0 -58.667 -4.16699 -86 -12.5s-51.666 -20.666 -72.999 -36.999
s-38 -36.5 -50 -60.5s-18 -51.333 -18 -82c0 -28.667 5.16699 -56.5 15.5 -83.5s25.166 -57.833 44.499 -92.5h-60v-33z" />
    <glyph glyph-name="currency" unicode="&#xa4;" 
d="M519 131l-53.998 54.001c20 22 35.167 46.833 45.5 74.5s15.5 56.167 15.5 85.5s-5.16699 57.833 -15.5 85.5s-25.5 52.834 -45.5 75.501l55 54l-27 27l-54 -55c-23.333 20 -48.833 35.167 -76.5 45.5s-56.167 15.5 -85.5 15.5c-60.667 -1.33301 -114 -21.333 -160 -60
l-56 56l-27 -27l57 -56c-20 -22.667 -35.167 -47.834 -45.5 -75.501s-15.5 -56.167 -15.5 -85.5c1.33301 -60.667 21.666 -114.334 60.999 -161.001l-56 -55l27 -27l55 56c45.333 -40.667 98.666 -61 159.999 -61c29.333 0 57.833 5.16699 85.5 15.5s53.167 25.5 76.5 45.5
l53 -54zM278.002 135.001c-26.667 0 -52.5 5.33301 -77.5 16s-47 25.834 -66 45.501s-33.833 42.167 -44.5 67.5s-16 52.333 -16 81s5.33301 55.667 16 81s25.5 47.833 44.5 67.5s41 34.834 66 45.501s50.833 16 77.5 16c27.333 0 53.333 -5.33301 78 -16
s46.5 -25.834 65.5 -45.501s33.833 -42.167 44.5 -67.5s16 -52.333 16 -81s-5.33301 -55.667 -16 -81s-25.5 -47.833 -44.5 -67.5s-40.833 -34.834 -65.5 -45.501s-50.667 -16 -78 -16z" />
    <glyph glyph-name="yen" unicode="&#xa5;" 
d="M-7 714l238 -372h-92v-33h120v-78h-120v-33h120v-198h38v198h120v33h-120v78h120v33h-92l238 372h-45l-239 -374l-238 374h-48z" />
    <glyph glyph-name="brokenbar" unicode="&#xa6;" horiz-adv-x="222" 
d="M92 -89h38v250h-38v-250zM92 411h38v250h-38v-250z" />
    <glyph glyph-name="section" unicode="&#xa7;" 
d="M339 359c38 -22 68.499 -44.167 91.499 -66.5s34.5 -48.833 34.5 -79.5c0 -15.333 -3.16699 -29.833 -9.5 -43.5s-14.833 -25.167 -25.5 -34.5c-10.667 -8.66699 -22.667 -16.5 -36 -23.5s-23.666 -10.5 -30.999 -10.5l-139 85l-26 16c-34 20.667 -60.5 40.667 -79.5 60
s-28.5 44.333 -28.5 75c0 25.333 9.5 47.833 28.5 67.5s41.833 34.5 68.5 44.5zM448.999 536c-0.666992 60.667 -15.834 108.332 -45.501 142.999s-72.5 52 -128.5 52c-22 0 -43 -3.5 -63 -10.5s-37.833 -16.667 -53.5 -29s-27.834 -27 -36.501 -44s-13 -35.167 -13 -54.5
v-5c-0.666992 -2.66699 -1 -4.66699 -1 -6c0 -18 4.66699 -37.667 14 -59s23 -38.666 41 -51.999c-31.333 -11.333 -57.666 -29 -78.999 -53s-32 -51 -32 -81c0 -23.333 4.33301 -44.5 13 -63.5s21 -36.167 37 -51.5s32.833 -28.833 50.5 -40.5s42.5 -26.834 74.5 -45.501
l4 -2l14 -7c28.667 -16 51.5 -29.167 68.5 -39.5s33 -22 48 -35s27 -27.667 36 -44s13.5 -34.5 13.5 -54.5c0 -35.333 -11.5 -61.666 -34.5 -78.999s-55.167 -26 -96.5 -26c-45.333 0 -80.166 14.833 -104.499 44.5s-37.166 68.167 -38.499 115.5h-38
c0 -58 16.167 -104.667 48.5 -140s76.833 -53 133.5 -53c49.333 0 89.666 11.167 120.999 33.5s47 57.166 47 104.499c0 27.333 -4.33301 49.833 -13 67.5s-23.334 36.167 -44.001 55.5c34 9.33301 61 25.166 81 47.499s30 51.833 30 88.5c0 25.333 -4.83301 48 -14.5 68
s-22.667 37.5 -39 52.5s-33.5 28 -51.5 39s-42.333 24.167 -73 39.5l-1 1l-12 6c-27.333 14.667 -49.666 27.167 -66.999 37.5s-33.5 22 -48.5 35s-27 28 -36 45s-13.5 35.833 -13.5 56.5c0.666992 30.667 14 55.834 40 75.501s55.333 29.5 88 29.5
c41.333 0 74.333 -15.667 99 -47s37 -69.666 37 -114.999h38z" />
    <glyph glyph-name="dieresis" unicode="&#xa8;" horiz-adv-x="167" 
d="M26 594v103h-44v-103h44zM184 594v103h-44v-103h44z" />
    <glyph glyph-name="copyright" unicode="&#xa9;" horiz-adv-x="800" 
d="M401 698c47.333 0 91.502 -8.66895 132.502 -26.002s76.667 -41.5 107 -72.5s53.833 -67.167 70.5 -108.5s25 -85.666 25 -132.999c0 -46.667 -8.33301 -90.834 -25 -132.501s-40.334 -78.167 -71.001 -109.5s-66.334 -55.833 -107.001 -73.5s-84.667 -26.5 -132 -26.5
c-46.667 0 -90.667 8.66699 -132 26s-77.333 41.833 -108 73.5s-54.5 68.334 -71.5 110.001s-25.5 85.834 -25.5 132.501c0 47.333 8.33301 91.833 25 133.5s40.334 78 71.001 109s66.667 55 108 72s85.666 25.5 132.999 25.5zM599.002 437.998
c-6 48.667 -26.833 86.668 -62.5 114.001s-78.5 41 -128.5 41c-68 0 -122.167 -21.833 -162.5 -65.5s-60.5 -100.167 -60.5 -169.5c0 -33.333 5.33301 -64.5 16 -93.5s26 -54.333 46 -76s44 -38.5 72 -50.5s58.667 -18 92 -18c48.667 0 90.667 14.833 126 44.5
s56 68.5 62 116.5h-38c-10 -39.333 -27.667 -70.5 -53 -93.5s-57.666 -34.5 -96.999 -34.5c-56.667 0 -102.334 20.333 -137.001 61c-16.667 18.667 -29.334 40.5 -38.001 65.5s-13 51.5 -13 79.5c0 59.333 16.5 107.666 49.5 144.999s78.5 56 136.5 56
c38.667 0 71.834 -10.833 99.501 -32.5s45.167 -51.5 52.5 -89.5h38zM400.002 730.999c-50.667 0 -98.834 -9.66699 -144.501 -29s-85.667 -46.166 -120 -80.499s-61.166 -74.333 -80.499 -120s-29 -93.834 -29 -144.501s9.66699 -98.834 29 -144.501
s46.166 -85.667 80.499 -120s74.333 -61.166 120 -80.499s93.834 -29 144.501 -29s98.834 9.66699 144.501 29s85.667 46.166 120 80.499s61.166 74.333 80.499 120s29 93.834 29 144.501s-9.66699 98.834 -29 144.501s-46.166 85.667 -80.499 120
s-74.333 61.166 -120 80.499s-93.834 29 -144.501 29z" />
    <glyph glyph-name="ordfeminine" unicode="&#xaa;" horiz-adv-x="310" 
d="M250 498c0 -6.66699 -1.5 -15.502 -4.5 -26.502s-8.83301 -22.5 -17.5 -34.5s-21.5 -22.333 -38.5 -31s-38.5 -13 -64.5 -13c-24.667 0 -44.167 6.5 -58.5 19.5s-21.5 29.5 -21.5 49.5c0 20.667 7.5 36.334 22.5 47.001s36.833 17.667 65.5 21
c6.66699 0.666992 19 2 37 4c22 1.33301 39.333 3.33301 52 6s22 7.33398 28 14.001v-56zM61 595.998c2 24.667 11.833 44.001 29.5 58.001s40.167 21 67.5 21c28 0 50.5 -4.5 67.5 -13.5s25.5 -22.167 25.5 -39.5c0 -14 -1 -24.5 -3 -31.5s-6.5 -12.667 -13.5 -17
s-17.833 -7.66602 -32.5 -9.99902s-36.667 -4.5 -66 -6.5c-16 -1.33301 -31 -3.5 -45 -6.5s-26.833 -7.83301 -38.5 -14.5s-21.167 -16.167 -28.5 -28.5s-11 -27.5 -11 -45.5c0 -34.667 10.167 -59.334 30.5 -74.001s48.5 -22 84.5 -22c31.333 0 58 6.5 80 19.5
s36.333 29.167 43 48.5h2v-14c0 -14.667 3 -25.834 9 -33.501s18 -11.5 36 -11.5c4 0 10.667 0.666992 20 2v27c-5.33301 -1.33301 -11.333 -2 -18 -2c-8 0 -13 3.16699 -15 9.5s-3 15.5 -3 27.5v178c0 31.333 -11.167 53.333 -33.5 66s-51.5 19 -87.5 19
c-80 0 -124 -35.333 -132 -106h32z" />
    <glyph glyph-name="guillemotleft" unicode="&#xab;" horiz-adv-x="389" 
d="M181 121v49l-85 102l85 100v51l-114 -131v-40zM309 121v49l-85 102l85 100v51l-114 -131v-40z" />
    <glyph glyph-name="logicalnot" unicode="&#xac;" horiz-adv-x="600" 
d="M514 108h38v261h-504v-38h466v-223z" />
    <glyph glyph-name="minus" unicode="&#xad;" horiz-adv-x="600" 
d="M552 233v38h-504v-38h504z" />
    <glyph glyph-name="minus" unicode="&#x2212;" horiz-adv-x="600" 
d="M552 233v38h-504v-38h504z" />
    <glyph glyph-name="registered" unicode="&#xae;" horiz-adv-x="800" 
d="M264 136l37.999 0.000976562v204h115l133 -204h42l-132 203c34 5.33301 61.5 17.666 82.5 36.999s31.5 46 31.5 80c0 40.667 -11.667 71.167 -35 91.5s-59.666 30.5 -108.999 30.5h-166v-442zM301.999 545.001h122c31.333 0 57.833 -6.83301 79.5 -20.5
s32.5 -36.167 32.5 -67.5c0 -18 -4 -32.833 -12 -44.5s-18.5 -20.167 -31.5 -25.5s-27.333 -9 -43 -11s-33.5 -3 -53.5 -3h-94v172zM400.999 698.001c47.333 0 91.502 -8.66797 132.502 -26.001s76.667 -41.5 107 -72.5s53.833 -67.167 70.5 -108.5s25 -85.666 25 -132.999
c0 -46.667 -8.33301 -90.834 -25 -132.501s-40.334 -78.167 -71.001 -109.5s-66.334 -55.833 -107.001 -73.5s-84.667 -26.5 -132 -26.5c-46.667 0 -90.667 8.83301 -132 26.5s-77.333 42 -108 73s-54.5 67.333 -71.5 109s-25.5 85.834 -25.5 132.501
c0 47.333 8.33301 91.833 25 133.5s40.334 78.167 71.001 109.5s66.667 55.5 108 72.5s85.666 25.5 132.999 25.5zM400.001 731c-50.667 0 -98.834 -9.66699 -144.501 -29s-85.667 -46.166 -120 -80.499s-61.166 -74.333 -80.499 -120s-29 -93.834 -29 -144.501
s9.66699 -98.834 29 -144.501s46.166 -85.667 80.499 -120s74.333 -61.166 120 -80.499s93.834 -29 144.501 -29s98.834 9.66699 144.501 29s85.667 46.166 120 80.499s61.166 74.333 80.499 120s29 93.834 29 144.501s-9.66699 98.834 -29 144.501
s-46.166 85.667 -80.499 120s-74.333 61.166 -120 80.499s-93.834 29 -144.501 29z" />
    <glyph glyph-name="macron" unicode="&#xaf;" horiz-adv-x="167" 
d="M205 629v33h-242v-33h242z" />
    <glyph glyph-name="degree" unicode="&#xb0;" horiz-adv-x="400" 
d="M200 669c29.333 0 54.166 -10.667 74.499 -32s30.5 -47.333 30.5 -78s-10.167 -56.667 -30.5 -78s-45.166 -32 -74.499 -32s-54.166 10.667 -74.499 32s-30.5 47.333 -30.5 78s10.167 56.667 30.5 78s45.166 32 74.499 32zM200 416c40 0 73.833 13.833 101.5 41.5
s41.5 61.5 41.5 101.5s-13.833 73.833 -41.5 101.5s-61.5 41.5 -101.5 41.5s-73.833 -13.833 -101.5 -41.5s-41.5 -61.5 -41.5 -101.5s13.833 -73.833 41.5 -101.5s61.5 -41.5 101.5 -41.5z" />
    <glyph glyph-name="plusminus" unicode="&#xb1;" horiz-adv-x="600" 
d="M281 315h-233v-38h233v-189h38v189h233v38h-233v189h-38v-189zM48 0h504v38h-504v-38z" />
    <glyph glyph-name="twosuperior" unicode="&#xb2;" horiz-adv-x="333" 
d="M48 302c8 24 20.8281 43.833 38.4951 59.5s43.834 33.834 78.501 54.501l22 14c40 25.333 71 49.833 93 73.5s33 50.5 33 80.5c0 38.667 -13.167 68 -39.5 88s-60.833 30 -103.5 30c-49.333 0 -85.166 -13 -107.499 -39s-35.166 -63.333 -38.499 -112h32
c2 40 12 70.667 30 92s46 32 84 32c36.667 0 64.334 -8.83301 83.001 -26.5s28 -38.834 28 -63.501c0 -28 -10.333 -51.833 -31 -71.5s-51.667 -42.167 -93 -67.5l-6 -4c-42 -26 -74.667 -51.167 -98 -75.5s-35.666 -54.833 -36.999 -91.5h300v27h-268z" />
    <glyph glyph-name="threesuperior" unicode="&#xb3;" horiz-adv-x="333" 
d="M18 415c0 -50 14.334 -87.335 43.001 -112.002s69.667 -37 123 -37c44 0 80.5 10.667 109.5 32s43.5 52.333 43.5 93c0 28 -8.83301 51.833 -26.5 71.5s-41.5 30.834 -71.5 33.501v2c26.667 3.33301 48 13.833 64 31.5s24 38.834 24 63.501c0 36.667 -13.833 64 -41.5 82
s-61.5 27 -101.5 27c-48.667 0 -86.5 -12.833 -113.5 -38.5s-40.833 -60.5 -41.5 -104.5h32c1.33301 35.333 12 63.5 32 84.5s48.667 31.5 86 31.5c29.333 0 56 -7.16699 80 -21.5s36 -34.5 36 -60.5c0 -30.667 -12.833 -52.5 -38.5 -65.5s-59.5 -19.5 -101.5 -19.5v-27h10
c3.33301 0.666992 6.66602 1 9.99902 1c38 0 69.167 -7.33301 93.5 -22s36.5 -37.667 36.5 -69c0 -29.333 -12.5 -53 -37.5 -71s-54.5 -27 -88.5 -27c-40 0 -71.5 10.667 -94.5 32s-34.5 51.333 -34.5 90h-32z" />
    <glyph glyph-name="acute" unicode="&#xb4;" horiz-adv-x="167" 
d="M26 591h37l134 140h-51z" />
    <glyph glyph-name="mu" unicode="&#xb5;" horiz-adv-x="519" 
d="M463 514l-38 -0.000976562v-278c0 -64 -16.667 -115.833 -50 -155.5s-78.333 -59.5 -135 -59.5c-32.667 0 -59.167 5.83301 -79.5 17.5s-35.166 26.334 -44.499 44.001s-15.333 35.167 -18 52.5s-4 35.333 -4 54v325h-38v-698h38v228h2c15.333 -20 35.5 -34.333 60.5 -43
s52.5 -13 82.5 -13c41.333 0 79.166 11 113.499 33s57.833 51.667 70.5 89h2v-110h38v514z" />
    <glyph glyph-name="paragraph" unicode="&#xb6;" horiz-adv-x="600" 
d="M273 -146l37.999 0.000976562v827h157v-827h38v860h-217c-70.667 0 -125.5 -16.833 -164.5 -50.5s-58.5 -82.167 -58.5 -145.5c0 -26 5.33301 -50.833 16 -74.5s25.334 -44.334 44.001 -62.001s40.667 -31.667 66 -42s52.333 -15.5 81 -15.5v-470z" />
    <glyph glyph-name="periodcentered" unicode="&#xb7;" horiz-adv-x="278" 
d="M85 317c0 -14 5.5 -26.667 16.5 -38s23.5 -17 37.5 -17c14.667 0 27.5 5.5 38.5 16.5s16.5 23.833 16.5 38.5c0 14 -5.66699 26.5 -17 37.5s-24 16.5 -38 16.5s-26.5 -5.5 -37.5 -16.5s-16.5 -23.5 -16.5 -37.5z" />
    <glyph glyph-name="periodcentered" unicode="&#x2219;" horiz-adv-x="278" 
d="M85 317c0 -14 5.5 -26.667 16.5 -38s23.5 -17 37.5 -17c14.667 0 27.5 5.5 38.5 16.5s16.5 23.833 16.5 38.5c0 14 -5.66699 26.5 -17 37.5s-24 16.5 -38 16.5s-26.5 -5.5 -37.5 -16.5s-16.5 -23.5 -16.5 -37.5z" />
    <glyph glyph-name="cedilla" unicode="&#xb8;" horiz-adv-x="167" 
d="M83 0l-56.001 -75l16 -13c17.333 8 35 12 53 12c11.333 0 22.333 -4 33 -12s16 -19.333 16 -34c0 -16.667 -6.16699 -28.667 -18.5 -36s-27.166 -11 -44.499 -11c-13.333 0 -25.5 1.33301 -36.5 4s-23.5 6.66699 -37.5 12l-6 2l-11 -24c10.667 -6 23.667 -11 39 -15
s32.333 -6 51 -6c32 0 57 6 75 18s27 30.667 27 56c0 24 -7.33301 42.167 -22 54.5s-32.334 18.5 -53.001 18.5c-11.333 0 -23.666 -3 -36.999 -9l-2 2l48 56h-34z" />
    <glyph glyph-name="onesuperior" unicode="&#xb9;" horiz-adv-x="333" 
d="M208 693h-29.001c-13.333 -19.333 -30.666 -35.5 -51.999 -48.5s-44 -21.167 -68 -24.5v-27c47.333 4 86.333 21.667 117 53v-371h32v418z" />
    <glyph glyph-name="ordmasculine" unicode="&#xba;" horiz-adv-x="334" 
d="M167 366c49.333 0 88 15.667 116 47s42 71.666 42 120.999s-14 89.666 -42 120.999s-66.667 47 -116 47s-88 -15.667 -116 -47s-42 -71.666 -42 -120.999s14 -89.666 42 -120.999s66.667 -47 116 -47zM167 393c-41.333 0 -72.666 13.5 -93.999 40.5s-32 60.5 -32 100.5
s10.667 73.5 32 100.5s52.666 40.5 93.999 40.5s72.666 -13.5 93.999 -40.5s32 -60.5 32 -100.5s-10.667 -73.5 -32 -100.5s-52.666 -40.5 -93.999 -40.5z" />
    <glyph glyph-name="guillemotright" unicode="&#xbb;" horiz-adv-x="389" 
d="M80 121l114 131v40l-114 131v-51l85 -100l-85 -102v-49zM208 121l114 131v40l-114 131v-51l85 -100l-85 -102v-49z" />
    <glyph glyph-name="onequarter" unicode="&#xbc;" horiz-adv-x="834" 
d="M151 -24h40l465 738h-40zM243 693h-29.001c-13.333 -19.333 -30.666 -35.5 -51.999 -48.5s-44 -21.167 -68 -24.5v-27c47.333 4 86.333 21.667 117 53v-371h32v418zM625.999 414l-200 -283v-27h215v-104h32v104h71v27h-71v283h-47zM640.999 131h-179l177 250h2v-250z" />
    <glyph glyph-name="onehalf" unicode="&#xbd;" horiz-adv-x="834" 
d="M121 -24h40l465 738h-40zM213 693h-29.001c-13.333 -19.333 -30.666 -35.5 -51.999 -48.5s-44 -21.167 -68 -24.5v-27c47.333 4 86.333 21.667 117 53v-371h32v418zM516.999 27c7.33301 24 19.6631 43.833 36.9961 59.5s43.333 33.834 78 54.501
c8 5.33301 15.333 10 22 14c40 25.333 71 49.833 93 73.5s33 50.5 33 80.5c0 38.667 -13.167 68 -39.5 88s-60.833 30 -103.5 30c-49.333 0 -85.166 -13 -107.499 -39s-35.166 -63.333 -38.499 -112h32c2 40 12 70.667 30 92s46 32 84 32
c36.667 0 64.334 -8.83301 83.001 -26.5s28 -38.834 28 -63.501c0 -28 -10.333 -51.833 -31 -71.5s-51.667 -42.167 -93 -67.5l-6 -4c-42 -26 -74.667 -51.167 -98 -75.5s-35.666 -54.833 -36.999 -91.5h300v27h-266z" />
    <glyph glyph-name="threequarters" unicode="&#xbe;" horiz-adv-x="834" 
d="M33 415c0 -50 14.334 -87.335 43.001 -112.002s69.667 -37 123 -37c44 0 80.5 10.667 109.5 32s43.5 52.333 43.5 93c0 28 -8.83301 51.833 -26.5 71.5s-41.5 30.834 -71.5 33.501v2c26.667 3.33301 48 13.833 64 31.5s24 38.834 24 63.501c0 36.667 -13.833 64 -41.5 82
s-61.5 27 -101.5 27c-48.667 0 -86.5 -12.833 -113.5 -38.5s-40.833 -60.5 -41.5 -104.5h32c1.33301 35.333 12 63.5 32 84.5s48.667 31.5 86 31.5c29.333 0 56 -7.16699 80 -21.5s36 -34.5 36 -60.5c0 -30.667 -12.833 -52.5 -38.5 -65.5s-59.5 -19.5 -101.5 -19.5v-27h10
c3.33301 0.666992 6.66602 1 9.99902 1c38 0 69.167 -7.33301 93.5 -22s36.5 -37.667 36.5 -69c0 -29.333 -12.5 -53 -37.5 -71s-54.5 -27 -88.5 -27c-40 0 -71.5 10.667 -94.5 32s-34.5 51.333 -34.5 90h-32zM198.001 -24.002h40l465 738h-40zM656.001 413.998l-200 -283
v-27h215v-104h32v104h71v27h-71v283h-47zM671.001 130.998h-179l177 250h2v-250z" />
    <glyph glyph-name="questiondown" unicode="&#xbf;" horiz-adv-x="519" 
d="M437 42c0 -59.333 -15.666 -107.5 -46.999 -144.5s-76 -55.5 -134 -55.5c-45.333 0 -83.5 11.833 -114.5 35.5s-46.5 58.834 -46.5 105.501c0 31.333 8.5 59.333 25.5 84s41.5 52 73.5 82c28.667 27.333 50.5 56.166 65.5 86.499s22.5 69.833 22.5 118.5h-38
c0 -27.333 -2.83301 -51.5 -8.5 -72.5s-13 -39.167 -22 -54.5s-18.5 -28 -28.5 -38s-22.667 -21.667 -38 -35l-1 -1l-4 -4c-28.667 -28 -50 -53.333 -64 -76s-21 -52.667 -21 -90c0 -58 18.667 -102.333 56 -133s84 -46 140 -46c71.333 0 126.166 21.5 164.499 64.5
s57.5 100.833 57.5 173.5h-38zM287.001 535h-51v-103h51v103z" />
    <glyph glyph-name="Agrave" unicode="&#xc0;" horiz-adv-x="593" 
d="M354 764l-120 140h-51l134 -140h37zM275 714l-287 -714h47l91 229h342l90 -229h47l-282 714h-48zM140 267l159 404h2l153 -404h-314z" />
    <glyph glyph-name="Aacute" unicode="&#xc1;" horiz-adv-x="593" 
d="M239 764h37l134 140h-51zM275 714l-287 -714h47l91 229h342l90 -229h47l-282 714h-48zM140 267l159 404h2l153 -404h-314z" />
    <glyph glyph-name="Acircumflex" unicode="&#xc2;" horiz-adv-x="593" 
d="M276 904l-115 -140h38l97 115l98 -115h38l-116 140h-40zM275 714l-287 -714h47l91 229h342l90 -229h47l-282 714h-48zM140 267l159 404h2l153 -404h-314z" />
    <glyph glyph-name="Atilde" unicode="&#xc3;" horiz-adv-x="593" 
d="M181 775c2.66699 15.333 7.66797 28.666 15.001 39.999s17.333 17 30 17c10.667 0 21.167 -2.33301 31.5 -7s23.166 -11.667 38.499 -21l4 -3c14 -8 25.833 -14.333 35.5 -19s19.5 -7 29.5 -7c12 0 22.5 2.66699 31.5 8s16.833 12.333 23.5 21
c10.667 14 17.667 34.333 21 61h-29c-2 -15.333 -6.83301 -28.666 -14.5 -39.999s-17.834 -17 -30.501 -17c-10.667 0 -28 7 -52 21c-7.33301 4 -12.666 7 -15.999 9l-7 4c-28 15.333 -49 23 -63 23c-22 0 -39.833 -9 -53.5 -27s-21.5 -39 -23.5 -63h29zM275.001 714
l-287 -714h47l91 229h342l90 -229h47l-282 714h-48zM140.001 267l159 404h2l153 -404h-314z" />
    <glyph glyph-name="Adieresis" unicode="&#xc4;" horiz-adv-x="593" 
d="M239 767v103h-44v-103h44zM397 767v103h-44v-103h44zM275 714l-287 -714h47l91 229h342l90 -229h47l-282 714h-48zM140 267l159 404h2l153 -404h-314z" />
    <glyph glyph-name="Aring" unicode="&#xc5;" horiz-adv-x="593" 
d="M192 828c0 -27.333 9.66699 -50.666 29 -69.999s42.666 -29 69.999 -29s50.666 9.66699 69.999 29s29 42.666 29 69.999s-9.66699 50.666 -29 69.999s-42.666 29 -69.999 29s-50.666 -9.66699 -69.999 -29s-29 -42.666 -29 -69.999zM219 828c0 20 7 37 21 51s31 21 51 21
s37 -7 51 -21s21 -31 21 -51s-7 -37 -21 -51s-31 -21 -51 -21s-37 7 -51 21s-21 31 -21 51zM275 714l-287 -714h47l91 229h342l90 -229h47l-282 714h-48zM140 267l159 404h2l153 -404h-314z" />
    <glyph glyph-name="AE" unicode="&#xc6;" horiz-adv-x="870" 
d="M-9 0h40l132 254h268v-254h424v38h-380v314h350v38h-350v286h379v38h-490zM431 292h-248l201 384h47v-384z" />
    <glyph glyph-name="Ccedilla" unicode="&#xc7;" horiz-adv-x="704" 
d="M663 501c-0.666992 9.33301 -4.83496 25.665 -12.502 48.998s-21.5 49 -41.5 77s-49.333 52.333 -88 73s-87 31 -145 31c-52 0 -99.167 -9.5 -141.5 -28.5s-78.333 -45.5 -108 -79.5s-52.167 -73.833 -67.5 -119.5s-23 -94.5 -23 -146.5
c0 -49.333 6.83301 -95.666 20.5 -138.999s33.667 -81.666 60 -114.999s58.333 -60.333 96 -81s80.167 -33 127.5 -37l-44 -60l16 -13c17.333 8 35 12 53 12c11.333 0 22.333 -4 33 -12s16 -19.333 16 -34c0 -16.667 -6.16699 -28.667 -18.5 -36s-27.166 -11 -44.499 -11
c-13.333 0 -25.5 1.33301 -36.5 4s-23.5 6.66699 -37.5 12l-6 2l-11 -24c10.667 -6 23.667 -11 39 -15s32.333 -6 51 -6c32 0 57 6 75 18s27 30.667 27 56c0 24 -7.33301 42.167 -22 54.5s-32.334 18.5 -53.001 18.5c-11.333 0 -23.666 -3 -36.999 -9l-2 2l33 39h5
c38.667 0 75.334 7.33301 110.001 22s65.5 35.334 92.5 62.001s48.833 58 65.5 94s27 75 31 117h-44c-2 -32.667 -9.83301 -64.5 -23.5 -95.5s-32.167 -58.667 -55.5 -83s-50 -43.5 -80 -57.5s-62 -21 -96 -21c-45.333 0 -86.5 8.66699 -123.5 26s-68.333 41.5 -94 72.5
s-45.167 66.833 -58.5 107.5s-20 84 -20 130s6.66699 89.333 20 130s32.833 76.5 58.5 107.5s57 55.167 94 72.5s78.167 26 123.5 26c61.333 0 114.833 -17.333 160.5 -52s73.167 -81.334 82.5 -140.001h44z" />
    <glyph glyph-name="Egrave" unicode="&#xc8;" horiz-adv-x="560" 
d="M338 764l-120 140h-51l134 -140h37zM107 38v314h410v38h-410v286h436v38h-480v-714h485v38h-441z" />
    <glyph glyph-name="Eacute" unicode="&#xc9;" horiz-adv-x="560" 
d="M223 764h37l134 140h-51zM107 38v314h410v38h-410v286h436v38h-480v-714h485v38h-441z" />
    <glyph glyph-name="Ecircumflex" unicode="&#xca;" horiz-adv-x="560" 
d="M260 904l-115 -140h38l97 115l98 -115h38l-116 140h-40zM107 38v314h410v38h-410v286h436v38h-480v-714h485v38h-441z" />
    <glyph glyph-name="Edieresis" unicode="&#xcb;" horiz-adv-x="560" 
d="M233 767v103h-44v-103h44zM391 767v103h-44v-103h44zM107 38v314h410v38h-410v286h436v38h-480v-714h485v38h-441z" />
    <glyph glyph-name="Igrave" unicode="&#xcc;" horiz-adv-x="170" 
d="M143 764l-120 140h-51l134 -140h37zM63 0h44v714h-44v-714z" />
    <glyph glyph-name="Iacute" unicode="&#xcd;" horiz-adv-x="170" 
d="M28 764h37l134 140h-51zM63 0h44v714h-44v-714z" />
    <glyph glyph-name="Icircumflex" unicode="&#xce;" horiz-adv-x="170" 
d="M65 904l-115 -140h38l97 115l98 -115h38l-116 140h-40zM63 0h44v714h-44v-714z" />
    <glyph glyph-name="Idieresis" unicode="&#xcf;" horiz-adv-x="170" 
d="M28 767v103h-44v-103h44zM186 767v103h-44v-103h44zM63 0h44v714h-44v-714z" />
    <glyph glyph-name="Eth" unicode="&#xd0;" horiz-adv-x="667" 
d="M63 396l-67.999 0.00292969v-33h68v-363h232c56 0 105 9 147 27s76.667 43.167 104 75.5s47.666 70.166 60.999 113.499s20 90.666 20 141.999c0 48 -5.5 93 -16.5 135s-29.167 79.667 -54.5 113s-59.5 59.666 -102.5 78.999s-95.167 29 -156.5 29h-234v-318z
M107.001 396.003l-0.000976562 280.002h183c34 0 66.833 -3.33301 98.5 -10s62.5 -20.834 92.5 -42.501s54.5 -54.167 73.5 -97.5s28.5 -99.333 28.5 -168c0 -58.667 -8.16699 -108.834 -24.5 -150.501s-38.166 -75 -65.499 -100s-57.5 -42.833 -90.5 -53.5
s-67.5 -16 -103.5 -16h-192v325h264v33h-264z" />
    <glyph glyph-name="Ntilde" unicode="&#xd1;" horiz-adv-x="678" 
d="M224 775c2.66699 15.333 7.66797 28.666 15.001 39.999s17.333 17 30 17c10.667 0 21.167 -2.33301 31.5 -7s23.166 -11.667 38.499 -21l4 -3c14 -8 25.833 -14.333 35.5 -19s19.5 -7 29.5 -7c12 0 22.5 2.66699 31.5 8s16.833 12.333 23.5 21
c10.667 14 17.667 34.333 21 61h-29c-2 -15.333 -6.83301 -28.666 -14.5 -39.999s-17.834 -17 -30.501 -17c-10.667 0 -28 7 -52 21c-7.33301 4 -12.666 7 -15.999 9l-7 4c-28 15.333 -49 23 -63 23c-22 0 -39.833 -9 -53.5 -27s-21.5 -39 -23.5 -63h29zM63.001 0h44v660h2
l454 -660h52v714h-44v-655h-2l-451 655h-55v-714z" />
    <glyph glyph-name="Ograve" unicode="&#xd2;" horiz-adv-x="741" 
d="M428 764l-120 140h-51l134 -140h37zM710 357c0 52 -7.66699 100.833 -23 146.5s-37.666 85.5 -66.999 119.5s-65.166 60.5 -107.499 79.5s-89.5 28.5 -141.5 28.5s-99.167 -9.5 -141.5 -28.5s-78.333 -45.5 -108 -79.5s-52.167 -73.833 -67.5 -119.5
s-23 -94.5 -23 -146.5s7.66699 -100.833 23 -146.5s37.833 -85.5 67.5 -119.5s65.667 -60.5 108 -79.5s89.5 -28.5 141.5 -28.5s99.167 9.5 141.5 28.5s78.166 45.5 107.499 79.5s51.666 73.833 66.999 119.5s23 94.5 23 146.5zM75 357c0 46 6.66699 89.333 20 130
s32.833 76.5 58.5 107.5s57 55.167 94 72.5s78.167 26 123.5 26s86.333 -8.66699 123 -26s67.834 -41.5 93.501 -72.5s45.167 -66.833 58.5 -107.5s20 -84 20 -130c0 -45.333 -6.66699 -88.5 -20 -129.5s-32.833 -77 -58.5 -108s-56.834 -55.167 -93.501 -72.5
s-77.667 -26 -123 -26s-86.5 8.66699 -123.5 26s-68.333 41.5 -94 72.5s-45.167 66.833 -58.5 107.5s-20 84 -20 130z" />
    <glyph glyph-name="Oacute" unicode="&#xd3;" horiz-adv-x="741" 
d="M313 764h37l134 140h-51zM710 357c0 52 -7.66699 100.833 -23 146.5s-37.666 85.5 -66.999 119.5s-65.166 60.5 -107.499 79.5s-89.5 28.5 -141.5 28.5s-99.167 -9.5 -141.5 -28.5s-78.333 -45.5 -108 -79.5s-52.167 -73.833 -67.5 -119.5s-23 -94.5 -23 -146.5
s7.66699 -100.833 23 -146.5s37.833 -85.5 67.5 -119.5s65.667 -60.5 108 -79.5s89.5 -28.5 141.5 -28.5s99.167 9.5 141.5 28.5s78.166 45.5 107.499 79.5s51.666 73.833 66.999 119.5s23 94.5 23 146.5zM75 357c0 46 6.66699 89.333 20 130s32.833 76.5 58.5 107.5
s57 55.167 94 72.5s78.167 26 123.5 26s86.333 -8.66699 123 -26s67.834 -41.5 93.501 -72.5s45.167 -66.833 58.5 -107.5s20 -84 20 -130c0 -45.333 -6.66699 -88.5 -20 -129.5s-32.833 -77 -58.5 -108s-56.834 -55.167 -93.501 -72.5s-77.667 -26 -123 -26
s-86.5 8.66699 -123.5 26s-68.333 41.5 -94 72.5s-45.167 66.833 -58.5 107.5s-20 84 -20 130z" />
    <glyph glyph-name="Ocircumflex" unicode="&#xd4;" horiz-adv-x="741" 
d="M350 904l-115 -140h38l97 115l98 -115h38l-116 140h-40zM710 357c0 52 -7.66699 100.833 -23 146.5s-37.666 85.5 -66.999 119.5s-65.166 60.5 -107.499 79.5s-89.5 28.5 -141.5 28.5s-99.167 -9.5 -141.5 -28.5s-78.333 -45.5 -108 -79.5s-52.167 -73.833 -67.5 -119.5
s-23 -94.5 -23 -146.5s7.66699 -100.833 23 -146.5s37.833 -85.5 67.5 -119.5s65.667 -60.5 108 -79.5s89.5 -28.5 141.5 -28.5s99.167 9.5 141.5 28.5s78.166 45.5 107.499 79.5s51.666 73.833 66.999 119.5s23 94.5 23 146.5zM75 357c0 46 6.66699 89.333 20 130
s32.833 76.5 58.5 107.5s57 55.167 94 72.5s78.167 26 123.5 26s86.333 -8.66699 123 -26s67.834 -41.5 93.501 -72.5s45.167 -66.833 58.5 -107.5s20 -84 20 -130c0 -45.333 -6.66699 -88.5 -20 -129.5s-32.833 -77 -58.5 -108s-56.834 -55.167 -93.501 -72.5
s-77.667 -26 -123 -26s-86.5 8.66699 -123.5 26s-68.333 41.5 -94 72.5s-45.167 66.833 -58.5 107.5s-20 84 -20 130z" />
    <glyph glyph-name="Otilde" unicode="&#xd5;" horiz-adv-x="741" 
d="M255 775c2.66699 15.333 7.66797 28.666 15.001 39.999s17.333 17 30 17c10.667 0 21.167 -2.33301 31.5 -7s23.166 -11.667 38.499 -21l4 -3c14 -8 25.833 -14.333 35.5 -19s19.5 -7 29.5 -7c12 0 22.5 2.66699 31.5 8s16.833 12.333 23.5 21
c10.667 14 17.667 34.333 21 61h-29c-2 -15.333 -6.83301 -28.666 -14.5 -39.999s-17.834 -17 -30.501 -17c-10.667 0 -28 7 -52 21c-7.33301 4 -12.666 7 -15.999 9l-7 4c-28 15.333 -49 23 -63 23c-22 0 -39.833 -9 -53.5 -27s-21.5 -39 -23.5 -63h29zM710.001 357
c0 52 -7.66699 100.833 -23 146.5s-37.666 85.5 -66.999 119.5s-65.166 60.5 -107.499 79.5s-89.5 28.5 -141.5 28.5s-99.167 -9.5 -141.5 -28.5s-78.333 -45.5 -108 -79.5s-52.167 -73.833 -67.5 -119.5s-23 -94.5 -23 -146.5s7.66699 -100.833 23 -146.5
s37.833 -85.5 67.5 -119.5s65.667 -60.5 108 -79.5s89.5 -28.5 141.5 -28.5s99.167 9.5 141.5 28.5s78.166 45.5 107.499 79.5s51.666 73.833 66.999 119.5s23 94.5 23 146.5zM75.001 357c0 46 6.66699 89.333 20 130s32.833 76.5 58.5 107.5s57 55.167 94 72.5
s78.167 26 123.5 26s86.333 -8.66699 123 -26s67.834 -41.5 93.501 -72.5s45.167 -66.833 58.5 -107.5s20 -84 20 -130c0 -45.333 -6.66699 -88.5 -20 -129.5s-32.833 -77 -58.5 -108s-56.834 -55.167 -93.501 -72.5s-77.667 -26 -123 -26s-86.5 8.66699 -123.5 26
s-68.333 41.5 -94 72.5s-45.167 66.833 -58.5 107.5s-20 84 -20 130z" />
    <glyph glyph-name="Odieresis" unicode="&#xd6;" horiz-adv-x="741" 
d="M313 767v103h-44v-103h44zM471 767v103h-44v-103h44zM710 357c0 52 -7.66699 100.833 -23 146.5s-37.666 85.5 -66.999 119.5s-65.166 60.5 -107.499 79.5s-89.5 28.5 -141.5 28.5s-99.167 -9.5 -141.5 -28.5s-78.333 -45.5 -108 -79.5s-52.167 -73.833 -67.5 -119.5
s-23 -94.5 -23 -146.5s7.66699 -100.833 23 -146.5s37.833 -85.5 67.5 -119.5s65.667 -60.5 108 -79.5s89.5 -28.5 141.5 -28.5s99.167 9.5 141.5 28.5s78.166 45.5 107.499 79.5s51.666 73.833 66.999 119.5s23 94.5 23 146.5zM75 357c0 46 6.66699 89.333 20 130
s32.833 76.5 58.5 107.5s57 55.167 94 72.5s78.167 26 123.5 26s86.333 -8.66699 123 -26s67.834 -41.5 93.501 -72.5s45.167 -66.833 58.5 -107.5s20 -84 20 -130c0 -45.333 -6.66699 -88.5 -20 -129.5s-32.833 -77 -58.5 -108s-56.834 -55.167 -93.501 -72.5
s-77.667 -26 -123 -26s-86.5 8.66699 -123.5 26s-68.333 41.5 -94 72.5s-45.167 66.833 -58.5 107.5s-20 84 -20 130z" />
    <glyph glyph-name="multiply" unicode="&#xd7;" horiz-adv-x="600" 
d="M79 58l26 -27l195 195l194 -195l27 27l-194 194l194 195l-27 27l-194 -195l-195 195l-26 -27l194 -195z" />
    <glyph glyph-name="Oslash" unicode="&#xd8;" horiz-adv-x="741" 
d="M598 582c22 -30 38.834 -64.332 50.501 -102.999s17.5 -79.334 17.5 -122.001c0 -45.333 -6.66699 -88.5 -20 -129.5s-32.833 -77 -58.5 -108s-56.834 -55.167 -93.501 -72.5s-77.667 -26 -123 -26c-42 0 -80.333 7.5 -115 22.5s-65 36.5 -91 64.5zM143.001 134.001
c-45.333 60.667 -68 135 -68 223c0 46 6.66699 89.333 20 130s32.833 76.5 58.5 107.5s57 55.167 94 72.5s78.167 26 123.5 26c81.333 0 149.333 -28 204 -84zM34.001 16.001l26.002 -24.001l76 84c28.667 -30 63 -53 103 -69s84 -24 132 -24c52 0 99.167 9.5 141.5 28.5
s78.166 45.5 107.499 79.5s51.666 73.833 66.999 119.5s23 94.5 23 146.5c0 50.667 -7 97.834 -21 141.501s-34.667 82.167 -62 115.5l70 76l-26 24l-68 -74c-29.333 29.333 -63.5 51.833 -102.5 67.5s-82.167 23.5 -129.5 23.5c-52 0 -99.167 -9.5 -141.5 -28.5
s-78.333 -45.5 -108 -79.5s-52.167 -73.833 -67.5 -119.5s-23 -94.5 -23 -146.5c0 -49.333 7 -95.833 21 -139.5s34.333 -82.167 61 -115.5z" />
    <glyph glyph-name="Ugrave" unicode="&#xd9;" horiz-adv-x="672" 
d="M394 764l-120 140h-51l134 -140h37zM63 714l0.00195312 -428c0 -32.667 2.66699 -65 8 -97s16.666 -63.833 33.999 -95.5s44.5 -58 81.5 -79s85.167 -31.5 144.5 -31.5c52 0 96 7.5 132 22.5s64.667 36.167 86 63.5s36.666 59.166 45.999 95.499s14 76.833 14 121.5v428
h-44v-428c0 -42 -4.16699 -79.167 -12.5 -111.5s-21.5 -59.833 -39.5 -82.5s-42 -40.167 -72 -52.5s-66.667 -18.5 -110 -18.5c-48 0 -87.333 9 -118 27s-53.5 40.833 -68.5 68.5s-25 55.834 -30 84.501s-7.5 57 -7.5 85v428h-44z" />
    <glyph glyph-name="Uacute" unicode="&#xda;" horiz-adv-x="672" 
d="M279 764h37l134 140h-51zM63 714l0.00195312 -428c0 -32.667 2.66699 -65 8 -97s16.666 -63.833 33.999 -95.5s44.5 -58 81.5 -79s85.167 -31.5 144.5 -31.5c52 0 96 7.5 132 22.5s64.667 36.167 86 63.5s36.666 59.166 45.999 95.499s14 76.833 14 121.5v428h-44v-428
c0 -42 -4.16699 -79.167 -12.5 -111.5s-21.5 -59.833 -39.5 -82.5s-42 -40.167 -72 -52.5s-66.667 -18.5 -110 -18.5c-48 0 -87.333 9 -118 27s-53.5 40.833 -68.5 68.5s-25 55.834 -30 84.501s-7.5 57 -7.5 85v428h-44z" />
    <glyph glyph-name="Ucircumflex" unicode="&#xdb;" horiz-adv-x="672" 
d="M316 904l-115 -140h38l97 115l98 -115h38l-116 140h-40zM63 714l0.00195312 -428c0 -32.667 2.66699 -65 8 -97s16.666 -63.833 33.999 -95.5s44.5 -58 81.5 -79s85.167 -31.5 144.5 -31.5c52 0 96 7.5 132 22.5s64.667 36.167 86 63.5s36.666 59.166 45.999 95.499
s14 76.833 14 121.5v428h-44v-428c0 -42 -4.16699 -79.167 -12.5 -111.5s-21.5 -59.833 -39.5 -82.5s-42 -40.167 -72 -52.5s-66.667 -18.5 -110 -18.5c-48 0 -87.333 9 -118 27s-53.5 40.833 -68.5 68.5s-25 55.834 -30 84.501s-7.5 57 -7.5 85v428h-44z" />
    <glyph glyph-name="Udieresis" unicode="&#xdc;" horiz-adv-x="672" 
d="M279 767v103h-44v-103h44zM437 767v103h-44v-103h44zM63 714l0.00195312 -428c0 -32.667 2.66699 -65 8 -97s16.666 -63.833 33.999 -95.5s44.5 -58 81.5 -79s85.167 -31.5 144.5 -31.5c52 0 96 7.5 132 22.5s64.667 36.167 86 63.5s36.666 59.166 45.999 95.499
s14 76.833 14 121.5v428h-44v-428c0 -42 -4.16699 -79.167 -12.5 -111.5s-21.5 -59.833 -39.5 -82.5s-42 -40.167 -72 -52.5s-66.667 -18.5 -110 -18.5c-48 0 -87.333 9 -118 27s-53.5 40.833 -68.5 68.5s-25 55.834 -30 84.501s-7.5 57 -7.5 85v428h-44z" />
    <glyph glyph-name="Yacute" unicode="&#xdd;" horiz-adv-x="574" 
d="M230 764h37l134 140h-51zM287 336l-258 378h-50l285 -415v-299h44v299l287 415h-49z" />
    <glyph glyph-name="Thorn" unicode="&#xde;" horiz-adv-x="593" 
d="M63 0l44 -0.000976562v198h244c71.333 0 126.5 17.167 165.5 51.5s58.5 82.833 58.5 145.5c0 40.667 -6.66699 74.334 -20 101.001s-30.333 47 -51 61s-42.667 23.667 -66 29s-47 8 -71 8h-260v120h-44v-714zM107 555.999l257.001 -0.000976562
c33.333 0 61.166 -5.33301 83.499 -16s39.5 -24.5 51.5 -41.5s20.333 -34.333 25 -52s7 -34.5 7 -50.5c0 -20 -3.16699 -39.333 -9.5 -58s-16.333 -35.667 -30 -51s-31.667 -27.666 -54 -36.999s-48.833 -14 -79.5 -14h-251v320z" />
    <glyph glyph-name="germandbls" unicode="&#xdf;" horiz-adv-x="500" 
d="M207 379c33.333 0 62.8311 -2.49805 88.498 -7.49805s48.334 -13.667 68.001 -26s34.834 -29.333 45.501 -51s16 -48.5 16 -80.5c0 -38.667 -6.16699 -70.334 -18.5 -95.001s-28 -43.167 -47 -55.5s-38 -20.5 -57 -24.5s-38.167 -6 -57.5 -6h-38v-33h55
c20 0 40.833 2.5 62.5 7.5s43.167 14.667 64.5 29s39 36.166 53 65.499s21 66.666 21 111.999c0 52.667 -13 95.5 -39 128.5s-64.333 52.5 -115 58.5v2c40 8.66699 69.833 26.5 89.5 53.5s29.5 61.5 29.5 103.5c0 54 -17.5 95.167 -52.5 123.5s-80.167 42.5 -135.5 42.5
c-60.667 0 -106.167 -16.167 -136.5 -48.5s-45.5 -79.166 -45.5 -140.499v-537h38v537c0 50 11.833 88.5 35.5 115.5s59.834 40.5 108.501 40.5c43.333 0 79.166 -11.667 107.499 -35s42.5 -56 42.5 -98c0 -25.333 -4.83301 -47.5 -14.5 -66.5s-23 -34.5 -40 -46.5
s-36.5 -20.833 -58.5 -26.5s-45.333 -8.5 -70 -8.5v-33z" />
    <glyph glyph-name="agrave" unicode="&#xe0;" horiz-adv-x="500" 
d="M308 591l-120 140h-51l134 -140h37zM397 196c0 -11.333 -2.33496 -25.998 -7.00195 -43.998s-13.667 -37.167 -27 -57.5s-33 -37.666 -59 -51.999s-59 -21.5 -99 -21.5c-43.333 0 -76.666 10.5 -99.999 31.5s-35 47.833 -35 80.5c0 37.333 11.833 65.166 35.5 83.499
s58.834 30.166 105.501 35.499c12 2 31.333 4 58 6c36 2.66699 63.833 6.16699 83.5 10.5s34.5 12.166 44.5 23.499v-96zM434.998 392.002c0 25.333 -4.83301 46.833 -14.5 64.5s-23 31.5 -40 41.5s-36 17.167 -57 21.5s-43.833 6.5 -68.5 6.5
c-61.333 0 -108.666 -14.333 -141.999 -43s-51.333 -71 -54 -127h38c2.66699 44 18 77.833 46 101.5s65.333 35.5 112 35.5c27.333 0 50.5 -3.83301 69.5 -11.5s33.833 -17.167 44.5 -28.5s18.167 -22.5 22.5 -33.5s6.5 -20.167 6.5 -27.5
c0 -23.333 -1.5 -40.833 -4.5 -52.5s-10 -21 -21 -28s-27.833 -12.333 -50.5 -16s-56.334 -7.16699 -101.001 -10.5c-24.667 -2 -47.667 -5.5 -69 -10.5s-41.166 -13 -59.499 -24s-33 -26.167 -44 -45.5s-16.5 -43.333 -16.5 -72c0 -50.667 15.5 -87.5 46.5 -110.5
s72.833 -34.5 125.5 -34.5c46.667 0 87 10.833 121 32.5s57.333 48.834 70 81.501h2v-27c0 -24.667 4.66699 -43.334 14 -56.001s27.666 -19 54.999 -19c6 0 15.333 1.33301 28 4h3v32c-12 -2 -21.333 -3 -28 -3c-15.333 0 -24.833 5.33301 -28.5 16s-5.5 26 -5.5 46v297z
" />
    <glyph glyph-name="aacute" unicode="&#xe1;" horiz-adv-x="500" 
d="M193 591h37l134 140h-51zM397 196c0 -11.333 -2.33496 -25.998 -7.00195 -43.998s-13.667 -37.167 -27 -57.5s-33 -37.666 -59 -51.999s-59 -21.5 -99 -21.5c-43.333 0 -76.666 10.5 -99.999 31.5s-35 47.833 -35 80.5c0 37.333 11.833 65.166 35.5 83.499
s58.834 30.166 105.501 35.499c12 2 31.333 4 58 6c36 2.66699 63.833 6.16699 83.5 10.5s34.5 12.166 44.5 23.499v-96zM434.998 392.002c0 25.333 -4.83301 46.833 -14.5 64.5s-23 31.5 -40 41.5s-36 17.167 -57 21.5s-43.833 6.5 -68.5 6.5
c-61.333 0 -108.666 -14.333 -141.999 -43s-51.333 -71 -54 -127h38c2.66699 44 18 77.833 46 101.5s65.333 35.5 112 35.5c27.333 0 50.5 -3.83301 69.5 -11.5s33.833 -17.167 44.5 -28.5s18.167 -22.5 22.5 -33.5s6.5 -20.167 6.5 -27.5
c0 -23.333 -1.5 -40.833 -4.5 -52.5s-10 -21 -21 -28s-27.833 -12.333 -50.5 -16s-56.334 -7.16699 -101.001 -10.5c-24.667 -2 -47.667 -5.5 -69 -10.5s-41.166 -13 -59.499 -24s-33 -26.167 -44 -45.5s-16.5 -43.333 -16.5 -72c0 -50.667 15.5 -87.5 46.5 -110.5
s72.833 -34.5 125.5 -34.5c46.667 0 87 10.833 121 32.5s57.333 48.834 70 81.501h2v-27c0 -24.667 4.66699 -43.334 14 -56.001s27.666 -19 54.999 -19c6 0 15.333 1.33301 28 4h3v32c-12 -2 -21.333 -3 -28 -3c-15.333 0 -24.833 5.33301 -28.5 16s-5.5 26 -5.5 46v297z
" />
    <glyph glyph-name="acircumflex" unicode="&#xe2;" horiz-adv-x="500" 
d="M230 731l-115 -140h38l97 115l98 -115h38l-116 140h-40zM397 196c0 -11.333 -2.33496 -25.998 -7.00195 -43.998s-13.667 -37.167 -27 -57.5s-33 -37.666 -59 -51.999s-59 -21.5 -99 -21.5c-43.333 0 -76.666 10.5 -99.999 31.5s-35 47.833 -35 80.5
c0 37.333 11.833 65.166 35.5 83.499s58.834 30.166 105.501 35.499c12 2 31.333 4 58 6c36 2.66699 63.833 6.16699 83.5 10.5s34.5 12.166 44.5 23.499v-96zM434.998 392.002c0 25.333 -4.83301 46.833 -14.5 64.5s-23 31.5 -40 41.5s-36 17.167 -57 21.5
s-43.833 6.5 -68.5 6.5c-61.333 0 -108.666 -14.333 -141.999 -43s-51.333 -71 -54 -127h38c2.66699 44 18 77.833 46 101.5s65.333 35.5 112 35.5c27.333 0 50.5 -3.83301 69.5 -11.5s33.833 -17.167 44.5 -28.5s18.167 -22.5 22.5 -33.5s6.5 -20.167 6.5 -27.5
c0 -23.333 -1.5 -40.833 -4.5 -52.5s-10 -21 -21 -28s-27.833 -12.333 -50.5 -16s-56.334 -7.16699 -101.001 -10.5c-24.667 -2 -47.667 -5.5 -69 -10.5s-41.166 -13 -59.499 -24s-33 -26.167 -44 -45.5s-16.5 -43.333 -16.5 -72c0 -50.667 15.5 -87.5 46.5 -110.5
s72.833 -34.5 125.5 -34.5c46.667 0 87 10.833 121 32.5s57.333 48.834 70 81.501h2v-27c0 -24.667 4.66699 -43.334 14 -56.001s27.666 -19 54.999 -19c6 0 15.333 1.33301 28 4h3v32c-12 -2 -21.333 -3 -28 -3c-15.333 0 -24.833 5.33301 -28.5 16s-5.5 26 -5.5 46v297z
" />
    <glyph glyph-name="atilde" unicode="&#xe3;" horiz-adv-x="500" 
d="M135 602c2.66699 15.333 7.66797 28.666 15.001 39.999s17.333 17 30 17c10.667 0 21.167 -2.33301 31.5 -7s23.166 -11.667 38.499 -21l4 -3c14 -8 25.833 -14.333 35.5 -19s19.5 -7 29.5 -7c12 0 22.5 2.66699 31.5 8s16.833 12.333 23.5 21
c10.667 14 17.667 34.333 21 61h-29c-2 -15.333 -6.83301 -28.666 -14.5 -39.999s-17.834 -17 -30.501 -17c-10.667 0 -28 7 -52 21c-7.33301 4 -12.666 7 -15.999 9l-7 4c-28 15.333 -49 23 -63 23c-22 0 -39.833 -9 -53.5 -27s-21.5 -39 -23.5 -63h29zM397.001 196
c0 -11.333 -2.33496 -25.998 -7.00195 -43.998s-13.667 -37.167 -27 -57.5s-33 -37.666 -59 -51.999s-59 -21.5 -99 -21.5c-43.333 0 -76.666 10.5 -99.999 31.5s-35 47.833 -35 80.5c0 37.333 11.833 65.166 35.5 83.499s58.834 30.166 105.501 35.499c12 2 31.333 4 58 6
c36 2.66699 63.833 6.16699 83.5 10.5s34.5 12.166 44.5 23.499v-96zM434.999 392.002c0 25.333 -4.83301 46.833 -14.5 64.5s-23 31.5 -40 41.5s-36 17.167 -57 21.5s-43.833 6.5 -68.5 6.5c-61.333 0 -108.666 -14.333 -141.999 -43s-51.333 -71 -54 -127h38
c2.66699 44 18 77.833 46 101.5s65.333 35.5 112 35.5c27.333 0 50.5 -3.83301 69.5 -11.5s33.833 -17.167 44.5 -28.5s18.167 -22.5 22.5 -33.5s6.5 -20.167 6.5 -27.5c0 -23.333 -1.5 -40.833 -4.5 -52.5s-10 -21 -21 -28s-27.833 -12.333 -50.5 -16
s-56.334 -7.16699 -101.001 -10.5c-24.667 -2 -47.667 -5.5 -69 -10.5s-41.166 -13 -59.499 -24s-33 -26.167 -44 -45.5s-16.5 -43.333 -16.5 -72c0 -50.667 15.5 -87.5 46.5 -110.5s72.833 -34.5 125.5 -34.5c46.667 0 87 10.833 121 32.5s57.333 48.834 70 81.501h2v-27
c0 -24.667 4.66699 -43.334 14 -56.001s27.666 -19 54.999 -19c6 0 15.333 1.33301 28 4h3v32c-12 -2 -21.333 -3 -28 -3c-15.333 0 -24.833 5.33301 -28.5 16s-5.5 26 -5.5 46v297z" />
    <glyph glyph-name="adieresis" unicode="&#xe4;" horiz-adv-x="500" 
d="M193 594v103h-44v-103h44zM351 594v103h-44v-103h44zM397 196c0 -11.333 -2.33496 -25.998 -7.00195 -43.998s-13.667 -37.167 -27 -57.5s-33 -37.666 -59 -51.999s-59 -21.5 -99 -21.5c-43.333 0 -76.666 10.5 -99.999 31.5s-35 47.833 -35 80.5
c0 37.333 11.833 65.166 35.5 83.499s58.834 30.166 105.501 35.499c12 2 31.333 4 58 6c36 2.66699 63.833 6.16699 83.5 10.5s34.5 12.166 44.5 23.499v-96zM434.998 392.002c0 25.333 -4.83301 46.833 -14.5 64.5s-23 31.5 -40 41.5s-36 17.167 -57 21.5
s-43.833 6.5 -68.5 6.5c-61.333 0 -108.666 -14.333 -141.999 -43s-51.333 -71 -54 -127h38c2.66699 44 18 77.833 46 101.5s65.333 35.5 112 35.5c27.333 0 50.5 -3.83301 69.5 -11.5s33.833 -17.167 44.5 -28.5s18.167 -22.5 22.5 -33.5s6.5 -20.167 6.5 -27.5
c0 -23.333 -1.5 -40.833 -4.5 -52.5s-10 -21 -21 -28s-27.833 -12.333 -50.5 -16s-56.334 -7.16699 -101.001 -10.5c-24.667 -2 -47.667 -5.5 -69 -10.5s-41.166 -13 -59.499 -24s-33 -26.167 -44 -45.5s-16.5 -43.333 -16.5 -72c0 -50.667 15.5 -87.5 46.5 -110.5
s72.833 -34.5 125.5 -34.5c46.667 0 87 10.833 121 32.5s57.333 48.834 70 81.501h2v-27c0 -24.667 4.66699 -43.334 14 -56.001s27.666 -19 54.999 -19c6 0 15.333 1.33301 28 4h3v32c-12 -2 -21.333 -3 -28 -3c-15.333 0 -24.833 5.33301 -28.5 16s-5.5 26 -5.5 46v297z
" />
    <glyph glyph-name="aring" unicode="&#xe5;" horiz-adv-x="500" 
d="M151 640c0 -27.333 9.66699 -50.666 29 -69.999s42.666 -29 69.999 -29s50.666 9.66699 69.999 29s29 42.666 29 69.999s-9.66699 50.666 -29 69.999s-42.666 29 -69.999 29s-50.666 -9.66699 -69.999 -29s-29 -42.666 -29 -69.999zM178 640c0 20 7 37 21 51s31 21 51 21
s37 -7 51 -21s21 -31 21 -51s-7 -37 -21 -51s-31 -21 -51 -21s-37 7 -51 21s-21 31 -21 51zM397 196c0 -11.333 -2.33496 -25.998 -7.00195 -43.998s-13.667 -37.167 -27 -57.5s-33 -37.666 -59 -51.999s-59 -21.5 -99 -21.5c-43.333 0 -76.666 10.5 -99.999 31.5
s-35 47.833 -35 80.5c0 37.333 11.833 65.166 35.5 83.499s58.834 30.166 105.501 35.499c12 2 31.333 4 58 6c36 2.66699 63.833 6.16699 83.5 10.5s34.5 12.166 44.5 23.499v-96zM434.998 392.002c0 25.333 -4.83301 46.833 -14.5 64.5s-23 31.5 -40 41.5
s-36 17.167 -57 21.5s-43.833 6.5 -68.5 6.5c-61.333 0 -108.666 -14.333 -141.999 -43s-51.333 -71 -54 -127h38c2.66699 44 18 77.833 46 101.5s65.333 35.5 112 35.5c27.333 0 50.5 -3.83301 69.5 -11.5s33.833 -17.167 44.5 -28.5s18.167 -22.5 22.5 -33.5
s6.5 -20.167 6.5 -27.5c0 -23.333 -1.5 -40.833 -4.5 -52.5s-10 -21 -21 -28s-27.833 -12.333 -50.5 -16s-56.334 -7.16699 -101.001 -10.5c-24.667 -2 -47.667 -5.5 -69 -10.5s-41.166 -13 -59.499 -24s-33 -26.167 -44 -45.5s-16.5 -43.333 -16.5 -72
c0 -50.667 15.5 -87.5 46.5 -110.5s72.833 -34.5 125.5 -34.5c46.667 0 87 10.833 121 32.5s57.333 48.834 70 81.501h2v-27c0 -24.667 4.66699 -43.334 14 -56.001s27.666 -19 54.999 -19c6 0 15.333 1.33301 28 4h3v32c-12 -2 -21.333 -3 -28 -3
c-15.333 0 -24.833 5.33301 -28.5 16s-5.5 26 -5.5 46v297z" />
    <glyph glyph-name="ae" unicode="&#xe6;" horiz-adv-x="889" 
d="M444 285c2 28.667 7.16699 55.5 15.5 80.5s20.333 47.167 36 66.5s35 34.333 58 45s49.5 16 79.5 16c27.333 0 52.5 -5.33301 75.5 -16s42.667 -25.5 59 -44.5s28.833 -41.167 37.5 -66.5s13 -52.333 13 -81h-374zM406 201
c-0.666992 -24.667 -6.16504 -48.001 -16.498 -70.001s-24.333 -41.167 -42 -57.5s-37.834 -29.166 -60.501 -38.499s-46.334 -14 -71.001 -14c-40 0 -74.333 9.16699 -103 27.5s-43 45.833 -43 82.5c0 40.667 13.167 70.5 39.5 89.5s61.5 29.833 105.5 32.5
c9.33301 0.666992 25 1.66699 47 3c44.667 3.33301 78 7 100 11s36 11.333 42 22h2v-88zM856.002 251.999c0 4.66699 0.329102 9.99902 0.996094 15.999v15c0 69.333 -19.833 127.166 -59.5 173.499s-94.5 69.5 -164.5 69.5c-47.333 0 -87.666 -10.833 -120.999 -32.5
s-58 -54.5 -74 -98.5h-2c-2 24.667 -8 45.667 -18 63s-23.167 30.833 -39.5 40.5s-34.666 16.667 -54.999 21s-42.833 6.5 -67.5 6.5c-59.333 0 -106.833 -14.333 -142.5 -43s-55.5 -72 -59.5 -130h38c3.33301 47.333 19.5 82.5 48.5 105.5s67.5 34.5 115.5 34.5
c100 0 150 -40 150 -120c0 -18.667 -3.5 -33.667 -10.5 -45s-16.667 -19.666 -29 -24.999s-25.666 -9 -39.999 -11s-32.833 -3.66699 -55.5 -5c-23.333 -1.33301 -40.666 -2.66602 -51.999 -3.99902c-22 -0.666992 -43.667 -3.33398 -65 -8.00098s-41.333 -12.667 -60 -24
s-33.667 -26.833 -45 -46.5s-17 -44.167 -17 -73.5c0 -47.333 17.667 -83 53 -107s79 -36 131 -36c48.667 0 91.5 13.333 128.5 40s63.833 63 80.5 109h2c12 -48 36.333 -84.833 73 -110.5s81 -38.5 133 -38.5c58 0 106.5 16.333 145.5 49s62.833 77.334 71.5 134.001h-38
c-7.33301 -48 -26.833 -85 -58.5 -111s-71.834 -39 -120.501 -39c-59.333 0 -105.666 19.667 -138.999 59s-50 89.333 -50 150c0 2 0.333008 5.66699 1 11v11h411z" />
    <glyph glyph-name="ccedilla" unicode="&#xe7;" horiz-adv-x="519" 
d="M481 355c-5.33301 56 -27.3311 98.4971 -65.998 127.497s-87.334 43.5 -146.001 43.5c-36.667 0 -69.834 -6.83301 -99.501 -20.5s-54.667 -32.667 -75 -57s-35.666 -52.5 -45.999 -84.5s-15.5 -66 -15.5 -102c0 -35.333 4.16699 -68.833 12.5 -100.5
s21.5 -60.167 39.5 -85.5s40.833 -45.666 68.5 -60.999s60.167 -24 97.5 -26l-48 -64l16 -13c17.333 8 35 12 53 12c11.333 0 22.333 -4 33 -12s16 -19.333 16 -34c0 -16.667 -6.16699 -28.667 -18.5 -36s-27.166 -11 -44.499 -11c-13.333 0 -25.5 1.33301 -36.5 4
s-23.5 6.66699 -37.5 12l-6 2l-11 -24c10.667 -6 23.667 -11 39 -15s32.333 -6 51 -6c32 0 57 6 75 18s27 30.667 27 56c0 24 -7.33301 42.167 -22 54.5s-32.334 18.5 -53.001 18.5c-11.333 0 -23.666 -3 -36.999 -9l-2 2l39 45c53.333 3.33301 98.333 21.833 135 55.5
s59 79.167 67 136.5h-38c-6.66699 -47.333 -26.334 -85.833 -59.001 -115.5s-72.667 -44.5 -120 -44.5c-64 0 -113 22 -147 66s-51 102.333 -51 175c0 30 4.33301 58.833 13 86.5s21.5 52.334 38.5 74.001s37.833 38.834 62.5 51.501s52.667 19 84 19
c48 0 88.167 -12 120.5 -36s50.166 -58 53.499 -102h38z" />
    <glyph glyph-name="egrave" unicode="&#xe8;" horiz-adv-x="519" 
d="M317 591l-120 140h-51l134 -140h37zM486 252l0.00390625 9.99902c0.666992 4 1 7 1 9c0 35.333 -4.66699 68.333 -14 99s-23.5 57.834 -42.5 81.501s-42.833 42 -71.5 55s-61.667 19.5 -99 19.5c-36.667 0 -69.334 -7.5 -98.001 -22.5s-52.5 -35.5 -71.5 -61.5
s-33.333 -55.667 -43 -89s-14.5 -68.333 -14.5 -105c0 -75.333 20 -137.5 60 -186.5s95.667 -73.5 167 -73.5c61.333 0 111.166 16 149.499 48s62.5 78 72.5 138h-38c-8.66699 -47.333 -29.334 -84.666 -62.001 -111.999s-73.334 -41 -122.001 -41
c-60 0 -106.5 22.167 -139.5 66.5s-49.5 99.166 -49.5 164.499h415zM71.0039 284.999c2 26 7.66699 51.332 17 75.999s22.166 47 38.499 67s35.833 35.833 58.5 47.5s47.667 17.5 75 17.5c28.667 0 54.667 -5.66699 78 -17s43 -26.666 59 -45.999s28.333 -41.5 37 -66.5
s13.334 -51.167 14.001 -78.5h-377z" />
    <glyph glyph-name="eacute" unicode="&#xe9;" horiz-adv-x="519" 
d="M202 591h37l134 140h-51zM486 252l0.00390625 9.99902c0.666992 4 1 7 1 9c0 35.333 -4.66699 68.333 -14 99s-23.5 57.834 -42.5 81.501s-42.833 42 -71.5 55s-61.667 19.5 -99 19.5c-36.667 0 -69.334 -7.5 -98.001 -22.5s-52.5 -35.5 -71.5 -61.5
s-33.333 -55.667 -43 -89s-14.5 -68.333 -14.5 -105c0 -75.333 20 -137.5 60 -186.5s95.667 -73.5 167 -73.5c61.333 0 111.166 16 149.499 48s62.5 78 72.5 138h-38c-8.66699 -47.333 -29.334 -84.666 -62.001 -111.999s-73.334 -41 -122.001 -41
c-60 0 -106.5 22.167 -139.5 66.5s-49.5 99.166 -49.5 164.499h415zM71.0039 284.999c2 26 7.66699 51.332 17 75.999s22.166 47 38.499 67s35.833 35.833 58.5 47.5s47.667 17.5 75 17.5c28.667 0 54.667 -5.66699 78 -17s43 -26.666 59 -45.999s28.333 -41.5 37 -66.5
s13.334 -51.167 14.001 -78.5h-377z" />
    <glyph glyph-name="ecircumflex" unicode="&#xea;" horiz-adv-x="519" 
d="M239 731l-115 -140h38l97 115l98 -115h38l-116 140h-40zM486 252l0.00390625 9.99902c0.666992 4 1 7 1 9c0 35.333 -4.66699 68.333 -14 99s-23.5 57.834 -42.5 81.501s-42.833 42 -71.5 55s-61.667 19.5 -99 19.5c-36.667 0 -69.334 -7.5 -98.001 -22.5
s-52.5 -35.5 -71.5 -61.5s-33.333 -55.667 -43 -89s-14.5 -68.333 -14.5 -105c0 -75.333 20 -137.5 60 -186.5s95.667 -73.5 167 -73.5c61.333 0 111.166 16 149.499 48s62.5 78 72.5 138h-38c-8.66699 -47.333 -29.334 -84.666 -62.001 -111.999s-73.334 -41 -122.001 -41
c-60 0 -106.5 22.167 -139.5 66.5s-49.5 99.166 -49.5 164.499h415zM71.0039 284.999c2 26 7.66699 51.332 17 75.999s22.166 47 38.499 67s35.833 35.833 58.5 47.5s47.667 17.5 75 17.5c28.667 0 54.667 -5.66699 78 -17s43 -26.666 59 -45.999s28.333 -41.5 37 -66.5
s13.334 -51.167 14.001 -78.5h-377z" />
    <glyph glyph-name="edieresis" unicode="&#xeb;" horiz-adv-x="519" 
d="M202 594v103h-44v-103h44zM360 594v103h-44v-103h44zM486 252l0.00390625 9.99902c0.666992 4 1 7 1 9c0 35.333 -4.66699 68.333 -14 99s-23.5 57.834 -42.5 81.501s-42.833 42 -71.5 55s-61.667 19.5 -99 19.5c-36.667 0 -69.334 -7.5 -98.001 -22.5
s-52.5 -35.5 -71.5 -61.5s-33.333 -55.667 -43 -89s-14.5 -68.333 -14.5 -105c0 -75.333 20 -137.5 60 -186.5s95.667 -73.5 167 -73.5c61.333 0 111.166 16 149.499 48s62.5 78 72.5 138h-38c-8.66699 -47.333 -29.334 -84.666 -62.001 -111.999s-73.334 -41 -122.001 -41
c-60 0 -106.5 22.167 -139.5 66.5s-49.5 99.166 -49.5 164.499h415zM71.0039 284.999c2 26 7.66699 51.332 17 75.999s22.166 47 38.499 67s35.833 35.833 58.5 47.5s47.667 17.5 75 17.5c28.667 0 54.667 -5.66699 78 -17s43 -26.666 59 -45.999s28.333 -41.5 37 -66.5
s13.334 -51.167 14.001 -78.5h-377z" />
    <glyph glyph-name="igrave" unicode="&#xec;" horiz-adv-x="168" 
d="M142 591l-120 140h-51l134 -140h37zM103 0v514h-38v-514h38z" />
    <glyph glyph-name="iacute" unicode="&#xed;" horiz-adv-x="168" 
d="M27 591h37l134 140h-51zM103 0v514h-38v-514h38z" />
    <glyph glyph-name="icircumflex" unicode="&#xee;" horiz-adv-x="168" 
d="M64 731l-115 -140h38l97 115l98 -115h38l-116 140h-40zM103 0v514h-38v-514h38z" />
    <glyph glyph-name="idieresis" unicode="&#xef;" horiz-adv-x="168" 
d="M27 594v103h-44v-103h44zM185 594v103h-44v-103h44zM103 0v514h-38v-514h38z" />
    <glyph glyph-name="eth" unicode="&#xf0;" horiz-adv-x="537" 
d="M269 473c62 0 110.333 -21.832 145 -65.499s52 -96.5 52 -158.5c0 -30.667 -4 -59.667 -12 -87s-20 -51.666 -36 -72.999s-36.5 -38 -61.5 -50s-54.167 -18 -87.5 -18c-32.667 0 -61.5 6.16699 -86.5 18.5s-45.833 29.166 -62.5 50.499s-29.167 45.666 -37.5 72.999
s-12.5 56 -12.5 86c0 29.333 4.33301 57.5 13 84.5s21.5 51 38.5 72s38 37.5 63 49.5s53.167 18 84.5 18zM146 582.001l21.0049 -21.999l112 62c34.667 -27.333 65.667 -57.166 93 -89.499s48 -65.166 62 -98.499l-2 -2c-22.667 27.333 -47.334 46.5 -74.001 57.5
s-56.334 16.5 -89.001 16.5c-36.667 0 -69.834 -6.66699 -99.501 -20s-54.834 -32 -75.501 -56s-36.167 -51.333 -46.5 -82s-15.5 -63.667 -15.5 -99c0 -76.667 20.167 -139.334 60.5 -188.001s99.166 -73 176.499 -73c75.333 0 133.333 24.5 174 73.5s61 111.5 61 187.5
c0 81.333 -15.833 154.166 -47.5 218.499s-79.5 122.166 -143.5 173.499l109 61l-20 22l-115 -64c-32 26 -68 49.667 -108 71l-28 -24c16 -8 32.833 -17.5 50.5 -28.5s35.167 -23.167 52.5 -36.5z" />
    <glyph glyph-name="ntilde" unicode="&#xf1;" horiz-adv-x="519" 
d="M144 602c2.66699 15.333 7.66797 28.666 15.001 39.999s17.333 17 30 17c10.667 0 21.167 -2.33301 31.5 -7s23.166 -11.667 38.499 -21l4 -3c14 -8 25.833 -14.333 35.5 -19s19.5 -7 29.5 -7c12 0 22.5 2.66699 31.5 8s16.833 12.333 23.5 21
c10.667 14 17.667 34.333 21 61h-29c-2 -15.333 -6.83301 -28.666 -14.5 -39.999s-17.834 -17 -30.501 -17c-10.667 0 -28 7 -52 21c-7.33301 4 -12.666 7 -15.999 9l-7 4c-28 15.333 -49 23 -63 23c-22 0 -39.833 -9 -53.5 -27s-21.5 -39 -23.5 -63h29zM56.001 0h38.002
v278c0 64 16.667 115.833 50 155.5s78.333 59.5 135 59.5c32.667 0 59.167 -5.83301 79.5 -17.5s35.166 -26.334 44.499 -44.001s15.333 -35.167 18 -52.5s4 -35.333 4 -54v-325h38v318c0 24 -1.33301 46.5 -4 67.5s-9.83398 42.333 -21.501 64
s-30.334 39.834 -56.001 54.501s-59.5 22 -101.5 22c-41.333 0 -79.166 -11 -113.499 -33s-57.833 -51.667 -70.5 -89h-2v110h-38v-514z" />
    <glyph glyph-name="ograve" unicode="&#xf2;" horiz-adv-x="537" 
d="M326 591l-120 140h-51l134 -140h37zM32 257c0 -36.667 5.33203 -71.332 15.999 -103.999s26 -61.334 46 -86.001s44.833 -44 74.5 -58s62.834 -21 99.501 -21s69.667 7 99 21s54.333 33.5 75 58.5s36.167 53.667 46.5 86s15.5 66.833 15.5 103.5
s-5.16699 71.334 -15.5 104.001s-25.666 61.334 -45.999 86.001s-45.333 44 -75 58s-62.834 21 -99.501 21s-69.667 -7 -99 -21s-54.333 -33.333 -75 -58s-36.167 -53.334 -46.5 -86.001s-15.5 -67.334 -15.5 -104.001zM69.999 257.002c0 31.333 4.33301 61.166 13 89.499
s21.5 53.5 38.5 75.5s37.833 39.333 62.5 52s52.667 19 84 19s59.333 -6.33301 84 -19s45.5 -30 62.5 -52s29.833 -47.167 38.5 -75.5s13 -58.166 13 -89.499s-4.33301 -61.166 -13 -89.499s-21.5 -53.5 -38.5 -75.5s-37.833 -39.333 -62.5 -52s-52.667 -19 -84 -19
s-59.333 6.33301 -84 19s-45.5 30 -62.5 52s-29.833 47.167 -38.5 75.5s-13 58.166 -13 89.499z" />
    <glyph glyph-name="oacute" unicode="&#xf3;" horiz-adv-x="537" 
d="M211 591h37l134 140h-51zM32 257c0 -36.667 5.33203 -71.332 15.999 -103.999s26 -61.334 46 -86.001s44.833 -44 74.5 -58s62.834 -21 99.501 -21s69.667 7 99 21s54.333 33.5 75 58.5s36.167 53.667 46.5 86s15.5 66.833 15.5 103.5s-5.16699 71.334 -15.5 104.001
s-25.666 61.334 -45.999 86.001s-45.333 44 -75 58s-62.834 21 -99.501 21s-69.667 -7 -99 -21s-54.333 -33.333 -75 -58s-36.167 -53.334 -46.5 -86.001s-15.5 -67.334 -15.5 -104.001zM69.999 257.002c0 31.333 4.33301 61.166 13 89.499s21.5 53.5 38.5 75.5
s37.833 39.333 62.5 52s52.667 19 84 19s59.333 -6.33301 84 -19s45.5 -30 62.5 -52s29.833 -47.167 38.5 -75.5s13 -58.166 13 -89.499s-4.33301 -61.166 -13 -89.499s-21.5 -53.5 -38.5 -75.5s-37.833 -39.333 -62.5 -52s-52.667 -19 -84 -19s-59.333 6.33301 -84 19
s-45.5 30 -62.5 52s-29.833 47.167 -38.5 75.5s-13 58.166 -13 89.499z" />
    <glyph glyph-name="ocircumflex" unicode="&#xf4;" horiz-adv-x="537" 
d="M248 731l-115 -140h38l97 115l98 -115h38l-116 140h-40zM32 257c0 -36.667 5.33203 -71.332 15.999 -103.999s26 -61.334 46 -86.001s44.833 -44 74.5 -58s62.834 -21 99.501 -21s69.667 7 99 21s54.333 33.5 75 58.5s36.167 53.667 46.5 86s15.5 66.833 15.5 103.5
s-5.16699 71.334 -15.5 104.001s-25.666 61.334 -45.999 86.001s-45.333 44 -75 58s-62.834 21 -99.501 21s-69.667 -7 -99 -21s-54.333 -33.333 -75 -58s-36.167 -53.334 -46.5 -86.001s-15.5 -67.334 -15.5 -104.001zM69.999 257.002c0 31.333 4.33301 61.166 13 89.499
s21.5 53.5 38.5 75.5s37.833 39.333 62.5 52s52.667 19 84 19s59.333 -6.33301 84 -19s45.5 -30 62.5 -52s29.833 -47.167 38.5 -75.5s13 -58.166 13 -89.499s-4.33301 -61.166 -13 -89.499s-21.5 -53.5 -38.5 -75.5s-37.833 -39.333 -62.5 -52s-52.667 -19 -84 -19
s-59.333 6.33301 -84 19s-45.5 30 -62.5 52s-29.833 47.167 -38.5 75.5s-13 58.166 -13 89.499z" />
    <glyph glyph-name="otilde" unicode="&#xf5;" horiz-adv-x="537" 
d="M153 602c2.66699 15.333 7.66797 28.666 15.001 39.999s17.333 17 30 17c10.667 0 21.167 -2.33301 31.5 -7s23.166 -11.667 38.499 -21l4 -3c14 -8 25.833 -14.333 35.5 -19s19.5 -7 29.5 -7c12 0 22.5 2.66699 31.5 8s16.833 12.333 23.5 21
c10.667 14 17.667 34.333 21 61h-29c-2 -15.333 -6.83301 -28.666 -14.5 -39.999s-17.834 -17 -30.501 -17c-10.667 0 -28 7 -52 21c-7.33301 4 -12.666 7 -15.999 9l-7 4c-28 15.333 -49 23 -63 23c-22 0 -39.833 -9 -53.5 -27s-21.5 -39 -23.5 -63h29zM32.001 257
c0 -36.667 5.33203 -71.332 15.999 -103.999s26 -61.334 46 -86.001s44.833 -44 74.5 -58s62.834 -21 99.501 -21s69.667 7 99 21s54.333 33.5 75 58.5s36.167 53.667 46.5 86s15.5 66.833 15.5 103.5s-5.16699 71.334 -15.5 104.001s-25.666 61.334 -45.999 86.001
s-45.333 44 -75 58s-62.834 21 -99.501 21s-69.667 -7 -99 -21s-54.333 -33.333 -75 -58s-36.167 -53.334 -46.5 -86.001s-15.5 -67.334 -15.5 -104.001zM70 257.002c0 31.333 4.33301 61.166 13 89.499s21.5 53.5 38.5 75.5s37.833 39.333 62.5 52s52.667 19 84 19
s59.333 -6.33301 84 -19s45.5 -30 62.5 -52s29.833 -47.167 38.5 -75.5s13 -58.166 13 -89.499s-4.33301 -61.166 -13 -89.499s-21.5 -53.5 -38.5 -75.5s-37.833 -39.333 -62.5 -52s-52.667 -19 -84 -19s-59.333 6.33301 -84 19s-45.5 30 -62.5 52
s-29.833 47.167 -38.5 75.5s-13 58.166 -13 89.499z" />
    <glyph glyph-name="odieresis" unicode="&#xf6;" horiz-adv-x="537" 
d="M211 594v103h-44v-103h44zM369 594v103h-44v-103h44zM32 257c0 -36.667 5.33203 -71.332 15.999 -103.999s26 -61.334 46 -86.001s44.833 -44 74.5 -58s62.834 -21 99.501 -21s69.667 7 99 21s54.333 33.5 75 58.5s36.167 53.667 46.5 86s15.5 66.833 15.5 103.5
s-5.16699 71.334 -15.5 104.001s-25.666 61.334 -45.999 86.001s-45.333 44 -75 58s-62.834 21 -99.501 21s-69.667 -7 -99 -21s-54.333 -33.333 -75 -58s-36.167 -53.334 -46.5 -86.001s-15.5 -67.334 -15.5 -104.001zM69.999 257.002c0 31.333 4.33301 61.166 13 89.499
s21.5 53.5 38.5 75.5s37.833 39.333 62.5 52s52.667 19 84 19s59.333 -6.33301 84 -19s45.5 -30 62.5 -52s29.833 -47.167 38.5 -75.5s13 -58.166 13 -89.499s-4.33301 -61.166 -13 -89.499s-21.5 -53.5 -38.5 -75.5s-37.833 -39.333 -62.5 -52s-52.667 -19 -84 -19
s-59.333 6.33301 -84 19s-45.5 30 -62.5 52s-29.833 47.167 -38.5 75.5s-13 58.166 -13 89.499z" />
    <glyph glyph-name="divide" unicode="&#xf7;" horiz-adv-x="600" 
d="M552 233v38h-504v-38h504zM250 452c0 -14 5 -26 15 -36s22 -15 36 -15s26.167 5 36.5 15s15.5 22 15.5 36c0 14.667 -5.16699 27 -15.5 37s-22.5 15 -36.5 15s-26 -5 -36 -15s-15 -22.333 -15 -37zM250 51c0 -14 5 -26 15 -36s22 -15 36 -15s26.167 5 36.5 15
s15.5 22 15.5 36c0 14.667 -5.16699 27 -15.5 37s-22.5 15 -36.5 15s-26 -5 -36 -15s-15 -22.333 -15 -37z" />
    <glyph glyph-name="oslash" unicode="&#xf8;" horiz-adv-x="537" 
d="M109 112c-26 40 -39 88.334 -39 145.001c0 31.333 4.33301 61.166 13 89.499s21.5 53.5 38.5 75.5s37.833 39.333 62.5 52s52.667 19 84 19c29.333 0 56 -5.83301 80 -17.5s44 -27.5 60 -47.5zM428 400.001c25.333 -40 37.999 -87.668 37.999 -143.001
c0 -31.333 -4.33301 -61.166 -13 -89.499s-21.5 -53.5 -38.5 -75.5s-37.833 -39.333 -62.5 -52s-52.667 -19 -84 -19c-57.333 0 -103.666 21 -138.999 63zM512.999 490l-24.001 23.002l-55 -58c-19.333 22.667 -43.166 40.167 -71.499 52.5s-59.833 18.5 -94.5 18.5
c-36.667 0 -69.667 -7 -99 -21s-54.333 -33.333 -75 -58s-36.167 -53.334 -46.5 -86.001s-15.5 -67.334 -15.5 -104.001c0 -68.667 16.667 -126.334 50 -173.001l-57 -61l24 -23l54 57c20 -21.333 44 -38.166 72 -50.499s59 -18.5 93 -18.5c36.667 0 69.667 7 99 21
s54.333 33.5 75 58.5s36.167 53.667 46.5 86s15.5 66.833 15.5 103.5c0 67.333 -16.333 124.333 -49 171z" />
    <glyph glyph-name="ugrave" unicode="&#xf9;" horiz-adv-x="519" 
d="M317 591l-120 140h-51l134 -140h37zM463 514h-38.002v-278c0 -64 -16.667 -115.833 -50 -155.5s-78.333 -59.5 -135 -59.5c-32.667 0 -59.167 5.83301 -79.5 17.5s-35.166 26.334 -44.499 44.001s-15.333 35.167 -18 52.5s-4 35.333 -4 54v325h-38v-318
c0 -24 1.33301 -46.5 4 -67.5s9.83398 -42.333 21.501 -64s30.334 -39.834 56.001 -54.501s59.5 -22 101.5 -22c41.333 0 79.166 11 113.499 33s57.833 51.667 70.5 89h2v-110h38v514z" />
    <glyph glyph-name="uacute" unicode="&#xfa;" horiz-adv-x="519" 
d="M202 591h37l134 140h-51zM463 514h-38.002v-278c0 -64 -16.667 -115.833 -50 -155.5s-78.333 -59.5 -135 -59.5c-32.667 0 -59.167 5.83301 -79.5 17.5s-35.166 26.334 -44.499 44.001s-15.333 35.167 -18 52.5s-4 35.333 -4 54v325h-38v-318
c0 -24 1.33301 -46.5 4 -67.5s9.83398 -42.333 21.501 -64s30.334 -39.834 56.001 -54.501s59.5 -22 101.5 -22c41.333 0 79.166 11 113.499 33s57.833 51.667 70.5 89h2v-110h38v514z" />
    <glyph glyph-name="ucircumflex" unicode="&#xfb;" horiz-adv-x="519" 
d="M239 731l-115 -140h38l97 115l98 -115h38l-116 140h-40zM463 514h-38.002v-278c0 -64 -16.667 -115.833 -50 -155.5s-78.333 -59.5 -135 -59.5c-32.667 0 -59.167 5.83301 -79.5 17.5s-35.166 26.334 -44.499 44.001s-15.333 35.167 -18 52.5s-4 35.333 -4 54v325h-38
v-318c0 -24 1.33301 -46.5 4 -67.5s9.83398 -42.333 21.501 -64s30.334 -39.834 56.001 -54.501s59.5 -22 101.5 -22c41.333 0 79.166 11 113.499 33s57.833 51.667 70.5 89h2v-110h38v514z" />
    <glyph glyph-name="udieresis" unicode="&#xfc;" horiz-adv-x="519" 
d="M202 594v103h-44v-103h44zM360 594v103h-44v-103h44zM463 514h-38.002v-278c0 -64 -16.667 -115.833 -50 -155.5s-78.333 -59.5 -135 -59.5c-32.667 0 -59.167 5.83301 -79.5 17.5s-35.166 26.334 -44.499 44.001s-15.333 35.167 -18 52.5s-4 35.333 -4 54v325h-38v-318
c0 -24 1.33301 -46.5 4 -67.5s9.83398 -42.333 21.501 -64s30.334 -39.834 56.001 -54.501s59.5 -22 101.5 -22c41.333 0 79.166 11 113.499 33s57.833 51.667 70.5 89h2v-110h38v514z" />
    <glyph glyph-name="yacute" unicode="&#xfd;" horiz-adv-x="444" 
d="M165 591h37l134 140h-51zM209 3c-14 -38.667 -24.667 -66.8311 -32 -84.498s-14.333 -29.834 -21 -36.501c-12.667 -12.667 -26.834 -21.334 -42.501 -26.001s-37.167 -7 -64.5 -7v-33c32.667 0 57.667 1.33301 75 4s32.333 9 45 19c10 8 19.333 20 28 36
s19.334 39.333 32.001 70l220 569h-43l-176 -469l-191 469h-45z" />
    <glyph glyph-name="thorn" unicode="&#xfe;" 
d="M292 21c-34.667 0 -64.335 6.32812 -89.002 18.9951s-44.167 29.834 -58.5 51.501s-24.666 46.334 -30.999 74.001s-9.5 57.834 -9.5 90.501c0 32 3.5 62.167 10.5 90.5s18 53.5 33 75.5s34.5 39.333 58.5 52s52.667 19 86 19s62.333 -6.5 87 -19.5
s44.834 -30.833 60.501 -53.5s27.167 -48.167 34.5 -76.5s11 -57.5 11 -87.5c0 -32.667 -3.83301 -63.167 -11.5 -91.5s-19.5 -53.166 -35.5 -74.499s-36.167 -38.166 -60.5 -50.499s-52.833 -18.5 -85.5 -18.5zM64.999 -184.005l37.999 0.000976562v291h2
c14.667 -40 38.334 -69.833 71.001 -89.5s71.334 -29.5 116.001 -29.5c76 0 133.5 24.333 172.5 73s58.5 113.667 58.5 195c0 37.333 -4.66699 72.166 -14 104.499s-23.666 61 -42.999 86s-43.5 44.5 -72.5 58.5s-62.833 21 -101.5 21
c-26.667 0 -50.834 -4.16699 -72.501 -12.5s-40.167 -19 -55.5 -32s-27.833 -27 -37.5 -42s-16.834 -29.5 -21.501 -43.5h-2v318h-38v-898z" />
    <glyph glyph-name="ydieresis" unicode="&#xff;" horiz-adv-x="444" 
d="M165 594v103h-44v-103h44zM323 594v103h-44v-103h44zM209 3c-14 -38.667 -24.667 -66.8311 -32 -84.498s-14.333 -29.834 -21 -36.501c-12.667 -12.667 -26.834 -21.334 -42.501 -26.001s-37.167 -7 -64.5 -7v-33c32.667 0 57.667 1.33301 75 4s32.333 9 45 19
c10 8 19.333 20 28 36s19.334 39.333 32.001 70l220 569h-43l-176 -469l-191 469h-45z" />
    <glyph glyph-name="OE" unicode="&#x152;" horiz-adv-x="1056" 
d="M573 127c0 -6.66699 -2.83203 -13.833 -8.49902 -21.5s-13 -15.167 -22 -22.5s-18.167 -14 -27.5 -20s-18 -11 -26 -15c-18.667 -10 -38.5 -17 -59.5 -21s-43.167 -6 -66.5 -6c-47.333 0 -89.333 8.66699 -126 26s-67 41.166 -91 71.499s-41.833 65.666 -53.5 105.999
s-17.5 83.5 -17.5 129.5s6.5 89.333 19.5 130s32.167 76.834 57.5 108.501s56.666 56.334 93.999 74.001s79.333 26.5 126 26.5c52.667 0 100.667 -14.667 144 -44c14 -9.33301 27 -20.5 39 -33.5s18 -25.5 18 -37.5v-451zM617.001 676.001h422.003v38h-466v-66
c-24.667 26.667 -55.334 47.167 -92.001 61.5s-74.334 21.5 -113.001 21.5c-52.667 0 -100.167 -9.83301 -142.5 -29.5s-78 -47 -107 -82s-50.833 -75.167 -65.5 -120.5s-22 -93.666 -22 -144.999c0 -52 7.33301 -100.667 22 -146s36 -84.833 64 -118.5
s62.667 -59.834 104 -78.501s87.666 -28 138.999 -28c49.333 0 92.333 8 129 24s64 35.667 82 59h2v-66h468v38h-424v314h378v38h-378v286z" />
    <glyph glyph-name="oe" unicode="&#x153;" horiz-adv-x="889" 
d="M252 21c-31.333 0 -58.499 6.16504 -81.499 18.498s-42 29 -57 50s-26 45.333 -33 73s-10.5 56.834 -10.5 87.501c0 30 3.16699 59.167 9.5 87.5s16.5 54.333 30.5 78s33 42.5 57 56.5s52.667 21 86 21c31.333 0 58.166 -6.5 80.499 -19.5s40.333 -30.833 54 -53.5
s23.5 -48.334 29.5 -77.001s9 -59.667 9 -93c0 -28.667 -2.66699 -56.167 -8 -82.5s-14.5 -50.666 -27.5 -72.999s-31 -40.166 -54 -53.499s-51.167 -20 -84.5 -20zM857.001 251.998v11l1 10c0 34 -4.33301 66.167 -13 96.5s-21.667 57.333 -39 81s-39.5 42.167 -66.5 55.5
s-58.5 20 -94.5 20c-105.333 0 -171.666 -50.667 -198.999 -152h-2c-10.667 48 -32.667 85.333 -66 112s-74.666 40 -123.999 40c-37.333 0 -70 -7.16699 -98 -21.5s-51.167 -34.333 -69.5 -60s-32 -55.167 -41 -88.5s-13.5 -68.666 -13.5 -105.999
c0 -35.333 4 -68.666 12 -99.999s20.667 -59.166 38 -83.499s40.166 -43.5 68.499 -57.5s61.833 -21 100.5 -21c51.333 0 92.833 12.833 124.5 38.5s54.167 63.167 67.5 112.5h2c9.33301 -48 31.5 -85.167 66.5 -111.5s79.5 -39.5 133.5 -39.5c56 0 101.5 16 136.5 48
s58.833 76.333 71.5 133h-38c-10.667 -46 -30.334 -82.167 -59.001 -108.5s-65.667 -39.5 -111 -39.5c-30.667 0 -57.5 5.66699 -80.5 17s-42 26.666 -57 45.999s-26.167 41.666 -33.5 66.999s-11 52.333 -11 81c0 3.33301 0.333008 6.66602 1 9.99902v10h393z
M464.001 284.998c0 59.333 16.001 108.833 48.001 148.5s76.333 59.5 133 59.5c55.333 0 98.166 -20.167 128.499 -60.5s45.5 -89.5 45.5 -147.5h-355z" />
    <glyph glyph-name="Scaron" unicode="&#x160;" horiz-adv-x="630" 
d="M329 764l116 140h-38l-98 -115l-97 115h-38l115 -140h40zM573 510c-1.33301 38 -9.16406 71.165 -23.4971 99.498s-33.833 51.5 -58.5 69.5s-53.167 31.167 -85.5 39.5s-67.5 12.5 -105.5 12.5c-29.333 0 -58.166 -3.66699 -86.499 -11s-54.166 -18.666 -77.499 -33.999
s-41.833 -35.166 -55.5 -59.499s-20.5 -52.833 -20.5 -85.5c0 -32 6.66699 -59.167 20 -81.5s31.166 -40.166 53.499 -53.499s46.333 -23.833 72 -31.5s58.167 -15.5 97.5 -23.5l11 -2c39.333 -8 71.166 -15.333 95.499 -22s47.166 -15.667 68.499 -27
s38.166 -26.5 50.499 -45.5s18.5 -42.5 18.5 -70.5c0 -29.333 -6.33301 -54.666 -19 -75.999s-29.334 -38.333 -50.001 -51s-43 -21.834 -67 -27.501s-47.667 -8.5 -71 -8.5c-35.333 0 -68.333 3.66699 -99 11s-58 19 -82 35s-42.667 36.833 -56 62.5s-20 55.834 -20 90.501
v8v8h-44c0 -44.667 7.66699 -83.334 23 -116.001s36.666 -59 63.999 -79s59 -34.667 95 -44s75.667 -14 119 -14c29.333 0 58.5 3.66699 87.5 11s56 19.166 81 35.499s45 37.333 60 63s22.5 56.167 22.5 91.5c0 34 -6.5 62.5 -19.5 85.5s-30.833 41.5 -53.5 55.5
s-47.167 25 -73.5 33s-58.833 16 -97.5 24l-18 4c-36 7.33301 -66.167 14.166 -90.5 20.499s-46.833 15 -67.5 26s-37 25.333 -49 43s-18 39.5 -18 65.5c0 28 6 52 18 72s27.833 35.833 47.5 47.5s40.834 20 63.501 25s45 7.5 67 7.5c68 0 122.5 -15.667 163.5 -47
s62.833 -76.666 65.5 -135.999h44z" />
    <glyph glyph-name="scaron" unicode="&#x161;" horiz-adv-x="481" 
d="M254 591l116 140h-38l-98 -115l-97 115h-38l115 -140h40zM36 171c1.33301 -58 21.165 -103.008 59.498 -135.008s87.833 -48 148.5 -48c24 0 47.667 2.33301 71 7s44.833 12.5 64.5 23.5s35.5 25.833 47.5 44.5s18 41 18 67s-4.5 47.833 -13.5 65.5
s-21.5 31.834 -37.5 42.501s-34.167 19 -54.5 25s-45.833 12 -76.5 18c-4 0.666992 -9.33301 1.66699 -16 3c-26 6 -47 11.167 -63 15.5s-31.167 10.333 -45.5 18s-25.666 17.834 -33.999 30.501s-12.5 28 -12.5 46c0 17.333 4.16699 32.5 12.5 45.5
s19.666 23.333 33.999 31s30.166 13.334 47.499 17.001s35.333 5.5 54 5.5c46 0 82.667 -10.667 110 -32s41.333 -54.333 42 -99h38c0 56 -17.167 97.333 -51.5 124s-80.5 40 -138.5 40c-23.333 0 -45.833 -2.16699 -67.5 -6.5s-41.5 -11.666 -59.5 -21.999
s-32.333 -24.166 -43 -41.499s-16 -38 -16 -62c0 -24.667 4.83301 -45.667 14.5 -63s22.667 -31.166 39 -41.499s34.333 -18.5 54 -24.5s42.834 -11.667 69.501 -17l14 -3c26.667 -5.33301 48.667 -10.333 66 -15s33.333 -11 48 -19s26.334 -18.5 35.001 -31.5
s13 -29.5 13 -49.5c0 -21.333 -5 -39.166 -15 -53.499s-23.167 -25.5 -39.5 -33.5s-33.666 -13.667 -51.999 -17s-37.166 -5 -56.499 -5c-47.333 0 -86.833 13.333 -118.5 40s-48.834 63.334 -51.501 110.001h-38z" />
    <glyph glyph-name="Ydieresis" unicode="&#x178;" horiz-adv-x="574" 
d="M230 767v103h-44v-103h44zM388 767v103h-44v-103h44zM287 336l-258 378h-50l285 -415v-299h44v299l287 415h-49z" />
    <glyph glyph-name="florin" unicode="&#x192;" 
d="M5 -178c19.333 -4 37.001 -6 53.001 -6c26.667 0 49.167 5.83301 67.5 17.5s33 26.167 44 43.5s19.167 34.833 24.5 52.5s10 36.834 14 57.501l80 409h121l5 33h-120l32 164c7.33301 34.667 20.166 60 38.499 76s40.5 24 66.5 24c15.333 0 33.333 -2 54 -6l8 38
c-17.333 4 -37.666 6 -60.999 6c-42.667 0 -75.834 -12.5 -99.501 -37.5s-39.5 -56.833 -47.5 -95.5l-33 -169h-111l-7 -33h112l-79 -404c-8 -42.667 -20.667 -76.334 -38 -101.001s-39.666 -37 -66.999 -37c-14.667 0 -31.334 1.66699 -50.001 5z" />
    <glyph glyph-name="circumflex" unicode="&#x2c6;" horiz-adv-x="167" 
d="M63 731l-115 -140h38l97 115l98 -115h38l-116 140h-40z" />
    <glyph glyph-name="tilde" unicode="&#x2dc;" horiz-adv-x="167" 
d="M-32 602c2.66699 15.333 7.66797 28.666 15.001 39.999s17.333 17 30 17c10.667 0 21.167 -2.33301 31.5 -7s23.166 -11.667 38.499 -21l4 -3c14 -8 25.833 -14.333 35.5 -19s19.5 -7 29.5 -7c12 0 22.5 2.66699 31.5 8s16.833 12.333 23.5 21
c10.667 14 17.667 34.333 21 61h-29c-2 -15.333 -6.83301 -28.666 -14.5 -39.999s-17.834 -17 -30.501 -17c-10.667 0 -28 7 -52 21c-7.33301 4 -12.666 7 -15.999 9l-7 4c-28 15.333 -49 23 -63 23c-22 0 -39.833 -9 -53.5 -27s-21.5 -39 -23.5 -63h29z" />
    <glyph glyph-name="endash" unicode="&#x2013;" horiz-adv-x="500" 
d="M0 253h500v38h-500v-38z" />
    <glyph glyph-name="emdash" unicode="&#x2014;" horiz-adv-x="1000" 
d="M130 253h740v38h-740v-38z" />
    <glyph glyph-name="quoteleft" unicode="&#x2018;" horiz-adv-x="204" 
d="M143 714c-22.667 -8 -39 -23.499 -49 -46.499s-15 -49.5 -15 -79.5v-103h51v103h-21c0 19.333 2.5 38.166 7.5 56.499s13.833 30.5 26.5 36.5v33z" />
    <glyph glyph-name="quoteright" unicode="&#x2019;" horiz-adv-x="204" 
d="M125 714l-51 -0.00195312v-103h21c0 -19.333 -2.5 -38.166 -7.5 -56.499s-13.833 -30.5 -26.5 -36.5v-33c22.667 8.66699 39 24.334 49 47.001s15 49 15 79v103z" />
    <glyph glyph-name="quotesinglbase" unicode="&#x201a;" horiz-adv-x="204" 
d="M125 103l-51 -0.000976562v-103h21c0 -19.333 -2.5 -38.166 -7.5 -56.499s-13.833 -30.5 -26.5 -36.5v-33c22.667 8 39 23.5 49 46.5s15 49.5 15 79.5v103z" />
    <glyph glyph-name="quotedblleft" unicode="&#x201c;" horiz-adv-x="315" 
d="M128 714c-22.667 -8 -39 -23.499 -49 -46.499s-15 -49.5 -15 -79.5v-103h51v103h-21c0 19.333 2.5 38.166 7.5 56.499s13.833 30.5 26.5 36.5v33zM254 714.001c-22.667 -8 -39 -23.499 -49 -46.499s-15 -49.5 -15 -79.5v-103h51v103h-21c0 19.333 2.5 38.166 7.5 56.499
s13.833 30.5 26.5 36.5v33z" />
    <glyph glyph-name="quotedblright" unicode="&#x201d;" horiz-adv-x="315" 
d="M251 714l-51 -0.00195312v-103h21c0 -19.333 -2.5 -38.166 -7.5 -56.499s-13.833 -30.5 -26.5 -36.5v-33c22.667 8.66699 39 24.334 49 47.001s15 49 15 79v103zM125 713.998l-51 -0.00195312v-103h21c0 -19.333 -2.5 -38.166 -7.5 -56.499s-13.833 -30.5 -26.5 -36.5
v-33c22.667 8.66699 39 24.334 49 47.001s15 49 15 79v103z" />
    <glyph glyph-name="quotedblbase" unicode="&#x201e;" horiz-adv-x="315" 
d="M251 103l-51 -0.000976562v-103h21c0 -19.333 -2.5 -38.166 -7.5 -56.499s-13.833 -30.5 -26.5 -36.5v-33c22.667 8 39 23.5 49 46.5s15 49.5 15 79.5v103zM125 102.999l-51 -0.000976562v-103h21c0 -19.333 -2.5 -38.166 -7.5 -56.499s-13.833 -30.5 -26.5 -36.5v-33
c22.667 8 39 23.5 49 46.5s15 49.5 15 79.5v103z" />
    <glyph glyph-name="dagger" unicode="&#x2020;" 
d="M54 514v-33h205v-627h38v627h205v33h-205v200h-38v-200h-205z" />
    <glyph glyph-name="daggerdbl" unicode="&#x2021;" 
d="M259 714v-200h-205v-33h205v-394h-205v-33h205v-200h38v200h205v33h-205v394h205v33h-205v200h-38z" />
    <glyph glyph-name="bullet" unicode="&#x2022;" horiz-adv-x="500" 
d="M72 357c0 -24.667 4.6709 -47.833 14.0039 -69.5s22.166 -40.667 38.499 -57s35.333 -29.166 57 -38.499s44.5 -14 68.5 -14s47 4.5 69 13.5s41.333 21.833 58 38.5s29.5 36 38.5 58s13.5 45 13.5 69c0 24.667 -4.5 47.667 -13.5 69s-21.833 40.333 -38.5 57
s-35.834 29.5 -57.501 38.5s-44.834 13.5 -69.501 13.5s-47.834 -4.5 -69.501 -13.5s-40.667 -21.667 -57 -38s-29 -35.333 -38 -57s-13.5 -44.834 -13.5 -69.501z" />
    <glyph glyph-name="ellipsis" unicode="&#x2026;" horiz-adv-x="1000" 
d="M141 0h51v103h-51v-103zM474 0h51v103h-51v-103zM807 0h51v103h-51v-103z" />
    <glyph glyph-name="perthousand" unicode="&#x2030;" horiz-adv-x="1074" 
d="M105 -24h40l465 738h-40zM527 -12c47.333 0 84.332 15.668 110.999 47.001s40 72.333 40 123c0 49.333 -13.5 89.666 -40.5 120.999s-63.833 47 -110.5 47c-45.333 0 -82.166 -16 -110.499 -48s-42.5 -72 -42.5 -120c0 -52 13 -93.333 39 -124s64 -46 114 -46z
M524.999 21.001c-38.667 0 -67.167 12.5 -85.5 37.5s-27.5 58.167 -27.5 99.5c0 40 9.83301 72.5 29.5 97.5s47.5 37.5 83.5 37.5c35.333 0 63.333 -13 84 -39s31 -58 31 -96c0 -40 -10.167 -72.833 -30.5 -98.5s-48.5 -38.5 -84.5 -38.5zM881.999 -11.999
c47.333 0 84.5 15.6689 111.5 47.002s40.5 72.333 40.5 123c0 49.333 -13.667 89.666 -41 120.999s-64.333 47 -111 47c-45.333 0 -82 -15.833 -110 -47.5s-42 -71.834 -42 -120.501c0 -52 13 -93.333 39 -124s63.667 -46 113 -46zM881.999 21.0029
c-38.667 0 -67.333 12.501 -86 37.501s-28 58.167 -28 99.5c0 40 10 72.5 30 97.5s48 37.5 84 37.5s64 -12.833 84 -38.5s30 -57.834 30 -96.501c0 -40 -10 -72.833 -30 -98.5s-48 -38.5 -84 -38.5zM193 702.004c-45.333 0 -82.166 -15.834 -110.499 -47.501
s-42.5 -71.5 -42.5 -119.5c0 -52 13.167 -93.5 39.5 -124.5s64.166 -46.5 113.499 -46.5c47.333 0 84.333 15.833 111 47.5s40 72.834 40 123.501c0 49.333 -13.5 89.5 -40.5 120.5s-63.833 46.5 -110.5 46.5zM192 669.003c36 0 64.001 -12.832 84.001 -38.499
s30 -57.5 30 -95.5c0 -40 -9.83301 -73 -29.5 -99s-47.834 -39 -84.501 -39c-38.667 0 -67.334 12.667 -86.001 38s-28 58.666 -28 99.999c0 40 9.83301 72.333 29.5 97s47.834 37 84.501 37z" />
    <glyph glyph-name="guilsinglleft" unicode="&#x2039;" horiz-adv-x="259" 
d="M181 121v49l-85 102l85 100v51l-114 -131v-40z" />
    <glyph glyph-name="guilsinglright" unicode="&#x203a;" horiz-adv-x="259" 
d="M78 121l114 131v40l-114 131v-51l85 -100l-85 -102v-49z" />
    <glyph glyph-name="trademark" unicode="&#x2122;" horiz-adv-x="990" 
d="M404 714h-319v-33h144v-379h32v379h143v33zM542 714h-59v-412h32v379h3l167 -379h18l167 379h3v-379h32v412h-59l-152 -346z" />
    </font>
</defs>
</svg>
